<?xml version="1.0" encoding="utf-8"?>
<!-- Generator: Adobe Illustrator 22.0.1, SVG Export Plug-In . SVG Version: 6.00 Build 0)  -->
<svg version="1.1" id="ps_x5F_cc_x5F_app_x5F_RGB.svg"
	 xmlns="http://www.w3.org/2000/svg" xmlns:xlink="http://www.w3.org/1999/xlink" x="0px" y="0px" viewBox="0 0 512 512"
	 style="enable-background:new 0 0 512 512;" xml:space="preserve">
<style type="text/css">
	.st0{fill:#FF26BE;}
	.st1{fill:#B01C83;}
	.st2{fill:#2E001F;}
	.st3{fill:#210015;}
	.st4{fill:#FFD9F2;}
</style>
<path class="st0" d="M512,512H0V0h512V512z"/>
<path class="st1" d="M512,512H256V0h256V512z"/>
<path class="st2" d="M482,482H30V30h452V482z"/>
<path class="st3" d="M482,482H256V30h226V482z"/>
<path class="st4" d="M209.2,264.7l44.2,85c0.8,1.3,0.3,2.5-0.9,2.5H225c-1.7,0-2.5-0.5-3.3-2.1c-10.1-20.8-20.4-41.7-31-64.1h-0.3
	c-9.5,21.2-19.9,43.4-30,64.3c-0.8,1.3-1.6,1.7-2.8,1.7h-26.1c-1.6,0-1.7-1.3-0.9-2.2l43.3-82.5L132,184c-0.9-1.3,0-2.2,0.9-2.2
	h27.2c1.6,0,2.2,0.3,2.8,1.7c10,20.8,20.1,42.3,29.5,63.3h0.3c9.2-20.8,19.3-42.5,29.1-63.2c0.8-1.3,1.3-2.1,2.8-2.1H250
	c1.3,0,1.7,0.9,0.9,2.2L209.2,264.7z M261.2,290.4c0-36.8,24.5-65.5,63.3-65.5c3.3,0,5.1,0,8.2,0.3v-41.9c0-0.9,0.8-1.6,1.6-1.6h25
	c1.3,0,1.6,0.5,1.6,1.3v145c0,4.3,0,9.6,0.8,15.5c0,0.9-0.3,1.3-1.3,1.7c-13.3,6.3-27.2,9.2-40.4,9.2
	C285.7,354.6,261.2,333.4,261.2,290.4z M332.7,250c-2.2-0.9-5.4-1.6-9.2-1.6c-19.9,0-33.8,15.3-33.8,40.8
	c0,29.1,14.2,40.8,32.1,40.8c3.8,0,7.9-0.5,10.9-1.7V250z"/>
</svg>
