<?xml version="1.0" encoding="utf-8"?>
<!-- Generator: Adobe Illustrator 22.0.1, SVG Export Plug-In . SVG Version: 6.00 Build 0)  -->
<svg version="1.1" id="Layer_1" xmlns="http://www.w3.org/2000/svg" xmlns:xlink="http://www.w3.org/1999/xlink" x="0px" y="0px"
	 viewBox="0 0 512 512" style="enable-background:new 0 0 512 512;" xml:space="preserve">
<style type="text/css">
	.st0{fill:#FFFFFF;}
	.st1{fill:#563D7C;}
</style>
<rect class="st0" width="512" height="512"/>
<path class="st1" d="M12.4,436.8c0,34.7,28.1,62.8,62.8,62.8h361.5c34.7,0,62.8-28.1,62.8-62.8V75.2c0-34.7-28.1-62.8-62.8-62.8
	H75.2c-34.7,0-62.8,28.1-62.8,62.8V436.8L12.4,436.8z"/>
<path class="st0" d="M212.3,226.5V154h63.8c6.1,0,11.9,0.5,17.6,1.5c5.6,1,10.6,2.8,15,5.4c4.3,2.6,7.8,6.2,10.4,10.9
	c2.6,4.6,3.9,10.6,3.9,17.8c0,13-3.9,22.4-11.7,28.2c-7.8,5.8-17.8,8.7-30,8.7L212.3,226.5L212.3,226.5z M144.1,101v310h150.2
	c13.9,0,27.4-1.7,40.6-5.2s24.9-8.8,35.2-16.1c10.3-7.2,18.5-16.6,24.5-28c6.1-11.4,9.1-25,9.1-40.6c0-19.4-4.7-36-14.1-49.7
	c-9.4-13.8-23.7-23.4-42.8-28.9c13.9-6.7,24.4-15.2,31.5-25.6c7.1-10.4,10.6-23.4,10.6-39.1c0-14.5-2.4-26.6-7.2-36.5
	c-4.8-9.8-11.5-17.7-20.2-23.7c-8.7-5.9-19.1-10.2-31.3-12.8c-12.2-2.6-25.6-3.9-40.4-3.9L144.1,101L144.1,101z M212.3,358v-85.1
	h74.2c14.8,0,26.6,3.4,35.6,10.2c9,6.8,13.5,18.2,13.5,34.1c0,8.1-1.4,14.8-4.1,20s-6.4,9.3-11.1,12.4c-4.6,3-10,5.2-16.1,6.5
	c-6.1,1.3-12.4,2-19.1,2H212.3L212.3,358z"/>
</svg>
