<?xml version="1.0" encoding="utf-8"?>
<!-- Generator: Adobe Illustrator 22.0.1, SVG Export Plug-In . SVG Version: 6.00 Build 0)  -->
<svg version="1.1" id="Layer_1" xmlns="http://www.w3.org/2000/svg" xmlns:xlink="http://www.w3.org/1999/xlink" x="0px" y="0px"
	 viewBox="0 0 512 510.3" style="enable-background:new 0 0 512 510.3;" xml:space="preserve">
<style type="text/css">
	.st0{fill:#2FD77A;}
	.st1{fill:#22A65F;}
	.st2{fill:#2D4236;}
	.st3{fill:#0E1511;}
</style>
<title>cap7</title>
<path class="st0" d="M512,510.3H0V0.3h512V510.3z"/>
<path class="st1" d="M512,510.3H256V0.3h256V510.3z"/>
<path class="st2" d="M482,480.5H30V30.2h452V480.5z"/>
<path class="st3" d="M482,480.5H256V30.2h226V480.5z"/>
<path class="st0" d="M214.1,181.6c9.6-1,19.4,0.1,28.5,3.3c0,0,0,0,0,2.5v23c0,2.1,0,2.1,0,0c-8.6-3.6-17.9-5.1-27.3-4.5
	c-29.3,0-49.6,22.6-49.6,60.5c0,48.1,28.5,60.1,48.7,60.1c9.4,0.8,18.9-0.6,27.7-4.1l0,0v22.2c0.6,1,0.6,2.3,0,3.3
	c-10.4,3.8-21.6,5.1-32.6,3.7c-36.8,0-71.5-23.5-71.5-86c-3-43.3,29.8-80.8,73.3-83.8C212.3,181.6,213.2,181.6,214.1,181.6z"/>
<path class="st1" d="M322.4,226c-16.2,0.8-32.1,4.3-47.1,10.3c0,3.7,0,11.5,0,14.8v145.7l24-2.5v-2.1v-34.6h9.1
	c1.3,0,2.6-0.1,3.9-0.2c36.4-2.5,60.8-36.8,61.8-74.5C375.6,253.1,352.4,227.6,322.4,226z M309.2,333c-3.3,0.6-6.6,0.6-9.9,0v-80.2
	v-1.2c5.3-1.8,10.9-2.7,16.5-2.9c17.4,0,29.7,8.6,29.7,38.7C345.5,317.4,329,333,309.2,333z"/>
</svg>
