<?xml version="1.0" encoding="utf-8"?>
<!-- Generator: Adobe Illustrator 22.0.1, SVG Export Plug-In . SVG Version: 6.00 Build 0)  -->
<svg version="1.1" id="Layer_1" xmlns="http://www.w3.org/2000/svg" xmlns:xlink="http://www.w3.org/1999/xlink" x="0px" y="0px"
	 viewBox="0 0 512 512" style="enable-background:new 0 0 512 512;" xml:space="preserve">
<style type="text/css">
	.st0{fill:#FFFFFF;}
	.st1{fill:#2062AF;}
	.st2{fill:#3C9CD7;}
	.st3{fill:url(#SVGID_1_);}
	.st4{fill:url(#SVGID_2_);}
	.st5{fill:url(#SVGID_3_);}
	.st6{opacity:5.000000e-02;enable-background:new    ;}
	.st7{fill:url(#SVGID_4_);}
</style>
<rect class="st0" width="512" height="512"/>
<g>
	<path class="st1" d="M425.9,450.7L256,496.5L86.1,450.7L46.9,26.1h418.2L425.9,450.7z"/>
	<path class="st2" d="M256,60.5V460l0.4,0.1l137.5-37l31.7-362.6L256,60.5L256,60.5z"/>
	<path class="st0" d="M255.8,166.6l-121.6,50.6l4,50.1l117.6-50.3l125-53.5l5.2-51.3L255.8,166.6L255.8,166.6z"/>
	
		<linearGradient id="SVGID_1_" gradientUnits="userSpaceOnUse" x1="-1338.9202" y1="-933.5735" x2="-1338.9202" y2="-955.2833" gradientTransform="matrix(4.6418 0 0 4.6418 6410.0493 4600.8799)">
		<stop  offset="0.387" style="stop-color:#D1D3D4;stop-opacity:0"/>
		<stop  offset="1" style="stop-color:#D1D3D4"/>
	</linearGradient>
	<path class="st3" d="M134.3,217.3l4,50.1l117.6-50.3v-50.5L134.3,217.3z"/>
	
		<linearGradient id="SVGID_2_" gradientUnits="userSpaceOnUse" x1="-1311.7947" y1="-944.4017" x2="-1311.7947" y2="-966.9681" gradientTransform="matrix(4.6418 0 0 4.6418 6410.0493 4600.8799)">
		<stop  offset="0.387" style="stop-color:#D1D3D4;stop-opacity:0"/>
		<stop  offset="1" style="stop-color:#D1D3D4"/>
	</linearGradient>
	<path class="st4" d="M386.1,112.4l-130.2,54.2v50.5l125-53.5L386.1,112.4z"/>
	
		<linearGradient id="SVGID_3_" gradientUnits="userSpaceOnUse" x1="-1351.9768" y1="-923.8907" x2="-1299.8348" y2="-923.8907" gradientTransform="matrix(4.6418 0 0 4.6418 6410.0493 4600.8799)">
		<stop  offset="0" style="stop-color:#E8E7E5"/>
		<stop  offset="1" style="stop-color:#FFFFFF"/>
	</linearGradient>
	<path class="st5" d="M134.4,217.3l4,50.1l180.4,0.6l-4,66.8l-59.4,16.7l-57.1-14.4l-3.5-41.5h-53l6.9,80.1L256,407.4l106.6-31.1
		l13.8-159H134.4z"/>
	<path class="st6" d="M255.8,217.3H134.3l4,50.1l117.6,0.4L255.8,217.3L255.8,217.3z M255.8,351.4l-0.6,0.2l-57-14.4l-3.5-41.5h-53
		l6.9,80.1l107.2,31.7V351.4z"/>
	
		<linearGradient id="SVGID_4_" gradientUnits="userSpaceOnUse" x1="-1354.3759" y1="-961.4437" x2="-1297.7665" y2="-961.4437" gradientTransform="matrix(4.6418 0 0 4.6418 6410.0493 4600.8799)">
		<stop  offset="0" style="stop-color:#E8E7E5"/>
		<stop  offset="1" style="stop-color:#FFFFFF"/>
	</linearGradient>
	<path class="st7" d="M123.3,112.4h262.8l-5.2,51.3H129.6L123.3,112.4L123.3,112.4z"/>
	<path class="st6" d="M255.8,112.4H123.3l6.3,51.3h126.2L255.8,112.4L255.8,112.4z"/>
</g>
</svg>
