<?xml version="1.0" encoding="utf-8"?>
<!-- Generator: Adobe Illustrator 22.0.1, SVG Export Plug-In . SVG Version: 6.00 Build 0)  -->
<svg version="1.1" id="Capa_1" xmlns="http://www.w3.org/2000/svg" xmlns:xlink="http://www.w3.org/1999/xlink" x="0px" y="0px"
	 viewBox="0 0 512 512" style="enable-background:new 0 0 512 512;" xml:space="preserve">
<style type="text/css">
	.st0{fill:#FFFFFF;}
	.st1{fill:#F2F2F2;}
	.st2{fill:#222123;}
</style>
<rect class="st0" width="512" height="512"/>
<path class="st1" d="M483,256c0,113.5-83.3,207.5-192,224.3c-2.5,0.4-4.9,0.7-7.4,1c-8,1-16.1,1.5-24.3,1.6c-1.1,0-2.2,0-3.2,0
	c-1.1,0-2.2,0-3.2,0c-8.2-0.1-16.3-0.7-24.3-1.6c-2.5-0.3-5-0.6-7.4-1C112.3,463.5,29,369.5,29,256C29,130.6,130.6,29,256,29
	S483,130.6,483,256z"/>
<g>
	<path class="st2" d="M483,256c0,8.6-0.5,17-1.4,25.3c-0.1,0.9-0.2,1.9-0.3,2.8c-0.6,4.7-1.3,9.4-2.2,14c-0.2,0.9-0.3,1.8-0.5,2.7
		c-16,80.2-74.3,145.1-150.7,170.6c-11.5,2.2-15.6-4.8-15.6-10.9c0-7.5,0.3-31.9,0.3-62.3c0-21.2-7.3-35-15.4-42
		c39.3-4.4,80.2-17,96.4-63.4c0.3-0.9,0.6-1.8,0.9-2.8c0.9-2.8,1.7-5.8,2.4-8.8c0.2-0.9,0.4-1.8,0.6-2.8c2.1-10.1,3.3-21.4,3.3-34.2
		c0-24.8-8.8-45-23.4-60.9c2.4-5.7,10.1-28.8-2.2-60.1c0,0-19-6.1-62.4,23.3c-18.1-5-37.6-7.6-56.9-7.6c-19.3,0.1-38.7,2.6-56.8,7.6
		c-43.4-29.4-62.4-23.3-62.4-23.3c-12.3,31.3-4.5,54.4-2.2,60.1c-14.5,15.9-23.4,36.2-23.4,60.9c0,12.8,1.1,24.2,3.3,34.2
		c0.2,0.9,0.4,1.9,0.6,2.8c0.7,3.1,1.5,6,2.4,8.9c0.3,0.9,0.6,1.9,0.9,2.8c16.2,46.3,57,59.1,96.2,63.6
		c-6.5,5.7-12.4,15.7-14.4,30.4c-13,5.8-45.8,15.8-66.1-18.9c0,0-12-21.8-34.8-23.4c0,0-22.2-0.3-1.5,13.8c0,0,14.9,7,25.2,33.2
		c0,0,13.3,40.5,76.5,26.8c0.1,19,0.3,36.8,0.3,42.3c0,6-4.2,13-15.5,10.9C107.8,446,49.5,381,33.4,300.8v0
		c-0.2-0.9-0.4-1.8-0.5-2.7c-0.9-4.6-1.6-9.3-2.2-14c-0.1-0.9-0.2-1.9-0.3-2.8C29.5,273,29,264.6,29,256C29,130.6,130.6,29,256,29
		C381.4,29,483,130.6,483,256z"/>
	<path class="st2" d="M113,351.5c-1.6-0.8-3.4-0.5-3.9,0.7c-0.5,1.1,0.4,2.7,2,3.4c1.6,0.8,3.4,0.4,3.9-0.7
		C115.5,353.8,114.6,352.2,113,351.5z"/>
	<path class="st2" d="M123.5,360.5c-1.5-1.6-3.5-2-4.7-1c-1.1,1-0.8,3.1,0.7,4.7c1.4,1.6,3.6,2.1,4.6,1.1
		C125.3,364.2,125,362.1,123.5,360.5z"/>
	<path class="st2" d="M133.2,372.8c-1.4-2-3.7-2.9-5.1-1.9c-1.4,1-1.4,3.4,0,5.4c1.4,2,3.7,2.9,5.1,2
		C134.5,377.3,134.5,374.8,133.2,372.8z"/>
	<path class="st2" d="M144.1,385.1c-2-1.9-4.6-2.2-5.9-0.9c-1.2,1.4-0.7,4,1.3,5.8c1.9,1.9,4.6,2.2,5.8,0.9
		C146.7,389.5,146.1,386.9,144.1,385.1z"/>
	<path class="st2" d="M158.6,393.6c-2.6-0.8-5.2,0-5.7,1.8c-0.5,1.8,1.2,3.9,3.7,4.7c2.6,0.8,5.1-0.1,5.7-1.8
		C162.8,396.4,161.2,394.3,158.6,393.6z"/>
	<path class="st2" d="M176,396.3c-2.7,0-4.8,1.6-4.8,3.5c0,1.8,2.2,3.4,4.9,3.3c2.7,0,4.9-1.6,4.8-3.5
		C180.9,397.7,178.7,396.2,176,396.3z"/>
	<path class="st2" d="M198.2,396.6c-0.3-1.9-2.8-3-5.4-2.5c-2.6,0.5-4.5,2.4-4.2,4.2c0.3,1.8,2.8,2.9,5.4,2.5
		C196.6,400.3,198.5,398.5,198.2,396.6z"/>
</g>
</svg>
