<?xml version="1.0" encoding="utf-8"?>
<!-- Generator: Adobe Illustrator 22.0.1, SVG Export Plug-In . SVG Version: 6.00 Build 0)  -->
<svg version="1.1" id="Layer_1" xmlns="http://www.w3.org/2000/svg" xmlns:xlink="http://www.w3.org/1999/xlink" x="0px" y="0px"
	 viewBox="0 0 512 512" style="enable-background:new 0 0 512 512;" xml:space="preserve">
<style type="text/css">
	.st0{fill:#FFFFFF;}
	.st1{fill:#E44D26;}
	.st2{fill:#F16529;}
	.st3{fill:#EBEBEB;}
</style>
<rect class="st0" width="512" height="512"/>
<path class="st1" d="M464.3,23.8l-38,425.4l-170.7,47.3L85.4,449.2L47.5,23.8H464.3L464.3,23.8z"/>
<path class="st2" d="M255.9,460.3l137.9-38.2l32.5-363.5H255.9V460.3z"/>
<path class="st3" d="M182.1,162.9h73.8v-52.2H125.1l1.2,14l12.8,143.8h116.8v-52.2h-69.1L182.1,162.9z M193.9,294.6h-52.4l7.3,81.9
	l106.9,29.7l0.2-0.1v-54.3l-0.2,0.1l-58.1-15.7L193.9,294.6L193.9,294.6z"/>
<path d="M-463-994h112.4v111h102.8v-111h112.4v336.3h-112.4v-112.6h-102.8v112.6H-463L-463-994L-463-994z M12.4-882.5h-98.9V-994
	h310.3v111.5h-99v224.8H12.4L12.4-882.5L12.4-882.5L12.4-882.5z M273-994h117.2l72.1,118.2l72-118.2h117.2v336.3H539.6v-166.7
	l-77.3,119.6h-1.9L383-824.4v166.7H273V-994z M707.5-994H820v225.1H978v111.1H707.5L707.5-994L707.5-994z"/>
<path class="st0" d="M255.7,268.5H320l-6.1,67.7l-58.2,15.7v54.3l107-29.6l0.8-8.8l12.3-137.4l1.3-14H255.7V268.5L255.7,268.5z
	 M255.7,162.8v0.1h126l1-11.7l2.4-26.5l1.2-14H255.7V162.8L255.7,162.8z"/>
</svg>
