<?xml version="1.0" encoding="utf-8"?>
<!-- Generator: Adobe Illustrator 22.0.1, SVG Export Plug-In . SVG Version: 6.00 Build 0)  -->
<svg version="1.1" id="Layer_1" xmlns="http://www.w3.org/2000/svg" xmlns:xlink="http://www.w3.org/1999/xlink" x="0px" y="0px"
	 viewBox="0 0 512 512" style="enable-background:new 0 0 512 512;" xml:space="preserve">
<style type="text/css">
	.st0{fill:#FFFFFF;}
	.st1{fill:#F9AE41;}
	.st2{fill:#EE4035;}
	.st3{fill:#4F91CD;}
	.st4{fill:#7AC043;}
</style>
<rect class="st0" width="512" height="512"/>
<path class="st1" d="M489.1,87.4c0-33.8-27.4-61.2-61.2-61.2c-30.9,0-56.4,22.9-60.6,52.6l-0.6-0.3c-50.1-22.6-92.2,17.4-92.2,17.4
	L162.9,207.9l44.1,42.4l89.8-88.2c41.9-41.9,64.8-13.6,64.8-13.6c31.6,26.7,1.1,58.2,1.1,58.2l45.2,43.5
	c36.9-39.8,39-74.6,27.8-102.3C465.7,144.3,489.1,118.6,489.1,87.4"/>
<path class="st2" d="M436.1,368.9c0.2-0.4,0.3-0.6,0.3-0.6c22.6-50.1-17.4-92.2-17.4-92.2L306.9,164.5l-42.4,44.1l88.2,89.8
	c41.9,41.9,13.5,64.8,13.5,64.8c-26.7,31.6-58.2,1.1-58.2,1.1l-43.5,45.2c39.8,36.9,74.6,39,102.3,27.8
	c3.8,30.2,29.5,53.5,60.7,53.5c33.8,0,61.2-27.4,61.2-61.2C488.7,398.7,465.8,373.1,436.1,368.9"/>
<path class="st3" d="M307.9,264.5l-89.8,88.2c-41.9,41.9-64.8,13.6-64.8,13.6c-31.6-26.7-1.1-58.2-1.1-58.2l-45.2-43.5
	c-36.9,39.8-39,74.6-27.8,102.3c-30.2,3.8-53.5,29.5-53.5,60.7c0,33.8,27.4,61.2,61.2,61.2c30.9,0,56.4-22.9,60.6-52.6
	c0.4,0.2,0.6,0.3,0.6,0.3c50.1,22.6,92.2-17.4,92.2-17.4L352,307L307.9,264.5"/>
<path class="st4" d="M162.1,216.5c-41.9-41.9-13.6-64.8-13.6-64.8c26.7-31.6,58.2-1.1,58.2-1.1l43.5-45.2
	c-39.8-36.9-74.6-39-102.3-27.8c-3.8-30.2-29.5-53.5-60.7-53.5c-33.8,0-61.2,27.4-61.2,61.2c0,30.9,22.9,56.4,52.6,60.6
	c-0.2,0.4-0.3,0.6-0.3,0.6c-22.6,50.1,17.4,92.2,17.4,92.2l112.1,111.6l42.4-44.1L162.1,216.5"/>
</svg>
