<?xml version="1.0" encoding="utf-8"?>
<!-- Generator: Adobe Illustrator 22.0.1, SVG Export Plug-In . SVG Version: 6.00 Build 0)  -->
<svg version="1.1" id="Layer_1" xmlns="http://www.w3.org/2000/svg" xmlns:xlink="http://www.w3.org/1999/xlink" x="0px" y="0px"
	 viewBox="0 0 512 512" style="enable-background:new 0 0 512 512;" xml:space="preserve">
<style type="text/css">
	.st0{fill:#FFFFFF;}
	.st1{fill:#21609B;}
</style>
<rect class="st0" width="512" height="512"/>
<g>
	<g>
		<path class="st1" d="M464.9,341.2l-2,5.1c-33.4,65.1-92.7,105-177.1,106.8c-39.5,0.8-77.1-9.3-101.7-20.3
			c-53-23.8-97.7-68-122-115.3c-35-67.7-41.3-161.9,31.4-232.2c1.1,0-8.8,15.3-7.7,15.3l-2,6.5c-52.4,164,109,304.5,265.8,288.4
			C387.4,391.6,435.4,370.9,464.9,341.2"/>
		<path class="st1" d="M370,273.4c39.5,0.3,80.7-18.2,105.1-44.1c-21.4,54.2-83.2,89.1-166.1,78c-69.4-9.3-135.6-79.2-142.4-149.2
			c-5-50.9,12.8-81.4,42-118.2c-10.2,19.3-14,34.2-14.9,43.7C182.6,193.8,281.8,272.8,370,273.4"/>
		<path class="st1" d="M471.1,136.5c-6.1,14.1-41.5,40.6-57.1,44c-61.8,13.2-101.3-16.1-122-49.5c-3.1-5-8.8-18.6-9.8-22
			c-8-27.3-4.3-68.7,19.6-90c-7.2,20.3-8.3,44-4.5,59.3c2.3,9.3,9.3,25.5,16.3,35.7c12.8,18.6,20.9,23.1,37.3,33
			c7.4,4.4,15.3,8,18.7,9C385.3,160.5,418.2,172.6,471.1,136.5"/>
	</g>
</g>
</svg>
