<?xml version="1.0" encoding="utf-8"?>
<!-- Generator: Adobe Illustrator 22.0.1, SVG Export Plug-In . SVG Version: 6.00 Build 0)  -->
<svg version="1.1" id="Layer_1" xmlns="http://www.w3.org/2000/svg" xmlns:xlink="http://www.w3.org/1999/xlink" x="0px" y="0px"
	 viewBox="0 0 512 512" style="enable-background:new 0 0 512 512;" xml:space="preserve">
<style type="text/css">
	.st0{fill:#FFFFFF;}
	.st1{fill:#EFC725;}
	.st2{fill:#FBDE34;}
	.st3{fill:#EBEBEB;}
</style>
<rect class="st0" width="512" height="512"/>
<path d="M-463-994h112.4v111h102.8v-111h112.4v336.3h-112.4v-112.6h-102.8v112.6H-463V-994L-463-994z M12.4-882.5h-98.9V-994h310.3
	v111.5h-99v224.8H12.4V-882.5L12.4-882.5L12.4-882.5z M273-994h117.2l72.1,118.2l72-118.2h117.2v336.3H539.6v-166.7l-77.3,119.6
	h-1.9L383-824.4v166.7H273V-994z M707.5-994H820v225.1h158v111.1H707.5V-994L707.5-994z"/>
<g>
	<polygon class="st1" points="83.3,448.5 44.7,16.1 468.3,16.1 429.7,448.4 256.2,496.5 	"/>
	<polygon class="st2" points="256.1,459.2 396.3,420.3 429.3,50.9 256.1,50.9 	"/>
	<polygon class="st3" points="256.1,349 255.8,349.1 196.8,333.2 193,290.9 164.3,290.9 139.8,290.9 147.2,374.1 255.8,404.3 
		256.1,404.2 	"/>
	<polygon class="st3" points="263.2,264.3 263.2,211.3 197.9,211.3 205.6,128.1 263.4,126.5 263.2,71.4 157.6,71.4 153.7,110.5 
		141.2,250.1 139.9,264.3 154.2,264.3 	"/>
	<polygon class="st0" points="262.8,126.6 263.1,126.5 321,130 325.9,184.8 354.6,184.8 379.1,184.8 369.9,82.3 263.1,71.4 
		262.8,71.4 	"/>
	<polyline class="st0" points="373.7,126.8 369.1,71.4 257.2,71.4 257.2,105.8 257.2,126.6 257.2,126.8 373.7,126.8 	"/>
	<polygon class="st0" points="255.9,211.3 255.9,264.4 321.2,264.4 315,333.1 255.9,349.1 255.9,404.3 364.6,374.1 365.4,365.2 
		377.9,225.6 379.1,211.3 364.9,211.3 	"/>
	<path class="st0" d="M366.9,124.4"/>
	<path class="st0" d="M366.2,124.4"/>
</g>
</svg>
