<?xml version="1.0" encoding="utf-8"?>
<!-- Generator: Adobe Illustrator 22.0.1, SVG Export Plug-In . SVG Version: 6.00 Build 0)  -->
<svg version="1.1" id="Layer_1" xmlns="http://www.w3.org/2000/svg" xmlns:xlink="http://www.w3.org/1999/xlink" x="0px" y="0px"
	 viewBox="0 0 512 512" style="enable-background:new 0 0 512 512;" xml:space="preserve">
<style type="text/css">
	.st0{fill:#FFFFFF;}
	.st1{fill:#8CC84B;}
</style>
<rect x="0" y="-0.2" class="st0" width="512" height="512"/>
<g>
	<path class="st1" d="M236.7,27.6c11.6-6.6,26.6-6.6,38.2,0c58.1,32.8,116.3,65.6,174.4,98.5c10.9,6.2,18.2,18.3,18.1,30.9v197.6
		c0.1,13.1-8,25.6-19.5,31.6c-57.9,32.7-115.8,65.4-173.7,98c-11.8,6.7-27.2,6.2-38.6-1.1C218.1,473,200.7,463,183.4,453
		c-3.5-2.1-7.6-3.8-10.1-7.2c2.2-3,6.2-3.4,9.4-4.7c7.2-2.3,13.9-6,20.6-9.6c1.7-1.2,3.7-0.7,5.4,0.3c14.9,8.5,29.6,17.3,44.5,25.7
		c3.2,1.8,6.4-0.6,9.1-2.1c56.8-32.1,113.8-64.1,170.6-96.3c2.1-1,3.3-3.2,3.1-5.6c0-65.2,0-130.4,0-195.5c0.2-2.6-1.3-5-3.6-6.1
		c-57.7-32.5-115.4-65.1-173.1-97.6c-2-1.4-4.7-1.4-6.8,0c-57.7,32.5-115.4,65.1-173.1,97.6c-2.4,1.1-3.9,3.4-3.7,6.1
		c0,65.2,0,130.4,0,195.6c-0.2,2.3,1,4.5,3.1,5.5c15.4,8.7,30.8,17.4,46.2,26.1c8.7,4.7,19.3,7.5,28.9,3.9
		c8.4-3,14.4-11.6,14.2-20.6c0.1-64.8,0-129.6,0.1-194.4c-0.2-2.9,2.5-5.3,5.3-5c7.4,0,14.8-0.1,22.2,0c3.1-0.1,5.2,3,4.8,5.9
		c0,65.2,0.1,130.4,0,195.6c0,17.4-7.1,36.3-23.2,44.8c-19.8,10.3-44.3,8.1-63.8-1.8c-16.9-8.5-33.1-18.4-49.7-27.5
		c-11.6-6-19.6-18.5-19.5-31.6V157c-0.1-12.9,7.5-25.2,18.8-31.3C120.8,93,178.7,60.3,236.7,27.6z"/>
	<path class="st1" d="M287.2,164.4c25.3-1.6,52.3-1,75,11.5c17.6,9.5,27.4,29.6,27.7,49.1c-0.5,2.6-3.2,4.1-5.8,3.9
		c-7.3,0-14.7,0.1-22,0c-3.1,0.1-4.9-2.7-5.3-5.5c-2.1-9.4-7.2-18.6-16-23.1c-13.5-6.8-29.2-6.4-43.9-6.3
		c-10.8,0.6-22.3,1.5-31.4,7.8c-7,4.8-9.1,14.5-6.6,22.3c2.4,5.6,8.8,7.4,14.1,9.1c30.4,8,62.7,7.2,92.6,17.6
		c12.4,4.3,24.5,12.6,28.7,25.5c5.5,17.3,3.1,38.1-9.2,52c-10,11.5-24.6,17.7-39.1,21.1c-19.3,4.3-39.4,4.4-59.1,2.5
		c-18.5-2.1-37.7-7-52-19.5c-12.2-10.6-18.1-27.1-17.6-43c0.1-2.7,2.8-4.6,5.4-4.3c7.4-0.1,14.8-0.1,22.1,0c2.9-0.2,5.1,2.3,5.3,5.1
		c1.4,8.9,4.7,18.3,12.5,23.6c15,9.7,33.8,9,51,9.3c14.2-0.6,30.2-0.8,41.8-10.2c6.1-5.4,7.9-14.3,6.3-22.1
		c-1.8-6.5-8.6-9.6-14.5-11.5c-30.1-9.5-62.7-6.1-92.4-16.8c-12.1-4.3-23.8-12.3-28.4-24.8c-6.5-17.6-3.5-39.3,10.1-52.8
		C249.7,171.4,268.9,166.3,287.2,164.4L287.2,164.4z"/>
</g>
</svg>
