<?xml version="1.0" encoding="utf-8"?>
<!-- Generator: Adobe Illustrator 22.0.1, SVG Export Plug-In . SVG Version: 6.00 Build 0)  -->
<svg version="1.1" id="Layer_1" xmlns="http://www.w3.org/2000/svg" xmlns:xlink="http://www.w3.org/1999/xlink" x="0px" y="0px"
	 viewBox="0 0 512 512" style="enable-background:new 0 0 512 512;" xml:space="preserve">
<style type="text/css">
	.st0{fill:#FFFFFF;}
	.st1{clip-path:url(#SVGID_2_);}
	.st2{fill:#00749A;}
	.st3{fill:#464342;}
</style>
<rect class="st0" width="512" height="512"/>
<g>
	<defs>
		<rect id="SVGID_1_" x="22.9" y="22.9" width="466.2" height="466.2"/>
	</defs>
	<clipPath id="SVGID_2_">
		<use xlink:href="#SVGID_1_"  style="overflow:visible;"/>
	</clipPath>
	<g class="st1">
		<path class="st2" d="M1214.5,206.4h-80.9v8.6c25.3,0,29.4,5.4,29.4,37.5v57.8c0,32.1-4.1,38-29.4,38c-19.4-2.7-32.5-13.1-50.6-33
			l-20.8-22.6c28-5,42.9-22.6,42.9-42.5c0-24.8-21.2-43.8-61-43.8h-79.5v8.6c25.3,0,29.4,5.4,29.4,37.5v57.8c0,32.1-4.1,38-29.4,38
			v8.6h89.9v-8.6c-25.3,0-29.4-5.9-29.4-38v-16.3h7.7l50.2,62.8h131.5c64.6,0,92.6-34.3,92.6-75.5
			C1307.1,240.3,1279.1,206.4,1214.5,206.4L1214.5,206.4z M1025.2,280V220h18.5c20.3,0,29.4,14,29.4,30.3c0,15.8-9,29.8-29.4,29.8
			L1025.2,280z M1215.9,342.9h-3.2c-16.3,0-18.5-4.1-18.5-24.8v-98h21.7c47,0,55.6,34.3,55.6,61
			C1271.4,308.5,1262.9,342.9,1215.9,342.9z M713,296.8l31.2-92.2c9-26.7,5-34.3-23.9-34.3v-9h84.9v9c-28.5,0-35.2,6.8-46.5,39.8
			l-51.5,154.5h-5.9l-46.1-141.4l-47,141.4h-5.9L552.2,210c-10.8-33-18.1-39.8-44.3-39.8v-9h100.3v9c-26.7,0-33.9,6.3-24.4,34.3
			l30.3,92.2l45.6-135.5h8.6L713,296.8L713,296.8z M866.6,362.7c-49.7,0-90.4-36.6-90.4-81.3c0-44.3,40.7-80.9,90.4-80.9
			s90.4,36.6,90.4,80.9C957,326.1,916.3,362.7,866.6,362.7z M866.6,214.5c-41.6,0-56,37.5-56,66.9c0,29.8,14.5,66.9,56,66.9
			c42,0,56.5-37,56.5-66.9C923.1,252,908.6,214.5,866.6,214.5L866.6,214.5z"/>
		<path class="st3" d="M1418.7,347.8v9h-103.5v-9c30.3,0,35.7-7.7,35.7-52.9v-72.3c0-45.2-5.4-52.4-35.7-52.4v-9h93.5
			c46.5,0,72.3,23.9,72.3,56c0,31.2-25.8,55.6-72.3,55.6H1383V295C1383,340.1,1388.4,347.8,1418.7,347.8L1418.7,347.8z
			 M1408.8,177.5H1383v78.6h25.8c25.3,0,37-17.6,37-38.9C1445.8,195.6,1434.1,177.5,1408.8,177.5z M1791.5,314.4l-2.3,8.1
			c-4.1,14.9-9,20.3-41.1,20.3h-6.3c-23.5,0-27.6-5.4-27.6-37.5v-20.8c35.2,0,38,3.2,38,26.7h8.6v-67.3h-8.6
			c0,23.5-2.7,26.7-38,26.7V220h24.8c32.1,0,37.1,5.4,41.1,20.3l2.3,8.6h7.2l-3.2-42.5h-132.8v8.6c25.3,0,29.4,5.4,29.4,37.5v57.8
			c0,29.3-3.5,36.7-23.4,37.8c-19-2.9-32-13.2-49.8-32.8l-20.8-22.6c28-5,42.9-22.6,42.9-42.5c0-24.8-21.2-43.8-61-43.8h-79.5v8.6
			c25.3,0,29.4,5.4,29.4,37.5v57.8c0,32.1-4.1,38-29.4,38v8.6h89.9v-8.6c-25.3,0-29.4-5.9-29.4-38v-16.3h7.7l50.1,62.8h185.7
			l2.7-42.5L1791.5,314.4L1791.5,314.4z M1552,280V220h18.5c20.3,0,29.4,14,29.4,30.3c0,15.8-9,29.8-29.4,29.8L1552,280z
			 M1883.2,362.7c-18.1,0-33.9-9.5-40.7-15.4c-2.3,2.3-6.3,9-7.2,15.4h-8.6v-62.3h9c3.6,29.8,24.4,47.4,51.1,47.4
			c14.5,0,26.2-8.1,26.2-21.7c0-11.7-10.4-20.8-28.9-29.4l-25.8-12.2c-18.1-8.6-31.6-23.5-31.6-43.4c0-21.7,20.3-40.2,48.3-40.2
			c14.9,0,27.6,5.4,35.2,11.7c2.3-1.8,4.5-6.8,5.9-12.2h8.6v53.3h-9.5c-3.2-21.2-14.9-38.9-38.9-38.9c-12.7,0-24.4,7.2-24.4,18.5
			c0,11.7,9.5,18.1,31.2,28l24.8,12.2c21.7,10.4,30.3,27.1,30.3,40.7C1938.3,342.9,1913.4,362.7,1883.2,362.7L1883.2,362.7z
			 M2022.3,362.7c-18.1,0-33.9-9.5-40.7-15.4c-2.3,2.3-6.3,9-7.2,15.4h-8.6v-62.3h9c3.6,29.8,24.4,47.4,51.1,47.4
			c14.5,0,26.2-8.1,26.2-21.7c0-11.7-10.4-20.8-28.9-29.4l-25.8-12.2c-18.1-8.6-31.6-23.5-31.6-43.4c0-21.7,20.3-40.2,48.3-40.2
			c14.9,0,27.6,5.4,35.2,11.7c2.3-1.8,4.5-6.8,5.9-12.2h8.6v53.3h-9.5c-3.2-21.2-14.9-38.9-38.9-38.9c-12.7,0-24.4,7.2-24.4,18.5
			c0,11.7,9.5,18.1,31.2,28l24.8,12.2c21.7,10.4,30.3,27.1,30.3,40.7C2077.5,342.9,2052.6,362.7,2022.3,362.7L2022.3,362.7z"/>
		<g>
			<path class="st2" d="M56.1,256c0,79.1,46,147.5,112.7,180L73.4,174.6C61.9,200.2,56,228,56.1,256L56.1,256z M391,245.9
				c0-24.7-8.9-41.8-16.5-55.1c-10.1-16.5-19.6-30.4-19.6-46.9c0-18.4,13.9-35.5,33.6-35.5c0.9,0,1.7,0.1,2.6,0.2
				c-35.6-32.6-83-52.5-135-52.5c-69.9,0-131.3,35.8-167.1,90.1c4.7,0.1,9.1,0.2,12.9,0.2c20.9,0,53.3-2.5,53.3-2.5
				c10.8-0.6,12,15.2,1.3,16.5c0,0-10.8,1.3-22.9,1.9l72.8,216.6l43.8-131.2l-31.2-85.4c-10.8-0.6-21-1.9-21-1.9
				c-10.8-0.6-9.5-17.1,1.3-16.5c0,0,33,2.5,52.7,2.5c20.9,0,53.3-2.5,53.3-2.5c10.8-0.6,12.1,15.2,1.3,16.5c0,0-10.9,1.3-22.9,1.9
				l72.3,214.9l19.9-66.6C384.4,282.9,391,263,391,245.9L391,245.9z"/>
			<path class="st2" d="M259.5,273.5l-60,174.3c18.3,5.4,37.4,8.1,56.5,8.1c23.3,0,45.6-4,66.4-11.3c-0.6-0.9-1-1.8-1.4-2.8
				L259.5,273.5z M431.5,160.1c0.9,6.4,1.3,13.2,1.3,20.6c0,20.3-3.8,43.1-15.2,71.6l-61.1,176.6c59.4-34.7,99.4-99.1,99.4-172.8
				C456,222.5,447.6,189.5,431.5,160.1L431.5,160.1z"/>
			<path class="st2" d="M256,22.9C127.5,22.9,22.9,127.5,22.9,256c0,128.5,104.6,233.1,233.1,233.1c128.5,0,233.1-104.6,233.1-233.1
				C489.1,127.5,384.5,22.9,256,22.9z M256,478.4c-122.6,0-222.4-99.8-222.4-222.4c0-122.6,99.8-222.4,222.4-222.4
				c122.6,0,222.4,99.8,222.4,222.4C478.4,378.6,378.6,478.4,256,478.4L256,478.4z"/>
		</g>
	</g>
</g>
</svg>
