<?xml version="1.0" encoding="utf-8"?>
<!-- Generator: Adobe Illustrator 24.0.0, SVG Export Plug-In . SVG Version: 6.00 Build 0)  -->
<svg version="1.1" id="Layer_1" xmlns="http://www.w3.org/2000/svg" xmlns:xlink="http://www.w3.org/1999/xlink" x="0px" y="0px"
	 viewBox="0 0 30 30" style="enable-background:new 0 0 30 30;" xml:space="preserve">
<style type="text/css">
	.st0{fill:#FFFFFF;}
</style>
<path class="st0" d="M28.4,27.4c-0.1-0.2-0.4-0.3-0.8-0.6s-0.8-0.3-0.9-0.3c-0.7,0-1.2,0-1.6-0.1l-0.9-1.3l-0.8,0.2
	c-0.2-0.2-0.6-0.6-1.2-1.4l-1.2-1.4c-0.1-0.1-0.2-0.4-0.4-0.9l-1.9-2l0.4-0.9c-0.8-0.8-1.2-1.3-1.4-1.5c-0.3-0.5-0.6-1.2-0.7-2.2
	l-0.5-0.5c0.1-0.1,0.1-0.2,0.1-0.2c0-0.8,0.1-1.2,0.1-1.2c0,0,0.3-0.1,0.7-0.3l0.7-0.4l0.9-0.3c0.1,0,0.3-0.2,0.5-0.4
	c0.2-0.2,0.3-0.4,0.5-0.6c0.3-0.5,0.5-0.8,0.6-0.9c0.1-0.1,0.1-0.1,0.2-0.2c0.6-0.2,0.9-0.3,0.9-0.3c0.1-0.1,0.3-0.2,0.5-0.4
	c0.1-0.1,0.4-0.5,0.9-1.1c0.8-0.6,1.2-0.9,1.3-1.1c0.3-0.3,0.5-0.6,0.7-0.9c0.1-0.1,0.4-0.7,0.9-1.7L26.6,4l0.3-0.7
	c0.3-0.7,0.5-1.1,0.5-1.1c0.1-0.2,0.1-0.4,0-0.6c0-0.1,0-0.2-0.1-0.4c-0.2,0.1-0.3,0.2-0.4,0.3c-0.2,0.2-0.2,0.4-0.2,0.6
	c-0.2,0.7-0.4,1.2-0.5,1.5c-0.1,0.3-0.4,0.8-0.9,1.4c-0.5,0.8-0.9,1.3-1.1,1.6c-0.3,0.3-0.6,0.5-1.2,0.7c-1.1,0.5-1.8,1-2.2,1.4
	l-3,2.6c-0.8,0.7-1.3,1.2-1.8,1.6c0-0.4-0.1-0.6-0.1-0.7c-0.1-0.2-0.4-0.4-0.7-0.6c-0.2-0.1-0.4-0.3-0.9-0.6c0.1-0.5,0-1-0.4-1.4
	c-0.3-0.4-0.8-0.8-1.4-1.2l-1-2.4l-1,0L9.4,4.4C8.7,4.3,8.3,4.2,8.1,4L6.9,3.1C6.5,2.9,6.1,2.7,5.7,2.5C5.6,2.4,5.3,2.3,5,2l0,0.8
	L4,1.8L3.2,2.4L1.5,1.1L1.3,1.2c0.2,0.5,0.4,0.9,0.6,1.1S2.5,2.8,3,2.9l0.5,1.2c0.3,0,0.6-0.1,1-0.2c0.4-0.1,0.8,0,1.1,0.3
	c0.7,0.6,1.1,1,1.1,1c0.1,0.1,0.5,0.2,1,0.2c0.2,0.5,0.4,0.8,0.5,1C8.5,6.7,9,7.1,9.8,7.6c0.3,0.7,0.7,1.5,1.2,2.2
	c0.6,1,0.9,1.6,1,1.9c0.2,0.7,0.4,1.2,0.5,1.4c0.2,0.2,0.3,0.3,0.5,0.3l1.8-0.1c0,0.1,0.1,0.3,0.1,0.4c-0.1,0.1-0.1,0.1-0.2,0.2
	c-0.7,0.5-1,0.7-1,0.7c-0.1,0.1-0.2,0.3-0.5,0.6c-0.2,0.2-0.3,0.4-0.4,0.7c-0.5,0.4-0.9,0.7-1.1,0.9s-0.4,0.5-0.7,0.8
	c-0.3,0.4-0.5,0.7-0.5,0.7c-0.5,0.5-0.8,0.9-1,1.1l0.2,0.2l-0.6,0.7l0,0c-0.1,0.1-0.3,0.3-0.6,0.4l-0.4-0.2c0,0-0.2,0.2-0.6,0.5
	c-0.4,0.3-0.7,0.5-0.8,0.6c0,0-0.3,0.3-0.7,0.8c-0.8,0.9-1.3,1.3-1.3,1.4c0,0.1-0.6,1.1-1.6,3c-0.5,0.8-0.7,1.3-0.7,1.4
	c-0.1,0.3-0.1,0.5,0,0.6c0.1,0.1,0.2,0,0.4,0c0.4-0.4,0.6-0.7,0.7-0.9c0.1-0.2,0.3-0.4,0.4-0.7c0.3-0.3,0.6-0.5,0.8-0.7
	c0.1-0.1,0.4-0.5,0.8-1l0.6-0.6c0.3-0.4,0.5-0.6,0.6-0.6c0.2-0.2,0.4-0.4,0.6-0.5c1-0.8,1.7-1.5,2.2-2c1.3-1.3,2.3-2.4,3-3.2
	l1.3-1.4c0.4-0.4,0.7-0.7,0.8-0.9c0.2-0.2,0.4-0.4,0.6-0.6c0.1,0.3,0.1,0.5,0,0.6C15,17,14.7,17.6,14.6,18l1.6,1.5l-0.1,0.9
	c0.2,0,0.3,0.1,0.3,0.1l1.5,2.2c0,0,0.1,0.1,0.3,0.1c0.2,0.7,0.4,1.2,0.5,1.4c0.1,0.1,0.3,0.3,0.5,0.4c0.7,0.3,1.1,0.5,1.2,0.6
	c0.2,0.2,0.4,0.4,0.6,0.6c0.1,0.1,0.1,0.2,0.3,0.4l1,0.4l0.7,1.3c0.7,0,1.1,0.1,1.4,0.1c0.3,0,0.8,0.3,1.5,0.8
	c0.1,0.1,0.4,0.2,0.7,0.4c0.3-0.2,0.6-0.3,0.8-0.3c0.2,0,0.7,0.1,1.2,0.3C28.6,28.1,28.5,27.6,28.4,27.4z"/>
</svg>
