<?xml version="1.0" encoding="utf-8"?>
<!-- Generator: Adobe Illustrator 24.0.0, SVG Export Plug-In . SVG Version: 6.00 Build 0)  -->
<svg version="1.1" id="Layer_1" xmlns="http://www.w3.org/2000/svg" xmlns:xlink="http://www.w3.org/1999/xlink" x="0px" y="0px"
	 viewBox="0 0 30 30" style="enable-background:new 0 0 30 30;" xml:space="preserve">
<style type="text/css">
	.st0{fill:#FFFFFF;}
</style>
<g>
	<path class="st0" d="M7.2,28c-0.5,0-1,0-1.6,0c-1-0.4-2-0.9-2.9-1.7c-0.7-0.6-1.2-1.3-1.4-2.2c-0.3-1.3-0.4-2.5-0.6-3.8
		c-0.1-0.9-0.2-1.8-0.2-2.7c0-1.1,0-2.2,0-3.3c0-0.2,0.1-0.3,0.1-0.5c0.7-2,2.1-3.3,4.1-3.7c1.3-0.3,2.1,0.2,2.6,1.4
		c0.1,0.3,0.2,0.6,0.3,1c0.1,1,0.3,2,0.4,3.1c0.1,0.7,0.3,1.4,0.6,2.1c0.3,0.7,0.8,0.8,1.4,0.4c0.2-0.1,0.4-0.3,0.6-0.4
		c1-0.8,1.9-1.7,2.8-2.6c3.6-3.5,7.1-7,10.7-10.5c1-1,2.2-1.9,3.6-2.4c0.3,0,0.5,0,0.8,0c0.4,0.2,0.7,0.4,0.7,0.9
		c0.1,1.5,0.2,3-0.7,4.4c-0.4,0.6-0.9,1.2-1.4,1.7c-4.4,4.5-8.7,9.1-13.2,13.5C11.9,24.6,9.8,26.6,7.2,28z"/>
</g>
</svg>
