<?xml version="1.0" encoding="utf-8"?>
<!-- Generator: Adobe Illustrator 25.3.1, SVG Export Plug-In . SVG Version: 6.00 Build 0)  -->
<svg version="1.1" id="Layer_2_1_" xmlns="http://www.w3.org/2000/svg" xmlns:xlink="http://www.w3.org/1999/xlink" x="0px" y="0px"
	 viewBox="0 0 521.7 419.7" style="enable-background:new 0 0 521.7 419.7;" xml:space="preserve">
<style type="text/css">
	.st0{fill:#E6E7E8;}
	.st1{fill:#939598;}
	.st2{fill:#BCBEC0;}
	.st3{font-family:'Poppins-Medium';}
	.st4{font-size:24px;}
	.st5{fill:#EF002A;}
	.st6{fill:#EF002A;stroke:#EF002A;stroke-width:2;stroke-miterlimit:10;}
</style>
<path class="st0" d="M64.3,117H4.9c-2.2,0-4-1.8-4-4V53.5c0-2.2,1.8-4,4-4h59.4c2.2,0,4,1.8,4,4v59.4C68.4,115.2,66.6,117,64.3,117"
	/>
<path class="st0" d="M139.8,117H80.3c-2.2,0-4-1.8-4-4V53.5c0-2.2,1.8-4,4-4h59.4c2.2,0,4,1.8,4,4v59.4
	C143.8,115.2,142,117,139.8,117"/>
<path class="st0" d="M215.2,117h-59.4c-2.2,0-4-1.8-4-4V53.5c0-2.2,1.8-4,4-4h59.4c2.2,0,4,1.8,4,4v59.4
	C219.2,115.2,217.4,117,215.2,117"/>
<path class="st0" d="M290.6,117h-59.4c-2.2,0-4-1.8-4-4V53.5c0-2.2,1.8-4,4-4h59.4c2.2,0,4,1.8,4,4v59.4
	C294.7,115.2,292.8,117,290.6,117"/>
<path class="st0" d="M366,117h-59.4c-2.2,0-4-1.8-4-4V53.5c0-2.2,1.8-4,4-4H366c2.2,0,4,1.8,4,4v59.4C370.1,115.2,368.3,117,366,117
	"/>
<path class="st0" d="M441.5,117H382c-2.2,0-4-1.8-4-4V53.5c0-2.2,1.8-4,4-4h59.4c2.2,0,4,1.8,4,4v59.4
	C445.5,115.2,443.7,117,441.5,117"/>
<path class="st0" d="M516.9,117h-59.4c-2.2,0-4-1.8-4-4V53.5c0-2.2,1.8-4,4-4h59.4c2.2,0,4,1.8,4,4v59.4
	C520.9,115.2,519.1,117,516.9,117"/>
<path class="st0" d="M64.3,190.4H4.9c-2.2,0-4-1.8-4-4V127c0-2.2,1.8-4,4-4h59.4c2.2,0,4,1.8,4,4v59.4
	C68.4,188.6,66.6,190.4,64.3,190.4"/>
<path class="st0" d="M139.8,190.4H80.3c-2.2,0-4-1.8-4-4V127c0-2.2,1.8-4,4-4h59.4c2.2,0,4,1.8,4,4v59.4
	C143.8,188.6,142,190.4,139.8,190.4"/>
<path class="st0" d="M215.2,190.4h-59.4c-2.2,0-4-1.8-4-4V127c0-2.2,1.8-4,4-4h59.4c2.2,0,4,1.8,4,4v59.4
	C219.2,188.6,217.4,190.4,215.2,190.4"/>
<path class="st0" d="M290.6,190.4h-59.4c-2.2,0-4-1.8-4-4V127c0-2.2,1.8-4,4-4h59.4c2.2,0,4,1.8,4,4v59.4
	C294.7,188.6,292.8,190.4,290.6,190.4"/>
<path class="st0" d="M366,190.4h-59.4c-2.2,0-4-1.8-4-4V127c0-2.2,1.8-4,4-4H366c2.2,0,4,1.8,4,4v59.4
	C370.1,188.6,368.3,190.4,366,190.4"/>
<path class="st0" d="M441.5,190.4H382c-2.2,0-4-1.8-4-4V127c0-2.2,1.8-4,4-4h59.4c2.2,0,4,1.8,4,4v59.4
	C445.5,188.6,443.7,190.4,441.5,190.4"/>
<path class="st0" d="M516.9,190.4h-59.4c-2.2,0-4-1.8-4-4V127c0-2.2,1.8-4,4-4h59.4c2.2,0,4,1.8,4,4v59.4
	C520.9,188.6,519.1,190.4,516.9,190.4"/>
<path class="st0" d="M64.3,263.9H4.9c-2.2,0-4-1.8-4-4v-59.4c0-2.2,1.8-4,4-4h59.4c2.2,0,4,1.8,4,4v59.4
	C68.4,262.1,66.6,263.9,64.3,263.9"/>
<path class="st0" d="M139.8,263.9H80.3c-2.2,0-4-1.8-4-4v-59.4c0-2.2,1.8-4,4-4h59.4c2.2,0,4,1.8,4,4v59.4
	C143.8,262.1,142,263.9,139.8,263.9"/>
<path class="st0" d="M215.2,263.9h-59.4c-2.2,0-4-1.8-4-4v-59.4c0-2.2,1.8-4,4-4h59.4c2.2,0,4,1.8,4,4v59.4
	C219.2,262.1,217.4,263.9,215.2,263.9"/>
<path class="st0" d="M290.6,263.9h-59.4c-2.2,0-4-1.8-4-4v-59.4c0-2.2,1.8-4,4-4h59.4c2.2,0,4,1.8,4,4v59.4
	C294.7,262.1,292.8,263.9,290.6,263.9"/>
<path class="st0" d="M366,263.9h-59.4c-2.2,0-4-1.8-4-4v-59.4c0-2.2,1.8-4,4-4H366c2.2,0,4,1.8,4,4v59.4
	C370.1,262.1,368.3,263.9,366,263.9"/>
<path class="st0" d="M441.5,263.9H382c-2.2,0-4-1.8-4-4v-59.4c0-2.2,1.8-4,4-4h59.4c2.2,0,4,1.8,4,4v59.4
	C445.5,262.1,443.7,263.9,441.5,263.9"/>
<path class="st0" d="M516.9,263.9h-59.4c-2.2,0-4-1.8-4-4v-59.4c0-2.2,1.8-4,4-4h59.4c2.2,0,4,1.8,4,4v59.4
	C520.9,262.1,519.1,263.9,516.9,263.9"/>
<path class="st0" d="M64.3,337.4H4.9c-2.2,0-4-1.8-4-4V274c0-2.2,1.8-4,4-4h59.4c2.2,0,4,1.8,4,4v59.4
	C68.4,335.6,66.6,337.4,64.3,337.4"/>
<path class="st0" d="M139.8,337.4H80.3c-2.2,0-4-1.8-4-4V274c0-2.2,1.8-4,4-4h59.4c2.2,0,4,1.8,4,4v59.4
	C143.8,335.6,142,337.4,139.8,337.4"/>
<path class="st0" d="M215.2,337.4h-59.4c-2.2,0-4-1.8-4-4V274c0-2.2,1.8-4,4-4h59.4c2.2,0,4,1.8,4,4v59.4
	C219.2,335.6,217.4,337.4,215.2,337.4"/>
<path class="st0" d="M290.6,337.4h-59.4c-2.2,0-4-1.8-4-4V274c0-2.2,1.8-4,4-4h59.4c2.2,0,4,1.8,4,4v59.4
	C294.7,335.6,292.8,337.4,290.6,337.4"/>
<path class="st0" d="M366,337.4h-59.4c-2.2,0-4-1.8-4-4V274c0-2.2,1.8-4,4-4H366c2.2,0,4,1.8,4,4v59.4
	C370.1,335.6,368.3,337.4,366,337.4"/>
<path class="st0" d="M441.5,337.4H382c-2.2,0-4-1.8-4-4V274c0-2.2,1.8-4,4-4h59.4c2.2,0,4,1.8,4,4v59.4
	C445.5,335.6,443.7,337.4,441.5,337.4"/>
<path class="st0" d="M516.9,337.4h-59.4c-2.2,0-4-1.8-4-4V274c0-2.2,1.8-4,4-4h59.4c2.2,0,4,1.8,4,4v59.4
	C520.9,335.6,519.1,337.4,516.9,337.4"/>
<path class="st0" d="M64.3,410.9H4.9c-2.2,0-4-1.8-4-4v-59.4c0-2.2,1.8-4,4-4h59.4c2.2,0,4,1.8,4,4v59.4
	C68.4,409.1,66.6,410.9,64.3,410.9"/>
<path class="st0" d="M139.8,410.9H80.3c-2.2,0-4-1.8-4-4v-59.4c0-2.2,1.8-4,4-4h59.4c2.2,0,4,1.8,4,4v59.4
	C143.8,409.1,142,410.9,139.8,410.9"/>
<path class="st0" d="M215.2,410.9h-59.4c-2.2,0-4-1.8-4-4v-59.4c0-2.2,1.8-4,4-4h59.4c2.2,0,4,1.8,4,4v59.4
	C219.2,409.1,217.4,410.9,215.2,410.9"/>
<path class="st0" d="M290.6,410.9h-59.4c-2.2,0-4-1.8-4-4v-59.4c0-2.2,1.8-4,4-4h59.4c2.2,0,4,1.8,4,4v59.4
	C294.7,409.1,292.8,410.9,290.6,410.9"/>
<path class="st0" d="M366,410.9h-59.4c-2.2,0-4-1.8-4-4v-59.4c0-2.2,1.8-4,4-4H366c2.2,0,4,1.8,4,4v59.4
	C370.1,409.1,368.3,410.9,366,410.9"/>
<path class="st0" d="M441.5,410.9H382c-2.2,0-4-1.8-4-4v-59.4c0-2.2,1.8-4,4-4h59.4c2.2,0,4,1.8,4,4v59.4
	C445.5,409.1,443.7,410.9,441.5,410.9"/>
<path class="st0" d="M516.9,410.9h-59.4c-2.2,0-4-1.8-4-4v-59.4c0-2.2,1.8-4,4-4h59.4c2.2,0,4,1.8,4,4v59.4
	C520.9,409.1,519.1,410.9,516.9,410.9"/>
<g>
	<path class="st1" d="M42.2,34.6c0,5.1-3.5,8.3-8.9,8.3h-5.4V26.2h5.4C38.7,26.2,42.2,29.5,42.2,34.6z M33.4,40.7c3.9,0,6-2.3,6-6
		c0-3.8-2.1-6.2-6-6.2h-2.7v12.2H33.4z"/>
</g>
<g>
	<path class="st1" d="M109.2,26.2v14.5h5.6v2.2h-8.4V26.2H109.2z"/>
</g>
<g>
	<path class="st1" d="M416.7,26.2h2.9l-6.3,16.7h-3.2l-6.3-16.7h2.9l4.9,13.9L416.7,26.2z"/>
</g>
<g>
	<path class="st1" d="M252.1,26.2h3l5.9,13.1l5.8-13.1h2.9v16.7H267V31.5l-5.1,11.4H260l-5.1-11.4v11.4h-2.7L252.1,26.2L252.1,26.2z
		"/>
</g>
<g>
	<path class="st1" d="M337.6,26.2h2.8v12c0,3-2,4.8-4.9,4.8s-4.9-1.8-4.9-4.8h2.8c0,1.4,0.7,2.4,2.2,2.4s2.2-1,2.2-2.4v-12H337.6z"
		/>
</g>
<g>
	<path class="st1" d="M487.1,43.1c-3.3,0-5.9-1.8-5.9-4.8h2.9c0.1,1.4,1.1,2.5,3,2.5s3-1,3-2.4c0-4-8.9-1.4-8.9-7.6
		c0-2.9,2.3-4.8,5.7-4.8c3.2,0,5.4,1.7,5.7,4.5h-3c-0.1-1.1-1.1-2.2-2.8-2.2c-1.6,0-2.8,0.7-2.8,2.3c0,3.8,8.8,1.4,8.8,7.5
		C492.9,40.7,490.9,43.1,487.1,43.1z"/>
</g>
<g>
	<path class="st1" d="M176.6,26.2h3l5.9,13.1l5.8-13.1h2.9v16.7h-2.7V31.5l-5.1,11.4h-1.9l-5.1-11.4v11.4h-2.7L176.6,26.2
		L176.6,26.2z"/>
</g>
<text transform="matrix(1 0 0 1 31.3332 95.6032)" class="st2 st3 st4">1</text>
<text transform="matrix(1 0 0 1 104.0351 95.6032)" class="st2 st3 st4">2</text>
<text transform="matrix(1 0 0 1 401.9088 94.769)" class="st2 st3 st4">6</text>
<text transform="matrix(1 0 0 1 481.3192 94.769)" class="st2 st3 st4">7</text>
<text transform="matrix(1 0 0 1 24.7788 166.4186)" class="st2 st3 st4">8</text>
<text transform="matrix(1 0 0 1 102.2406 166.4186)" class="st2 st3 st4">9</text>
<text transform="matrix(1 0 0 1 399.2853 167.395)" class="st2 st3 st4">13</text>
<text transform="matrix(1 0 0 1 474.0751 166.395)" class="st2 st3 st4">14</text>
<text transform="matrix(1 0 0 1 23.6652 236.4936)" class="st2 st3 st4">15</text>
<text transform="matrix(1 0 0 1 100.0551 236.4936)" class="st2 st3 st4">16</text>
<text transform="matrix(1 0 0 1 400.1252 236.5891)" class="st2 st3 st4">20</text>
<text transform="matrix(1 0 0 1 479.0429 236.5891)" class="st2 st3 st4">21</text>
<text transform="matrix(1 0 0 1 18.6852 310.9953)" class="st2 st3 st4">22</text>
<text transform="matrix(1 0 0 1 93.9072 310.9953)" class="st2 st3 st4">23</text>
<text transform="matrix(1 0 0 1 398.8105 310.7553)" class="st2 st3 st4">27</text>
<text transform="matrix(1 0 0 1 329.5194 94.769)" class="st2 st3 st4">5</text>
<text transform="matrix(1 0 0 1 324.0633 166.395)" class="st2 st3 st4">12</text>
<text transform="matrix(1 0 0 1 327.4955 236.5891)" class="st2 st3 st4">19</text>
<text transform="matrix(1 0 0 1 323.401 310.7553)" class="st2 st3 st4">26</text>
<text transform="matrix(1 0 0 1 254.998 94.769)" class="st2 st3 st4">4</text>
<text transform="matrix(1 0 0 1 254.3618 166.395)" class="st2 st3 st4">11</text>
<text transform="matrix(1 0 0 1 252.0342 236.5891)" class="st2 st3 st4">18</text>
<text transform="matrix(1 0 0 1 246.0114 310.7553)" class="st2 st3 st4">25</text>
<text transform="matrix(1 0 0 1 178.2076 94.769)" class="st2 st3 st4">3</text>
<text transform="matrix(1 0 0 1 172.4439 166.395)" class="st2 st3 st4">10</text>
<text transform="matrix(1 0 0 1 175.5436 236.5891)" class="st2 st3 st4">17</text>
<text transform="matrix(1 0 0 1 173.4891 310.7553)" class="st2 st3 st4">24</text>
<text transform="matrix(1 0 0 1 473.3009 312.7553)" class="st2 st3 st4">28</text>
<text transform="matrix(1 0 0 1 17.9894 385.6313)" class="st2 st3 st4">29</text>
<text transform="matrix(1 0 0 1 93.1391 385.6313)" class="st2 st3 st4">30</text>
<g>
	<g>
		<path class="st5" d="M37,53.7C21.8,50.1,5.1,59-0.2,73.7c-2.7,7.6-2.1,16.6,1.8,23.7c4.3,7.6,12.3,11.9,20.5,13.9
			c16,3.9,37.1,2.1,45.9-14c3.7-6.8,4.5-15.4,0.5-22.3c-4.2-7.1-12.1-11-19.8-13c-14.2-3.6-31.4-1.1-41.8,10
			c-1.3,1.4-2.5,2.9-3.6,4.5c-1.8,2.7,2.5,5.2,4.3,2.5c7.3-11.1,21.7-14.6,34.2-13.2c6.5,0.7,13.6,3,18.6,7.4
			c2.5,2.2,4.4,4.9,5.3,8.1c0.8,3,0.6,6.2-0.3,9.2c-2,6.7-6.9,11.7-13.2,14.6c-7.1,3.2-15.4,3.4-23,2.4C22,106.6,14.3,104.4,9,99
			c-4.8-4.9-6.7-12.1-5.8-18.8c1.7-13.3,14.6-22.9,27.7-22.4c1.6,0.1,3.1,0.3,4.6,0.6C38.8,59.3,40.1,54.5,37,53.7L37,53.7z"/>
	</g>
</g>
<g>
	<path class="st6" d="M6,217.5c0.6-0.1,1.2-0.2,1.9-0.3c0,0.2,0,0.5,0,0.8c0,0.4-0.2,0.9,0,1.2c1.7,4.2,4.3,7.7,8.2,10.2
		c1.2,0.8,2.1,0.6,3-0.6c1.4-1.9,2.1-4.1,2.5-6.4c0.4-2.5,0.7-5,1-7.5c0.1-0.7,0-1.3-0.8-1.7s-1.2-1.6-1-2.3c0.3-1.1,1.1-1.8,2.1-2
		c0.3-0.1,1,0.3,1.2,0.7c0.3,0.5-0.1,1-0.6,1.3s-0.8,0.5-0.6,1.1c0.1,0.2,0.4,0.6,0.5,0.6c0.3,0,0.5-0.3,0.7-0.5
		c0.1-0.1,0.1-0.3,0.2-0.7c0.3,0.5,0.5,0.8,0.6,1.1c0.3,2.7,1.1,5.3,2.2,7.8c0.6,1.3,1.4,2.6,2.3,3.8c2.2,3.1,5.2,3.1,7.7,0.2
		c2-2.3,3.4-4.9,4.6-7.6c0.6-1.4,1.3-2.9,2-4.3c0.2-0.4,0.2-0.7-0.2-1.1c-0.7-0.7-0.9-1.5-0.4-2.2c0.5-0.8,1.2-1.5,2.3-1.5
		c0.3,0,0.7,0.4,0.8,0.7s-0.1,0.7-0.3,1c-0.1,0.2-0.5,0.3-0.7,0.4c-0.1,0.1-0.2,0.3-0.3,0.4c0.2,0.1,0.3,0.2,0.5,0.2
		c0.5-0.1,0.9-0.2,1.5-0.3c0,0.1,0.1,0.3,0.1,0.5c0.1,1.1,0,2.1,0.2,3.2c0.5,3.1,1,6.3,2.3,9.2c0.3,0.7,0.8,1.4,1.1,2.1
		c0.2,0.5,0.6,0.5,1.1,0.4c2.3-0.6,3.4-2.4,4.3-4.4c0.9-1.9,1.7-3.9,2.6-5.9c0.4-0.9,0.6-1.8,0.3-2.8c-0.3-1.2,1-2.9,2.3-3
		c0.6-0.1,1,0.2,1.1,0.8c0.2,0.5-0.1,0.9-0.5,1.2c-0.3,0.2-0.6,0.3-0.9,0.5c-0.4,0.3-0.5,0.6-0.2,1c0.3,0.3,0.7,0.5,1.1,0.1
		c0.2-0.2,0.3-0.3,0.5-0.5c0.4,0.8,0.3,1.3-0.5,1.5c-0.6,0.2-0.8,0.6-0.9,1.2c-0.3,3.2-0.7,6.5-1.1,9.7c-0.1,0.7-0.3,1.3-0.5,1.9
		c-0.6-1-0.6-2.1-0.6-3.1c-0.1-1.9-0.1-3.8-0.1-5.7c0-0.1,0-0.2-0.2-0.4c-0.2,0.7-0.5,1.4-0.7,2.1c-0.7,2.2-1.6,4.4-3.4,6
		c-0.9,0.9-2.1,1.4-3.4,1.4c-0.9,0-1.6-0.7-2-1.4c-0.9-1.9-1.8-3.7-2.4-5.7c-0.7-2.3-1.2-4.8-1.7-7.2c-0.1-0.3-0.2-0.5-0.3-1
		c-0.2,0.5-0.3,0.7-0.4,1c-1.1,3.7-2.5,7.2-4.6,10.4c-0.7,1.1-1.6,2.2-2.6,3.1c-2.6,2.2-4.7,2.2-7.4,0c-2.6-2.1-4.2-4.9-5.2-8.1
		c-0.1-0.4-0.3-0.9-0.4-1.3c0-0.1-0.1-0.2-0.3-0.5c-0.1,0.8-0.1,1.3-0.2,1.8c-0.2,3.2-0.6,6.3-1.9,9.2c-0.5,1.1-1.1,2.1-1.9,3
		c-0.8,1-2.1,1.2-3.3,0.6c-4-2-7-5-9.2-8.9c-0.1-0.2-0.3-0.4-0.6-0.6c0,0.2,0,0.5-0.1,0.7s-0.2,0.4-0.3,0.7c0.3,0.3,0.6,0.6,1,0.9
		c2.4,1.6,3.7,4,4.7,6.6c0.6,1.6,1.1,3.1,1.7,4.7c0.1,0.2,0.2,0.5,0.4,0.8c1.2-1.4,2.8-1.4,4.2-1.8c6.5-1.8,13.1-3.2,19.9-4
		c3.7-0.4,7.5-0.7,11.3-1c1.3-0.1,2.7,0,4,0c0.1,0,0.3,0.1,0.6,0.1c-1,0.1-1.7,0.2-2.5,0.3c-5.2,0.8-10.4,1.6-15.5,2.4
		c-5.6,0.9-11,2.4-16.4,4c-1.1,0.3-2.2,0.7-3.4,1c-0.6,0.1-1.2,0.1-1.8,0.2c0,0.1,0.1,0.4,0.1,0.8c0.2-0.1,0.4-0.3,0.6-0.3
		c0.4,0,0.8,0,1.1,0.2c0.2,0.2,0.3,0.6,0.4,0.9c0.1,0.4,0.1,0.8,0.1,1.2s0.2,1.1,0,1.2c-0.3,0.2-0.9,0.2-1.4,0.2
		c-0.2,0-0.4-0.1-0.7-0.2c0,0.9,0,1.6,0,2.5c0.2,0,0.3,0,0.4,0c2.7-1.4,5.6-2.2,8.6-2.8c4.2-0.8,8.5-1.5,12.7-2.2
		c3.1-0.5,6.2-1,9.4-1.3c2.8-0.3,5.6-0.2,8.4-0.3c0.1,0,0.2,0,0.3,0.2c-0.5,0-0.9,0-1.4,0c-3.2,0.4-6.5,0.7-9.7,1.1
		c-3.2,0.4-6.4,0.9-9.5,1.6c-5.1,1.1-10.1,2.3-15.1,3.5c-0.9,0.2-1.8,0.8-2.6,1.2c-0.2,0.1-0.5,0.4-0.5,0.6c0,0.2,0.3,0.4,0.6,0.5
		c1.9,0.7,3.9,1,6,1.1c5.9,0.1,11.7-0.7,17.5-2c4.5-1,8.9-2.1,13.3-3.2c2-0.5,3.8-1.3,5.8-2c0.8-0.3,1.1-0.7,0.9-1.6
		c-0.2-1-0.3-2-0.4-3.1c-0.9,0.7-1.7,1-2.4,0.2c-0.7-0.7-0.8-1.9-0.3-2.8c0.5-0.9,1.2-0.7,2.2-0.3c-0.1-0.7-0.2-1.3-0.2-1.9
		c-0.1-0.7,0.1-1.2,0.8-1.4c0.6-0.2,1.2,0.2,1.3,1c0.5,3.1,0.9,6.2,1.2,9.3c0.2,1.7-1.2,2.1-2.4,2.6c-3.7,1.5-7.6,2.4-11.5,3.3
		c-6.4,1.4-12.8,2.5-19.3,3.2c-3.4,0.3-6.8,0.6-10.1-0.1c-1.3-0.3-2.8-0.5-3.8-1.6c-0.5-0.5-0.7-1.2-1.6-1.3c-0.2,0-0.5-0.7-0.5-1.1
		c-0.1-2.2,0.2-4.5-0.1-6.6c-0.5-3.7-1.7-7.3-3.6-10.5c-0.8-1.3-1.9-2.3-2.9-3.5c-0.1-0.2-0.5-0.2-0.8-0.2c-0.9,0-1.8-0.5-2-1.2
		c-0.3-0.9,0.1-1.8,0.9-2.2c0.4-0.2,1-0.2,1.3,0s0.3,0.8,0.4,1.2c0.1,0.2,0,0.4,0,0.7c0.2,0,0.4,0,0.6-0.1c0.2-0.2,0.5-0.6,0.4-0.7
		c-0.4-0.8-0.5-1.8-1.6-2.2c-0.8-0.3-1.1-1.2-1-2c0.2-0.9,0.8-1.5,1.6-1.6c0.4-0.1,1,0.2,1.2,0.5c0.2,0.2,0,0.8-0.2,1.1
		c-0.1,0.2-0.3,0.3-0.4,0.4C5.9,217.4,5.9,217.5,6,217.5z"/>
	<path class="st6" d="M28.8,237.1c0.4,0.4,0.1,0.9-0.2,1.3c-0.4,0.5-1,0.8-1.6,0.6c-0.9-0.2-1.7-0.7-1.9-1.7
		c-0.2-1.1,0.6-1.6,1.3-2.2c0.3-0.2,0.7-0.3,1.1-0.5c0.6-0.2,1.1,0.1,1.3,0.6c0.2,0.5,0,1-0.5,1.3c-0.3,0.2-0.7,0.3-1,0.5
		c-0.1,0.1-0.3,0.4-0.2,0.5c0,0.1,0.4,0.3,0.5,0.3C27.9,237.7,28.3,237.4,28.8,237.1z"/>
	<path class="st6" d="M46.3,235.3c-0.1,0.8-0.8,1.1-1.4,1.3c-0.7,0.2-1.3-0.2-1.6-0.9c-0.5-1.2,0.3-3.1,1.5-3.6
		c0.7-0.2,1.2,0,1.6,0.5c0.5,0.7,0.2,1.5-0.6,1.6c-0.5,0.1-1.4,0-1.1,0.8c0.2,0.8,0.9,0.3,1.4,0.2C46.1,235.3,46.2,235.3,46.3,235.3
		z"/>
</g>
<g>
	<g>
		<path class="st5" d="M453.1,180.8c18.2-1.4,36.5-2.7,54.7-4.1c5.1-0.4,10.3-0.8,15.4-1.1c-0.2-1.6-0.4-3.3-0.7-4.9
			c-18.2,4.9-36.8,8.6-55.6,11c-5.4,0.7-10.7,1.2-16.1,1.7c-3.2,0.3-3.2,4.7,0,5c20.9,1.8,41.8,2.4,62.8,1.8c3.2-0.1,3.2-5.1,0-5
			c-20.9,0.6-41.9,0-62.8-1.8c0,1.7,0,3.3,0,5c19.2-1.6,38.3-4.6,57-8.8c5.3-1.2,10.7-2.5,16-4c2.6-0.7,2.2-5.1-0.7-4.9
			c-18.2,1.4-36.5,2.7-54.7,4.1c-5.1,0.4-10.3,0.8-15.4,1.1c-1.3,0.1-2.5,1.1-2.5,2.5C450.6,179.6,451.7,180.9,453.1,180.8
			L453.1,180.8z"/>
	</g>
</g>
</svg>
