<?xml version="1.0" encoding="utf-8"?>
<!-- Generator: Adobe Illustrator 25.3.1, SVG Export Plug-In . SVG Version: 6.00 Build 0)  -->
<svg version="1.1" id="Layer_1" xmlns="http://www.w3.org/2000/svg" xmlns:xlink="http://www.w3.org/1999/xlink" x="0px" y="0px"
	 viewBox="0 0 521.7 419.7" style="enable-background:new 0 0 521.7 419.7;" xml:space="preserve">
<style type="text/css">
	.st0{fill:#E6E7E8;}
	.st1{fill:#939598;}
	.st2{fill:#BCBEC0;}
	.st3{font-family:'Poppins-Medium';}
	.st4{font-size:24px;}
	.st5{fill:#EF002A;}
	.st6{fill:#0F0103;}
</style>
<path class="st0" d="M64.3,117H4.8c-2.2,0-4-1.8-4-4V53.5c0-2.2,1.8-4,4-4h59.4c2.2,0,4,1.8,4,4v59.4C68.3,115.2,66.5,117,64.3,117"
	/>
<path class="st0" d="M139.7,117H80.3c-2.2,0-4-1.8-4-4V53.5c0-2.2,1.8-4,4-4h59.4c2.2,0,4,1.8,4,4v59.4
	C143.8,115.2,141.9,117,139.7,117"/>
<path class="st0" d="M215.1,117h-59.4c-2.2,0-4-1.8-4-4V53.5c0-2.2,1.8-4,4-4h59.4c2.2,0,4,1.8,4,4v59.4
	C219.2,115.2,217.4,117,215.1,117"/>
<path class="st0" d="M290.6,117h-59.4c-2.2,0-4-1.8-4-4V53.5c0-2.2,1.8-4,4-4h59.4c2.2,0,4,1.8,4,4v59.4
	C294.6,115.2,292.8,117,290.6,117"/>
<path class="st0" d="M366,117h-59.4c-2.2,0-4-1.8-4-4V53.5c0-2.2,1.8-4,4-4H366c2.2,0,4,1.8,4,4v59.4C370,115.2,368.2,117,366,117"
	/>
<path class="st0" d="M441.4,117H382c-2.2,0-4-1.8-4-4V53.5c0-2.2,1.8-4,4-4h59.4c2.2,0,4,1.8,4,4v59.4
	C445.5,115.2,443.6,117,441.4,117"/>
<path class="st0" d="M516.8,117h-59.4c-2.2,0-4-1.8-4-4V53.5c0-2.2,1.8-4,4-4h59.4c2.2,0,4,1.8,4,4v59.4
	C520.9,115.2,519.1,117,516.8,117"/>
<path class="st0" d="M64.3,190.4H4.8c-2.2,0-4-1.8-4-4V127c0-2.2,1.8-4,4-4h59.4c2.2,0,4,1.8,4,4v59.4
	C68.3,188.6,66.5,190.4,64.3,190.4"/>
<path class="st0" d="M139.7,190.4H80.3c-2.2,0-4-1.8-4-4V127c0-2.2,1.8-4,4-4h59.4c2.2,0,4,1.8,4,4v59.4
	C143.8,188.6,141.9,190.4,139.7,190.4"/>
<path class="st0" d="M215.1,190.4h-59.4c-2.2,0-4-1.8-4-4V127c0-2.2,1.8-4,4-4h59.4c2.2,0,4,1.8,4,4v59.4
	C219.2,188.6,217.4,190.4,215.1,190.4"/>
<path class="st0" d="M290.6,190.4h-59.4c-2.2,0-4-1.8-4-4V127c0-2.2,1.8-4,4-4h59.4c2.2,0,4,1.8,4,4v59.4
	C294.6,188.6,292.8,190.4,290.6,190.4"/>
<path class="st0" d="M366,190.4h-59.4c-2.2,0-4-1.8-4-4V127c0-2.2,1.8-4,4-4H366c2.2,0,4,1.8,4,4v59.4
	C370,188.6,368.2,190.4,366,190.4"/>
<path class="st0" d="M441.4,190.4H382c-2.2,0-4-1.8-4-4V127c0-2.2,1.8-4,4-4h59.4c2.2,0,4,1.8,4,4v59.4
	C445.5,188.6,443.6,190.4,441.4,190.4"/>
<path class="st0" d="M516.8,190.4h-59.4c-2.2,0-4-1.8-4-4V127c0-2.2,1.8-4,4-4h59.4c2.2,0,4,1.8,4,4v59.4
	C520.9,188.6,519.1,190.4,516.8,190.4"/>
<path class="st0" d="M64.3,263.9H4.8c-2.2,0-4-1.8-4-4v-59.4c0-2.2,1.8-4,4-4h59.4c2.2,0,4,1.8,4,4v59.4
	C68.3,262.1,66.5,263.9,64.3,263.9"/>
<path class="st0" d="M139.7,263.9H80.3c-2.2,0-4-1.8-4-4v-59.4c0-2.2,1.8-4,4-4h59.4c2.2,0,4,1.8,4,4v59.4
	C143.8,262.1,141.9,263.9,139.7,263.9"/>
<path class="st0" d="M215.1,263.9h-59.4c-2.2,0-4-1.8-4-4v-59.4c0-2.2,1.8-4,4-4h59.4c2.2,0,4,1.8,4,4v59.4
	C219.2,262.1,217.4,263.9,215.1,263.9"/>
<path class="st0" d="M290.6,263.9h-59.4c-2.2,0-4-1.8-4-4v-59.4c0-2.2,1.8-4,4-4h59.4c2.2,0,4,1.8,4,4v59.4
	C294.6,262.1,292.8,263.9,290.6,263.9"/>
<path class="st0" d="M366,263.9h-59.4c-2.2,0-4-1.8-4-4v-59.4c0-2.2,1.8-4,4-4H366c2.2,0,4,1.8,4,4v59.4
	C370,262.1,368.2,263.9,366,263.9"/>
<path class="st0" d="M441.4,263.9H382c-2.2,0-4-1.8-4-4v-59.4c0-2.2,1.8-4,4-4h59.4c2.2,0,4,1.8,4,4v59.4
	C445.5,262.1,443.6,263.9,441.4,263.9"/>
<path class="st0" d="M516.8,263.9h-59.4c-2.2,0-4-1.8-4-4v-59.4c0-2.2,1.8-4,4-4h59.4c2.2,0,4,1.8,4,4v59.4
	C520.9,262.1,519.1,263.9,516.8,263.9"/>
<path class="st0" d="M64.3,337.4H4.8c-2.2,0-4-1.8-4-4V274c0-2.2,1.8-4,4-4h59.4c2.2,0,4,1.8,4,4v59.4
	C68.3,335.6,66.5,337.4,64.3,337.4"/>
<path class="st0" d="M139.7,337.4H80.3c-2.2,0-4-1.8-4-4V274c0-2.2,1.8-4,4-4h59.4c2.2,0,4,1.8,4,4v59.4
	C143.8,335.6,141.9,337.4,139.7,337.4"/>
<path class="st0" d="M215.1,337.4h-59.4c-2.2,0-4-1.8-4-4V274c0-2.2,1.8-4,4-4h59.4c2.2,0,4,1.8,4,4v59.4
	C219.2,335.6,217.4,337.4,215.1,337.4"/>
<path class="st0" d="M290.6,337.4h-59.4c-2.2,0-4-1.8-4-4V274c0-2.2,1.8-4,4-4h59.4c2.2,0,4,1.8,4,4v59.4
	C294.6,335.6,292.8,337.4,290.6,337.4"/>
<path class="st0" d="M366,337.4h-59.4c-2.2,0-4-1.8-4-4V274c0-2.2,1.8-4,4-4H366c2.2,0,4,1.8,4,4v59.4
	C370,335.6,368.2,337.4,366,337.4"/>
<path class="st0" d="M441.4,337.4H382c-2.2,0-4-1.8-4-4V274c0-2.2,1.8-4,4-4h59.4c2.2,0,4,1.8,4,4v59.4
	C445.5,335.6,443.6,337.4,441.4,337.4"/>
<path class="st0" d="M516.8,337.4h-59.4c-2.2,0-4-1.8-4-4V274c0-2.2,1.8-4,4-4h59.4c2.2,0,4,1.8,4,4v59.4
	C520.9,335.6,519.1,337.4,516.8,337.4"/>
<path class="st0" d="M64.3,410.9H4.8c-2.2,0-4-1.8-4-4v-59.4c0-2.2,1.8-4,4-4h59.4c2.2,0,4,1.8,4,4v59.4
	C68.3,409.1,66.5,410.9,64.3,410.9"/>
<path class="st0" d="M139.7,410.9H80.3c-2.2,0-4-1.8-4-4v-59.4c0-2.2,1.8-4,4-4h59.4c2.2,0,4,1.8,4,4v59.4
	C143.8,409.1,141.9,410.9,139.7,410.9"/>
<path class="st0" d="M215.1,410.9h-59.4c-2.2,0-4-1.8-4-4v-59.4c0-2.2,1.8-4,4-4h59.4c2.2,0,4,1.8,4,4v59.4
	C219.2,409.1,217.4,410.9,215.1,410.9"/>
<path class="st0" d="M290.6,410.9h-59.4c-2.2,0-4-1.8-4-4v-59.4c0-2.2,1.8-4,4-4h59.4c2.2,0,4,1.8,4,4v59.4
	C294.6,409.1,292.8,410.9,290.6,410.9"/>
<path class="st0" d="M366,410.9h-59.4c-2.2,0-4-1.8-4-4v-59.4c0-2.2,1.8-4,4-4H366c2.2,0,4,1.8,4,4v59.4
	C370,409.1,368.2,410.9,366,410.9"/>
<path class="st0" d="M441.4,410.9H382c-2.2,0-4-1.8-4-4v-59.4c0-2.2,1.8-4,4-4h59.4c2.2,0,4,1.8,4,4v59.4
	C445.5,409.1,443.6,410.9,441.4,410.9"/>
<path class="st0" d="M516.8,410.9h-59.4c-2.2,0-4-1.8-4-4v-59.4c0-2.2,1.8-4,4-4h59.4c2.2,0,4,1.8,4,4v59.4
	C520.9,409.1,519.1,410.9,516.8,410.9"/>
<g>
	<path class="st1" d="M42.2,34.6c0,5.1-3.5,8.3-8.9,8.3h-5.4V26.2h5.4C38.7,26.2,42.2,29.5,42.2,34.6z M33.3,40.7c3.9,0,6-2.3,6-6
		c0-3.8-2.1-6.2-6-6.2h-2.7v12.2H33.3z"/>
</g>
<g>
	<path class="st1" d="M109.2,26.2v14.5h5.6v2.2h-8.4V26.2H109.2z"/>
</g>
<g>
	<path class="st1" d="M416.7,26.2h2.9l-6.3,16.7h-3.2l-6.3-16.7h2.9l4.9,13.9L416.7,26.2z"/>
</g>
<g>
	<path class="st1" d="M252.1,26.2h3l5.9,13.1l5.8-13.1h2.9v16.7H267V31.5l-5.1,11.4H260l-5.1-11.4v11.4h-2.7L252.1,26.2L252.1,26.2z
		"/>
</g>
<g>
	<path class="st1" d="M337.6,26.2h2.8v12c0,3-2,4.8-4.9,4.8s-4.9-1.8-4.9-4.8h2.8c0,1.4,0.7,2.4,2.2,2.4s2.2-1,2.2-2.4v-12H337.6z"
		/>
</g>
<g>
	<path class="st1" d="M487.1,43.1c-3.3,0-5.9-1.8-5.9-4.8h2.9c0.1,1.4,1.1,2.5,3,2.5s3-1,3-2.4c0-4-8.9-1.4-8.9-7.6
		c0-2.9,2.3-4.8,5.7-4.8c3.2,0,5.4,1.7,5.7,4.5h-3c-0.1-1.1-1.1-2.2-2.8-2.2c-1.6,0-2.8,0.7-2.8,2.3c0,3.8,8.8,1.4,8.8,7.5
		C492.9,40.7,490.8,43.1,487.1,43.1z"/>
</g>
<g>
	<path class="st1" d="M176.6,26.2h3l5.9,13.1l5.8-13.1h2.9v16.7h-2.7V31.5l-5.1,11.4h-1.9l-5.1-11.4v11.4h-2.7L176.6,26.2
		L176.6,26.2z"/>
</g>
<g>
	<text transform="matrix(1 0 0 1 334.5328 90.8898)" class="st2 st3 st4">1</text>
	<text transform="matrix(1 0 0 1 407.2348 90.8898)" class="st2 st3 st4">2</text>
	<text transform="matrix(1 0 0 1 482.456 90.8898)" class="st2 st3 st4">3</text>
	<text transform="matrix(1 0 0 1 29.2657 164.6813)" class="st2 st3 st4">4</text>
	<text transform="matrix(1 0 0 1 332.2631 164.7053)" class="st2 st3 st4">8</text>
	<text transform="matrix(1 0 0 1 407.7247 164.7053)" class="st2 st3 st4">9</text>
	<text transform="matrix(1 0 0 1 478.8786 164.7053)" class="st2 st3 st4">10</text>
	<text transform="matrix(1 0 0 1 28.6295 241.7446)" class="st2 st3 st4">11</text>
	<text transform="matrix(1 0 0 1 326.0511 239.7802)" class="st2 st3 st4">15</text>
	<text transform="matrix(1 0 0 1 401.441 239.7802)" class="st2 st3 st4">16</text>
	<text transform="matrix(1 0 0 1 477.8503 239.7802)" class="st2 st3 st4">17</text>
	<text transform="matrix(1 0 0 1 25.174 314.7136)" class="st2 st3 st4">18</text>
	<text transform="matrix(1 0 0 1 323.934 314.2819)" class="st2 st3 st4">22</text>
	<text transform="matrix(1 0 0 1 399.1559 314.2819)" class="st2 st3 st4">23</text>
	<text transform="matrix(1 0 0 1 473.9451 314.2819)" class="st2 st3 st4">24</text>
	<text transform="matrix(1 0 0 1 22.4376 384.894)" class="st2 st3 st4">25</text>
	<text transform="matrix(1 0 0 1 324.7626 385.9179)" class="st2 st3 st4">29</text>
	<text transform="matrix(1 0 0 1 257.7735 164.7053)" class="st2 st3 st4">7</text>
	<text transform="matrix(1 0 0 1 250.5293 239.7802)" class="st2 st3 st4">14</text>
	<text transform="matrix(1 0 0 1 251.232 314.2819)" class="st2 st3 st4">21</text>
	<text transform="matrix(1 0 0 1 249.3013 385.9179)" class="st2 st3 st4">28</text>
	<text transform="matrix(1 0 0 1 181.3635 164.7053)" class="st2 st3 st4">6</text>
	<text transform="matrix(1 0 0 1 175.74 239.7802)" class="st2 st3 st4">13</text>
	<text transform="matrix(1 0 0 1 172.3147 314.2819)" class="st2 st3 st4">20</text>
	<text transform="matrix(1 0 0 1 174.8112 385.9179)" class="st2 st3 st4">27</text>
	<text transform="matrix(1 0 0 1 105.9735 164.7053)" class="st2 st3 st4">5</text>
	<text transform="matrix(1 0 0 1 100.5174 239.7802)" class="st2 st3 st4">12</text>
	<text transform="matrix(1 0 0 1 99.6845 314.2819)" class="st2 st3 st4">19</text>
	<text transform="matrix(1 0 0 1 98.4012 385.9179)" class="st2 st3 st4">26</text>
	<text transform="matrix(1 0 0 1 399.9127 385.9179)" class="st2 st3 st4">30</text>
	<text transform="matrix(1 0 0 1 478.9548 386.1274)" class="st2 st3 st4">31</text>
</g>
<g>
	<g>
		<path class="st5" d="M434.4,263.4c-7.9,0-15.9-0.8-23.6-2.3c-7-1.4-13.6-3.8-19.6-7.8c-5.7-3.9-11.2-9.9-11.9-17.1
			c-0.3-3.3,0.7-6.3,3.2-8.3c2.3-1.9,5.4-2.6,8.3-2.6c8.6,0,15.3,7.3,20.8,13.1c2,2.1,5.2-0.6,3.9-3c-3.6-7-6.9-14.6-7.4-22.5
			c-0.2-3.7,0.1-7.5,1.6-10.9c0.6-1.4,1.4-2.7,2.6-3.6c1.4-1,3.1-1.3,4.8-1.2c6.2,0.1,11.4,4.4,14.7,9.4c3.8,5.8,5.6,12.7,5.7,19.6
			c0.1,8.4-2.1,16.6-6.6,23.7c-1.7,2.7,2.6,5.2,4.3,2.5c8.7-13.9,10.2-33.4,1.4-47.6c-4-6.4-10.2-11.6-17.9-12.5
			c-4.2-0.5-8.6,0.6-11.4,4s-3.8,8-4.2,12.3c-0.8,10.3,3.5,20.4,8.1,29.4c1.3-1,2.6-2,3.9-3c-5.9-6.3-12.7-13.2-21.7-14.3
			c-7.4-1-15.8,2.3-18.4,9.8c-1.6,4.6-0.4,9.6,1.5,13.9c1.7,3.7,4.3,7,7.3,9.7c6,5.4,13.5,9.1,21.3,11.2c9.5,2.5,19.5,3.5,29.3,3.5
			C437.6,268.4,437.6,263.4,434.4,263.4L434.4,263.4z"/>
	</g>
</g>
<g>
	<g>
		<path class="st5" d="M40.6,342.8c-15.2-3.6-31.9,5.3-37.2,20c-2.7,7.6-2.1,16.6,1.8,23.7c4.3,7.6,12.3,11.9,20.5,13.9
			c16,3.9,37.1,2.1,45.9-14c3.7-6.8,4.5-15.4,0.5-22.3c-4.2-7.1-12.1-11-19.8-13c-14.2-3.6-31.4-1.1-41.8,10
			c-1.3,1.4-2.5,2.9-3.6,4.5c-1.8,2.7,2.5,5.2,4.3,2.5c7.3-11.1,21.7-14.6,34.2-13.2c6.5,0.7,13.6,3,18.6,7.4
			c2.5,2.2,4.4,4.9,5.3,8.1c0.8,3,0.6,6.2-0.3,9.2c-2,6.7-6.9,11.7-13.2,14.6c-7.1,3.2-15.4,3.4-23,2.4c-7.2-0.9-14.9-3.1-20.2-8.5
			c-4.8-4.9-6.7-12.1-5.8-18.8c1.7-13.3,14.6-22.9,27.7-22.4c1.6,0.1,3.1,0.3,4.6,0.6C42.4,348.4,43.7,343.6,40.6,342.8L40.6,342.8z
			"/>
	</g>
</g>
<g>
	<g>
		<path class="st5" d="M380.2,394c18.2-1.4,36.5-2.7,54.7-4.1c5.1-0.4,10.3-0.8,15.4-1.1c-0.2-1.6-0.4-3.3-0.7-4.9
			c-18.2,4.9-36.8,8.6-55.6,11c-5.4,0.7-10.7,1.2-16.1,1.7c-3.2,0.3-3.2,4.7,0,5c20.9,1.8,41.8,2.4,62.8,1.8c3.2-0.1,3.2-5.1,0-5
			c-20.9,0.6-41.9,0-62.8-1.8c0,1.7,0,3.3,0,5c19.2-1.6,38.3-4.6,57-8.8c5.3-1.2,10.7-2.5,16-4c2.6-0.7,2.2-5.1-0.7-4.9
			c-18.2,1.4-36.5,2.7-54.7,4.1c-5.1,0.4-10.3,0.8-15.4,1.1c-1.3,0.1-2.5,1.1-2.5,2.5C377.7,392.8,378.8,394.1,380.2,394L380.2,394z
			"/>
	</g>
</g>
<g>
	<g>
		<path class="st6" d="M11.7,387c11.6-10.1,23.4-20.2,35.1-30.4c3.3-2.9,6.6-5.7,9.9-8.5c-1.2-1.5-2.5-3-3.8-4.4
			c-9.3,13.6-19.6,26.1-31,37.5c-3.3,3.3-6.6,6.3-10,9.4c-2,1.8,1,6.1,3.4,4.9c15.7-8.3,30.5-17.8,44.7-28.6
			c2.1-1.6-1.2-6.5-3.4-4.9c-14,10.7-29,20.2-44.7,28.6c1.2,1.7,2.2,3.2,3.4,4.9c12.2-10.8,23.4-23,33.5-36.1
			c2.9-3.7,5.7-7.6,8.4-11.6c1.3-1.9-1.9-6-3.8-4.4c-11.6,10.1-23.4,20.2-35.1,30.4c-3.3,2.9-6.6,5.7-9.9,8.5c-0.8,0.7-1,2.3,0,3.6
			C9.2,387.1,10.8,387.8,11.7,387L11.7,387z"/>
	</g>
</g>
<g>
	<g>
		<path class="st6" d="M29.7,398c9.3-8.5,18.7-16.9,27.9-25.4c2.6-2.4,5.2-4.8,7.9-7.1c-1.2-1.5-2.5-3.1-3.7-4.5
			C55,372.9,47,383.8,38.1,393.5c-2.6,2.8-5.2,5.4-7.9,8c-1.6,1.5,1.4,5.8,3.4,4.9c13-6.4,25.1-14,36.5-22.9
			c1.7-1.4-1.7-6.2-3.4-4.9c-11.3,8.8-23.5,16.4-36.5,22.9c1.2,1.7,2.2,3.2,3.4,4.9c9.7-9.1,18.4-19.5,26-30.9
			c2.2-3.2,4.3-6.6,6.3-10.2c1-1.7-2.2-5.8-3.7-4.5c-9.3,8.5-18.7,16.9-27.9,25.4c-2.6,2.4-5.2,4.8-7.9,7.1
			c-0.7,0.6-0.7,2.1,0.3,3.4C27.5,397.8,29,398.6,29.7,398L29.7,398z"/>
	</g>
</g>
<g>
	<g>
		<path class="st6" d="M9.6,368.9c7-6.9,14-13.7,21-20.6c1.9-1.9,3.9-3.9,5.9-5.7c-1.2-1.5-2.4-3.1-3.6-4.6
			c-4.6,10.3-10.1,19.5-16.7,27.6c-1.9,2.3-3.8,4.4-5.8,6.5c-1.2,1.3,1.8,5.5,3.4,4.9c10.3-4.6,19.8-10.3,28.5-17.3
			c1.3-1.1-2.1-5.9-3.4-4.9c-8.7,6.9-18.2,12.7-28.5,17.3c1.2,1.7,2.2,3.2,3.4,4.9c7.3-7.4,13.5-16.1,18.8-25.8
			c1.5-2.8,3-5.7,4.2-8.7c0.7-1.5-2.5-5.6-3.6-4.6c-7,6.9-14,13.7-21,20.6c-1.9,1.9-3.9,3.9-5.9,5.7c-0.5,0.5-0.3,1.8,0.6,3.2
			C7.7,368.5,9,369.5,9.6,368.9L9.6,368.9z"/>
	</g>
</g>
</svg>
