<?xml version="1.0" encoding="utf-8"?>
<!-- Generator: Adobe Illustrator 25.3.1, SVG Export Plug-In . SVG Version: 6.00 Build 0)  -->
<svg version="1.1" id="Layer_2_1_" xmlns="http://www.w3.org/2000/svg" xmlns:xlink="http://www.w3.org/1999/xlink" x="0px" y="0px"
	 viewBox="0 0 521.7 419.7" style="enable-background:new 0 0 521.7 419.7;" xml:space="preserve">
<style type="text/css">
	.st0{fill:#E6E7E8;}
	.st1{fill:#939598;}
	.st2{fill:#BCBEC0;}
	.st3{font-family:'Poppins-Medium';}
	.st4{font-size:24px;}
	.st5{fill:#7F4F9C;stroke:#7F4F9C;stroke-width:2;stroke-miterlimit:10;}
	.st6{fill:#EF202A;}
</style>
<path class="st0" d="M64.3,117H4.9c-2.2,0-4-1.8-4-4V53.5c0-2.2,1.8-4,4-4h59.4c2.2,0,4,1.8,4,4v59.4C68.4,115.2,66.6,117,64.3,117"
	/>
<path class="st0" d="M139.8,117H80.3c-2.2,0-4-1.8-4-4V53.5c0-2.2,1.8-4,4-4h59.4c2.2,0,4,1.8,4,4v59.4
	C143.8,115.2,142,117,139.8,117"/>
<path class="st0" d="M215.2,117h-59.4c-2.2,0-4-1.8-4-4V53.5c0-2.2,1.8-4,4-4h59.4c2.2,0,4,1.8,4,4v59.4
	C219.2,115.2,217.4,117,215.2,117"/>
<path class="st0" d="M290.6,117h-59.4c-2.2,0-4-1.8-4-4V53.5c0-2.2,1.8-4,4-4h59.4c2.2,0,4,1.8,4,4v59.4
	C294.7,115.2,292.8,117,290.6,117"/>
<path class="st0" d="M366,117h-59.4c-2.2,0-4-1.8-4-4V53.5c0-2.2,1.8-4,4-4H366c2.2,0,4,1.8,4,4v59.4C370.1,115.2,368.3,117,366,117
	"/>
<path class="st0" d="M441.5,117H382c-2.2,0-4-1.8-4-4V53.5c0-2.2,1.8-4,4-4h59.4c2.2,0,4,1.8,4,4v59.4
	C445.5,115.2,443.7,117,441.5,117"/>
<path class="st0" d="M516.9,117h-59.4c-2.2,0-4-1.8-4-4V53.5c0-2.2,1.8-4,4-4h59.4c2.2,0,4,1.8,4,4v59.4
	C520.9,115.2,519.1,117,516.9,117"/>
<path class="st0" d="M64.3,190.4H4.9c-2.2,0-4-1.8-4-4V127c0-2.2,1.8-4,4-4h59.4c2.2,0,4,1.8,4,4v59.4
	C68.4,188.6,66.6,190.4,64.3,190.4"/>
<path class="st0" d="M139.8,190.4H80.3c-2.2,0-4-1.8-4-4V127c0-2.2,1.8-4,4-4h59.4c2.2,0,4,1.8,4,4v59.4
	C143.8,188.6,142,190.4,139.8,190.4"/>
<path class="st0" d="M215.2,190.4h-59.4c-2.2,0-4-1.8-4-4V127c0-2.2,1.8-4,4-4h59.4c2.2,0,4,1.8,4,4v59.4
	C219.2,188.6,217.4,190.4,215.2,190.4"/>
<path class="st0" d="M290.6,190.4h-59.4c-2.2,0-4-1.8-4-4V127c0-2.2,1.8-4,4-4h59.4c2.2,0,4,1.8,4,4v59.4
	C294.7,188.6,292.8,190.4,290.6,190.4"/>
<path class="st0" d="M366,190.4h-59.4c-2.2,0-4-1.8-4-4V127c0-2.2,1.8-4,4-4H366c2.2,0,4,1.8,4,4v59.4
	C370.1,188.6,368.3,190.4,366,190.4"/>
<path class="st0" d="M441.5,190.4H382c-2.2,0-4-1.8-4-4V127c0-2.2,1.8-4,4-4h59.4c2.2,0,4,1.8,4,4v59.4
	C445.5,188.6,443.7,190.4,441.5,190.4"/>
<path class="st0" d="M516.9,190.4h-59.4c-2.2,0-4-1.8-4-4V127c0-2.2,1.8-4,4-4h59.4c2.2,0,4,1.8,4,4v59.4
	C520.9,188.6,519.1,190.4,516.9,190.4"/>
<path class="st0" d="M64.3,263.9H4.9c-2.2,0-4-1.8-4-4v-59.4c0-2.2,1.8-4,4-4h59.4c2.2,0,4,1.8,4,4v59.4
	C68.4,262.1,66.6,263.9,64.3,263.9"/>
<path class="st0" d="M139.8,263.9H80.3c-2.2,0-4-1.8-4-4v-59.4c0-2.2,1.8-4,4-4h59.4c2.2,0,4,1.8,4,4v59.4
	C143.8,262.1,142,263.9,139.8,263.9"/>
<path class="st0" d="M215.2,263.9h-59.4c-2.2,0-4-1.8-4-4v-59.4c0-2.2,1.8-4,4-4h59.4c2.2,0,4,1.8,4,4v59.4
	C219.2,262.1,217.4,263.9,215.2,263.9"/>
<path class="st0" d="M290.6,263.9h-59.4c-2.2,0-4-1.8-4-4v-59.4c0-2.2,1.8-4,4-4h59.4c2.2,0,4,1.8,4,4v59.4
	C294.7,262.1,292.8,263.9,290.6,263.9"/>
<path class="st0" d="M366,263.9h-59.4c-2.2,0-4-1.8-4-4v-59.4c0-2.2,1.8-4,4-4H366c2.2,0,4,1.8,4,4v59.4
	C370.1,262.1,368.3,263.9,366,263.9"/>
<path class="st0" d="M441.5,263.9H382c-2.2,0-4-1.8-4-4v-59.4c0-2.2,1.8-4,4-4h59.4c2.2,0,4,1.8,4,4v59.4
	C445.5,262.1,443.7,263.9,441.5,263.9"/>
<path class="st0" d="M516.9,263.9h-59.4c-2.2,0-4-1.8-4-4v-59.4c0-2.2,1.8-4,4-4h59.4c2.2,0,4,1.8,4,4v59.4
	C520.9,262.1,519.1,263.9,516.9,263.9"/>
<path class="st0" d="M64.3,337.4H4.9c-2.2,0-4-1.8-4-4V274c0-2.2,1.8-4,4-4h59.4c2.2,0,4,1.8,4,4v59.4
	C68.4,335.6,66.6,337.4,64.3,337.4"/>
<path class="st0" d="M139.8,337.4H80.3c-2.2,0-4-1.8-4-4V274c0-2.2,1.8-4,4-4h59.4c2.2,0,4,1.8,4,4v59.4
	C143.8,335.6,142,337.4,139.8,337.4"/>
<path class="st0" d="M215.2,337.4h-59.4c-2.2,0-4-1.8-4-4V274c0-2.2,1.8-4,4-4h59.4c2.2,0,4,1.8,4,4v59.4
	C219.2,335.6,217.4,337.4,215.2,337.4"/>
<path class="st0" d="M290.6,337.4h-59.4c-2.2,0-4-1.8-4-4V274c0-2.2,1.8-4,4-4h59.4c2.2,0,4,1.8,4,4v59.4
	C294.7,335.6,292.8,337.4,290.6,337.4"/>
<path class="st0" d="M366,337.4h-59.4c-2.2,0-4-1.8-4-4V274c0-2.2,1.8-4,4-4H366c2.2,0,4,1.8,4,4v59.4
	C370.1,335.6,368.3,337.4,366,337.4"/>
<path class="st0" d="M441.5,337.4H382c-2.2,0-4-1.8-4-4V274c0-2.2,1.8-4,4-4h59.4c2.2,0,4,1.8,4,4v59.4
	C445.5,335.6,443.7,337.4,441.5,337.4"/>
<path class="st0" d="M516.9,337.4h-59.4c-2.2,0-4-1.8-4-4V274c0-2.2,1.8-4,4-4h59.4c2.2,0,4,1.8,4,4v59.4
	C520.9,335.6,519.1,337.4,516.9,337.4"/>
<path class="st0" d="M64.3,410.9H4.9c-2.2,0-4-1.8-4-4v-59.4c0-2.2,1.8-4,4-4h59.4c2.2,0,4,1.8,4,4v59.4
	C68.4,409.1,66.6,410.9,64.3,410.9"/>
<path class="st0" d="M139.8,410.9H80.3c-2.2,0-4-1.8-4-4v-59.4c0-2.2,1.8-4,4-4h59.4c2.2,0,4,1.8,4,4v59.4
	C143.8,409.1,142,410.9,139.8,410.9"/>
<path class="st0" d="M215.2,410.9h-59.4c-2.2,0-4-1.8-4-4v-59.4c0-2.2,1.8-4,4-4h59.4c2.2,0,4,1.8,4,4v59.4
	C219.2,409.1,217.4,410.9,215.2,410.9"/>
<path class="st0" d="M290.6,410.9h-59.4c-2.2,0-4-1.8-4-4v-59.4c0-2.2,1.8-4,4-4h59.4c2.2,0,4,1.8,4,4v59.4
	C294.7,409.1,292.8,410.9,290.6,410.9"/>
<path class="st0" d="M366,410.9h-59.4c-2.2,0-4-1.8-4-4v-59.4c0-2.2,1.8-4,4-4H366c2.2,0,4,1.8,4,4v59.4
	C370.1,409.1,368.3,410.9,366,410.9"/>
<path class="st0" d="M441.5,410.9H382c-2.2,0-4-1.8-4-4v-59.4c0-2.2,1.8-4,4-4h59.4c2.2,0,4,1.8,4,4v59.4
	C445.5,409.1,443.7,410.9,441.5,410.9"/>
<path class="st0" d="M516.9,410.9h-59.4c-2.2,0-4-1.8-4-4v-59.4c0-2.2,1.8-4,4-4h59.4c2.2,0,4,1.8,4,4v59.4
	C520.9,409.1,519.1,410.9,516.9,410.9"/>
<g>
	<path class="st1" d="M42.2,34.6c0,5.1-3.5,8.3-8.9,8.3h-5.4V26.2h5.4C38.7,26.2,42.2,29.5,42.2,34.6z M33.4,40.7c3.9,0,6-2.3,6-6
		c0-3.8-2.1-6.2-6-6.2h-2.7v12.2H33.4z"/>
</g>
<g>
	<path class="st1" d="M109.2,26.2v14.5h5.6v2.2h-8.4V26.2H109.2z"/>
</g>
<g>
	<path class="st1" d="M416.7,26.2h2.9l-6.3,16.7h-3.2l-6.3-16.7h2.9l4.9,13.9L416.7,26.2z"/>
</g>
<g>
	<path class="st1" d="M252.1,26.2h3l5.9,13.1l5.8-13.1h2.9v16.7H267V31.5l-5.1,11.4H260l-5.1-11.4v11.4h-2.7L252.1,26.2L252.1,26.2z
		"/>
</g>
<g>
	<path class="st1" d="M337.6,26.2h2.8v12c0,3-2,4.8-4.9,4.8s-4.9-1.8-4.9-4.8h2.8c0,1.4,0.7,2.4,2.2,2.4s2.2-1,2.2-2.4v-12H337.6z"
		/>
</g>
<g>
	<path class="st1" d="M487.1,43.1c-3.3,0-5.9-1.8-5.9-4.8h2.9c0.1,1.4,1.1,2.5,3,2.5s3-1,3-2.4c0-4-8.9-1.4-8.9-7.6
		c0-2.9,2.3-4.8,5.7-4.8c3.2,0,5.4,1.7,5.7,4.5h-3c-0.1-1.1-1.1-2.2-2.8-2.2c-1.6,0-2.8,0.7-2.8,2.3c0,3.8,8.8,1.4,8.8,7.5
		C492.9,40.7,490.9,43.1,487.1,43.1z"/>
</g>
<g>
	<path class="st1" d="M176.6,26.2h3l5.9,13.1l5.8-13.1h2.9v16.7h-2.7V31.5l-5.1,11.4h-1.9l-5.1-11.4v11.4h-2.7L176.6,26.2
		L176.6,26.2z"/>
</g>
<text transform="matrix(1 0 0 1 257.6545 95.6032)" class="st2 st3 st4">1</text>
<text transform="matrix(1 0 0 1 330.3564 95.6032)" class="st2 st3 st4">2</text>
<text transform="matrix(1 0 0 1 101.8894 165.8505)" class="st2 st3 st4">6</text>
<text transform="matrix(1 0 0 1 181.2998 165.8505)" class="st2 st3 st4">7</text>
<text transform="matrix(1 0 0 1 249.4911 166.4186)" class="st2 st3 st4">8</text>
<text transform="matrix(1 0 0 1 326.953 166.4186)" class="st2 st3 st4">9</text>
<text transform="matrix(1 0 0 1 96.982 236.9932)" class="st2 st3 st4">13</text>
<text transform="matrix(1 0 0 1 171.7718 235.9932)" class="st2 st3 st4">14</text>
<text transform="matrix(1 0 0 1 248.4111 236.4936)" class="st2 st3 st4">15</text>
<text transform="matrix(1 0 0 1 324.801 236.4936)" class="st2 st3 st4">16</text>
<text transform="matrix(1 0 0 1 97.9914 312.0911)" class="st2 st3 st4">20</text>
<text transform="matrix(1 0 0 1 176.9091 312.0911)" class="st2 st3 st4">21</text>
<text transform="matrix(1 0 0 1 246.4111 311.9953)" class="st2 st3 st4">22</text>
<text transform="matrix(1 0 0 1 321.6331 311.9953)" class="st2 st3 st4">23</text>
<text transform="matrix(1 0 0 1 95.5663 384.6081)" class="st2 st3 st4">27</text>
<text transform="matrix(1 0 0 1 29.5 165.8505)" class="st2 st3 st4">5</text>
<text transform="matrix(1 0 0 1 21.76 235.9932)" class="st2 st3 st4">12</text>
<text transform="matrix(1 0 0 1 25.3617 312.0911)" class="st2 st3 st4">19</text>
<text transform="matrix(1 0 0 1 20.1568 384.6081)" class="st2 st3 st4">26</text>
<text transform="matrix(1 0 0 1 481.3193 94.769)" class="st2 st3 st4">4</text>
<text transform="matrix(1 0 0 1 479.0742 166.395)" class="st2 st3 st4">11</text>
<text transform="matrix(1 0 0 1 476.7801 236.5891)" class="st2 st3 st4">18</text>
<text transform="matrix(1 0 0 1 473.7373 311.7553)" class="st2 st3 st4">25</text>
<text transform="matrix(1 0 0 1 404.5289 94.769)" class="st2 st3 st4">3</text>
<text transform="matrix(1 0 0 1 397.1562 166.395)" class="st2 st3 st4">10</text>
<text transform="matrix(1 0 0 1 400.2895 236.5891)" class="st2 st3 st4">17</text>
<text transform="matrix(1 0 0 1 401.215 311.7553)" class="st2 st3 st4">24</text>
<text transform="matrix(1 0 0 1 170.0567 386.6081)" class="st2 st3 st4">28</text>
<text transform="matrix(1 0 0 1 247.2112 385.6313)" class="st2 st3 st4">29</text>
<text transform="matrix(1 0 0 1 322.361 385.6313)" class="st2 st3 st4">30</text>
<g>
	<path class="st5" d="M-142.7,226.6c0.6-0.1,1.2-0.2,1.9-0.3c0,0.2,0,0.5,0,0.8c0,0.4-0.2,0.9,0,1.2c1.7,4.2,4.3,7.7,8.2,10.2
		c1.2,0.8,2.1,0.6,3-0.6c1.4-1.9,2.1-4.1,2.5-6.4c0.4-2.5,0.7-5,1-7.5c0.1-0.7,0-1.3-0.8-1.7s-1.2-1.6-1-2.3c0.3-1.1,1.1-1.8,2.1-2
		c0.3-0.1,1,0.3,1.2,0.7c0.3,0.5-0.1,1-0.6,1.3s-0.8,0.5-0.6,1.1c0.1,0.2,0.4,0.6,0.5,0.6c0.3,0,0.5-0.3,0.7-0.5
		c0.1-0.1,0.1-0.3,0.2-0.7c0.3,0.5,0.5,0.8,0.6,1.1c0.3,2.7,1.1,5.3,2.2,7.8c0.6,1.3,1.4,2.6,2.3,3.8c2.2,3.1,5.2,3.1,7.7,0.2
		c2-2.3,3.4-4.9,4.6-7.6c0.6-1.4,1.3-2.9,2-4.3c0.2-0.4,0.2-0.7-0.2-1.1c-0.7-0.7-0.9-1.5-0.4-2.2c0.5-0.8,1.2-1.5,2.3-1.5
		c0.3,0,0.7,0.4,0.8,0.7s-0.1,0.7-0.3,1c-0.1,0.2-0.5,0.3-0.7,0.4c-0.1,0.1-0.2,0.3-0.3,0.4c0.2,0.1,0.3,0.2,0.5,0.2
		c0.5-0.1,0.9-0.2,1.5-0.3c0,0.1,0.1,0.3,0.1,0.5c0.1,1.1,0,2.1,0.2,3.2c0.5,3.1,1,6.3,2.3,9.2c0.3,0.7,0.8,1.4,1.1,2.1
		c0.2,0.5,0.6,0.5,1.1,0.4c2.3-0.6,3.4-2.4,4.3-4.4c0.9-1.9,1.7-3.9,2.6-5.9c0.4-0.9,0.6-1.8,0.3-2.8c-0.3-1.2,1-2.9,2.3-3
		c0.6-0.1,1,0.2,1.1,0.8c0.2,0.5-0.1,0.9-0.5,1.2c-0.3,0.2-0.6,0.3-0.9,0.5c-0.4,0.3-0.5,0.6-0.2,1c0.3,0.3,0.7,0.5,1.1,0.1
		c0.2-0.2,0.3-0.3,0.5-0.5c0.4,0.8,0.3,1.3-0.5,1.5c-0.6,0.2-0.8,0.6-0.9,1.2c-0.3,3.2-0.7,6.5-1.1,9.7c-0.1,0.7-0.3,1.3-0.5,1.9
		c-0.6-1-0.6-2.1-0.6-3.1c-0.1-1.9-0.1-3.8-0.1-5.7c0-0.1,0-0.2-0.2-0.4c-0.2,0.7-0.5,1.4-0.7,2.1c-0.7,2.2-1.6,4.4-3.4,6
		c-0.9,0.9-2.1,1.4-3.4,1.4c-0.9,0-1.6-0.7-2-1.4c-0.9-1.9-1.8-3.7-2.4-5.7c-0.7-2.3-1.2-4.8-1.7-7.2c-0.1-0.3-0.2-0.5-0.3-1
		c-0.2,0.5-0.3,0.7-0.4,1c-1.1,3.7-2.5,7.2-4.6,10.4c-0.7,1.1-1.6,2.2-2.6,3.1c-2.6,2.2-4.7,2.2-7.4,0c-2.6-2.1-4.2-4.9-5.2-8.1
		c-0.1-0.4-0.3-0.9-0.4-1.3c0-0.1-0.1-0.2-0.3-0.5c-0.1,0.8-0.1,1.3-0.2,1.8c-0.2,3.2-0.6,6.3-1.9,9.2c-0.5,1.1-1.1,2.1-1.9,3
		c-0.8,1-2.1,1.2-3.3,0.6c-4-2-7-5-9.2-8.9c-0.1-0.2-0.3-0.4-0.6-0.6c0,0.2,0,0.5-0.1,0.7s-0.2,0.4-0.3,0.7c0.3,0.3,0.6,0.6,1,0.9
		c2.4,1.6,3.7,4,4.7,6.6c0.6,1.6,1.1,3.1,1.7,4.7c0.1,0.2,0.2,0.5,0.4,0.8c1.2-1.4,2.8-1.4,4.2-1.8c6.5-1.8,13.1-3.2,19.9-4
		c3.7-0.4,7.5-0.7,11.3-1c1.3-0.1,2.7,0,4,0c0.1,0,0.3,0.1,0.6,0.1c-1,0.1-1.7,0.2-2.5,0.3c-5.2,0.8-10.4,1.6-15.5,2.4
		c-5.6,0.9-11,2.4-16.4,4c-1.1,0.3-2.2,0.7-3.4,1c-0.6,0.1-1.2,0.1-1.8,0.2c0,0.1,0.1,0.4,0.1,0.8c0.2-0.1,0.4-0.3,0.6-0.3
		c0.4,0,0.8,0,1.1,0.2c0.2,0.2,0.3,0.6,0.4,0.9c0.1,0.4,0.1,0.8,0.1,1.2s0.2,1.1,0,1.2c-0.3,0.2-0.9,0.2-1.4,0.2
		c-0.2,0-0.4-0.1-0.7-0.2c0,0.9,0,1.6,0,2.5c0.2,0,0.3,0,0.4,0c2.7-1.4,5.6-2.2,8.6-2.8c4.2-0.8,8.5-1.5,12.7-2.2
		c3.1-0.5,6.2-1,9.4-1.3c2.8-0.3,5.6-0.2,8.4-0.3c0.1,0,0.2,0,0.3,0.2c-0.5,0-0.9,0-1.4,0c-3.2,0.4-6.5,0.7-9.7,1.1
		c-3.2,0.4-6.4,0.9-9.5,1.6c-5.1,1.1-10.1,2.3-15.1,3.5c-0.9,0.2-1.8,0.8-2.6,1.2c-0.2,0.1-0.5,0.4-0.5,0.6c0,0.2,0.3,0.4,0.6,0.5
		c1.9,0.7,3.9,1,6,1.1c5.9,0.1,11.7-0.7,17.5-2c4.5-1,8.9-2.1,13.3-3.2c2-0.5,3.8-1.3,5.8-2c0.8-0.3,1.1-0.7,0.9-1.6
		c-0.2-1-0.3-2-0.4-3.1c-0.9,0.7-1.7,1-2.4,0.2c-0.7-0.7-0.8-1.9-0.3-2.8c0.5-0.9,1.2-0.7,2.2-0.3c-0.1-0.7-0.2-1.3-0.2-1.9
		c-0.1-0.7,0.1-1.2,0.8-1.4c0.6-0.2,1.2,0.2,1.3,1c0.5,3.1,0.9,6.2,1.2,9.3c0.2,1.7-1.2,2.1-2.4,2.6c-3.7,1.5-7.6,2.4-11.5,3.3
		c-6.4,1.4-12.8,2.5-19.3,3.2c-3.4,0.3-6.8,0.6-10.1-0.1c-1.3-0.3-2.8-0.5-3.8-1.6c-0.5-0.5-0.7-1.2-1.6-1.3c-0.2,0-0.5-0.7-0.5-1.1
		c-0.1-2.2,0.2-4.5-0.1-6.6c-0.5-3.7-1.7-7.3-3.6-10.5c-0.8-1.3-1.9-2.3-2.9-3.5c-0.1-0.2-0.5-0.2-0.8-0.2c-0.9,0-1.8-0.5-2-1.2
		c-0.3-0.9,0.1-1.8,0.9-2.2c0.4-0.2,1-0.2,1.3,0s0.3,0.8,0.4,1.2c0.1,0.2,0,0.4,0,0.7c0.2,0,0.4,0,0.6-0.1c0.2-0.2,0.5-0.6,0.4-0.7
		c-0.4-0.8-0.5-1.8-1.6-2.2c-0.8-0.3-1.1-1.2-1-2c0.2-0.9,0.8-1.5,1.6-1.6c0.4-0.1,1,0.2,1.2,0.5c0.2,0.2,0,0.8-0.2,1.1
		c-0.1,0.2-0.3,0.3-0.4,0.4C-142.8,226.5-142.8,226.6-142.7,226.6z"/>
	<path class="st5" d="M-119.9,246.2c0.4,0.4,0.1,0.9-0.2,1.3c-0.4,0.5-1,0.8-1.6,0.6c-0.9-0.2-1.7-0.7-1.9-1.7
		c-0.2-1.1,0.6-1.6,1.3-2.2c0.3-0.2,0.7-0.3,1.1-0.5c0.6-0.2,1.1,0.1,1.3,0.6c0.2,0.5,0,1-0.5,1.3c-0.3,0.2-0.7,0.3-1,0.5
		c-0.1,0.1-0.3,0.4-0.2,0.5c0,0.1,0.4,0.3,0.5,0.3C-120.8,246.8-120.4,246.5-119.9,246.2z"/>
	<path class="st5" d="M-102.4,244.4c-0.1,0.8-0.8,1.1-1.4,1.3c-0.7,0.2-1.3-0.2-1.6-0.9c-0.5-1.2,0.3-3.1,1.5-3.6
		c0.7-0.2,1.2,0,1.6,0.5c0.5,0.7,0.2,1.5-0.6,1.6c-0.5,0.1-1.4,0-1.1,0.8c0.2,0.8,0.9,0.3,1.4,0.2
		C-102.6,244.4-102.5,244.4-102.4,244.4z"/>
</g>
<g>
	<g>
		<path class="st6" d="M232,251.8c15.5-1.2,31.1-2.3,46.6-3.5c4.3-0.3,8.8-0.7,13.1-0.9c-0.2-1.4-0.3-2.8-0.6-4.2
			c-15.5,4.2-31.3,7.4-47.4,9.4c-4.6,0.6-9.1,1-13.7,1.5c-2.7,0.3-2.7,4,0,4.3c17.8,1.5,35.6,2.1,53.5,1.5c2.7-0.1,2.7-4.4,0-4.3
			c-17.8,0.5-35.7,0-53.5-1.5c0,1.5,0,2.8,0,4.3c16.4-1.4,32.6-3.9,48.6-7.5c4.5-1,9.1-2.1,13.6-3.4c2.2-0.6,1.9-4.4-0.6-4.2
			c-15.5,1.2-31.1,2.3-46.6,3.5c-4.3,0.3-8.8,0.7-13.1,0.9c-1.1,0.1-2.1,0.9-2.1,2.1C229.9,250.8,230.8,251.9,232,251.8L232,251.8z"
			/>
	</g>
</g>
<g>
	<g>
		<path class="st6" d="M208.2,261.4c-7.9,0-15.9-0.8-23.6-2.3c-7-1.4-13.6-3.8-19.6-7.8c-5.7-3.9-11.2-9.9-11.9-17.1
			c-0.3-3.3,0.7-6.3,3.2-8.3c2.3-1.9,5.4-2.6,8.3-2.6c8.6,0,15.3,7.3,20.8,13.1c2,2.1,5.2-0.6,3.9-3c-3.6-7-6.9-14.6-7.4-22.5
			c-0.2-3.7,0.1-7.5,1.6-10.9c0.6-1.4,1.4-2.7,2.6-3.6c1.4-1,3.1-1.3,4.8-1.2c6.2,0.1,11.4,4.4,14.7,9.4c3.8,5.8,5.6,12.7,5.7,19.6
			c0.1,8.4-2.1,16.6-6.6,23.7c-1.7,2.7,2.6,5.2,4.3,2.5c8.7-13.9,10.2-33.4,1.4-47.6c-4-6.4-10.2-11.6-17.9-12.5
			c-4.2-0.5-8.6,0.6-11.4,4c-2.8,3.4-3.8,8-4.2,12.3c-0.8,10.3,3.5,20.4,8.1,29.4c1.3-1,2.6-2,3.9-3c-5.9-6.3-12.7-13.2-21.7-14.3
			c-7.4-1-15.8,2.3-18.4,9.8c-1.6,4.6-0.4,9.6,1.5,13.9c1.7,3.7,4.3,7,7.3,9.7c6,5.4,13.5,9.1,21.3,11.2c9.5,2.5,19.5,3.5,29.3,3.5
			C211.5,266.4,211.5,261.4,208.2,261.4L208.2,261.4z"/>
	</g>
</g>
<g>
	<g>
		<path class="st6" d="M365.1,253.4c-15.5,1.2-31.1,2.3-46.6,3.5c-4.3,0.3-8.8,0.7-13.1,0.9c0.2,1.4,0.3,2.8,0.6,4.2
			c15.5-4.2,31.3-7.4,47.4-9.4c4.6-0.6,9.1-1,13.7-1.5c2.7-0.3,2.7-4,0-4.3c-17.8-1.5-35.6-2.1-53.5-1.5c-2.7,0.1-2.7,4.4,0,4.3
			c17.8-0.5,35.7,0,53.5,1.5c0-1.5,0-2.8,0-4.3c-16.4,1.4-32.6,3.9-48.6,7.5c-4.5,1-9.1,2.1-13.6,3.4c-2.2,0.6-1.9,4.4,0.6,4.2
			c15.5-1.2,31.1-2.3,46.6-3.5c4.3-0.3,8.8-0.7,13.1-0.9c1.1-0.1,2.1-0.9,2.1-2.1C367.3,254.4,366.3,253.3,365.1,253.4L365.1,253.4z
			"/>
	</g>
</g>
<g>
	<g>
		<path class="st6" d="M382,253.8c15.5-1.2,31.1-2.3,46.6-3.5c4.3-0.3,8.8-0.7,13.1-0.9c-0.2-1.4-0.3-2.8-0.6-4.2
			c-15.5,4.2-31.3,7.4-47.4,9.4c-4.6,0.6-9.1,1-13.7,1.5c-2.7,0.3-2.7,4,0,4.3c17.8,1.5,35.6,2.1,53.5,1.5c2.7-0.1,2.7-4.4,0-4.3
			c-17.8,0.5-35.7,0-53.5-1.5c0,1.5,0,2.8,0,4.3c16.4-1.4,32.6-3.9,48.6-7.5c4.5-1,9.1-2.1,13.6-3.4c2.2-0.6,1.9-4.4-0.6-4.2
			c-15.5,1.2-31.1,2.3-46.6,3.5c-4.3,0.3-8.8,0.7-13.1,0.9c-1.1,0.1-2.1,0.9-2.1,2.1C379.9,252.8,380.8,253.9,382,253.8L382,253.8z"
			/>
	</g>
</g>
</svg>
