<?xml version="1.0" encoding="utf-8"?>
<!-- Generator: Adobe Illustrator 24.0.0, SVG Export Plug-In . SVG Version: 6.00 Build 0)  -->
<svg version="1.1" id="Layer_1" xmlns="http://www.w3.org/2000/svg" xmlns:xlink="http://www.w3.org/1999/xlink" x="0px" y="0px"
	 viewBox="0 0 441.8 122.9" style="enable-background:new 0 0 441.8 122.9;" xml:space="preserve">
<style type="text/css">
	.st0{fill:#FFFFFF;}
</style>
<path class="st0" d="M-149.6-118.4c2.4-20.2,5.4-44.1,7.7-64.4c30.3-7.9,5.5,55.9,8.3,68.3c14.8,0.5,51.4,8.3,59.1-12.1
	c18.9,41.8-55.7,18.6-76.8,21.5C-150.9-108.8-150.4-114-149.6-118.4z"/>
<path class="st0" d="M-79.7-126.8c-44.9,13.1-0.5-58.7-7.2-79.7c21.6-2.1,14.7,18.1,11.5,34.5c62-46.4-48.3-80.2-39-23.2
	c4.3,9.2,16.7-6.8,5.4-5.3c-2.6-5,5.3-7.4,9.7-2.9c16.3,32.1-41,33.7-33.5-0.9c4.4-35.2,57-46.9,81.4-26.5
	c26.1,19.4,7.9,69-26.2,69.4C-79.7-151.4-81.1-138-79.7-126.8"/>
</svg>
