<?xml version="1.0" encoding="utf-8"?>
<!-- Generator: Adobe Illustrator 24.0.0, SVG Export Plug-In . SVG Version: 6.00 Build 0)  -->
<svg version="1.1" id="Layer_1" xmlns="http://www.w3.org/2000/svg" xmlns:xlink="http://www.w3.org/1999/xlink" x="0px" y="0px"
	 viewBox="0 0 14 14" style="enable-background:new 0 0 14 14;" xml:space="preserve">
<style type="text/css">
	.st0{fill:#FFFFFF;}
</style>
<path class="st0" d="M13.6,3c-0.1,0.1-0.2,0.3-0.3,0.4c-0.3,0.3-0.6,0.7-1,0.9v0.1c0,0.4,0,0.8-0.1,1.2c-0.1,0.8-0.3,1.6-0.7,2.4
	s-0.9,1.5-1.5,2.1c-1,1.1-2.3,1.7-3.7,2c-0.5,0.1-1,0.2-1.5,0.2c-0.1,0-0.2,0-0.2,0c-1.4,0-2.8-0.4-4-1.1H0.5c0.2,0,0.4,0,0.6,0
	c0.7,0,1.4-0.1,2-0.4c0.6-0.3,1-0.5,1.4-0.8C3.1,10,2.3,9,2,8.2c0.2,0,0.3,0,0.5,0s0.4,0,0.6-0.1l0,0C2.5,7.9,1.9,7.5,1.5,6.9
	C1.2,6.4,1.1,6,1.1,5.5c0.4,0.2,0.8,0.3,1.2,0.3c-0.6-0.4-0.9-1-1.1-1.6c-0.1-0.7,0-1.4,0.3-2C2.9,3.9,4.8,4.9,7,5
	c0-0.1,0-0.2,0-0.3C6.9,4.1,7,3.5,7.4,3c0.4-0.7,1-1.1,1.8-1.2c0.2,0,0.3,0,0.5,0c0.7,0,1.3,0.3,1.8,0.8h0.1l0,0
	c0.5-0.1,1.1-0.3,1.6-0.6l0,0c-0.2,0.6-0.6,1.1-1.1,1.5C12.6,3.3,13.1,3.2,13.6,3"/>
</svg>
