<?xml version="1.0" encoding="utf-8"?>
<!-- Generator: Adobe Illustrator 24.0.0, SVG Export Plug-In . SVG Version: 6.00 Build 0)  -->
<svg version="1.1" id="Layer_1" xmlns="http://www.w3.org/2000/svg" xmlns:xlink="http://www.w3.org/1999/xlink" x="0px" y="0px"
	 viewBox="0 0 14 14" style="enable-background:new 0 0 14 14;" xml:space="preserve">
<style type="text/css">
	.st0{fill:#FFFFFF;}
</style>
<path class="st0" d="M13.3,3.7c0.5,1.2,0.4,5.6-0.1,6.8c-0.2,0.3-0.4,0.5-0.7,0.7c-0.4,0.2-2.9,0.3-5.4,0.3c-2.3,0-4.5-0.1-5-0.3
	s-0.8-0.5-1-1C0.6,9,0.5,4.1,1.3,3.2C1.6,2.9,2,2.7,2.4,2.7c1-0.1,2.9-0.2,4.8-0.2c2.3,0,4.6,0.1,5.1,0.2
	C12.8,2.9,13.1,3.2,13.3,3.7 M5.5,8.9c1.3-0.7,2.7-1.4,4-2.1C8.3,6.1,7,5.4,5.6,4.7C5.5,6.2,5.5,7.6,5.5,8.9"/>
</svg>
