<?xml version="1.0" encoding="utf-8"?>
<!-- Generator: Adobe Illustrator 24.0.0, SVG Export Plug-In . SVG Version: 6.00 Build 0)  -->
<svg version="1.1" id="Layer_1" xmlns="http://www.w3.org/2000/svg" xmlns:xlink="http://www.w3.org/1999/xlink" x="0px" y="0px"
	 viewBox="0 0 14 14" style="enable-background:new 0 0 14 14;" xml:space="preserve">
<style type="text/css">
	.st0{fill:#FFFFFF;}
</style>
<path class="st0" d="M10.4,3L10.4,3c0.4,0,0.8,0.3,0.7,0.7c0,0.4-0.3,0.7-0.8,0.7c-0.4,0-0.7-0.3-0.7-0.7C9.7,3.3,9.9,3,10.4,3"/>
<path class="st0" d="M13.2,3.9c0.1,1,0.2,5.6-0.1,6.7c-0.4,1.4-1.3,2.3-2.7,2.5c-0.5,0.1-2,0.1-3.4,0.1c-1.5,0-3-0.1-3.4-0.2
	c-1.4-0.4-2.2-1.3-2.5-2.7c-0.2-1-0.2-5.9,0.1-7C1.5,2,2.4,1.2,3.8,0.9c0.6-0.1,1.9-0.1,3.1-0.1s2.3,0,3,0.1c0.9,0,1.6,0.3,2.3,0.9
	C12.8,2.4,13.1,3.1,13.2,3.9 M11.9,10.1C12.2,9,12.2,5,12.1,4c-0.1-1.1-0.8-1.8-1.9-2C9.7,2,8.4,1.9,7.1,1.9c-1.2,0-2.5,0-3,0.1
	C3,2.1,2.3,2.8,2.1,3.9s-0.2,5.4,0,6.3c0.1,0.8,0.6,1.5,1.5,1.7c0.5,0.1,1.9,0.2,3.3,0.2c1.3,0,2.6,0,3.1-0.1
	C11.1,11.9,11.8,11.2,11.9,10.1"/>
<path class="st0" d="M7.1,3.8c1.8,0,3.2,1.4,3.2,3.2s-1.4,3.2-3.2,3.2S3.9,8.8,3.9,7C3.9,5.3,5.3,3.8,7.1,3.8 M7,9.1
	c1.1,0,2.1-0.9,2.1-2S8.1,5,7.1,5l0,0C6,5,5,5.9,5,7S5.9,9.1,7,9.1L7,9.1"/>
</svg>
