<?xml version="1.0" encoding="utf-8"?>
<!-- Generator: Adobe Illustrator 24.0.0, SVG Export Plug-In . SVG Version: 6.00 Build 0)  -->
<svg version="1.1" id="Layer_1" xmlns="http://www.w3.org/2000/svg" xmlns:xlink="http://www.w3.org/1999/xlink" x="0px" y="0px"
	 viewBox="0 0 14 14" style="enable-background:new 0 0 14 14;" xml:space="preserve">
<style type="text/css">
	.st0{fill:#FFFFFF;}
</style>
<path class="st0" d="M8.8,0c0.4,0,0.8,0,1.1,0c0.2,0,0.5,0,0.7,0.1v2.3h-0.1c-0.2,0-0.5,0-0.7,0s-0.4,0-0.6,0c-0.6,0-1,0.2-1.1,1
	c0,0.5,0,1.7,0,1.8c0,0,0.6,0,1.2,0c0.3,0,0.6,0,0.8,0h0.5c-0.2,0.8-0.3,1.7-0.4,2.5H8.1V14H5.4V7.7H3.3V5.2h2.2V5c0-0.5,0-1,0-1.5
	c0-0.3,0-0.6,0.1-1c0.1-0.8,0.5-1.4,1.1-1.9C7.3,0.2,7.9,0,8.6,0C8.7,0,8.8,0,8.8,0"/>
</svg>
