<?xml version="1.0" encoding="utf-8"?>
<!-- Generator: Adobe Illustrator 24.0.0, SVG Export Plug-In . SVG Version: 6.00 Build 0)  -->
<svg version="1.1" id="Layer_1" xmlns="http://www.w3.org/2000/svg" xmlns:xlink="http://www.w3.org/1999/xlink" x="0px" y="0px"
	 viewBox="0 0 441.8 122.9" style="enable-background:new 0 0 441.8 122.9;" xml:space="preserve">
<style type="text/css">
	.st0{fill:#FFFFFF;}
</style>
<g>
	<path class="st0" d="M113.8,73.8c0.6-5,0.6-9.5-0.2-13.4c-1-5.6-3.4-8.5-7.1-8.5c-3.8,0-6.9,2.9-9.4,8.6c-1.7,4-2.9,8.5-3.5,13.6
		c-0.8,6.4-0.5,11.6,0.9,15.5c1.4,3.9,3.6,5.9,6.4,5.9c3.7,0,6.8-2.8,9.2-8.4C112,83.3,113.2,78.8,113.8,73.8 M129.5,73.9
		c-1.1,8.7-4.3,15.7-9.6,21.2c-5.4,5.5-11.9,8.2-19.7,8.2c-7.7,0-13.5-2.8-17.6-8.4c-4.1-5.6-5.6-12.7-4.5-21.3
		c1-8.5,4.3-15.6,9.7-21.1c5.4-5.5,11.9-8.3,19.6-8.3c7.8,0,13.7,2.8,17.7,8.3C129.1,58.1,130.6,65.2,129.5,73.9 M131.4,104l0-0.2
		l1.9-15.6l1.5-12l0.4-3.5l2.2-18.4l0-0.1l0-0.1l1.1-9.4c10.3,0.2,15.3-0.4,13.9,11.1l-6.3,51.8c11.6,0.7,17.7,2.4,34.4,1.2
		c9.4-0.7,16.9-4,20-12.3c4.7,2.6,6.4,24.3-16,23.7c-25.5-0.6-30.2-4.5-54.7-3.9l0.5-4.4l0.5-4.4L131.4,104z M185.2,81.1l0.2-1.6
		l1.3-10.4l2.2-17.7l0.1-1l0.7-5.8c1.5,0,2.9,0,4.1,0.1c1.5,0.1,2.8,0.1,3.9,0.2c3.2,0.3,6.6,0.5,8.1,4l14,31.6l1.7-13.8l0.7-5.5
		l0.2-1.9l1.2-9.7l0-0.1l0-0.1l0.6-4.9c5.4,0.1,8-0.2,7.3,5.9l-6.2,51h-8v0v0c-3,0-6.6-0.7-8.1-4.2l-14-31.5l-3.7,29.9
		c-0.7,6-3.3,5.8-8.7,5.9l0.6-4.9l0-0.1l0-0.1l1.2-9.7l0.2-1.9L185.2,81.1z M233.9,101.5L233.9,101.5l37.3,0c0.6-5.4,1.2-8-4.9-8
		h-16.5c0-0.2,0.1-0.4,0.1-0.7l1.3-10.9l0.8-6.5h16.1l0.6-5.3h-16.1l0.2-2l1.8-14.4v0l0,0l0,0v0l0,0l0,0l0,0v0c0-0.3,0.1-0.7,0.1-1
		h22.4c0.6-5.4,1.2-8-4.9-8h-28.8l0,0c-0.9,0-1.9,0-2.8,0l-1.1,8.7l0,0.1l-1.8,14.8l-0.7,5.6l-2.3,19.1l0,0.1l-1,8.6L233.9,101.5z
		 M309.3,61.9c1.4-6.5-2.8-8.9-8.5-9c-5,0.1-7.6,3.4-6.9,6.4c1.9,7.3,17.7,6.3,21.7,19.1c2.3,7.3,0.2,16.4-8.8,21.5
		c-13.4,7.6-33.4,3-32.4-10.6c0.6-7,6.9-12.1,13.6-11.5c1.9,0.2,3.7,0.9,4.9,2.1c3.2,3.1,0.2,7.2-1.4,7.4c-0.6-1.1-1.5-1.2-3.2-1.4
		c-5.8-0.4-8.7,9.2,0.5,10.6c7.3,1.1,13.1-3.7,12.9-11.2c-0.2-7.9-11.6-9.4-17.9-16c-9.8-10.3-0.6-26.6,18.9-25.5
		C326.3,45.6,316.1,63.4,309.3,61.9 M172.4,101.5c-2,0-3.6-0.1-4.9-0.2c-3.6-0.3-6.1-0.8-7.3-1.7c-1.6-1.2-2.2-3.5-1.8-6.8l1.3-10.9
		l1.4-11.5l0-0.1l1.1-8.6c7.7,0.2,14.6-0.6,14.1,7.7l0,0l0,0c0,0.4-0.1,0.8-0.1,1.2l0,0l0,0l0,0l0,0l0,0l0,0l0,0l0,0l-2.7,21.9
		l0,0.1L172.4,101.5z M172.2,41.7c4.3,0,7.3,3.4,6.8,7.7c-0.5,4.3-4.4,7.7-8.7,7.7s-7.3-3.4-6.8-7.7C164,45.1,167.9,41.7,172.2,41.7
		 M334.9,41.7c4.3,0,7.3,3.4,6.8,7.7c-0.5,4.3-4.4,7.7-8.7,7.7c-4.3,0-7.3-3.4-6.8-7.7C326.8,45.1,330.7,41.7,334.9,41.7
		 M335.2,101.5c-2,0-3.6-0.1-4.9-0.2c-3.6-0.3-6.1-0.8-7.3-1.7c-1.6-1.2-2.2-3.5-1.8-6.8l1.3-10.9l1.4-11.5l0-0.1l1.1-8.6
		c7.7,0.2,14.6-0.6,14.1,7.7v0l0,0c0,0.4-0.1,0.8-0.1,1.2v0l0,0l0,0v0l0,0l0,0l0,0v0l-2.7,21.9l0,0.1L335.2,101.5z M50.4,103.2
		c-7.6,3.7-19.6,1.3-18.3-9.6c2.5-20.2,13-37.2,12-60.5c2,0,4,0.1,6,0.4c3.6,0.6,7,2.2,7.4,6.2c0.5,4.7-1.5,14.8-3.3,23.7
		c16.5-4.4,23.3-36.2,2.5-44.8c-14.5-6-36.4,0.8-38.3,17c-0.4,3.4,0.5,8.6,4.5,9.5c2.9,0.7,6-1.6,5.9-4.5c-0.1-1.3-0.8-2.5-2.1-2.8
		c-1-0.2-1.7,0-2.1,0.5c-1.5-1.5-0.3-4.9,3.4-4.8c3.6,0,7.5,3.1,7.9,8.5c0.9,11-10.8,18.3-20.5,14.8C-7.7,50.4,2.3,3.4,46.6,2.8
		c24-0.4,37.2,13,39.3,27.7c1.5,10.5-2.6,22.5-10,30.9c-5.8,6.6-14.7,11.4-23.7,11.2c-0.3,1.6-0.6,3-0.8,4.2
		C50,86.4,49.3,94.1,50.4,103.2"/>
	<path class="st0" d="M379.5,73.8c0.6-5,0.6-9.5-0.2-13.4c-1-5.6-3.4-8.5-7.1-8.5c-3.8,0-6.9,2.9-9.4,8.6c-1.7,4-2.9,8.5-3.5,13.6
		c-0.8,6.4-0.5,11.6,0.9,15.5c1.4,3.9,3.6,5.9,6.4,5.9c3.7,0,6.8-2.8,9.2-8.4C377.8,83.3,378.9,78.8,379.5,73.8 M395.2,73.9
		c-1.1,8.7-4.3,15.7-9.6,21.2c-5.4,5.5-11.9,8.2-19.7,8.2c-7.7,0-13.5-2.8-17.6-8.4c-4.1-5.6-5.6-12.7-4.5-21.3
		c1-8.5,4.3-15.6,9.6-21.1c5.4-5.5,11.9-8.3,19.6-8.3c7.8,0,13.7,2.8,17.7,8.3C394.8,58.1,396.3,65.2,395.2,73.9"/>
	<path class="st0" d="M430.2,61.9c1.4-6.5-2.8-8.9-8.5-9c-5,0.1-7.6,3.4-6.9,6.4c1.9,7.3,17.7,6.3,21.7,19.1
		c2.3,7.3,0.2,16.4-8.8,21.5c-13.4,7.6-33.4,3-32.4-10.6c0.6-7,6.9-12.1,13.6-11.5c1.9,0.2,3.7,0.9,4.9,2.1c3.2,3.1,0.2,7.2-1.4,7.4
		c-0.6-1.1-1.5-1.2-3.2-1.4c-5.8-0.4-8.7,9.2,0.5,10.6c7.3,1.1,13.1-3.7,12.9-11.2c-0.2-7.9-11.6-9.4-17.9-16
		c-9.8-10.3-0.6-26.6,18.9-25.5C447.2,45.6,437,63.4,430.2,61.9"/>
</g>
</svg>
