<?xml version="1.0" encoding="utf-8"?>
<!-- Generator: Adobe Illustrator 25.3.1, SVG Export Plug-In . SVG Version: 6.00 Build 0)  -->
<svg version="1.1" id="Layer_1" xmlns="http://www.w3.org/2000/svg" xmlns:xlink="http://www.w3.org/1999/xlink" x="0px" y="0px"
	 viewBox="0 0 666.9 186.9" style="enable-background:new 0 0 666.9 186.9;" xml:space="preserve">
<style type="text/css">
	.st0{fill:#EF002A;}
</style>
<g>
	<path class="st0" d="M87.4,44.3c0.1,0.4-0.1,1.5-0.4,1.3c-0.1-0.1-0.3,0-0.3,0.1c-0.1,0.3-0.1,0.5,0,0.7c0.3,0.1,0.3,0.1,0,0.1
		c-0.5,0-0.5,0.7-0.1,0.8c0.1,0,0.1,0.1-0.1,0.1c-0.1,0-0.4,0.3-0.5,0.5l-0.9,2.2c-0.5,1.3-0.9,2.2-2.4,4.9
		c-0.5,1.1-3.4,6.1-3.8,6.6c-0.3,0.4-0.5,0.9-0.8,1.1c-0.1,0.4-2.5,3.8-3.7,5.4c-3.3,4.6-7.1,9.1-12.4,14.7l-1.7,1.7l0.9,0.8
		c0.9,0.8,3.4,3.8,3.4,4.1c0,0.1-1.1-0.9-2.4-2.2l-2.4-2.4l-0.7,0.8c-0.4,0.4-0.7,0.8-0.7,0.9s0.5,0.5,1.3,1.2
		c2.5,2.2,4.8,5.3,5.9,7.9c0.5,1.2,1.8,3.3,3.7,5.7c2.8,3.3,4.5,7.9,4.2,11.5c-0.3,2.2-1.2,5.3-1.7,5.7c-0.1,0.1-0.3,0.4-0.3,0.5
		c0,0.3-1.2,2-2.2,3.3c-0.9,1.1-4,4-4.9,4.5c-0.4,0.4-1.2,0.9-1.8,1.5c-0.9,0.7-4.8,2.6-7.1,3.6c-2.4,1.1-6.1,2-9.4,2.5
		c-0.4,0-3.4,0.1-6.3,0.1c-4.8,0.1-5.9,0-7.9-0.3c-2.8-0.7-3.4-0.8-5.5-1.8c-2.6-1.3-3.2-1.8-6.9-5.8c-1.8-2-3-4.4-3-5.7
		c0-0.5,0.1-1.5,0.5-2.1c0.5-1.1,2.2-3.2,3.6-4.4l0.9-0.8c1.1-1.1,2.5-2,2.9-2.1c0.4,0,0.8-0.3,0.9-0.4s0.3-0.4,0.4-0.4
		s0.4,0,0.5-0.3c0.4-0.4,0.8-0.4,0.8-0.1c0,0.1-0.3,0.4-0.5,0.4s-0.4,0.3-0.4,0.3c0,0.1-0.1,0.3-0.5,0.4c-0.3,0-0.4,0.1-0.3,0.3
		c0.1,0.1,0,0.3-0.1,0.3c-0.4,0-0.3,0.5,0.3,0.8c0.3,0.3,0.5,0.3,0.9,0.1c0.5-0.3,0.7-0.3,1.1,0.1c0.4,0.3,0.7,0.3,1.1,0.3
		c1.3-0.3,2.2,0.7,1.3,1.5c-0.3,0.1-0.3,0.3,0.4,0.9c0.5,0.7,0.8,0.8,1.2,0.7c0.7-0.1,1.2,0.4,1.6,1.5l0.3,0.8l-1.2,1.3l-1.3,1.3
		c0,0.3,0.7,0.1,2.6-0.3c0.8-0.1,1.5-0.1,1.6-0.1s0.4,0,0.4-0.1s0.4-0.3,0.9-0.3c0.4,0,0.8-0.1,0.7-0.3h0.4c0.3,0,1.1-0.3,1.7-0.4
		l2.1-0.7c0.4-0.1,0.8-0.3,0.9-0.4c0-0.1,0.3-0.3,0.4-0.3c0.3,0,0.8-0.1,1.3-0.3c0.4-0.3,0.8-0.4,0.9-0.3c0.3,0,0.5-0.1,0.8-0.4
		c0.3-0.1,0.5-0.3,0.7-0.3c0.3,0.1,0.4,0,0.4-0.1s0.1-0.3,0.3-0.3s0.8-0.3,1.6-0.7c0.8-0.3,1.5-0.5,1.7-0.5c0.1,0.1,0.1,0,0.1-0.3
		c-0.1-0.3,0-0.3,0.5-0.1c0.7,0,0.7,0,0.5-0.3c-0.3-0.1-0.1-0.3,0.4-0.4c0.4-0.1,0.8-0.1,0.9,0c0.3,0.1,0.1,0,0-0.1
		c-0.4-0.4-0.4-0.8,0-0.7c0.1,0,0.5-0.1,0.8-0.4s0.7-0.4,0.9-0.4c0.1,0.1,0.3,0,0.1,0c-0.1-0.4,1.1-1.2,1.5-0.9
		c0.4,0.1,0.4,0,0.3-0.3c-0.3-0.3-0.3-0.4,0-0.5c0.1-0.1,0.4-0.3,0.5-0.3c0,0,0.1,0,0-0.3c-0.1,0,0-0.1,0.3-0.1
		c0.1,0,0.3-0.1,0.3-0.3s0.1-0.3,0.4-0.3c0.1,0,0.3,0,0.3-0.1l0.5-0.8c0.4-0.4,0.7-0.7,0.7-0.9c0-0.1,0.1-0.4,0.3-0.5
		c0.1,0,0.1,0,0,0.3c-0.1,0.1,0.1,0.1,0.4-0.1c0.3-0.3,0.4-0.5,0.3-0.5c0-0.1,0-0.3,0.3-0.4c0.1-0.3,0.1-0.4,0-0.4s-0.3,0.1-0.4,0.3
		c-0.1,0.1-0.4,0.3-0.7,0.3c-0.4,0-0.4,0,0,0.1s0.4,0.3,0,0.3c-0.3,0-0.4,0.1-0.4,0.3c0.1,0.1-0.1,0.4-0.4,0.5
		c-0.7,0.5-1.5,0.3-1.3-0.3c0.1-0.1,0-0.3-0.1-0.3c0,0-0.1,0-0.1,0.1s-0.3,0.3-0.5,0.3c-0.4,0.1-0.7,0.1-0.7,0s0.1-0.3,0.3-0.3
		c0.1,0,0.3,0,0.1-0.1c-0.1-0.3,1.1-0.8,1.3-0.5s1.1,0.3,0.9,0.1c-0.1-0.1,0-0.4,0.1-0.4c0.3,0,0.1-0.1,0-0.1
		c-0.3,0-0.1-0.3,0.3-0.5c0.5-0.4,0.5-0.5,0.3-0.4l-0.8,0.5c-0.1,0.3-0.4,0.4-0.7,0.4c-0.4,0-0.4,0,0-0.8c0.5-0.7,0.7-0.8,1.5-0.8
		L60,105h-1c-0.7-0.1-0.8-0.3-0.5-0.4s0.4-0.4,0.3-0.5c-0.1-0.3,0.1-0.3,1.2-0.3c1.3,0.1,1.6-0.1,0.4-0.4c-1.3-0.3-1.5-0.3-0.3-0.3
		L61,103l-0.9-0.1c-0.4-0.1-0.7-0.1-0.4-0.1c0.4,0,0.4-0.1,0.1-0.3c-0.5-0.4,0-0.8,0.9-0.7c0.5,0.1,0.8,0,0.8-0.1
		c-0.1-0.1-0.4-0.1-0.8-0.1c-0.7,0-0.7-0.1-0.5-0.5c0.4-1.8,0.4-1.8-0.7-2.6c-1.6-1.1-6.1-3.2-8.1-3.8c-2-0.7-2.6-0.8-2.6-0.4
		c0,0.1-0.1,0.1-0.3,0.1c-0.1,0-0.7,0.4-1.1,0.7c-1.1,0.8-2.4,1.5-2.9,1.5c-0.3,0-0.9-0.4-1.5-0.8c-0.7-0.8-0.7-0.8-0.4-1.2
		c0.4-0.5,0.4-0.5,0-0.5h-0.7c-0.4,0-0.5-0.7-0.1-1.3c0.1-0.4,0.3-0.8,0.1-0.9c0-0.1-0.7-0.4-1.3-0.5c-0.7-0.3-1.5-0.5-1.7-0.5
		c-0.3-0.1-1.6-0.7-2.9-0.9c-1.2-0.4-2.5-0.8-2.8-1.1l-1.1-0.4l-1.8-0.7c-0.5-0.4-1.6-0.8-2.2-1.1c-1.6-0.7-5-3.2-6.7-4.9
		c-0.9-0.9-1.8-2.1-2.4-3c-0.4-0.8-0.9-1.7-1.3-2.1c-0.8-0.9-2-3.4-2.4-4.9c-0.1-0.8-0.4-2-0.4-2.8c0-0.7,0-1.5-0.1-1.6
		c-0.4-0.4-0.9-2.2-1.2-3.7c-0.3-2.2,0.3-5.7,1.3-8.1c1.3-2.9,1.8-3.8,4.2-7.5c0.9-1.3,4.4-5.5,5.2-6.2c0.1-0.1,0.4-0.4,0.4-0.5
		c0-0.4,7.9-7.9,11.2-10.6c0.3-0.3,1.1-0.8,1.6-1.3c0.7-0.4,1.5-1.2,1.8-1.5c0.4-0.4,0.7-0.7,0.8-0.7s0.5-0.3,0.9-0.7l1.3-1.1L46,23
		c2.6-2,3.8-2.8,4.6-3l2.1-1.2c2.5-1.5,5.2-2.5,7.5-3c2.1-0.4,4.9-0.7,5.4-0.5c0.3,0.1,1.1,0,1.7-0.1c2.4-0.4,5.8-0.4,7.3,0
		c0.7,0.1,1.5,0.3,1.6,0.3c0.8,0,3.2,1.8,4.1,3c1.6,2,2,3.4,2.1,6.9c0.1,3.3,0.4,4.2,1.6,5.3c0.9,0.9,2.4,2.9,2.6,4
		c0.7,1.7,1.1,4.2,1.1,6.7c0,1.6-0.1,2.5-0.3,2.6C87.4,43.9,87.3,44,87.4,44.3z M48.3,82.8c0-0.7-7.3-3.3-14.8-5.5L30,76.1
		c-1.1-0.3-2-0.7-2.1-0.7c-0.4,0-0.9,2.1-0.7,2.2c0.4,0.5,5.5,2.2,11.1,4l6.1,2c2.4,0.8,2.9,0.8,3.6,0C48.2,83.2,48.3,83,48.3,82.8z
		 M27.9,72.7c0,0.3,0.4,0.1,0.7-0.3c0.4-0.7,0.1-0.9-0.3-0.4C28.1,72.3,27.9,72.5,27.9,72.7z M41.1,121.4l-1.6,0.3
		c-1.8,0.4-5.5,0.9-8.1,1.2c-1.8,0.1-2.1,0.1-2.5,0.7c-0.4,0.7-0.4,1.1,0,0.9c0.3-0.1,1.1-0.3,1.7-0.3
		C33.9,123.8,41.5,121.8,41.1,121.4z M75.3,33.3c0-0.3-0.4-0.3-2.5,0.1c-1.8,0.4-5.9,2.2-8.3,3.7c-0.7,0.4-1.3,0.8-1.7,0.9l-2,1.2
		c-0.8,0.5-2.4,1.6-3.6,2.2c-2,1.3-4.6,3.2-5.3,4c-0.5,0.5-1.7,1.5-1.8,1.5s-0.5,0.4-0.8,0.8c-0.4,0.3-0.8,0.7-0.9,0.7
		c-0.3,0-9.8,9.4-10,9.9c0,0.3-0.7,0.9-1.3,1.6l-1.8,2.2c-0.4,0.5-0.9,1.2-1.3,1.5c-0.3,0.3-0.5,0.7-0.5,0.8s-0.3,0.5-0.7,0.9
		c-0.3,0.4-0.7,0.8-0.7,0.9s-0.1,0.4-0.4,0.7c-0.3,0.3-0.5,0.5-0.5,0.7s-0.3,0.5-0.5,0.8c-0.4,0.4-1.5,2.2-1.5,2.6
		c0,0.3,1.3-1.5,1.7-2.2c0.4-0.5,0.8-1.2,1.2-1.6l2-2.5c0.8-1.1,1.8-2.4,2.5-3c0.7-0.7,1.2-1.3,1.2-1.5s1.7-2,4-4.1
		c4.6-4.6,5.8-5.7,8.7-8.1l1.3-1.1c0.4-0.5,3-2.5,4.4-3.3c0.7-0.4,1.7-1.1,2.1-1.5c2.5-1.7,3.3-2.1,9.1-5.2c1.3-0.7,4.8-2,6.3-2.4
		C74.8,34.4,75.3,34,75.3,33.3z M50.7,79.3c-0.4,0-0.5-0.1-0.7-0.1c-0.1-0.3-1.6-1.1-2.4-1.3c0,0-0.3,0-0.4-0.1
		c-0.3,0-1.3-0.4-2.5-0.8l-2.4-1c-0.1,0-0.4-0.1-0.5-0.1s-0.4-0.1-0.7-0.3c-0.3-0.1-0.7-0.3-0.9-0.3c-0.3,0-3.7-1.1-4.1-1.3
		l-1.3-0.4c-0.5,0-0.9-0.3-0.9-0.4c0,0-0.3-0.1-0.4-0.1c-0.3,0-1.2-0.3-2.1-0.5L29.7,72l-0.4,0.5c-0.1,0.3-0.3,0.7-0.3,0.7
		c0.1,0,1.7,0.5,3.6,1.1c1.7,0.7,4.2,1.5,5.4,1.8l3.3,1.2c1.3,0.4,5.7,2.1,7.4,3c0.5,0.3,1.2,0.5,1.2,0.5c0.1,0,0.4-0.3,0.7-0.5
		C51.1,79.4,51.1,79.3,50.7,79.3z M74.4,35.2c-0.3,0.1-0.8,0.3-1.2,0.3c-0.9,0.3-7.1,2.9-7.5,3.2c0,0.1-0.9,0.7-1.8,1.1
		c-1.1,0.5-1.8,1.1-2,1.2c-0.3,0.1-0.5,0.4-0.9,0.5c-1.5,0.7-5,3.2-6.3,4.2c-0.5,0.4-1.1,0.7-1.2,0.7c0,0-0.4,0.4-0.8,0.7
		c-0.4,0.4-0.7,0.8-0.8,0.8s-0.4,0.1-0.7,0.4c-0.3,0.3-0.9,1.1-1.6,1.5c-1.5,1.1-10.4,9.9-11.1,10.8L35.7,64
		c-2.6,3.2-2.8,3.3-4.2,5.5l-0.9,1.2c-0.5,0.5-0.5,0.8-0.3,0.8c0.1,0,1.1,0.4,2.1,0.7c1.8,0.7,2.2,0.8,6.2,2
		c1.5,0.4,2.6,0.8,2.8,0.9l3.2,1.1c1.6,0.5,3.6,1.3,4.5,1.7c2,0.9,2.1,0.9,2.5,0.3c0.1-0.3,0.5-0.4,0.7-0.4c0.3,0,0.1,0.1-0.1,0.4
		c-0.5,0.3-0.7,0.7-0.4,0.7c0.1,0,0.5-0.3,0.8-0.5c0.7-0.7,0.9-1.2,0.3-0.9c-0.4,0.1-0.3-0.3,0.3-0.8c0.3-0.3,0.4-0.4,0.9-0.3
		c0.4,0.1,0.5,0,0.5-0.1c-0.1-0.1-0.4-0.3-0.7-0.3s-0.4,0-0.4-0.3c0,0,0.1-0.1,0.3-0.1c0.1,0,0.4-0.3,0.7-0.7
		c0.3-0.5,0.5-0.8,1.1-0.8c0.4,0,0.7,0,0.7-0.1s-0.3-0.1-0.7-0.1c-0.5,0.1-0.5,0.1-0.1-0.1c0.3-0.3,0.4-0.5,0.4-0.7
		c0,0,0.4-0.7,0.8-1.2c0.8-1.1,0.9-1.2,1.6-1.1c0.4,0.1,0.7,0.1,0.7,0c-0.1-0.1-0.4-0.3-0.7-0.3c-0.5,0-0.5-0.5,0-0.8
		c0.3,0,0.4-0.1,0.4-0.3c-0.1-0.1,0-0.3,0.3-0.4c0.1,0,0.3-0.1,0.1-0.3c0-0.1,0-0.4,0.1-0.5c1.1-1.2,1.3-1.6,1.3-1.8
		c0-0.1,0.3-0.4,0.4-0.5c0.3-0.1,0.4-0.3,0.3-0.3s0-0.1,0.3-0.4c0.3-0.1,0.4-0.4,0.4-0.5c-0.1-0.1,0-0.3,0.1-0.3
		c0.3-0.1,0.3-0.3,0.3-0.4s0-0.3,0.1-0.3s0.3,0,0.1-0.1c-0.1-0.1,0-0.4,0.1-0.4c0.3,0,0.4-0.3,0.3-0.4l0.3-0.3
		c0.3,0,0.3-0.1,0.3-0.4c-0.1,0,0-0.3,0.3-0.3c0.4-0.1,0.4-0.3,0.3-0.4c-0.3-0.1-0.3-0.1,0-0.1c0.1,0,0.1-0.1,0.1-0.3
		c-0.1-0.1,0-0.3,0.1-0.4c0.3,0,0.3-0.3,0.3-0.4c-0.1-0.3,0-0.4,0.3-0.4c0.4,0,0.4,0,0.1-0.1c-0.4-0.3-0.3-0.3,0.1-0.4
		c0.3,0,0.4-0.3,0.4-0.3c-0.1-0.1,0-0.5,0.3-0.9c0.3-0.3,0.4-0.7,0.4-0.7c0-0.1,0-0.3,0.3-0.4c0.1-0.3,0.3-0.5,0.3-0.7
		c0-0.1,0.3-0.4,0.5-0.8c0.3-0.3,0.4-0.4,0.3-0.4c0,0,0.1-0.3,0.3-0.7c0.3-0.4,0.5-0.8,0.7-0.8c0,0,0.1,0,0-0.1c0-0.1,0-0.4,0.1-0.5
		s0.5-1.2,1.2-2.2l1.1-2c0,0,0.3-0.5,0.4-1.1l1.1-2.4c0.9-2.1,1.6-4.1,2.4-7C75,35.3,75,35,74.4,35.2z M46.1,127.1
		c-0.1-0.1-0.7,0-1.5,0.1c-1.7,0.4-3.6,0.8-6.6,1.1c-1.3,0.1-3.2,0.4-4.2,0.4c-1.7,0.3-1.5,0.3,1.5,0.1c1.8,0,3.8-0.1,4.6-0.3
		l1.8-0.4C42.8,128,46.2,127.2,46.1,127.1z M40.9,35.6c0.1,0,0.3-0.1,0.4-0.3c0-0.1,0-0.3-0.1-0.3s-0.3,0.1-0.4,0.3
		C40.8,35.4,40.8,35.6,40.9,35.6z M41.7,121.3c0.4,0,0.7,0,0.7-0.1C42.5,120.9,42.4,120.9,41.7,121.3
		C41.3,121.3,41.3,121.3,41.7,121.3z M41.9,34.6c0,0.1,0.1,0.3,0.3,0.1s0.1-0.3,0.1-0.3s0-0.1-0.1-0.1S41.9,34.5,41.9,34.6z
		 M42.8,34.1c0.3,0,0.4-0.1,0.5-0.3c0-0.1,0-0.4-0.1-0.4l-0.4,0.4C42.7,34.1,42.7,34.1,42.8,34.1z M43.6,33.3l0.9-0.7
		c0.5-0.4,1.2-0.7,1.5-0.8c0.3,0,0.4-0.3,0.4-0.3c0-0.3,0.1-0.4,0.3-0.4c0.3,0,0.5-0.1,0.8-0.4s0.5-0.4,0.7-0.4c0,0,0.3-0.1,0.4-0.4
		c0.8-0.7,1.1-0.8,1.2-0.7c0.3,0.1,0.3,0,0.3-0.1s0.3-0.4,0.4-0.5c2-0.9,3.6-1.8,3.7-2c0,0,0.1-0.1,0.3-0.1s0.5-0.3,0.9-0.5
		c0.5-0.3,1.2-0.7,1.5-0.7c0.4-0.1,1.1-0.4,1.5-0.7c0.5-0.3,1.2-0.4,1.3-0.5c0.3,0,0.7-0.1,0.8-0.1c0.5-0.3,3.6-0.9,4.2-1.1
		c0.8,0,1.1-0.1,1.3-0.4c0-0.1,0.3-0.1,0.4,0s1.5,0.3,2.8,0.3c2.1,0,3.4,0.1,5.5,0.7c0.8,0.1,0.8-0.1,0-1.7
		c-0.9-1.8-1.5-2.1-4.1-2.2c-4.9-0.1-10.3,1.8-16.8,6.2l-3.6,2.4c-0.5,0.4-1.7,1.2-2.4,1.8c-0.8,0.5-1.5,1.1-1.5,1.1
		c-0.1,0-0.8,0.5-1.5,1.2L43.6,33.3z M49.4,114.8c-0.3,0-0.4,0-0.3-0.1h0.4C49.7,114.8,49.7,114.8,49.4,114.8z M51.2,113.5
		c-0.3,0-0.4-0.1-0.4-0.1L51.2,113.5C51.5,113.4,51.5,113.5,51.2,113.5z M53.8,76.5c0-0.3,0-0.3-0.4-0.1c-0.3,0.1-0.5,0.4-0.5,0.4
		c0,0.1,0.3,0.1,0.5,0.1S53.8,76.8,53.8,76.5z M53,110.7c0-0.1,0.3-0.1,0.4,0H53z M54.4,111.4c0.3,0.3,0.3,0.3-0.3,0.3
		s-0.7,0-0.4-0.3C53.9,111.2,54.2,111.2,54.4,111.4z M54.5,109.4c0.1,0,0,0.1-0.1,0.4c-0.1,0.1-0.3,0.3-0.4,0.3c0,0,0.1-0.1,0.1-0.3
		L54.5,109.4z M55.1,74.9c-0.3-0.3-0.9,0.1-0.8,0.4c0.1,0.1,0.3,0.1,0.5,0C54.9,75,55.1,74.9,55.1,74.9z M54.8,110.7
		c0.4,0,0.4,0,0.4,0.1c-0.1,0.1-0.8,0.3-0.8,0.1S54.7,110.7,54.8,110.7z M55.6,109c-0.4,0.3-0.9,0.3-0.9,0.1c0-0.3,0.9-0.5,1.2-0.4
		C56,108.7,55.9,108.9,55.6,109z M55.3,74.1c-0.1,0-0.3,0.1-0.4,0.3c0,0.1,0,0.3,0.1,0.3s0.3-0.1,0.4-0.3
		C55.6,74.3,55.5,74.1,55.3,74.1z M56.3,109.7c0.1,0.1,0.1,0.3-0.3,0.5c-0.3,0.3-0.4,0.3-0.5,0.1c-0.1-0.1,0-0.3,0.3-0.3
		s0.3,0,0.1-0.1c-0.3-0.1-0.3-0.3-0.1-0.4C55.9,109.5,56,109.5,56.3,109.7z M56.8,109.4h-0.7l0.5-0.4c0.4-0.5,0.9-0.4,0.9,0.1
		C57.6,109.4,57.3,109.4,56.8,109.4z M56.5,88.5c0-0.1-0.1-0.3-0.1-0.3c-0.1,0-0.1,0.1-0.1,0.3c0,0.1,0.1,0.3,0.3,0.3
		C56.7,88.8,56.7,88.7,56.5,88.5z M57.8,71.1c0-0.1-0.7,0.5-0.9,1.2c-0.1,0.3,0,0.1,0.4-0.3C57.7,71.5,58,71.1,57.8,71.1z
		 M59.8,104.4c-0.1-0.1-0.3-0.1-0.4,0c-0.1,0,0,0.1,0.3,0.1C60,104.5,60.1,104.4,59.8,104.4z M61.4,102.9c0,0,0-0.1-0.1-0.3
		c-0.1-0.1-0.4-0.1-0.7-0.1c-0.4,0-0.4,0,0.1,0.1C61,102.8,61.3,102.9,61.4,102.9z M66.3,27.2c-0.8,0.3-0.5,0.3,1.7-0.3
		c1.1-0.3,2.6-0.4,3.4-0.5s1.3-0.3,1.3-0.4C72.5,25.8,68,26.6,66.3,27.2z M81.8,25c-0.1-2.8-0.7-4.5-1.8-5.9c-1.8-2.4-5.5-3.8-9-3.3
		l-1.1,0.1l1.5,0.4c0.8,0.3,2.5,1.2,4,2c2,1.3,2.8,2,3.8,3.2c0.7,0.8,1.3,1.8,1.5,2.2c0.1,0.3,0.3,1.2,0.5,1.8
		C81.6,28.3,81.9,28.2,81.8,25z M71.2,21.3c0.1-0.1,0.5-0.1,0.5,0c0.3,0,0.1,0.1-0.3,0.1C71.2,21.4,71.1,21.3,71.2,21.3z"/>
	<path class="st0" d="M148.1,57.6c0.4,0.5,0.3,0.8-0.4,1.6c-1.2,1.2-2.6,3.6-3.7,5.7c-0.4,1.2-0.9,2.2-1.1,2.4l-1.1,2.5
		c-0.4,1.2-1.2,3-1.6,4l-1.3,3.7c-0.3,1.1-0.7,2.1-0.7,2.2l-0.5,1.5c-0.1,0.7-0.4,1.3-0.5,1.5l-2.5,8.5c-0.3,0.9-0.5,1.7-0.5,2.1
		c-0.3,0.5-1.2,4.6-1.3,5c0,0.7-0.4,2.1-0.5,2.4c-0.1,0.1-0.3,0.8-0.3,1.2c-0.1,0.5-0.3,1.3-0.3,1.6c-0.3,0.7-0.3,1.2-0.3,2
		c-0.1,0.3-0.1,0.4-0.3,0.3c-0.1,0-0.1,0.4-0.1,1.1s-0.1,1.2-0.3,1.3c-0.1,0-0.3,0.5-0.3,0.9s-0.1,1.1-0.1,1.5
		c-0.1,0.4-0.3,1.6-0.3,2.5c-0.1,1.1-0.1,2-0.3,2.1c0,0,0,0.1,0.1,0.3c0.1,0.3,0.3,0.4,0,0.4c-0.1,0-0.1,0.4,0.1,3.7
		c0,0.8,0.3,1.7,0.4,2.1s0.4,0.8,0.4,1.1c0,0.4,0.8,1.8,1.8,3c0.4,0.5,0.4,0.7,0.1,0.9c-0.4,0.1-1.1,0.1-2.4-0.1
		c-1.7-0.3-3.3-1.2-4.4-2.5c-0.4-0.7-1.1-1.5-1.2-2c-0.3-0.4-0.7-0.9-1.2-1.2c-1.2-0.5-4.1-3.4-5-4.9c-1.7-2.9-2.6-6.5-2.8-11.4
		c-0.1-1.7-0.3-3.2-0.3-3.2c-0.1,0-0.5,0.5-1.1,1.2c-2,2.9-5.9,7.3-8.2,9.1c-5,4.2-8.3,5.7-12.5,5.3c-3.2-0.1-5.2-0.8-6.5-2.1
		c-0.5-0.5-1.2-1.1-1.5-1.1c-1.5-0.1-2.4-0.7-4.2-2.5c-1.5-1.5-2.5-3-2.6-4.1c0-0.4-0.1-1.1-0.3-1.6c0-0.5-0.1-1.3-0.3-1.6
		c0-0.4-0.3-1.2-0.5-1.7c-0.3-0.7-0.3-1.2-0.3-1.2c0.1,0,0-0.1-0.3-0.3c-0.3-0.1-0.4-0.3-0.1-0.4s0.3-0.3-0.1-0.3
		c-0.3,0-0.4,0-0.1-0.1c0.3-0.3,0.3-0.3,0-0.3c-0.4,0-0.4-0.3-0.4-1.2c0-0.1-0.1-0.4-0.3-0.4c-0.1,0-0.1,0-0.1-0.3
		c0.1-0.1,0.1-0.1,0-0.1c-0.4,0-0.3-0.8,0.1-0.8c0.3,0,0.3,0-0.1-0.1c-0.1-0.1-0.3-0.3-0.1-0.3c0.1,0,0-0.1-0.1-0.3
		c-0.3-0.1-0.3-0.1,0-0.4c0.3-0.1,0.3-0.3,0-0.3c-0.1,0-0.1-0.3-0.1-0.7c0-0.4,0.1-0.8,0.1-0.8s0.3-2.4,0.3-2.8
		c0-0.3,0.1-0.4,0.3-0.4s0.1-0.1-0.1-0.4c-0.1-0.1-0.1-0.4,0-0.4s0.3-0.3,0.3-0.7c-0.1-0.7,0.3-2.9,0.7-3.4c0-0.1,0.1-0.4,0.1-0.8
		c0.1-1.1,0.5-2.4,0.8-3c0.3-0.4,0.4-0.9,0.4-1.1c0-0.3,0.3-0.9,0.5-1.5c0.1-0.4,0.4-0.9,0.4-1.1c0-0.5,5.8-12,7.1-14
		c0.9-1.5,2.9-4.2,3.7-5.3l1.3-1.7c0.9-1.2,3.7-3.8,4.8-4.6c0.8-0.4,1.7-0.8,2.8-1.1c1.1-0.1,2-0.5,2.4-0.9c1.1-0.7,2.2-0.9,2.9-0.4
		c0.4,0.4,0.4,0.4-0.5,0.4c-0.5,0-1.2,0.1-1.6,0.4l-0.7,0.5l1.5,0.4c1.6,0.5,2.2,1.1,2.1,1.5c-0.1,0.1,0,0.3,0.1,0.4
		c0.1,0,0.3,0.3,0.3,0.5c0,0.3,0.1,0.7,0.3,0.9c0.3,0.3,0.3,0.5,0.3,0.7c-0.1,0.1-0.1,0.3,0,0.1c0.1-0.1,0.4,0,0.4,0v0.3
		c-0.3,0-0.3,0.1-0.1,0.4c0,0.1,0.3,0.3,0.4,0.3s0.8,0.5,1.3,1.1c1.1,0.9,1.2,0.9,1.6,0.7c0.7-0.4,0.7-0.4,1.3,0.8
		c0.5,1.2,0.7,1.3,0.4,2.2c-0.4,1.1-2,4.6-2.4,5c-0.1,0.1-0.5,0.8-0.8,1.5s-0.7,1.2-0.8,1.2c0,0-0.1,0.1,0,0.3
		c0.1,0.3,0,0.4-0.1,0.4s-0.3,0.3-0.3,0.5c0,0.1-0.1,0.4-0.1,0.3c-0.1-0.1-0.3,0-0.3,0.3s-0.1,0.7-0.4,0.7c-0.1,0.3-0.3,0.5-0.3,0.8
		s-0.1,0.4-0.3,0.3c-0.3-0.1-0.3,0-0.1,0.3c0.1,0.1,0,0.3-0.1,0.3s-0.3,0.4-0.3,0.8c-0.1,0.5-0.3,0.8-0.5,0.8
		c-0.1,0-0.4,0.4-0.4,0.8c-0.1,0.5-0.3,0.8-0.5,0.8c-0.1,0-0.3,0.1-0.1,0.3c0.1,0.1-0.5,1.6-0.8,1.7c-0.1,0.1-0.3,0.4-0.3,0.8
		c-0.1,0.4-0.3,0.5-0.5,0.5c-0.1-0.1-0.3,0-0.1,0.4c0,0.4,0,0.7-0.3,0.8c-0.3,0-0.4,0.3-0.4,0.4s-0.1,0.7-0.4,0.9
		c-0.3,0.3-0.5,0.7-0.5,0.9c0,0.4,0,0.4-0.1,0c-0.3-0.3-0.3-0.1-0.3,0.4c0,0.3-0.1,0.5-0.1,0.5c-0.1-0.1-0.3,0.1-0.3,0.4
		s-0.1,0.7-0.4,0.9c-0.3,0.1-0.5,0.5-0.5,0.9c-0.1,0.4-0.3,0.8-0.4,0.8c-0.1-0.1-0.3,0-0.3,0.3c0,0.4-0.5,1.6-0.8,1.6
		c0,0-0.1,0.3-0.1,0.5s-0.3,0.5-0.4,0.5c-0.1,0.1-0.3,0.4-0.3,0.8c0,0.3-0.3,0.8-0.5,1.3c-0.3,0.5-0.4,1.1-0.4,1.3s-0.1,0.7-0.5,1.2
		c-0.1,0.4-0.4,0.9-0.4,1.2s0,0.5-0.1,0.7c-0.3,0.3-1.2,3-1.1,3.2c0.1,0.1,0.9-0.4,1.8-1.1c0.9-0.5,1.7-1.1,1.7-1.1
		c0.1,0,0.9-0.7,2.9-2.2c1.2-1.1,6.6-6.3,8.2-8.2l2.1-2.4l1.2-1.5l1.6-2.1c0.8-0.8,1.6-1.8,1.8-2.2l2.1-2.6c0.8-0.9,1.7-2.1,2-2.6
		l2-2.6c1.6-2.1,2-2.8,2-3.2c0-0.3,0.1-0.3,0.4-0.3c0.3,0.1,0.3,0,0.3-0.4c-0.1-0.4-0.1-0.7,0-0.7s0.3,0.3,0.1,0.4
		c-0.1,0.4,0,0.4,0.3,0l0.7-0.9c0.7-0.7,4.1-5.9,4.1-6.1s0.4-0.5,0.7-0.8s0.5-0.7,0.5-0.8c0,0,0.3-0.5,0.7-0.9
		c2.8-3.4,5.2-5.3,7.9-5.9c1.8-0.5,3.2-0.4,4.5,0.1c0.9,0.4,1.1,0.5,0.9,1.1c-0.1,0.8-0.5,1.1-1.8,1.3c-2.8,0.5-5.3,2.8-7.9,7.1
		c-0.5,0.9-0.9,1.7-0.8,1.7c0,0.1,0.5-0.7,1.2-1.6c1.3-1.8,1.7-2,2.6-0.9c0.4,0.4,0.8,0.7,0.8,0.7c0.1,0,0.5-0.5,0.9-1.3
		c1.2-1.8,4-4.5,5.4-5.3c1.3-0.7,1.7-0.7,2.1,0c0.3,0.4,0.3,0.5-0.7,1.1c-0.9,0.4-1.1,0.5-0.7,0.7l1.1,0.8c0.5,0.5,0.7,0.5,1.1,0.3
		C147.8,57.5,147.9,57.5,148.1,57.6z M84.7,109.8c-0.3-0.4-0.4-0.9-0.4-1.2c0-0.4-0.3-0.5-1.1-0.9c-1.2-0.5-1.2-0.5-1.1,0
		c0.7,2,1.8,3.3,2.5,3C84.9,110.6,84.9,110.4,84.7,109.8z M92.5,77.6c0.4-0.5,1.1-1.8,1.7-3c1.1-2,2.5-4.6,3.7-6.3
		c1.1-1.7,4.1-6.2,4.1-6.3c0.1,0,0.8-0.8,1.6-1.7c1.1-1.5,1.3-1.8,1.1-1.8c-0.5-0.3-1.6,0.4-2.5,1.3c-2,2.2-5.7,7.1-5.7,7.7
		c0,0.1-0.1,0.3-0.1,0.3c-0.1,0-0.5,0.5-0.8,0.9c-0.3,0.7-0.7,1.1-0.7,1.1c-0.1,0-0.3,0.1-0.3,0.4c0,0.1-0.1,0.5-0.5,0.9
		c-0.3,0.3-0.5,0.7-0.5,0.9c0,0.1-0.1,0.4-0.3,0.5c-0.3,0.1-0.7,0.9-1.1,1.7c-0.4,0.8-0.8,1.6-0.9,1.6l-1.1,1.8
		c-0.4,0.9-0.9,1.7-1.1,1.7c0,0-0.1,0.1-0.1,0.3s-0.4,1.1-0.9,2.1c-2.2,4.9-2.9,6.2-3.3,7.3c-0.1,0.8-0.5,1.6-0.7,1.8
		c-0.1,0.4-0.3,0.8-0.3,1.1c0,0.3-0.1,0.8-0.3,1.3c-0.5,1.3-0.8,3.3-0.8,6.1c0,2.1,0,2.5,0.4,3c0.7,0.8,0.8,0.7,0.9-0.8
		c0.3-3.3,1.7-9.4,2.5-11c0.3-0.4,0.3-0.8,0.3-0.9C86.9,88.8,90.6,81.1,92.5,77.6z M83.9,104c0,0,0-0.3-0.3-0.4
		c-0.1-0.1-0.3-0.1-0.3,0C83.3,103.8,83.6,104.1,83.9,104z M88.6,77c0.3,0,0.4-0.1,0.4-0.3c0-0.3-0.4-0.3-0.5,0S88.5,77,88.6,77z
		 M89.8,74.8c0.1-0.1,0.3-0.3,0.1-0.3c0-0.1,0-0.3,0.3-0.4c0.1-0.1,0.1-0.4,0-0.4s-0.4,0.3-0.5,0.7S89.5,74.9,89.8,74.8z M90.3,73.3
		c0,0.3,0.1,0.1,0.4-0.3s0.4-0.8,0.4-0.8C91,72.1,90.3,72.9,90.3,73.3z M91.3,71.9c0.1-0.1,0.9-1.1,1.6-2.1c0.5-1.1,1.3-2.4,1.7-2.6
		c0.3-0.4,0.7-0.9,0.8-1.3l1.3-1.8c0.4-0.7,0.8-1.2,0.8-1.3c0-0.3,0.1-0.3,0.3-0.3c0.1,0,0.9-0.8,1.7-1.8c1.7-2.1,3-3,4.4-3.3
		l0.9-0.1l-0.4-0.7c-0.1-0.4-0.5-1.1-0.9-1.5l-0.4-0.7l-1.1,1.1c-1.5,1.5-2.4,2.6-5.5,7.1C93.9,66.5,90.7,72.1,91.3,71.9z M93,106.6
		c0.4-0.1,1.1-0.7,1.5-0.9c0.4-0.4,0.8-0.7,0.9-0.7s0.3-0.3,0.5-0.4l1.5-1.2c1.6-1.3,2-1.7,3.3-3c1.5-1.5,2.2-2.2,1.3-1.5l-0.9,0.8
		l-1.3,0.9l-1.2,1.1c-0.7,0.5-3,2.2-4.4,2.9c-1.6,1.1-1.8,1.2-1.8,2C92.3,107,92.3,107,93,106.6z M117.9,84.6l-3.6,4.8l-0.7,0.9
		c-0.1,0.3-0.7,0.9-1.2,1.5l-1.8,2.4l-1.7,2.1c-1.8,2.4-7.8,8.5-10.4,10.8c-1.3,1.1-3.6,2.6-4.5,3.2c-0.3,0.1-0.5,0.4-0.5,0.5
		s1.3-0.5,3-1.6c4.4-2.6,10.2-8.3,15.6-15.2l2.6-3.3c1.7-2.1,2.9-4.2,3.2-5.3C118.1,84.8,118.1,84.4,117.9,84.6z M129.3,80.7
		c0,0-0.8,1.2-1.6,2.5c-0.9,1.5-1.7,2.8-1.7,2.9c-0.8,1.3-1.1,2-1.5,4c-0.5,2.2-1.2,7.1-1.6,10.2c-0.3,2.1-0.1,9.8,0,10.2
		c0.3,0.4,0.3,0.3,0.4-0.7c0-0.5,0.3-3,0.5-5.4c0.5-4.1,1.8-11,2.5-13.2l1.1-4c0.5-1.7,1.1-3.8,1.5-4.6
		C129.2,81.7,129.3,80.9,129.3,80.7z"/>
	<path class="st0" d="M220.7,72.3c0.3,0.3,0.4,0.5,0.4,0.5s-1.6,1.2-3.6,2.5c-2,1.2-3.7,2.4-4,2.6l-2.1,1.6l-1.8,1.5
		c-0.1,0-1.1,0.8-2.1,1.6c-5.3,4.1-9.5,7.9-15.7,14.1c-2,2.1-3.8,3.8-4,3.7c-0.1-0.1-0.1,0,0,0.1c0,0.1-0.4,0.8-1.2,1.5
		c-0.7,0.8-1.2,1.3-1.2,1.5s-0.8,0.9-1.1,0.9c-0.1,0-0.3,0.1-0.3,0.1c0.1,0.4-0.8,1.5-1.1,1.5s-0.3,0.1-0.3,0.1
		c0.3,0.4-0.8,1.5-1.2,1.5c-0.1,0-0.1,0.1-0.1,0.1c0.1,0.3-0.1,0.4-0.4,0.4h-0.1c0.1,0.1,0.1,0.3-0.1,0.7c-0.3,0.1-0.5,0.3-0.7,0.3
		c0-0.1-0.1-0.1,0,0.1c0.1,0.1,0,0.1-0.3,0.1c-0.3,0.1-0.3,0.1-0.1,0.3c0.3,0.1,0.3,0.3,0,0.4c-0.3,0.3-0.4,0.3-0.4,0.3
		c0-0.1-0.1-0.1-0.3,0c-0.1,0.1-0.1,0.1,0.1,0.3c0.1,0.1,0.1,0.1-0.3,0.1c-0.1,0-0.3,0.1-0.3,0.3c0.3,0.1-0.3,0.8-0.5,0.5
		c-0.1,0-0.1,0,0,0.1c0.1,0.3-1.1,1.7-1.3,1.5c-0.1,0-0.1,0-0.1,0.3c0.1,0.4-0.3,1.1-0.8,1.1c-0.3,0-0.4,0.1-0.4,0.3s0.1,0.1,0.3,0
		h0.3c0,0.1-0.4,0.3-0.7,0.4c-0.4,0.3-0.5,0.3-0.4,0.4c0.3,0.1,0.3,0.3,0,0.5c-0.4,0.3-0.4,0.3-0.3,0c0.1-0.3,0-0.1-0.4,0.3
		c-0.3,0.4-0.5,0.8-0.5,0.9c0.1,0,0,0.1-0.1,0.1c-0.3,0-0.3,0.1-0.3,0.3c0,0,0,0.1-0.1,0.3c-0.3,0,0.4,1.2,1.6,3c1.2,1.6,2,3,2,3
		c0,0.1,0.3,0.5,0.7,1.1l1.5,2.8c1.2,2.4,2.9,5.4,3.2,5.5c0.1,0,0.1,0.1,0.1,0.3c0,0.1,0.1,0.5,0.4,0.5c0.1,0.3,0.3,0.5,0.3,0.8
		s0.3,0.5,0.4,0.7c0.5,0.5,2.1,4.2,2.1,4.9c0,0.3,0.1,0.4,0.3,0.4c0.1,0,0.3,0.4,0.3,0.9l0.4,1.2c0.1,0.4,0.4,1.5,0.5,2.6
		c0,0.4,0.1,1.5,0.3,2.1c0.1,0.9,0.1,1.3-0.1,1.3c-0.1,0-0.3-0.4-0.3-0.7c0-0.4-0.1-0.9-0.1-1.3c0-0.3,0-0.7-0.1-0.8
		c0-0.1-0.1-1.6-0.3-2.1c0-0.4,0-0.5-0.1-0.5s-0.1-0.1,0-0.4c0-0.1,0-0.3-0.3-0.3c-0.1,0-0.1-0.3-0.1-0.7c0.1-0.4,0-0.8-0.3-0.8
		c-0.1,0-0.3-0.3-0.1-0.3c0-0.3-0.5-2-0.8-2.4c-0.3-0.1-0.3-0.4-0.3-0.5c-0.1-0.4-1.1-2.4-1.3-2.6l-0.3-0.3
		c-0.1-0.4-0.9-1.7-1.1-1.7s-0.1,0.3,0.1,0.7c0.5,1.1,2.4,5.8,2.4,6.2c0,0.3,0.1,0.5,0.1,0.7c0.3,0.1,0.4,0.5,0.4,0.9
		s0.1,1.1,0.4,1.6c0.3,1.3,0.8,6.1,0.7,7.1c0,0.1,0,0.8-0.1,1.3c0,0.7-0.1,1.2-0.4,1.3c-0.3,0.1-0.3,0.1,0,0.1s0.3,0.3,0.1,0.4
		c0,0.3-0.1,0.7-0.1,0.7l-0.3,0.5v0.7c0.1,0.3,0,0.5-0.1,0.5s-0.3,0.1-0.1,0.1v0.9c-0.1,0.7-0.1,0.7-0.8,0.8c-0.5,0-0.7,0-0.3,0.1
		c0.8,0.1,0.7,0.9-0.1,0.9c-0.7,0-0.7,0,0,0.3c0.4,0,0.4,0.1,0.1,0.4c-0.3,0.3-0.3,0.4-0.1,0.5c0.3,0.1,0.3,0.1,0.1,0.3
		c-0.3,0.1-0.4,0.7-0.7,1.1c-0.1,0.7-0.4,0.8-0.9,0.9h-0.5l0.5,0.1c0.7,0.1,0.7,0.3-0.4,0.5c-0.3,0.1-0.3,0.1,0,0.1
		c0.7,0.1,0.5,0.5,0,0.5s-0.5,0-0.1,0.1c0.3,0.1,0.4,0.3,0.1,0.4c-0.1,0.1-0.3,0.1-0.4,0c-0.1-0.1-0.3,0-0.4,0.1
		c0,0.1,0.1,0.1,0.3,0.1s0.3,0.1,0.3,0.3c0,0.3-0.7,0.5-0.9,0.4c-0.1-0.1-0.1,0-0.1,0.3c0.1,0.3,0.1,0.5,0,0.4s-1.2,1.1-1.2,1.3
		s0.7,0.1,0.9-0.1l2-1.8c0.7-0.5,0.7-0.5,0.3,0c-0.7,0.8-0.8,1.1-2.2,2.4l-2.5,2.2l-1.7,1.5c-0.9,1.1-3.6,3.4-4.6,4.1
		c-1.2,0.7-3.6,1.8-4.6,2.2l-1.6,0.5c-0.9,0.3-6.2,0.4-7.8,0.1c-6.2-0.9-9.1-2.1-14.9-5.9c-1.5-1.1-3.3-2.9-3.8-3.8l-0.5-1.1
		l-0.5-1.6c-0.1-0.7-0.7-1.7-1.2-2.5c-0.9-1.2-1.2-1.7-1.2-2.1c0-0.1-0.1-0.4-0.3-0.8l-0.4-1.5c0-0.4-0.3-0.9-0.3-1.1
		c-0.1-0.1-0.3-0.3-0.1-0.3c0-0.1,0.1-1.1,0.1-2.1c0.3-2.4,0.4-3.3,0.7-3.8c0.1-0.1,0.1-0.5,0.1-0.9c0-0.3,0.1-0.7,0.3-0.7
		c0-0.1,0.1-0.3,0.1-0.4s0.1-0.3,0.1-0.3s0-0.1,0.1-0.4c0-0.1,0.1-0.7,0.4-1.1c0-0.3,0.3-0.7,0.3-0.8c0-0.4,0.3-0.9,0.7-2
		c0.3-0.4,0.4-0.8,0.4-1.1c0.1-0.4,0.7-1.6,0.9-1.6v-0.4c-0.1-0.3,0-0.5,0.1-0.7c0.3-0.1,0.3-0.3,0.3-0.4c0.1-0.5,0.7-1.7,0.9-1.7
		c0.1,0,0.1-0.1,0.1-0.3c-0.1-0.3,0-0.5,0.1-0.7c0.3-0.1,0.7-0.9,1.1-1.6l1.1-2.2c0.3-0.5,0.7-0.9,0.8-0.9s0.3,0,0.3-0.3
		c-0.1-0.1,0-0.4,0.1-0.5l2-3l2.2-3l2.1-2.9l2-2.6l1.8-2.4l3.8-4.9c0.3-0.3,0.9-0.9,1.2-1.3l0.7-0.8l-2.2-3.2
		c-6.9-9.4-10.4-16.1-11.1-21c0-0.7-0.3-1.6-0.3-2.4c-0.3-1.8-0.1-5.7,0.3-7.1c0.4-1.2,1.2-3.4,1.5-3.8l0.5-1.1
		c0.1-0.4,0.4-0.8,0.4-1.1l1.2-1.7c0.7-0.8,1.5-2.1,2-2.6c0.9-1.2,4.8-4.8,6.2-5.9c2.6-1.8,4-2.8,6.1-3.8c4.8-2.2,8.6-3,12.2-2.4
		c3.7,0.5,4.9,1.2,8.5,4.5c1.7,1.6,2.5,3.6,1.5,3.6c-0.3,0-0.4-0.1-0.5-0.4l-0.7-1.1l-0.4-0.4l-0.5,0.5c-0.4,0.3-0.5,0.7-0.5,0.7
		c0.9,0.5,1.3,0.7,2,0.8c0.4,0.1,0.9,0.3,1.2,0.5c0.5,0.3,1.3,1.6,1.2,1.8c-0.3,0.4-1.1,0.3-1.8-0.1c-0.7-0.3-0.7-0.3-2.9,0.9
		c-1.3,0.7-2.8,1.5-3.3,1.8c-0.4,0.5-0.8,0.8-0.9,0.8s-0.7,0.5-1.3,1.1c-0.7,0.7-1.2,1.2-1.3,1.2c-0.3,0-5.3,5.2-5.9,6.1
		c-0.3,0.5-0.7,0.8-0.8,0.8s-0.3,0.3-0.3,0.4s-0.1,0.5-0.4,0.7c-0.4,0.3-0.4,0.4-0.4,0.4c0.3,0-0.9,1.5-1.6,2.2
		c-0.1,0.1-0.3,0.4-0.3,0.4c0,0.1-0.1,0.4-0.3,0.5l-0.8,1.3l-0.8,1.2c0,0-0.3,0.3-0.3,0.5l-0.4,1.1c-0.1,0.3-0.5,0.9-0.7,1.5
		l-0.5,1.7c-0.1,0.4-0.5,1.8-0.7,3.3c-0.4,2.1-0.4,2.9-0.1,4.6c0.3,2.6,0.5,3.4,1.8,5.3c0.8,1.5,0.9,1.5,1.5,1.2
		c0.3-0.3,0.7-0.7,0.9-1.2c0.9-1.1,2.5-2.8,7.7-7.9c7-7,11.4-10.8,17.4-15.5l2-1.6l1.7-1.2l1.6-1.2l8.7-5.7c0.7-0.3,2.8-1.7,4.9-2.9
		c2.1-1.3,4.1-2.4,4.5-2.5c0.5,0,1.1,0,1.6,0.3c1.5,0.7,1.1,1.2-3.6,4.1c-12.5,7.8-20.6,14.1-30,23.4c-4.5,4.4-8.3,8.6-12.5,13.5
		c-0.8,1.1-1.7,2.1-2,2.4c-0.3,0.4-0.3,0.5,0.5,1.6c0.4,0.8,0.8,1.2,0.9,1.2c0.1,0,0.7-0.7,1.5-1.6c3.7-4.4,5.8-6.7,10.6-12
		c3.3-3.7,9.9-10,13.7-13.3l4.5-3.7l2.9-2.2c4.9-3.7,15.8-11.1,16.5-11c0.1,0,0.4,0.1,0.7,0.4c0.5,0.7,0.4,0.9-1.1,1.8l-0.8,0.4
		l0.7,0.5c0.3,0.3,0.5,0.7,0.5,0.8s0.3,0,0.8-0.1C220.3,71.7,220.3,71.7,220.7,72.3z M141.3,170.3l-0.9-1.8
		c-0.3-0.8-0.7-1.2-1.3-1.7l-0.9-0.7l0.3,0.7c0.1,0.9,1.2,2.4,2.2,3.6c0.5,0.5,1.1,1.1,1.2,0.9C141.8,171.2,141.6,170.7,141.3,170.3
		z M146.1,145.3c2.4-4.1,2.9-5,5.9-9.8c4.2-6.2,4.6-6.7,9-12.5l2.5-3.4l-0.8-1.5c-0.4-0.7-0.8-1.5-0.9-1.5c-0.3,0-7.3,9.5-11.1,15.1
		c-3,4.2-7.9,12.7-7.7,13.1c0.1,0,0.9-1.2,0.9-1.5c0-0.1,0.3-0.3,0.5-0.4c0.1-0.3,0.3-0.4,0.1-0.4l0.4-0.8c0.3-0.4,0.7-0.9,0.8-1.3
		c0.3-0.3,0.4-0.5,0.5-0.5s0.3-0.1,0.1-0.3c-0.1-0.1,0.1-0.4,0.4-0.8c0.4-0.3,0.7-0.7,0.7-0.8s0-0.3,0.3-0.3c0.1,0,0,0.3-0.3,0.7
		l-0.8,1.3c-0.3,0.4-0.5,0.8-0.7,0.8c0,0-0.1,0.1-0.1,0.4c0,0.1-0.4,0.8-0.8,1.6c-0.5,0.7-0.8,1.2-0.8,1.3s-0.3,0.7-0.7,1.2
		s-0.7,0.9-0.7,1.1c0,0-0.5,1.2-1.2,2.4c-1.5,3-1.7,3.7-2.1,5.3c-0.5,2-0.4,5.5,0.1,6.3c0,0.3,0.3-0.4,0.4-1.3l0.9-3.2
		C142.6,151.9,143.8,149.3,146.1,145.3z M146.1,171.7c0,0-0.1-0.4-0.3-0.5c-0.1-0.1-0.4-0.4-0.4-0.5s-0.7-0.9-0.9-0.9
		c-0.3,0-0.1,0.3,0.5,1.3C145.7,172,146.1,172.3,146.1,171.7z M146.1,156.5c0-0.4,1.3-3.3,2.9-6.7c0.5-1.1,1.5-2.5,1.7-2.9
		c0.1-0.1,0.1-0.3,0-0.3s0-0.3,0.3-0.4l1.3-2.4c0.1-0.4,0.5-1.1,0.8-1.5c0.3-0.3,0.5-0.8,0.7-1.1c0-0.1,0.1-0.4,0.3-0.4
		c0.1,0,0.3,0,0.3-0.3c0,0,0.5-1.1,1.3-2.1l3.2-4.8c1.1-1.6,2.5-3.8,3.4-5c2.8-3.8,3.3-4.6,2.8-4.6c-0.1,0-0.1,0-0.1,0.1
		s-0.4,0.5-0.8,1.1c-0.3,0.4-0.5,0.8-0.4,0.9l-0.4,0.4c-0.3,0.1-0.5,0.4-0.5,0.4c0,0.3-0.8,1.5-1.3,2c-0.3,0.3-0.4,0.5-0.4,0.7
		s-0.3,0.3-0.4,0.3c-0.3,0-0.3,0.1-0.3,0.1c0.1,0.1-0.7,1.5-1.1,1.7c-0.1,0.1-0.1,0.1,0,0.1s0.1,0.1,0,0.1l-0.5,0.7L158,134
		c-0.3,0.4-0.5,0.7-0.7,0.7c0,0-0.1,0.3-0.1,0.4c0,0.3-0.1,0.4-0.3,0.4c-0.1,0-0.3,0-0.1,0.1c0,0.4-0.4,0.9-0.7,0.8
		c0-0.1-0.1,0,0,0.1c0,0.1,0,0.4-0.4,0.7c-0.1,0.1-0.4,0.4-0.4,0.5c0,0-0.7,1.3-1.7,2.6c-0.8,1.5-1.6,2.6-1.6,2.9
		c0,0-0.1,0.3-0.3,0.3c-0.1,0.1-0.4,0.5-0.7,1.2c-0.3,0.5-0.7,0.9-0.7,0.9c-0.3-0.1-0.4,0.3-0.3,0.7c0,0,0,0.1-0.1,0.1
		c-0.3,0-0.3,0.3-0.5,1.1c0,0.1-0.3,0.4-0.5,0.7l-0.5,0.9l-0.7,1.6c-0.3,0.5-0.5,1.1-0.5,1.2c0,0.1-0.1,0.5-0.4,0.9
		c-0.3,0.7-1.2,4-1.2,4.4c0,0,0.1,0.1,0.3,0C146.1,156.9,146.1,156.8,146.1,156.5z M147.1,164.6c0.5,0.3,4.5,0.1,4.8,0
		c0.1-0.1,0-0.7-0.3-1.3c-0.7-2.4-0.3-7.3,0.9-10.3c0.3-0.4,0.4-1.1,0.4-1.2c0.3-0.7,0.5-1.6,0.8-1.7c0.1,0,0.1-0.3,0.1-0.4
		c0,0,0-0.1,0.3-0.1c0.1,0,0.1,0.1-0.3,0.9l-0.5,1.3c0,0.1-0.1,0.4-0.1,0.5s-0.1,0.5-0.3,0.9c0,0.5-0.1,0.8-0.3,0.8
		c-0.1,0-0.3,0.1-0.1,0.3c0.1,0.3,0,0.4-0.1,0.4s-0.1,0.1-0.1,0.3c0.1,0,0,0.9-0.3,2c-0.4,2.4-0.3,5,0.3,7c0.1,0.3,0.4,0.4,0.9,0.4
		c0.4,0,0.8-0.1,0.9-0.3c0.1-0.1,0.3-0.1,0.5-0.1c1.1,0,4.1-2.1,4.1-2.8c0-0.3,0.1-0.4,0.4-0.7c0.3-0.1,0.4-0.4,0.4-0.4
		c-0.1-0.1,0-0.4,0.1-0.4c0.3,0,0.3-0.3,0.3-0.3c0-0.1,0-0.4,0.3-0.4c0.1,0,0.4-0.4,0.4-0.8c0.1-0.4,0.3-0.7,0.4-0.7s0.1-0.1,0-0.3
		c0-0.1,0-0.1,0.1-0.1s0.3-0.1,0.3-0.4c0-0.1,0.1-0.4,0.4-0.4c0.1,0,0.3,0,0.1-0.3c-0.1-0.1,0-0.4,0.1-0.4s0.1,0,0.1-0.1
		s0-0.7,0.3-1.1l0.8-1.6c0.1-0.4,0.4-0.8,0.4-0.8c0.1,0,0.3,0,0.1-0.3c-0.1,0,0-0.1,0.1-0.1s0.1-0.3,0.1-0.5c0-0.1,0.1-0.7,0.4-0.9
		c0.1-0.3,0.3-0.7,0.3-0.8c0-0.3,0.1-0.8,0.4-1.3c0.1-0.4,0.4-1.1,0.4-1.2c0-0.3,0-0.4,0.1-0.4c0.3,0,0.3-0.1,0.1-0.3
		c0-0.1,0-0.4,0.1-0.7c0.1-0.1,0.3-0.8,0.4-1.2c0-0.4,0.1-1.3,0.3-1.8c0.1-0.7,0.3-1.3,0.3-1.6s0.1-0.5,0.3-0.7
		c0.4-0.5,0.4-6.3,0-8.8c-0.1-1.2-0.4-2.5-0.4-2.8c-0.1-0.8-0.5-1.6-0.8-1.6c0,0-0.7,0.8-1.2,1.6c-0.7,0.9-1.2,1.6-1.3,1.6
		s-0.1,0.1-0.1,0.3c0,0.1-0.7,1.1-1.5,2.1l-5.5,8.5l-1.7,2.9c-0.3,0.5-0.8,1.5-1.2,1.8c-0.3,0.5-0.5,1.1-0.5,1.2l-0.5,0.9
		c-0.7,0.5-3,5.5-3,6.1c0,0.1,0,0.3-0.1,0.3c-0.3,0-1.8,4.8-2.2,7C146.3,163.5,146.5,164.3,147.1,164.6z M148.7,167.4l2.4-0.5
		c1.5-0.5,1.7-0.8,1.3-1.3c-0.1-0.3-5.8-0.3-5.8,0.1c0,0.1,0.3,0.5,0.5,1.1C147.8,167.5,147.8,167.5,148.7,167.4z M152.5,174.4
		l2.1-0.4l1.3-0.5c0.5-0.1,0.5-0.1-0.7-0.4c-1.7-0.1-4-0.9-5.7-1.8c-0.8-0.5-1.6-0.8-1.7-0.8c-0.4,0.1,1.2,2.4,2.2,3.3
		C151.2,174.5,151.2,174.5,152.5,174.4z M160.6,71.3c0,0,0.5-0.5,1.1-1.2c0.5-0.8,1.2-1.3,1.3-1.5c0.3,0,0.4-0.1,0.4-0.3
		c0-0.4,3-3.2,3.3-3.2c0.1,0,0.4-0.1,0.7-0.4c1.6-1.5,2.4-2.1,2.5-2.1s0.9-0.4,1.8-0.9c0.8-0.5,1.8-1.1,2.2-1.1
		c0.4-0.1,0.7-0.4,0.7-0.4c0-0.1,0.3-0.3,0.7-0.4c0.7-0.3,0.7-0.3-0.4-0.3c-2.5-0.1-7.7,2.1-11.6,5.3c-4,2.9-8.3,7.8-9.8,10.7
		c-0.4,0.7-0.7,1.3-0.9,1.6c-0.1,0.3-0.3,1.2-0.3,2.1c-0.1,0.9-0.3,1.8-0.4,2c-0.3,0.3,0,4.8,0.3,5.2c0.1,0.1,0.3-0.3,0.5-0.9
		c0.1-0.7,0.5-1.6,0.8-2.2l1.3-2.4c0.5-0.7,1.3-2.1,1.7-3.2C157.2,76.1,160.2,71.3,160.6,71.3z M153.9,165.4c0.1,0,0.3-0.1,0.5-0.1
		c0.1,0,0.5-0.3,0.7-0.4c0.4-0.4,0.4-0.4-0.1-0.3l-1.3,0.4c-0.4,0-0.8,0.1-0.8,0.3C152.8,165.7,153.6,165.8,153.9,165.4z
		 M153.5,170.5c0.4,0.1,4.4,0.7,4.4,0.4c0,0-0.5-0.3-1.1-0.7c-0.9-0.5-1.1-0.5-2.4-0.3C153.5,170.3,153.2,170.3,153.5,170.5z
		 M157.7,174l-2.1,0.7c-0.5,0.1-1.1,0.3-1.1,0.4c-0.3,0.3,3.2-0.1,4.2-0.4c1.6-0.5,2.5-0.9,3-1.2C162.6,172.9,159,173.3,157.7,174z
		 M165.4,165.9l0.7-0.9c0.4-0.3,0.5-0.4,0.4-0.4s0-0.1,0.1-0.3c0.1-0.1,0.4-0.3,0.4-0.4c0-0.1,0.1-0.4,0.3-0.5
		c0.1-0.1,0.3-0.3,0.1-0.3c0,0,0.1-0.3,0.4-0.7c0.4-0.4,0.8-1.2,1.1-1.6c0.1-0.5,0.7-1.5,1.1-2c0.3-0.7,0.5-1.2,0.4-1.3
		c0,0-0.3,0-0.3,0.3l-1.1,1.3c-0.4,0.5-1.1,1.3-1.5,2c-2.6,3.6-6.1,6.3-9.8,7.8l-1.3,0.5l1.2,0.7c0.9,0.7,1.2,0.7,2.1,0.5
		c0.7,0,1.5-0.3,1.8-0.5C162.3,169.5,165,166.6,165.4,165.9z M173,151.8c-0.3,0.4-0.4,0.8-0.4,1.2c0,0.3,0,0.5-0.1,0.7
		c-0.1,0-0.4,0.7-0.5,1.5c-0.3,0.8-0.7,2-1.1,2.6l-0.5,1.3c0,0.4-0.8,1.8-0.9,1.8c-0.1-0.1-0.1,0-0.1,0.3c0,0.4-2.1,4-2.5,4.2
		l-2.1,3c-0.1,0.3-0.3,0.4-0.4,0.3c-0.1,0-0.3,0.1-0.3,0.3c-0.3,0.5,0.1,0.4,1.8-0.7c1.5-0.9,4.6-4,5.8-5.8c1.5-2.1,2.9-5.8,3.6-9.1
		c0.9-4.5,1.1-6.9,0.5-10.2l-0.1-1.1l-0.1,0.9c-0.5,2.8-0.8,3.6-1.5,5.8L173,151.8z M170.5,173.1c-0.4,0.1-1.6,0.9-2.8,2
		c-0.1,0.1-0.3,0.3-0.4,0.1c0,0-0.1,0-0.1,0.1c0,0.4,0.3,0.3,1.7-0.5c0.8-0.5,1.5-1.1,1.8-1.5C171.2,172.9,171.2,172.9,170.5,173.1z
		 M176.4,164.9c0,0.3-1.2,2.2-1.5,2.4v0.4c0.1,0.1,0,0.3-0.3,0.3c-0.1,0-0.3,0.1-0.3,0.3c0.1,0.1-0.1,0.5-0.7,0.9
		c-0.4,0.4-0.7,0.8-0.7,0.9s-0.1,0.3-0.4,0.3h-0.3c0,0.4-0.4,1.1-0.7,1.1c-0.1,0-0.3,0.1-0.3,0.3c0,0.8,0.7,0.3,2-1.3
		c0.8-1.1,1.5-1.8,1.6-1.8s0.1-0.3,0.1-0.4s0.1-0.4,0.4-0.4c0-0.1,0.3-0.8,0.7-1.3c0.4-0.7,0.7-1.3,0.7-1.5
		C176.8,164.5,176.4,164.5,176.4,164.9z M191.6,93.5c-0.3,0.1-8.8,8.8-11,11.4l-1.6,1.7c-0.4,0.4-0.5,0.7-0.5,0.7
		c0.1,0-0.3,0.4-0.7,0.8c-0.4,0.5-0.8,0.9-0.8,1.1c0,0.1-0.1,0.1-0.4,0.1c-0.1,0-0.3,0.1-0.3,0.3c0,0.1-0.5,0.9-1.2,1.7
		c-0.8,0.8-1.3,1.5-1.3,1.6s-0.4,0.5-0.9,0.9c-0.4,0.5-0.8,0.9-0.8,1.1c0.1,0,0,0.3-0.1,0.4s-0.4,0.3-0.4,0.5c0,0.1,0.4-0.1,0.7-0.5
		l1.6-1.7l1.2-1.5c0.1-0.3,0.5-0.9,0.9-1.3l5.9-6.7l5.9-6.5C190.1,95.4,191.8,93.5,191.6,93.5z M177,164.3c0.3,0.4,1.1-0.5,1.1-1.2
		c0-0.1,0.1-0.5,0.3-0.7c0.5-0.5,0.5-0.7,0-0.7c-0.4,0-0.4,0.1-0.4,0.5c0.1,0.3,0,0.4,0,0.4c-0.3,0-0.7,0.8-0.5,1.2
		c0,0.1-0.1,0.1-0.3,0.1S177,164.2,177,164.3z M177.2,63h2.5c1.2,0,2.2-0.1,2.2-0.3c0,0-0.1-0.3-0.4-0.7c-0.4-0.5-0.4-0.5-1.5-0.3
		c-0.4,0.1-1.3,0.4-1.8,0.7L177.2,63z M178.4,161.6c0.3,0.1,0.4-0.1,0.5-0.9c0.1-0.4,0.1-0.5,0-0.5c-0.3,0-0.3,0-0.3,0.1
		c0.1,0.1,0.1,0.4-0.1,0.7C178.4,161.2,178.3,161.4,178.4,161.6z M179.1,167.8l-0.1-0.1c-0.1,0-0.3,0.1-0.3,0.4c0,0,0.1,0.1,0.3,0
		C179,168,179.1,167.9,179.1,167.8z M179,159.6c0,0.1,0,0.3,0.1,0.3s0.3-0.1,0.3-0.3s-0.1-0.1-0.3-0.1
		C179,159.4,179,159.4,179,159.6z M179.4,159.1c0,0,0.1,0.1,0.3,0c0.1,0,0.1-0.1,0.1-0.3c0,0,0-0.1-0.1-0.1
		C179.5,158.7,179.4,158.8,179.4,159.1z M203.1,83.6c0-0.3-0.1-0.1-0.5,0.1c-0.1,0.3-1.8,1.6-2.6,2.2c-0.1,0.1-0.7,0.7-1.3,1.1
		l-1.7,1.5c-0.4,0.4-1.2,1.1-1.8,1.8l-2.1,1.8c-0.9,0.8-1.2,1.2-0.8,1.2l0.7-0.7c0.4-0.5,3.2-3,5-4.6l2.8-2.4
		C202.1,84.6,203.1,83.6,203.1,83.6z M205.6,81.4c-0.1,0-0.4,0.4-0.7,0.7c-0.3,0.3-0.4,0.5-0.4,0.5s0.3-0.3,0.7-0.5
		C205.5,81.8,205.6,81.4,205.6,81.4z M207.2,80.5c0-0.1-0.3,0.1-0.7,0.3c-0.4,0.3-0.7,0.5-0.7,0.7c0,0,0.3-0.1,0.7-0.4
		C207,80.7,207.2,80.5,207.2,80.5z M208,79.7c0,0-0.1,0.1-0.4,0.3c-0.1,0.3-0.1,0.4-0.1,0.4s0.3-0.1,0.4-0.4
		C208,79.8,208.1,79.7,208,79.7z M208.9,79c0,0-0.3,0.1-0.4,0.3c-0.1,0.3-0.3,0.4-0.1,0.4c0,0,0.3-0.1,0.4-0.4
		C208.9,79.1,209.1,79,208.9,79z M209.9,78.4c-0.1,0-0.3,0.1-0.4,0.3c-0.1,0.3-0.3,0.4-0.1,0.4l0.4-0.4
		C209.9,78.5,209.9,78.4,209.9,78.4z M211.8,76.9c-0.3,0.3-0.5,0.4-0.5,0.4c0,0.1,0,0.1,0.1,0.1s0.4-0.1,0.5-0.4
		C212.2,76.6,212.2,76.6,211.8,76.9z"/>
	<path class="st0" d="M275.5,88.1c-3.8,5.2-10.6,12.4-15.1,16.5l-8.6,7.1l-2.2,1.7c-0.5,0.7-6.5,4.4-8.7,5.5
		c-7.9,4-14.8,5.8-20.1,5.3c-2.6-0.3-4.8-0.9-7-2l-2.6-1.6l-1.8-1.5c-1.8-1.2-3-2.6-4-4.5c-0.4-0.8-0.9-1.6-1.3-1.7
		c-0.3-0.3-0.4-0.4-0.3-0.4c0.1,0,0-0.1-0.1-0.3c-0.5-0.4-2.2-3.6-2.2-4.1c0-0.1,0-0.7-0.3-1.1l-0.5-1.6c0-0.4-0.1-1.3-0.3-2
		c-0.8-4.4,0.1-11,2.2-16.9c1.1-2.8,4.4-9.6,5.8-11.8c0.5-0.8,0.9-1.6,0.9-1.6c0-0.1,0.9-1.5,1.1-1.7c0.4-0.4,1.8-2.1,1.8-2.4
		c0,0,2-2.4,2.5-3c0,0,0.5-0.5,0.9-1.1c3.4-4,7.1-7.8,9.1-9.1c0.8-0.7,1.6-1.1,1.6-1.2c0.1-0.1,0.7-0.5,1.3-0.8
		c0.8-0.4,1.3-0.8,1.5-0.9h0.7c0.1-0.1,1.1-0.8,2.4-1.3l3.6-1.7c0.7-0.4,1.5-0.7,1.7-0.7c0.1,0,0.4,0,0.4-0.1
		c0.4-0.4,2.8-1.1,4.2-1.1c1.8-0.3,4.4,0.4,5.5,1.3c0.8,0.5,1.7,2,1.7,2.4c0,0.3,0.5,0.8,1.3,1.5c1.5,1.2,2.6,2.8,2.6,3.6
		c0,0.3,0.3,0.9,0.7,1.3c1.2,2,0.9,3.7-1.6,11c-2.6,7.4-4,10.2-6.3,13.5c-1.5,2.2-4.8,5.7-6.3,6.9c-1.1,0.8-2.1,0.9-3,0.5
		c-0.4-0.3-0.3-0.3,0.5-1.2c0.7-0.5,0.8-0.8,0.4-0.5c-0.4,0.3-0.5,0.3-0.8,0c-0.3-0.1-0.4-0.1-0.7,0.3c-0.4,0.7-0.9,0.7-1.1,0.1
		c-0.3-0.4,1.1-2.8,2.8-5.2c4-5.3,6.3-9.9,8.3-15.8c1.7-5.5,1.8-5.9,1.7-6.2c0-0.3-0.1,0-0.3,0.4c-0.3,1.1-2,6.1-2.8,7.7
		c-0.3,0.5-0.5,1.2-0.5,1.2c0,0.1-3,5.5-3.7,6.7c-0.3,0.5-1.6,2.4-2.8,4.2c-2.8,4.1-3.2,4.8-3.2,5.3c0,0.7-0.5,0.7-0.9,0.1
		c-0.3-0.7,0.1-1.8,1.2-3.7c3.6-5.9,6.6-11.6,7.8-14.8c0.9-2.5,2.8-8.6,2.5-8.7c-0.1,0-0.5,0.3-0.9,0.4c-0.4,0.3-0.9,0.5-1.1,0.5
		s-0.5,0.1-0.9,0.4c-0.3,0.3-1.5,0.9-2.5,1.7c-2,1.3-2.5,1.7-4.8,4c-1.7,1.5-2.1,2-4.4,5c-1.5,1.8-5.3,7.4-5.3,7.8
		c0,0-0.4,0.8-0.9,1.6c-1.3,2.2-3.3,5.9-4.4,8.3c-0.4,1.2-0.9,2.1-0.9,2.2c-0.1,0.1-0.3,0.4-0.3,0.5s-0.3,0.8-0.5,1.5l-0.7,1.7
		l-0.4,1.1c-0.5,1.6-1.7,5.8-2.2,9.1c-0.3,1.6-0.4,4.9-0.3,6.2l0.1,1.1l1.6-0.3c0.9,0,2-0.1,2.4-0.3l0.8-0.1v-4.4
		c0-4.6,0.1-5.4,0.5-6.9c0.3-0.8,0.4-0.9,0.7-0.8c0.1,0,0.3,0.3,0.1,0.5c-0.4,1.3-0.5,3.6-0.5,7.3c0,2,0,3.6,0.1,3.7
		c0.1,0.3,0.9,0.1,3.4-0.7c6.3-1.8,11.8-4.1,16-6.7c0.7-0.4,1.3-0.8,1.5-0.8c0.4,0,6.3-4.2,9.1-6.5c10.2-8.5,18.1-16.9,24-25.8
		c1.2-1.7,1.6-2.2,2.1-2.2c0.4,0,0.7-0.3,0.9-0.8c0.1-0.3,0.4-0.5,0.5-0.5c0.3,0.3-2.2,4.5-5.4,8.7c-7.5,10.2-18.1,20.5-29.9,28.9
		c-4.1,2.9-11.2,6.6-16.5,8.5l-3.6,1.2c-1.3,0.5-1.3,0.5-0.4,0.4c0.7-0.1,1.5-0.3,2-0.5c0.4-0.1,0.9-0.3,1.2-0.3
		c0.1,0,0.7-0.1,0.9-0.3c0.3-0.3,0.9-0.4,1.3-0.5c1.8-0.3,9.6-3.7,11.9-5.2c0.5-0.3,0.9-0.7,1.1-0.7s0.9-0.4,1.8-1.1
		s1.7-1.2,1.8-1.2c0,0,4.2-3,6.3-4.8c4.5-3.6,11.9-10.6,15.7-14.9l2.5-2.9c1.8-2,5.4-6.9,7.8-10.3c1.2-1.8,2.2-3.4,2.4-3.4
		c0.3,0,2.2,1.2,2.5,1.5c0.3,0.4,0.3,0.5,0,1.2c-0.4,0.7-0.4,0.8-0.1,1.1c0.4,0.1,0.7,0.3,1.1,0.1c0.7-0.1,0,1.2-2,4.5l-0.9,1.6
		c-2.1,3.7-6.9,10.2-11,15.2l-0.8,1.1l0.9-1.1c3.6-3.7,9.9-12,11.6-15.1l1.5-2.5c0.8-1.1,1.8-2.9,2.4-3.8c0.5-1.1,1.1-1.8,1.2-1.8
		C286.1,72,279.1,83.2,275.5,88.1z M205.2,94.3c-0.1,0-0.3,0.3-0.3,0.5c-0.1,0.4-0.1,0.5-0.1,0.5c-0.4,0.7-0.9,6.7-0.4,6.7l0.1-0.1
		v-0.4c0.1,0,0.1-0.4,0.4-1.6c0-0.4,0.1-1.7,0.1-3c0.1-1.2,0.3-2.4,0.3-2.5C205.5,94.3,205.5,94.2,205.2,94.3z M205.8,92.2
		c0-0.1-0.1-0.1-0.3-0.1l-0.3,0.3c0,0.1,0.1,0.1,0.3,0.1S205.8,92.4,205.8,92.2z M214.7,76.6c1.8-3.2,4.8-7.3,6.9-9.9
		c6.5-7.9,9.4-10.6,14.5-13.1c2-1.1,1.6-1.2-0.7-0.3c-5.4,2.2-9.1,4.8-13.1,9l-1.5,1.7c-0.1,0.3-1.1,1.5-2.1,2.6
		c-2.4,3-2.9,3.7-4.2,5.7c-1.8,2.9-4.4,7.8-5.5,10.8c-0.1,0.4-0.3,0.9-0.4,1.1c-0.1,0.1-0.3,0.5-0.4,0.9c0,0.5-0.3,1.1-0.4,1.5
		l-0.7,2.2c-0.9,4.1-1.2,5.7-1.1,5.9c0,0,0.5-1.1,0.9-2.4l1.2-3c0.3-0.3,0.4-0.7,0.4-0.9C208.7,88.1,213.3,79.1,214.7,76.6z
		 M218.1,114.7c1.7-0.4,2-0.7,2-1.1c0.1-0.3,0.1-0.5,0-0.5l-1.3,0.3c-0.7,0.1-1.7,0.3-2.5,0.3c-1.3,0-1.3,0-1.1,1.1
		C215.3,115.2,215.5,115.2,218.1,114.7z M217,118.8c-0.9-0.5-1.1-0.5-0.5,0.1c0.1,0.4,0.4,0.5,0.7,0.4c0.1,0,0.4-0.1,0.4-0.1
		C217.7,119.2,217.4,119,217,118.8z M225.3,120.4c0-0.4-0.3-0.4-1.5,0c-0.7,0.3-2.1,0.7-3.2,0.8c-1.7,0.4-1.8,0.5-1.1,0.5
		c0.5,0,1.8-0.3,2.8-0.5c1.1-0.1,2.1-0.4,2.4-0.5L225.3,120.4z M221.2,99.7c0,0.5-0.3,0.8-0.5,0.4c-0.1-0.1,0.1-0.9,0.3-0.9
		C221.1,99.2,221.2,99.5,221.2,99.7z M221,113.4c0,0.3,0.1,0.4,0.1,0.4c0.1,0,1.2-0.3,2.5-0.8c4.1-1.3,9.9-3.8,9.6-4
		c0-0.1-1.6,0.4-2.5,0.9c-0.3,0.1-0.8,0.3-1.1,0.3c-0.1,0-0.5,0.1-0.8,0.3c-0.5,0.3-2.6,0.9-4.1,1.5c-0.7,0.1-1.7,0.5-2.5,0.7
		C221.4,112.8,221,113.1,221,113.4z M221.4,98.7c0.1,0.1,0,0.3-0.1,0.3s-0.3-0.1-0.1-0.5c0.1-0.3,0.1-0.7,0.1-0.9
		c0-0.1,0.1-0.4,0.3-0.4c0.1,0,0.1,0.4,0.1,0.7c0,0.3,0,0.5-0.1,0.5C221.4,98.3,221.4,98.4,221.4,98.7z M226,121.5
		c-0.1-0.1-0.3-0.1-0.5,0c0,0.1,0,0.3,0.3,0.3C226,121.8,226.1,121.7,226,121.5z M227.8,119.2c-0.9,0.3-1.2,0.5-0.5,0.5
		c0.4,0,0.9-0.3,1.5-0.5C229.7,118.8,229.5,118.8,227.8,119.2z M228.5,120.9c-0.4,0-0.7,0.1-0.5,0.1c0.1,0.3,0.3,0.3,0.8,0
		C229.1,120.9,229.1,120.7,228.5,120.9z M235.1,60.9c-0.3,0.1-0.8,0.8-1.5,1.3l-1.6,1.6c-0.3,0.4-0.3,0.4,0.1,0.1l1.5-1.3
		c0.8-0.5,1.3-0.9,1.5-0.9l0.8-0.5c1.2-0.9,5.3-2.8,7.7-3.6c1.8-0.5,2.4-0.8,2.4-1.1c0-0.7-1.3-0.8-2.9-0.5
		C241.4,56.4,236.7,59.3,235.1,60.9z M257.5,102.4c-0.1,0-0.7,0.4-1.3,0.9c-2.9,2.8-13.1,10.3-13.9,10.3c-0.1,0-0.1,0-0.1,0.1
		c0.1,0.3,0,0.3-0.3,0.3c-0.4,0-1.1,0.5-0.8,0.8c0,0,0,0.1-0.3,0c-0.7,0-1.1,0.1-0.9,0.3c0.1,0.3,0,0.3-0.3,0.3
		c-0.1,0-0.3,0.1-0.3,0.3c0,0.3-0.3,0.3-0.7,0.1c-0.5-0.1-0.7-0.1-0.1,0.1c0.4,0.4,0.4,0.4-0.1,0.4c-0.4,0-0.7,0.1-0.5,0.3
		c0.1,0.1,0,0.3-0.4,0.1c-0.4,0-0.5,0-0.5,0.1c0.1,0.1,0,0.1-0.1,0.1s-0.1,0.1-0.1,0.3c0.1,0.1,0,0.1-0.3,0.1
		c-0.3-0.1-0.5,0-0.8,0.3l-0.4,0.5c-0.1,0-0.3,0-0.4,0.1c-0.3,0.3,1.3-0.3,2.9-1.1c3.3-1.6,7.1-4.2,11.2-7.3l2.1-1.8
		c0.5-0.4,1.1-0.8,1.2-1.1c0.3-0.1,1.3-1.1,2.2-2C257.5,102.5,257.7,102.4,257.5,102.4z M238.7,50.2c3.6-0.5,4.8-0.4,8.3,1.2
		c0.9,0.4,1.8,0.8,2,0.8c0.1,0-0.1-0.4-0.4-0.8c-1.1-2-4-3-7-2.5c-1.6,0.3-2.8,0.7-3.4,1.1C237.9,50.2,237.9,50.2,238.7,50.2z
		 M244.6,50.9c-0.1-0.3-2.8-0.7-2.9-0.5s1.3,0.5,2.2,0.5H244.6z M244.2,70.6c0-0.1-0.1,0-0.3,0.1c-0.1,0.1-0.3,0.4-0.3,0.5
		s0.1,0.1,0.3-0.1C244.1,71,244.2,70.7,244.2,70.6z M248.2,59.3c0-0.1-0.1-0.1-0.3-0.1c-0.1,0-0.5,0.9-0.9,2.2
		c-0.8,2.9-1.7,5.8-2.4,7.4c-0.3,0.7-0.4,1.3-0.4,1.3c0,0.5,1.5-3.3,2.6-6.7C247.6,61.2,248.2,59.3,248.2,59.3z M248.8,55.1
		c-0.4-0.5-1.1-0.7-1.1-0.3c0,0.5,0.9,1.3,1.2,0.9C249.1,55.6,249,55.4,248.8,55.1z M258.2,101.7c-0.1-0.1-0.3,0-0.4,0.1
		c-0.3,0.3-0.1,0.3,0.1,0.1C258.1,102,258.2,101.7,258.2,101.7z"/>
	<path class="st0" d="M355.8,86.3c0,0.1-0.4,0.3-1.1,0.3c-0.8,0.1-2.5,0.4-2.8,0.4v0.3c0.1,0.3,0,0.4,0,0.5
		c-0.1,0.1-0.3,0.3-0.3,0.5c0,0.7-0.5,0.8-2.6,1.2c-5.3,0.8-11.6-1.7-16.1-6.3c-0.8-0.9-2.4-2.2-3.3-3c-1.7-1.7-3.7-4.1-5.3-6.9
		l-1.1-1.7l-0.5,0.7c-0.7,0.8-1.6,2-3.2,4.2l-1.3,1.8c-0.4,0.3-0.8,1.1-1.2,1.5c-0.4,0.7-0.8,1.2-0.9,1.2s-0.1,0-0.1,0.1
		s-0.4,0.8-1.1,1.6l-1.6,2.2l-0.9,1.3c-0.9,1.1-1.7,2.1-2.5,3.4c0,0.1-0.8,1.2-1.5,2.2c-0.8,1.1-1.8,2.6-2.2,3.4l-1.5,2.1
		c-0.3,0.3-0.8,1.3-1.5,2.1c-0.5,0.9-1.7,2.9-2.8,4.5c-2.2,3.3-2.1,3.2-3.3,5.2c-0.7,0.9-1.2,1.8-1.5,2c-0.3,0.3-0.5,0.5-0.5,0.7
		s-0.1,0.4-0.3,0.7l-0.7,0.9l-1.3,1.6l-1.2,1.7c-0.8,1.2-4.1,4.6-4.5,4.5c-0.1-0.1-0.9,0.5-1.6,1.2c-1.5,1.5-2.1,2-2.1,1.5
		c0-0.3,0-0.4,0.1-0.4c0.3,0,2.2-2.8,2.2-3c0-0.1,0.3-0.4,0.4-0.4l0.7-0.9c0.1-0.4,0.4-0.9,0.7-1.1c0.4-0.4,1.1-1.7,1.1-2.1
		c0-0.3,0-0.3,0.1-0.1c0.3,0.4,0.5-0.1,0.5-1.1c0-0.4,0-0.5,0.3-0.3c0,0.3,0.3,0.3,0.4,0.1c0.1-0.1,0.1-0.3,0.3-1.1
		c0-0.4,0-0.5,0.1-0.1c0.3,0.3,0.3,0.3,0.3-0.1c0-0.8,0-0.9,0.4-0.7c0.3,0.3,0.3,0.3,0.4-0.3c0.1-0.4,0.3-0.8,0.3-1.1
		c0.1-0.4,0.3-0.5,0.3-0.9c0-0.1,0.1-0.1,0.4,0.1c0.3,0.3,0.4,0.3,0.3,0c-0.1-0.1,0-0.5,0.1-0.9c0.1-0.3,0.4-0.7,0.4-0.8
		c0-0.3,0.3-0.4,0.7-0.4c0.1,0,0.3,0,0.1-0.1c-0.1-0.1,0-0.5,0.1-0.9s0.3-0.5,0.4-0.3c0.3,0.3,0.3,0.3,0.3-0.1
		c-0.1-0.9,0-1.1,0.3-0.8c0.1,0.1,0.4,0.3,0.4,0.1c0,0,0-0.3,0.1-0.4c0.1-0.3,0-0.4-0.1-0.3c-0.1,0-0.1,0-0.1-0.3
		c0.1-0.3,0.3-0.5,0.7-0.7c0.1,0,0.4-0.1,0.4-0.3c-0.1-0.4,0-0.5,0.3-0.3c0.1,0.3,0.1,0.3,0.1-0.1c-0.3-0.4,0-1.1,0.3-0.8
		c0.1,0,0.3-0.3,0.3-0.5c0.1-0.3,0.3-0.5,0.4-0.4s0.1-0.1,0.1-0.4c-0.3-0.5-0.1-0.5,0.1-0.3c0.3,0.3,0.4,0.3,0.5,0s0.1-0.5,0-0.5
		c0-0.1,0-0.5,0.1-0.8c0.4-0.8,0.9-1.2,0.7-0.5c0,0.3,0,0.4,0.1,0.3c0.3-0.1,0.3-0.4,0.3-0.7c-0.1-0.3,0-0.5,0.1-0.7
		c0.3-0.1,0.3-0.4,0.3-0.5c0-0.3,0.1-0.4,0.4-0.3s0.4,0,0.3-0.1c-0.1-0.4,0.3-1.1,0.5-1.1c0.1,0,0.1,0.1,0.1,0.3
		c-0.1,0.1-0.1,0.1,0.1,0.1c0.1-0.1,0.1-0.5,0.1-0.8c-0.1-0.5-0.1-0.5,0-0.3c0.3,0.3,0.3,0.3,0.3-0.1c0-0.3,0.1-0.5,0.4-0.7
		c0.4,0,0.4-0.3,0.4-0.7c-0.1-0.4-0.1-0.4,0.1-0.1c0.1,0.3,0.3,0.1,0.4-0.4c0.1-0.7,0.1-0.8,0.3-0.4c0.1,0.4,0.3,0.4,0.4-0.3
		c0-0.3,0.3-0.5,0.4-0.5c0,0,0.1-0.1,0.1-0.4c0-0.1,0.1-0.3,0.3-0.3c0.3,0,0.4-0.3,0.5-0.7c0.1-0.4,0.3-0.8,0.4-0.8
		c0.4,0,0.7-0.5,0.5-1.1c0.1,0.1,0.3,0.1,0.5-0.3c0.3-0.1,0.4-0.5,0.4-0.5c0-0.1,0.1-0.4,0.4-0.5l0.9-1.1c0.1-0.4,0.4-0.8,0.5-0.8
		s0.1-0.1,0.1-0.3c0-0.3,0.1-0.4,0.3-0.4c0.1,0,0.5-0.5,1.1-1.2l1.3-1.7c0.1-0.3,0.4-0.5,0.4-0.5c0-0.1,0.5-0.9,1.3-1.8l2-2.5
		c0.4-0.4,0.9-1.2,1.2-1.6l1.7-2.2l2.8-3.3l1.3-1.5L322,68c-0.1-0.5-0.4-0.9-0.5-0.9s-0.7,0.5-1.2,1.2c-3.2,3.7-4.2,4.9-5,5.9
		l-1.3,1.7c-0.3,0.1-0.5,0.5-0.5,0.7c0,0.1-0.4,0.7-0.8,1.1c-0.7,0.7-4.2,5.4-5.7,7.3l-1.2,1.7l-1.5,1.8l-2.4,3.4
		c-0.9,1.2-2.4,3.3-3.3,4.8c-0.9,1.3-2,2.8-2.2,3.3l-3,4.5l-3,4.6l-1.1,1.8c-0.4,0.5-0.8,1.2-0.8,1.2c0,0.1-0.1,0.4-0.4,0.7
		c-0.3,0.1-0.5,0.4-0.5,0.5s-0.4,0.9-0.9,1.7c-0.7,0.8-1.2,1.6-1.3,2c-0.5,1.1-2.9,4.4-3.4,4.8c-0.3,0.3-0.9,0.5-1.6,0.7
		c-1.1,0.1-1.2,0-1.6-0.5c-0.3-0.4-0.7-0.8-0.8-0.8c-0.1-0.1-0.5-0.4-0.7-0.8c-0.5-0.9-0.9-0.9-0.9,0.1c0,0.5,0,0.9-0.1,1.1v0.4
		c0,0.1-0.4,0-0.7-0.1c-0.5-0.3-0.7-0.3-0.9,0.1c-0.4,0.4-0.5,0.4-0.8,0.3c-0.7-0.5-1.1-2.2-1.1-4.2c0-0.9,0-1.7-0.1-1.7
		c-0.1,0.1-0.3,2-0.3,3.7c0,1.6-0.3,2-1.1,1.5c-1.1-0.5-3.8-3.3-4.6-4.8l-1.5-2.6l-0.7-1.6l0.1-7.4c0.1-4.1,0.1-7.9,0.3-8.3
		c0.1-0.4,0.3-1.8,0.4-3.2c0.3-2.5,0.8-5.7,1.7-9.9c0.3-1.5,0.5-3,0.7-3.3c0-0.3,0.3-1.3,0.5-2.2s0.7-2.2,0.8-3
		c0.7-2.6,1.7-5.7,2.4-7.4c0.4-0.9,0.7-2,0.7-2.1s0.1-0.3,0.3-0.3c0,0,0.1-0.1,0.1-0.4c0-0.4,1.8-3.8,2.1-3.8c0.1,0,0.1-0.1,0.1-0.3
		c0-0.5,2.6-3.3,3.6-3.7c0.5-0.3,1.1-0.4,1.7-0.3c0.8,0.1,0.9,0.1,1.7-0.9c0.5-0.5,1.2-1.1,1.6-1.2c0.7-0.3,1.7,0.1,1.8,0.7
		c0.1,0.3,0.1,0.3,0,0.1c-0.7-0.7-1.6-0.4-2.6,0.8l-1.1,1.1l0.7,0.5c0.4,0.4,0.7,0.5,1.5,0.5c0.7-0.1,1.1,0.1,1.6,0.5
		s1.1,0.5,1.2,0.4c0.4,0,0.7,0.1,1.2,0.7c0.7,0.8,0.9,1.2,0.5,1.2c-0.5,0-0.3,0.7,0.4,0.9c0.5,0.1,0.8,0.5,1.5,1.7
		c0.7,1.3,0.7,1.6,0.4,2.2c-0.3,1.2-0.7,2.2-1.3,3.6l-0.9,2.4c-0.1,0.8-0.4,1.5-0.5,1.7c-0.3,0.8-0.9,2.6-0.9,2.8
		c-0.1,0.5-1.5,4.4-1.8,4.6c0,0.1-0.1,0.4-0.1,0.7s-0.7,3-1.1,3.8c-0.3,0.7-0.9,3-1.1,3.7l-0.1,0.5l0.5-0.5l1.3-1.6
		c0.5-0.7,0.9-1.1,0.9-1.2s0.1-0.4,0.4-0.7c1.1-1.1,2.5-3.3,3-4.8c0.4-1.6,1.6-5,1.8-5.5c0.1-0.1,0.3-0.7,0.4-1.1s0.3-0.9,0.3-1.1
		l0.4-0.8c0-0.3,0.4-1.7,0.9-3.3c1.1-3.8,1.1-4.2,0.7-4.5s-0.4-0.3-0.1-0.4c0.5-0.4,0.7-0.4,0.9,0.3c0.3,0.5,0.1,0.9-0.3,2.8
		c-1.2,4.1-1.5,4.9-1.6,5.2c-0.1,0-0.1,0.3-0.1,0.5c0,0.1-0.3,0.7-0.4,1.1c-0.1,0.3-0.4,0.8-0.4,0.9c0,0.3,0,0.5-0.1,0.5
		c-0.1,0.1-0.4,1.1-0.7,2c-0.3,1.1-0.7,2-0.7,2.1l-0.4,0.8l-0.1,0.8l0.8-0.8c0.4-0.4,0.8-1.1,0.9-1.2c0.1-0.3,0.7-0.9,1.2-1.5
		c2.4-2.5,4.1-4.5,4.8-5.4l4.8-5.2c1.8-2,7.3-7.4,9.2-9.2c2.6-2.4,6.3-5.2,8.6-6.3c0.5-0.1,1.3-0.9,2-1.7c0.9-1.3,1.2-1.5,2.5-1.8
		c0.8-0.3,1.8-0.5,2.2-0.5c0.5,0,0.9-0.1,1.3-0.4c0.7-0.7,2.2-1.2,3-0.9c0.7,0.1,2.5,1.3,2.5,1.7c0,0.1-0.3,0-0.4-0.1
		c-0.3-0.3-0.5-0.4-0.7-0.4c-0.3,0-0.3-0.1-0.3-0.3c0-0.5-2.9-0.4-3.3,0.3c-0.1,0.1,0.3,0.3,0.8,0.4c1.2,0.4,4.2,2,4.9,2.6l1.5,1.2
		c0.4,0.4,0.8,0.9,0.8,1.1c0,0.4-0.1,0.3-0.4-0.1c-0.1-0.3-0.5-0.5-0.7-0.5c-0.5,0-2.1,1.7-2.4,2.4c-0.1,0.5,0.4,0.5,0.8,0
		c0.7-0.8,2.5-1.3,3-0.7c0.3,0.1,0.3,0.5,0.3,0.8s0.1,0.4,0.5,0.4c0.7-0.3,0.7,0.5,0,1.6c-0.9,1.6-1.3,2.6-1.8,5.4
		c-0.7,3.7-0.7,9.5,0.1,11.6c0,0.5,0.4,0.9,1.5,1.3c1.5,0.7,3.6,1.6,3.7,1.5c0.1,0-0.1-1.1-0.4-2.2c-0.4-1.1-0.7-2.6-0.7-3.2
		c-0.4-2.4-0.4-7.8-0.1-10.2c0.5-5.9,0.5-5.9,0-5.9c-0.3,0-0.3,0,0-0.4c0.3-0.1,0.5-0.3,0.8-0.1c0.4,0,0.4,0.4,0.3,4.4
		c-0.4,8.7-0.1,13.3,0.8,16.5l0.5,1.5h1.7c0.9,0,1.7,0.1,1.7,0.1c0,0.4-0.9,0.5-2.1,0.4c-0.5,0-1.1,0.1-1.1,0.3
		c0,0.4,0.4,0.7,0.8,0.8c0.3,0,0.4,0.1,0.4,0.3c-0.1,0.1,0.1,0.4,0.7,0.4l0.8,0.1h-0.8c-0.5,0-0.7,0.1-0.7,0.4
		c0.1,0.1,0.5,0.3,1.5,0.3c1.6,0,1.8,0.4,0.8,1.3l-0.7,0.7l1.5-0.1c1.3-0.1,2.2,0.1,2.4,0.7c0.1,0.3-0.7,0.5-2,0.5
		c-0.4,0-0.8,0.1-0.8,0.3s0.4,0.4,0.8,0.8c0.7,0.5,1.2,0.7,1.5,0.5c0.7-0.1,1.6,0.1,1.6,0.7c0.3,0.5,1.8,0.8,4.1,0.5
		C355.3,86,355.8,86,355.8,86.3z M281.2,108.7c1.1-5,1.1-5.3,1.1-5.3c0-0.1-0.3,0.3-0.5,0.7c-1.3,2.5-1.7,3.3-2.2,3.8
		c-0.3,0.4-0.5,0.8-0.5,0.9l-0.8,1.5c-0.4,0.8-0.7,1.7-1.1,4c-0.5,3.8-0.5,3.8,0.1,4.5l0.5,0.5l0.4-1.6c0.3-0.8,0.8-2.2,1.3-3.2
		C280.4,112.4,280.4,112.7,281.2,108.7z M319.5,60c-0.1-1.2-0.3-1.5-0.8-1.1c-0.1,0.1-0.3,0.1-0.4-0.1c-0.3-0.1-0.3-0.1-0.3,0.1
		c0.1,0.3,0,0.5-0.1,0.4c-0.3,0-0.3,0.1-0.3,0.1c0.1,0.3,0,0.5-0.3,0.7c-0.5,0.4-0.7,0.4-0.9,0.1c-0.3-0.4-0.3-0.3,0,0.1
		c0.3,0.5,0.3,0.5-0.3,0.9c-0.8,0.5-2.6,2.5-2.6,2.8c0,0.1-0.1,0.1-0.4,0.1c-0.1-0.1-0.3,0-0.3,0.3c0,0.4-0.5,0.9-0.8,0.8
		c-0.1-0.1-0.1,0-0.1,0.1c0,0.3-0.5,0.9-1.2,1.6c-0.8,0.7-1.3,1.3-1.5,1.6c-0.1,0.4-0.1,0.4-0.3,0.1c-0.1-0.3-0.3-0.3-0.3,0
		c0,0.1-0.1,0.4-0.3,0.7l-0.8,0.9l-1.6,1.7c-0.5,0.5-0.9,1.1-0.9,1.2s-0.5,0.7-0.9,1.2l-1.8,2l-0.9,1.2l-1.1,1.3l-1.1,1.3
		c-0.8,0.8-1.5,1.6-1.5,1.7s-0.3,0.5-0.7,0.8c-0.3,0.4-0.7,0.7-0.7,0.8c0,0.1-0.3,0.5-0.7,0.8c-0.3,0.4-0.7,0.8-0.7,1.1
		c0,0.1-0.1,0.3-0.3,0.3c0,0-0.3,0.3-0.4,0.5c-0.3,0.3-0.7,0.9-1.2,1.5l-2.5,3.3l-1.6,2.1c-3,4.1-5.9,8.3-5.9,8.7
		c0,0.3-0.1,1.1-0.4,2l-0.9,3.7c-0.3,1.3-0.5,2.5-0.7,2.8c0,0.4,0,0.4,0.3,0.1l0.9-1.6c0.4-0.7,0.9-1.6,1.3-2
		c0.3-0.4,0.5-0.9,0.5-1.1c0-0.9,12.2-18.1,16.4-23.2c0.7-0.8,2.2-2.6,3.4-4.2c4.9-6.1,13.1-15.3,14.8-16.8
		C319.6,61,319.6,60.9,319.5,60z M322.9,70.4c0-0.3-0.5,0.4-3.8,4.5c-0.5,0.5-2.1,2.8-3.8,5.2l-1.5,1.8l-1.5,1.8l-0.8,1.2
		c-0.3,0.3-0.5,0.5-0.5,0.7c0,0-0.3,0.4-0.4,0.7c-0.3,0.3-0.9,1.1-1.3,1.7l-1.1,1.6c-0.9,0.9-1.5,1.7-1.5,2c0,0.1-0.1,0.3-0.3,0.3
		c-0.1,0-0.3,0.4-0.5,0.8c-0.1,0.4-0.9,1.6-1.7,2.5c-0.7,1.1-1.3,1.8-1.3,2s-0.5,0.8-1.1,1.7c-0.5,0.7-0.9,1.5-0.9,1.5
		c0,0.1-0.4,0.5-0.7,0.9c-0.4,0.4-0.9,1.2-1.3,1.8c-0.3,0.7-1.2,2-2,3c-0.7,1.2-1.3,2.1-1.3,2.1s0,0.3-0.1,0.4
		c-0.4,0.4-2.9,4.4-2.9,4.5s-0.4,0.7-0.8,1.2c-0.5,0.5-0.8,1.1-0.8,1.1c0,0.1-0.3,0.4-0.5,0.7c-0.1,0.3-0.4,0.5-0.4,0.7
		s-0.5,0.9-1.2,1.7c-0.8,0.9-1.3,1.6-1.3,1.7c0,0.3,1.8-1.7,2.2-2.5c0.1-0.3,0.4-0.5,0.5-0.5c0,0,0.3-0.3,0.4-0.7l0.7-0.9
		c0.3-0.1,0.7-0.8,1.1-1.3l0.9-1.5c0.3-0.3,0.7-0.8,0.8-1.2l1.1-1.3c0.1-0.3,0.5-0.7,0.7-1.1c0.4-0.5,1.5-2.4,4.2-6.5
		c1.1-1.6,1.8-3,1.8-3.2l0.1-0.3c0.1,0,0.8-0.9,1.5-2c0.8-1.1,1.7-2.5,2.1-3.3c0.5-0.7,0.9-1.5,1.1-1.7c0.1-0.1,0.3-0.4,0.4-0.4
		s0.3-0.1,0.3-0.3c0-0.3,0.1-0.4,0.3-0.4c0,0,0.1-0.1,0.1-0.3c0-0.1,0.3-0.7,0.7-1.1c0.4-0.4,1.1-1.3,1.5-2s0.8-1.2,0.9-1.2
		s0.1-0.1,0.1-0.3c0-0.1,0.1-0.4,0.4-0.7c0.1-0.1,0.8-0.8,1.3-1.6l3.3-4.8l0.9-1.2l1.2-1.5l1.1-1.2c0.3-0.5,0.7-1.2,0.9-1.5
		C321.3,72.9,322.9,70.7,322.9,70.4z M329,50.9c0.7-0.4,0.7-0.5,0.3-0.7c-0.4-0.1-0.7,0-1.1,0.4C327.1,51.5,327.8,51.8,329,50.9z
		 M328.7,60.3c-0.7,0.5-0.8,0.8-0.8,1.3c0.1,0.3,0.1,0.8,0.1,1.1c0,0.8,0.4,0.4,0.8-1.1c0.3-0.7,0.5-1.5,0.5-1.6
		C329.5,59.9,329.1,60,328.7,60.3z M329.9,53.3c-0.3,0-0.5,0.1-0.8,0.3c-0.5,0.5-0.1,0.5,0.5,0C330,53.4,330.2,53.3,329.9,53.3z
		 M331.5,53.4c0,0-0.3-0.1-0.5-0.1c-0.7,0-0.7,0-0.3,0.4c0.3,0.4,0.4,0.4,0.7,0.1C331.4,53.8,331.5,53.5,331.5,53.4z M332,51.9
		c-0.3-0.1-0.7-0.3-0.9-0.3c-0.3,0-0.3,0.1,0.4,0.4C332.4,52.6,332.8,52.5,332,51.9z M341.5,78.2c-0.3-0.5-0.4-0.7-1.1-0.8
		c-0.8-0.1-2.2-0.8-3.4-1.3l-0.9-0.4l0.1,0.5c0.5,2,1.2,2.4,4,2.4C341.8,78.6,341.8,78.6,341.5,78.2z M346.8,85.2l-0.9-0.9
		c-1.2-1.1-1.2-1.1-2.1-0.7c-0.3,0.3-0.8,0.4-1.2,0.4c-0.5,0.1-0.5,0.1-0.1,0.4c0.1,0.1,0.7,0.3,1.2,0.4c0.4,0.1,0.8,0.1,0.9,0.1
		c0.1,0.1,0.7,0.1,1.3,0.1L346.8,85.2z M350.4,86.7c-0.3-0.3-0.3-0.3-0.5,0c-0.1,0.1-0.1,0.3,0.3,0.3S350.7,86.8,350.4,86.7z"/>
	<path class="st0" d="M338.8,104.4c0-0.1-0.4-1.3-0.8-2.8c-0.7-2.6-0.7-3.2-0.3-6.9c0-0.9,0.5-3.3,0.8-3.7c0-0.1,0.3-0.9,0.4-1.6
		s0.4-1.3,0.4-1.6c0.4-0.5,0.3,0.1-0.1,2.1c-0.8,3.4-1.1,4.5-0.9,6.7c0,2.2,0.4,5,0.9,6.3c0.1,0.4,0.1,0.8,0.1,1.1
		C339.3,104.6,339,104.6,338.8,104.4z M405.6,74.5c-0.4,0.7-0.8,1.2-0.9,1.2s-0.1,0.3-0.1,0.4c0,0-3.4,4.8-6.2,8.6
		c-4.4,5.9-10.6,13.6-16.5,20.5c-4.5,5.4-6.2,7.1-10.3,11.2c-5.3,5.3-7.8,6.9-11.2,7.1c-1.1,0.1-1.7,0-2.4-0.3
		c-0.5-0.1-1.6-0.5-2.4-0.7c-1.6-0.3-6.2-2.6-7.7-3.8c-1.6-1.3-3.2-3-4-4.4c-0.9-1.3-2.8-5.3-2.8-5.8c0-0.1-0.1-0.3-0.4-0.3
		c-0.3-0.1-1.6-2.9-1.6-3.3c0-0.1,0.1-0.3,0.4-0.3c0.1,0,0.3,0.1,0.1,0.3c-0.1,0.3,0,0.4,0.1,0.4s0.1,0.1,0.1,0.4v0.4
		c0.3,0.1,0.3,0.3,0.1,0.3c0,0.1,0.1,0.4,0.3,0.4c0.1,0,0.3,0.4,0.3,0.5c-0.1,0.5,0.1,0.7,0.4,0.4c0-0.1,0-0.7-0.3-1.3
		c-0.3-1.3-0.3-5.5,0-7.5c0.1-0.4,0.3-1.1,0.3-1.3s0.1-0.5,0.3-0.8c0.1-0.1,0.3-0.4,0.1-0.5c0-0.1,0-0.3,0.1-0.3s0.3-0.1,0.1-0.4
		c-0.1-0.1,0-0.5,0-0.8c0.1-0.1,0.3-0.4,0.3-0.5l1.1-4.1c0-0.5,0.4-1.3,0.5-1.8l0.7-2.1c0.1-0.7,0.4-1.5,0.7-1.8
		c0.1-0.4,0.4-0.8,0.4-0.9c0-0.3,1.5-4,2.5-6.2l0.7-1.6c0.9-2.1,4.4-8.7,5.5-10.7l0.7-1.2l1.3-2.2l1.8-2.9c2.1-3.4,4.5-6.2,5.4-6.2
		c0.1,0,0.7-0.3,1.2-0.7c0.5-0.5,1.7-0.9,1.7-0.7c0,0.1,0,0.3,0.1,0.5c0,0.1,0,0.3-0.4,0.1c-0.4,0-0.8,0.1-0.9,0.4
		c-0.4,0.4-0.4,0.4,0.1,0.8c0.9,0.7,2.6,2.1,2.6,2.5c0,0-0.3,0.4-0.5,0.7c-0.4,0.4-0.4,0.5-0.3,0.9c0.1,0.1,0.3,0.5,0.1,0.9
		c0,0.9,0.3,1.3,0.7,0.8l0.8-0.9c0.4-0.7,0.7-0.7,1.2,0.4l0.4,0.9l-0.7,1.6c-0.5,0.8-2.1,4.1-3.7,7.4s-3.3,6.7-3.8,7.5
		c-0.4,1.1-0.9,2-0.9,2.1l-1.3,2.5c-0.5,1.3-1.3,2.9-1.7,3.7l-2.2,4.9l-1.2,3c0,0.3-1.2,3.2-1.7,4.1c-0.1,0.5-1.1,4.1-1.2,5.3
		c-0.1,0.5-0.1,2.1-0.3,3.7v2.8l0.4-2c0.7-3.2,1.3-5.7,1.7-6.3l0.3-0.8c0-0.1,0.3-0.8,0.5-1.6c0.4-0.7,0.9-2,1.3-3l1.7-3.8
		c0.5-1.2,0.9-2.1,0.9-2.2c0,0,1.1-2.1,2.2-4.6c2.9-5.9,6.7-13.9,7.7-16l1.3-3c0.5-1.1,0.9-2.1,0.9-2.5c0.1-0.3,0.3-0.5,0.4-0.4
		c0.4,0.1,0.1,2-0.8,3.6c-0.3,1.1-0.7,1.8-0.7,2c0,0.3-0.5,1.3-2.6,5.8l-1.2,2.5c0,0.4-0.3,0.8-0.4,0.9l-0.9,1.8
		c-0.3,0.9-0.7,2-0.9,2.4c-0.1,0.4-0.3,0.8-0.3,0.9s-0.1,0.3-0.4,0.4c-0.1,0-0.3,0.3-0.3,0.4c0,0.3-0.4,1.2-0.8,2.1
		c-0.5,0.9-0.8,1.7-0.8,1.8c0,0.1-0.3,0.8-0.7,1.5S359,89,359,89.3c0,0.1-0.3,0.8-0.7,1.6c-0.8,1.5-1.2,2.6-1.6,3.7l-0.5,0.9
		c-0.1,0.1-0.1,0.5-0.1,0.9c0,0.3-0.1,0.7-0.4,0.8c-0.1,0.1-0.4,0.9-0.7,1.8c-0.3,0.8-0.4,1.5-0.5,1.6c-0.1,0-0.4,1.1-0.7,2.4
		c-0.4,1.7-0.5,3.4-0.7,5.8c-0.1,3.2-0.1,3.4,0.3,3.6c0.3,0.1,0.8,0.1,1.1-0.1c0.4,0,0.8-0.1,0.8-0.1c0.3,0.3-0.1,0.4-1.1,0.5
		c-0.8,0.1-0.9,0.1-0.9,0.9s0.1,0.8,0.7,0.5c1.7-0.3,5.8-2.9,9.8-6.2c3.7-2.9,5.8-4.9,11.1-10.3c5.7-5.5,9.9-10,14-14.8
		c1.7-2,0.4-0.5-3.4,3.4c-3,3.4-13.3,13.6-15.8,15.8c-3.4,3-3.8,3.4-3.8,3c0-0.1,0-0.3,0.1-0.3c0.5,0,7.1-6.2,12.4-11.6
		c4.1-4.2,6.1-6.3,10.7-11.4c0.5-0.5,1.1-1.1,1.2-0.9c0.1,0.1,0.3,0,0.4-0.1c0-0.1,0-0.3-0.1-0.1c-0.4,0.3-0.3-0.3,0.3-0.7
		c0.4-0.4,0.4-0.4,0.3,0c0,0.3,0,0.4,0.1,0.3s0.3-0.3,0.1-0.5c-0.3-0.4,0.9-1.7,1.3-1.5c0.1,0.1,0.1,0,0-0.1v-0.4l1.3-1.6
		c0.7-0.7,1.2-1.3,1.3-1.3c0.1,0.1,0.1,0,0.1-0.1c-0.1-0.1,5-6.7,5.2-6.6c0.1,0.1,0,0.3-0.1,0.4c-0.3,0.3-0.3,0.4-0.3,0.5
		c0,0,0.7,0.3,1.2,0.5c0.9,0.5,1.3,1.1,0.9,1.5c-0.3,0.1-0.1,1.7,0.1,1.7c0.1,0,0.4-0.3,0.7-0.7c0.5-0.7,0.8-0.7,1.1,0
		c0.3,0.4,0.3,0.7-0.7,1.7l-1.6,2.2c-2.8,4-10.7,14.3-13.5,17.6l-2,2.2c-10.7,12.9-20.5,22.6-25.4,25.4c-0.8,0.4-1.3,0.9-1.3,0.9
		c0,0.3,1.3,0,2.5-0.3c4.1-1.3,13.5-10.7,27.2-27.5c3.4-4.4,9-11.5,14-18.6c0.9-1.2,1.6-1.8,1.7-1.8s0.4,0,0.5-0.1
		C406.3,73.6,406,73.9,405.6,74.5z M339.7,87.2c-0.1-0.1,0-0.1,0.1-0.1s0.1,0,0.1,0.1v0.3C339.8,87.5,339.8,87.3,339.7,87.2z
		 M340.1,86.3c0-0.3,0-0.4,0.1-0.3v0.7C340.1,86.8,340.1,86.7,340.1,86.3z M349.3,108.9c0-0.1-0.1,0.1-0.1,0.3
		c0.1,0.3,0.1,0.4,0.1,0.1C349.5,109.1,349.5,109,349.3,108.9z M349.6,110.4c-0.1-0.1-0.1,0.1-0.1,0.3c0,0.3,0.1,0.3,0.1,0.1
		C349.7,110.7,349.7,110.6,349.6,110.4z M356.6,111.6c0.8-0.3,5-3.2,5.9-4c0.3-0.3,0.5-0.4,0.7-0.4s0.5-0.4,0.9-0.8
		c1.1-0.9,1.7-1.3,1.7-1.1c0,0.3-7.4,5.5-7.8,5.5c-0.1,0-0.4,0.3-0.7,0.5c-0.8,0.5-1.5,0.7-1.5,0.5S356.2,111.8,356.6,111.6z
		 M359,98.2c-0.3,0-0.3,0-0.1-0.3c0-0.1,0.3-0.4,0.3-0.4C359.5,97.5,359.4,97.9,359,98.2z M359.4,97.1c0-0.5,0.7-2.5,1.1-2.9
		c0.5-0.5,0.5-0.1-0.1,1.1l-0.7,1.6C359.5,97.2,359.4,97.4,359.4,97.1z M367,81l-2.6,5.4c-2.5,5.4-3.4,7.4-3.7,7.4
		c-0.1,0-0.1-0.3-0.1-0.5c0.1-0.5,1.2-2.8,2.4-5.5c0.3-0.4,0.7-1.6,1.1-2.5s1.1-2.4,1.6-3.3c0.4-0.8,0.7-1.6,0.7-1.7
		s0.1-0.4,0.4-0.5c0.1-0.3,0.5-0.9,0.8-1.7c0.3-0.7,0.7-1.7,1.1-2.2l3-7c0-0.3,0.3-0.7,0.4-1.1c1.3-3.2,1.8-4.9,1.8-6.1
		c0-0.7,0.1-1.1,0.4-1.1s0.4,0.5,0.4,1.2c0,0.9-1.3,5.3-2.5,7.9c-0.1,0.4-0.4,0.8-0.4,0.9s-0.1,0.7-0.4,1.1c-0.3,0.5-0.9,2-1.5,3.4
		C369.3,76.4,368,79.1,367,81z M372.6,32.5c-2,4-3.3,6.6-4.1,8.8l-0.9,2.1l-0.3,0.5l-0.7-0.7c-0.3-0.3-0.7-0.7-0.7-0.8
		s-0.1-0.5-0.5-0.8c-0.9-0.9-1.1-1.3-0.5-3.6c0.5-2.5,1.5-5.3,3.3-9.5c2.1-5,3.6-8.1,4.5-9.1s2.4-1.2,4.1-0.4c1.2,0.4,1.5,0.8,1.7,2
		c0.1,0.8,0.1,0.8-0.4,0.8c-0.7,0-0.8,0.3-0.3,0.7c0.4,0.4,0.4,0.8-0.3,1.2C376.8,24.5,375.5,26.8,372.6,32.5z M371.9,41.6
		c-1.5,2.8-2.4,3.8-3,3.2v-0.5l0.7-1.5c0.8-2.2,7-14.7,9.4-18.5c1.5-2.4,1.6-2.5,2-1.8c0.9,1.5,0.9,1.5-1.5,5.5
		c-0.7,0.9-1.1,1.7-1.1,1.7c0,0.1-0.3,0.5-0.5,0.9l-1.3,2.4l-1.2,2.2C374.7,36.3,373.4,38.9,371.9,41.6z M378.8,30.9l-0.9,1.6
		l-2.5,4.5l-2.8,5c-0.4,0.7-0.8,1.3-1.1,1.6l0.8-1.8l1.5-2.5c0,0,0.1-0.4,0.3-0.7c0.1-0.4,0.3-0.7,0.4-0.7s0.4-0.4,0.5-0.9
		c0.4-0.5,0.8-1.5,1.2-2.1c0.3-0.7,0.7-1.2,0.5-1.3c-0.1-0.1,0-0.1,0.1-0.1s0.4-0.4,0.8-1.1c0.3-0.5,0.7-1.5,1.1-1.8
		c0.3-0.4,0.5-1.1,0.7-1.5c0.1-0.3,0.4-0.5,0.5-0.5s0.1-0.1,0-0.1c0-0.1,0.4-0.8,0.8-1.5l1.1-1.7c0.1-0.3,0.4-0.4,0.4-0.3
		C382.2,25.1,381.2,26.8,378.8,30.9z M406.8,72.9l-0.4,0.4c-0.1,0,0-0.1,0.1-0.4c0.1-0.1,0.3-0.3,0.4-0.3
		C406.9,72.7,406.9,72.8,406.8,72.9z"/>
	<path class="st0" d="M457.1,82c-0.3,2-1.1,6.2-1.3,6.6c-0.1,0.1-0.1,0.7-0.3,1.2c0,0.4-0.3,0.9-0.3,1.2l-1.1,2.9
		c-0.4,1.5-0.9,3-1.3,3.8s-0.7,1.5-0.7,1.6c0,0-0.5,1.2-1.2,2.5c-0.7,1.5-1.2,2.5-1.2,2.5c0.1,0,0.4-0.3,0.8-0.7
		c0.7-0.8,1.3-0.8,0.8,0c-0.3,0.1-0.7,0.9-1.1,1.7c-0.4,0.9-0.7,1.6-0.8,1.6l-0.5,0.9c-0.3,0.5-0.7,1.1-0.9,1.3
		c-0.1,0.3-0.4,0.5-0.4,0.5c0,0.1-1.7,2.6-2.2,3.3c-0.1,0.1-0.3,0.3-0.3,0.4c0,0-0.1,0.4-0.4,0.7c-0.3,0.1-0.9,0.9-1.3,1.6l-1.7,2
		c-1.2,1.2-2.2,2.5-3.6,4c-0.7,0.8-1.3,1.6-1.7,1.8L435,125c-0.4,0.5-1.5,1.3-2,1.7c-0.7,0.5-1.3,0.9-1.3,1.1s-0.1,0.1-0.1,0.1
		c-0.3,0-0.8,0.3-1.5,0.7c-2,0.9-5.9,1.5-7.3,0.9c-0.3-0.1-1.2-0.1-2-0.1c-2.2,0-5-1.3-6.1-2.8c-0.3-0.4-0.5-0.7-1.2-0.7
		c-1.5,0-3.4-1.7-3.8-3.3c-0.3-0.8-0.4-0.9-0.9-1.1c-0.8-0.1-1.5-1.1-1.6-2.5l-0.1-1.1l-0.5,0.9c-0.5,0.9-0.5,1.1-0.3,1.5
		s0.3,0.4-0.3,0.3c-0.3,0-0.5,0.1-1.2,1.1c-0.4,0.5-0.8,1.2-0.8,1.5c0,1.3-2.8,1.6-5.7,0.5c-1.1-0.4-2.4-0.9-3.2-1.5l-2.1-1.3
		c-0.5-0.3-2-1.5-3-2.4c-2.1-2.2-3.3-4.1-3.7-6.3c-0.1-0.8-0.4-1.6-0.5-1.8c-0.1-0.5,0-6.7,0.1-7.8c0.1-0.3,0.3-1.2,0.4-2.1
		c0.3-1.8,0.3-2,0.8-4.1c0.1-0.8,0.5-2,0.5-2.5c0.1-0.5,0.4-1.3,0.4-1.6l0.5-1.6l0.7-2.2c0.3-0.7,0.5-1.5,0.5-1.6
		c0.1-0.7,0.5-2,0.9-2.8l0.9-2.5c0-0.3,0.9-2.8,1.3-3.6l0.7-1.6c0.3-0.7,0.4-1.2,0.7-1.3c0.1-0.3,0.1-0.4,0.1-0.5
		c-0.1-0.1,0-0.4,0.1-0.5s0.3-0.4,0.3-0.7c0-0.1,0.3-0.5,0.4-0.8l0.7-1.5c0.8-2,2.2-4.9,2.5-4.9c0.1,0,0.3-0.1,0.1-0.3
		c0-0.1,0.1-0.5,0.4-0.9c0.1-0.4,0.3-0.8,0.3-0.9s0.1-0.1,0.1-0.1c0.3,0,0.3-0.1,0.1-0.3c0-0.1,0.1-0.4,0.3-0.5
		c0.3-0.3,0.4-0.4,0.4-0.5c0-0.4,0.5-1.2,0.7-1.2c0.1,0,0.1-0.1,0.1-0.1c-0.3-0.3,0.7-1.5,0.9-1.3c0.3,0.1,0.4-0.3,0-0.5
		c-0.1,0-0.1-0.1,0-0.4c0.3-0.3,0.4-0.3,0.7,0c0.3,0.1,0.3,0.1,0.1-0.1c-0.3-0.1-0.3-0.4-0.3-0.7c0-0.1,0-0.3,0.3,0
		c0.4,0.4,0.5,0,0.1-0.3c-0.4-0.4,0-0.9,0.4-0.5c0.3,0.3,0.3,0.1,0.3-0.4c-0.3-0.7-0.3-0.7,0.1-0.3c0.3,0.1,0.4,0.1,0.3,0
		s0-0.4,0-0.4c0.3,0,0.3,0,0.1-0.1c0-0.1,0-0.3,0.1-0.3s0.3-0.4,0.5-0.8c0.1-0.5,0.4-1.1,0.7-1.5s0.4-0.7,0.4-0.7
		c0-0.4,3.3-7.4,4.6-9.9c0.3-0.3,0.7-1.1,1.1-1.8c0.8-1.8,2.4-4.9,2.6-5.2l1.2-2.1c0.5-0.9,1.1-2,1.3-2.1c0.3-0.3,0.4-0.7,0.4-0.8
		c0-0.3,0.1-0.3,0.4-0.3c0.3,0.1,0.3,0.1,0.3-0.1c-0.1-0.3-0.1-0.4,0.1-0.3c0.3,0,0.4-0.1,0.7-0.7c0.3-0.5,0.5-0.9,0.8-1.1
		c0.1-0.1,0.3-0.3,0.3-0.4s0.1-0.4,0.4-0.7c0.3-0.3,0.5-0.5,0.5-0.8c0-0.1,0.1-0.4,0.4-0.5c0.3,0,0.4-0.3,0.4-0.4
		c0-0.3,0.3-0.5,1.5-2c0.4-0.4,0.7-0.9,0.7-1.1c0-0.1,0.1-0.3,0.1-0.3c0.1,0,0.3,0,0.3-0.1s0.3-0.5,0.5-0.7c0.1-0.4,0.9-1.5,1.7-2.5
		c0.7-1.1,1.3-2,1.3-2l1.3-1.6c1.8-2.5,5.7-6.1,7.1-6.9c1.2-0.5,1.6-0.7,3.4-0.7l2.2-0.1l1.1,0.9c1.2,0.8,2,2.1,2.4,3.8
		c0.3,1.1,0.1,1.6-1.2,3.6l-1.8,3.6c-0.3,0.1-0.8,1.3-1.3,2.4l-1.3,2.6c-0.3,0.4-0.4,0.9-0.4,0.9c0,0.3-0.1,0.4-0.3,0.4
		c-0.1,0-0.1,0-0.1,0.3c0,0.1-0.5,1.2-1.1,2.2l-1.5,3c-0.1,0.5-0.8,2-1.3,3s-0.9,2-0.9,2.2c0,0-0.1,0.4-0.4,0.8
		c-0.3,0.3-0.5,0.7-0.5,0.8c0,0.4-1.1,2.6-1.8,4.2c-0.3,0.3-0.4,0.7-0.4,0.8s-0.4,1.2-0.8,2.1l-1.6,3.2c-0.3,0.8-0.7,1.7-0.9,2.1
		c-0.1,0.4-0.4,0.8-0.4,1.1c0,0.1-0.3,0.9-0.7,1.7c-1.6,3.2-2.2,4.6-2.2,4.6c0,0.1,0,0.4-0.3,0.5c-0.1,0.3-0.4,0.7-0.5,1.2
		s-0.4,0.8-0.4,0.8c-0.3,0-0.5,0.9-0.5,1.3l-0.3,0.3c-0.3,0-0.3,0.1-0.3,0.4c0.1,0.1,0,0.3-0.3,0.4c-0.1,0-0.3,0.3-0.1,0.4
		c0,0.1,0,0.4-0.3,0.5c-0.1,0.3-0.4,0.5-0.4,0.7c0,0.3-0.1,0.3-0.1,0.3c-0.1,0-0.3,0.1-0.1,0.3c0,0.1-0.1,0.3-0.4,0.4
		c-0.4,0.1-0.4,0.1-0.3,0.4c0.3,0.3,0.3,0.4-0.3,0.7c-0.3,0.3-0.4,0.4-0.1,0.4c0.1,0,0.1,0.1,0,0.5c-0.3,0.4-0.5,0.5-0.7,0.5
		c-0.4,0-0.4,0.1-0.3,0.4c0.3,0.3,0.1,0.4-0.3,0.9c-0.3,0.4-0.5,0.8-0.5,1.1c0.1,0.1,0,0.4-0.1,0.4c0,0-0.1,0.1-0.1,0.3
		c0,0.3-0.1,0.4-0.3,0.4s-0.1,0.1,0,0.3c0,0.3-0.1,0.5-0.4,0.7c-0.4,0-0.4,0.1-0.3,0.1c0.3,0.1,0.3,0.1-0.1,0.3
		c-0.3,0.1-0.3,0.3-0.1,0.3c0.4,0,0.3,0.4-0.1,0.4c-0.1,0-0.3,0.1-0.1,0.3c0.1,0.1,0,0.3-0.3,0.3c0,0,0,0.1,0.3,0.1
		c0.4,0.3,0.4,0.3-0.1,0.3s-0.8,0.4-0.3,0.5c0.3,0,0.3,0-0.1,0.4c-0.3,0.3-0.4,0.5-0.4,0.7s0,0.1-0.1,0.1s-0.3,0.3-0.3,0.4
		c0,0.3,0,0.4-0.1,0.4s-0.3,0-0.1,0.1c0.1,0.3,0,0.3-0.1,0.3c0,0-0.4,0.5-0.5,1.2c-0.3,0.8-0.5,1.3-0.7,1.3c0,0-0.1,0.1-0.1,0.3
		c0,0.3-0.3,0.8-0.5,1.3c-0.4,0.7-0.7,1.5-0.8,1.8c-0.3,0.5-0.4,1.1-0.5,1.2l-1.5,3.2c-0.7,1.7-1.5,3.4-1.6,3.7
		c-0.5,1.2-0.5,1.8-0.3,1.7c0.1-0.1,0.1-0.4,0.1-0.4c0-0.1,0.7-1.5,1.5-2.9c2-4.1,3-5.9,5.7-10.7l1.3-2.1c0.1-0.4,0.5-0.9,0.7-1.2
		c0.3-0.1,0.4-0.4,0.4-0.5c0.1-0.4,4.5-6.9,4.8-7.1c0.3-0.1,0.4-0.4,0.4-0.5c0,0,0.4-0.8,1.1-1.5l1.5-2.1c2-2.6,6.2-7.1,9.2-9.8
		c1.1-0.9,4.8-3.7,6.2-4.6c1.1-0.7,1.1-0.8,0.3-0.5c-0.4,0.1-0.5,0.1-0.3,0c0.4-0.5,3.2-1.1,3.7-0.9c0.1,0.1,0.5,0.3,0.8,0.3
		c0.1,0,1.1,0.4,1.8,0.8l1.6,0.8l-0.1-0.8c-0.1-0.8-0.5-1.2-1.5-1.7c-0.4-0.4-0.5-0.5-0.3-0.5c0.7,0,1.7,1.3,2,2.4
		c0.1,0.7,0.5,1.1,0.9,1.3c1.1,0.5,2.6,2.6,3,4c0.3,0.9,0.7,1.3,1.1,1.6c1.5,0.9,2.9,4,3.7,7.9C457.6,67.5,457.6,77.2,457.1,82z
		 M402.3,76c0.3-0.8,0.8-2.1,1.2-2.9c0.4-0.8,0.7-1.6,0.7-1.6c0-0.3,4-9,4.6-10.3c0.4-0.7,0.5-1.2,0.5-1.3s0.4-1.1,0.9-2l2-4.4
		c1.5-3.4,3-6.7,4.1-9.1l1.7-3.6c0.8-1.7,1.3-2.9,1.8-3.8l1.3-2.6c1.6-3,3.8-7.4,4.5-8.3c0.3-0.5,1.5-2.6,2.8-4.8
		c2.6-4.4,3.3-5.3,5.5-7.9c0.9-1.2,1.6-2.1,1.6-2.1c-0.1-0.1-4.2,4-4.2,4.2c0,0.1-0.3,0.4-0.5,0.7l-1.6,2.1
		c-0.4,0.5-0.7,0.8-0.8,0.8c0,0-0.3,0.5-0.5,0.9l-1.8,3c-0.7,1.2-1.2,2.1-1.2,2.2s-0.1,0.3-0.3,0.3c-0.1,0-0.3,0.1-0.3,0.4
		s-0.1,0.5-0.3,0.7c-0.3,0.1-0.8,1.1-1.8,3l-0.7,1.1c0,0-0.1,0.1-0.1,0.3c0,0.3-0.4,1.1-2.1,4.5c-1.1,2-3.8,7.8-4.8,9.8
		c-0.3,0.8-0.9,2-1.3,2.8c-0.4,0.9-0.8,1.7-0.8,1.7c0,0.1-0.7,1.5-1.3,3c-0.8,1.6-1.3,2.9-1.3,2.9c0,0.3-2.5,5.7-4.1,9l-1.7,3.8
		l-1.6,3.8c-2.2,5-5.8,14-7.7,19.4c-3.2,9.4-4.4,15.2-3.8,19.3c0.1,1.2,0.4,2.5,0.7,3l0.3,0.9l0.1-1.1c0-0.7,0.1-2.1,0.3-3.3
		c1.1-9.1,4.2-20.7,8.7-31.4C401.4,78.2,402,76.9,402.3,76z M404.4,119.3c-0.3-0.3-0.4-0.3-0.9,0.8c-0.7,1.1-0.7,1.7-0.3,1.7
		c0.1,0,0.4-0.5,0.8-1.1C404.5,119.8,404.7,119.6,404.4,119.3z M408.4,111.9c8.8-18.9,13.3-27.2,20.2-37c1.2-1.6,4.8-6.1,5.8-7.3
		c2.4-2.6,3.2-3.3,4.8-4.9c1.1-1.1,2.6-2.2,3.4-2.9c1.6-1.3,1.6-1.5,0-0.4c-3.4,2.2-9,7.5-11.6,11.1l-0.8,0.8
		c-0.4,0.4-3.4,4.4-5.3,7.3c-2,2.9-4.9,7.5-6.1,9.6l-1.5,2.6l-8.6,17l-2.1,4.9c-0.9,2.1-1.7,4.1-2,4.5c-0.3,0.7-0.3,1.6,0.1,1.6
		c0.1,0,0.4-0.3,0.7-0.8C405.6,117.6,406.9,114.8,408.4,111.9z M406.9,94.6c-0.1,0.1-0.3,0.3-0.3,0.4
		C406.6,95.3,406.7,95.1,406.9,94.6C407,94.6,406.9,94.5,406.9,94.6z M416,115.2c0,0.5,0.7,0,2.5-2c2.1-2,3.2-3.2,5.8-6.6
		c1.3-1.8,3.4-4.8,3.4-5.2c0,0,0.1-0.4,0.5-0.8l1.1-1.8c0.3-0.5,0.5-1.1,0.7-1.1c0.1,0,0.1-0.1,0.1-0.3c0-0.4,0.7-1.3,1.1-1.8
		c0.3-0.3,0.4-0.5,0.5-0.9c0-0.3,0.1-0.5,0.3-0.5c0.1,0,0.3-0.1,0.3-0.4c0.1-0.3,0.3-0.4,0.4-0.4c0.1,0.1,0.1,0,0.1-0.3
		c-0.1-0.3,0-0.5,0-0.5c0.1,0,0.4-0.1,0.4-0.4l0.7-1.3c0.9-1.5,1.7-3,1.7-3.3s0.9-1.1,1.2-1.1c0.1,0-1.2,2.9-1.5,2.9
		c-0.1,0-0.1,0.4-0.1,0.5c0,0.3-0.1,0.5-0.4,0.5c-0.1,0.1-0.1,0.4-0.1,0.5s0,0.3-0.1,0.3s-0.3,0.1-0.3,0.1c0,0.3-0.9,2.4-1.1,2.5
		l-0.3,0.5c0,0.4-1.8,4.1-2.2,4.6c-0.1,0.3-0.9,1.6-2,3.7c-0.7,0.9-3.2,4.8-4.4,6.2c-0.1,0.1-0.1,0.3-0.1,0.3c0.3,0,1.5-1.3,2.2-2.2
		l0.9-1.2l1.2-1.5c0.4-0.7,0.9-1.3,1.3-1.7c0.7-0.7,2.2-3,2.6-3.7c0.1-0.3,0.3-0.5,0.4-0.5s0.3,0,0.3-0.1c0-0.3,2-3.6,2.2-3.7
		c0-0.1,0.1-0.3,0.1-0.5c0-0.1,0.4-0.8,0.8-1.5c1.2-1.8,3.2-6.2,2.9-6.2c0,0,0.1-0.3,0.3-0.4c0.3-0.3,0.4-0.5,0.3-0.7
		c-0.1-0.1,0-0.4,0.1-0.4s0.7-1.8,0.9-3c0.1-0.5,0.4-0.9,0.5-1.1c0.3,0,0.3-0.3,0.1-0.4c0-0.3,0-0.5,0.3-0.8c0-0.1,0.1-0.3,0-0.3
		c0,0,0-0.4,0.3-0.8c0.1-0.4,0.3-0.9,0.1-1.1c0-0.1,0-0.1,0.1-0.1s0.3-0.4,0.3-0.7c0-0.4,0.1-0.8,0.3-0.8c0.1-0.1,0.1-0.4,0.1-0.5
		c0.1-1.3,0.3-1.7,0.4-1.7c0.3,0,0.3,0,0.1-0.4s-0.1-0.7,0-0.8s0.1-0.7,0.3-1.1c0-0.5,0.3-1.6,0.4-2.2c0.1-0.7,0.3-1.5,0.3-1.7
		s0-0.5,0.1-0.5s0.1-0.1,0.3-0.4c0-0.4,0-0.9,0.1-1.5c0.3-1.5,0.5-4.2,0.5-4.4c0-0.3-0.7-0.3-0.8,0c0,0.1-0.1,0.8-0.3,1.5
		c0,1.2-0.3,2.4-0.7,4.5c0,0.4-0.1,1.1-0.3,1.7c-0.3,1.7-1.1,4.4-1.3,4.9c-0.3,0.4-0.4,0.7-0.4,0.7c0.1,0.1-0.5,2.4-0.8,2.8
		c-0.3,0.3-0.4,0.7-0.4,0.7c0,0.3,0,0.5-0.1,0.8c0,0.3-0.1,0.7-0.3,0.9l-0.5,1.1l-0.5,1.3c-0.3,0.4-0.5,1.1-0.7,1.5
		c-0.9,2.4-1.6,3.4-1.8,3.4c-0.5,0.3-0.8,0-0.4-0.3l0.4-0.4c0-0.3,0.1-0.5,0.1-0.8c0.1-0.1,0.4-0.9,0.7-1.6c0.3-0.8,0.5-1.8,0.8-2.1
		c0.1-0.4,0.3-0.8,0.1-0.8c0,0,0-0.3,0.3-0.5c0.1-0.4,0.3-0.7,0.3-0.8c0.1-0.1,0.4-0.9,0.5-1.5c0.8-1.6,3-8.8,3.3-10.6
		c0.3-1.1,0.4-2.4,0.5-2.9c0.3-1.1,0.3-2.4,0.1-2.4c-0.4,0-4.2,3.7-6.2,5.8c-1.3,1.6-4.2,4.9-5.4,6.5c-0.5,0.8-1.1,1.5-1.1,1.5
		c-0.4,0.4-5.3,7.8-6.1,9.1c-0.4,0.8-0.8,1.5-1.1,1.7c-0.3,0.3-1.5,2.4-2.4,4.1l-1.2,2.2l-4.2,8.2c-1.8,3.8-3.4,6.9-3.6,7
		c-0.1,0.3-3.8,7.5-3.7,7.5c0,0.1,0.5-0.1,0.9-0.5c1.2-1.1,1.3-0.8,0.1,0.4c-0.7,0.5-1.2,1.3-1.3,1.7c-0.5,1.2,0.1,3.2,1.1,3.2
		c0.4,0,0.4-0.1,0.5-1.3c0.1-0.8,0.3-1.7,0.5-2.2c0.1-0.4,0.4-1.2,0.4-1.6c0.1-0.7,0.4-1.2,1.1-1.7c0.5-0.5,1.1-0.9,1.2-0.9
		s0,0.3-0.1,0.4c-0.8,0.7-1.5,1.7-1.5,2.1c0,0.1,0.1,0.1,0.5-0.4c0.7-0.5,1.5-0.7,1.3-0.3c0,0.3,0.4,0.3,0.9,0.3
		C415.2,114.5,416,114.8,416,115.2z M413.6,123.5c-0.3-0.5-0.4-0.7-0.9-0.8c-0.4-0.1-1.1-0.4-1.5-0.7l-0.7-0.5l0.1,0.5
		c0.1,0.4,0.1,0.8,0.1,0.8c0,0.3,0.3,0.7,0.7,1.1c0.5,0.7,1.3,0.8,2,0.4C413.6,124.3,413.6,123.9,413.6,123.5z M417.3,118.4
		c5.3-3.3,11-9.6,15.3-17.3c0.9-1.6,1.2-2.5,0.4-1.3c-0.3,0.4-0.7,0.9-0.9,1.1c-0.1,0.3-0.4,0.7-0.4,0.8s-0.1,0.3-0.3,0.4l-1.2,1.5
		c-0.5,0.7-0.9,1.3-1.1,1.3c0,0-0.1,0.1-0.1,0.4c0,0.1-0.1,0.3-0.1,0.4c-0.1,0-0.9,0.8-1.8,1.8l-2.4,2.6c-2.6,2.5-3.3,3-4.4,3.8
		c-2.4,1.8-4.4,3.8-4.4,4.5C416,119,416.3,119,417.3,118.4z M419.5,127.4c0-0.1-0.1-0.4-0.3-0.4c-0.1-0.3-0.5-0.8-0.7-1.3
		c-0.4-0.8-0.7-0.9-1.2-1.1c-0.7,0-0.8,0.3-0.4,1.2c0.4,1.1,1.2,1.7,1.8,1.7C419.2,127.5,419.5,127.4,419.5,127.4z M418.7,25.1
		c0-0.1,0.3-0.4,0.4-0.5c0.4,0,0.4,0,0.1,0.4C418.8,25.7,418.5,25.7,418.7,25.1z M418.9,24.1c0-0.3,0.3-0.4,0.4-0.4
		c0.3,0,0.3-0.1,0.3-0.4s0-0.7,0.3-0.9c0.1-0.1,0.4-0.5,0.4-0.7l0.4-0.5c0.1,0,0.1-0.1,0.1-0.1c-0.4,0,0.1-0.7,1.8-3.2
		c1.8-2.6,2.1-3,2.6-3.6c0.3-0.3,0.4-0.4,0.4-0.5c0-0.4,3.2-3.6,5.3-5.3c1.6-1.2,3.8-2.5,4.8-2.5c0.4,0,0.3,0.1-0.5,0.4
		c-1.8,0.9-2.9,1.7-5.5,4.6c-1.5,1.6-6.3,8.2-6.3,8.6c0,0.1-0.4,0.5-0.8,0.9s-0.7,0.7-0.5,0.7c0.3,0-0.4,0.8-0.8,0.8
		c-0.3,0-0.3,0,0,0.1s0.3,0.3,0,0.5s-0.5,0.4-0.8,0.4c-0.1,0-0.3,0.3-0.1,0.4c0,0.4-0.5,0.9-0.9,0.9
		C419.1,24.3,418.9,24.2,418.9,24.1z M424.9,124l-0.5-0.4c-0.5-0.5-0.9-0.4-2.8,0.3c-1.6,0.5-1.6,0.5-0.7,1.8
		c0.4,0.7,0.7,0.7,1.3,0.4l1.6-1.2L424.9,124z M423.2,64.7c0.4-0.3,0.4-0.3,0.1,0.1c-0.3,0.3-0.4,0.5-0.4,0.5c0,0.1-0.1,0-0.1,0
		C422.8,65.1,423,65,423.2,64.7z M445.5,16.1c0.8-1.8,1.3-3.2,1.3-3.4c-0.1-0.4,0-0.5,0.3-0.4c0.7,0.1,0.5,1.1-0.3,2.6l-3.2,7
		c-1.5,3.6-3.4,8.1-4.1,9c-0.3,0.8-4.5,9.1-5.3,10.7l-0.9,2.1l-0.8,1.5l-2,4.4c-2.4,4.8-4,8.1-4,8.2c0,0.3-1.8,4-2,4.1
		c-0.1,0-0.3,0.3-0.3,0.5c0,0.3-0.1,0.4-0.1,0.4c-0.1,0-0.3,0.1-0.1,0.3c0,0.1-0.1,0.5-0.4,0.9l-0.4,0.4c0-0.1,0.1-0.4,0.3-0.8
		c0.1-0.3,0.3-0.5,0.3-0.7c0-0.1,0.5-1.2,1.1-2.4l2.1-5.2l1.5-3.2c0.1-0.1,0.3-0.4,0.3-0.7c0-0.1,0.3-0.9,0.7-1.6l0.8-1.7
		c0-0.3,0.4-1.2,0.8-2.1c0.4-0.9,0.9-1.8,0.9-2.2l0.4-0.7c0,0,0.4-0.7,0.7-1.2c0.5-1.2,1.3-2.9,1.7-3.6l2.4-4.8l2.4-4.8
		c1.1-2,1.8-3.7,1.8-3.8c0-0.1,0.1-0.3,0.1-0.3c0.1,0,0.3-0.3,0.3-0.4c0-0.3,0.1-0.5,0.3-0.7c0.1,0,0.3-0.4,0.4-0.9
		C442.7,22,443.4,20.2,445.5,16.1z M425.5,123.4c0,0,0.9-0.8,1.8-1.7c2.4-2.4,4.1-4.5,3.2-4c-0.3,0.3-0.5,0.5-0.5,0.7
		c0,0.3-4,3.3-5,3.8l-0.7,0.4l0.5,0.4C425.1,123.3,425.4,123.4,425.5,123.4z M430.4,125.1c-0.3-0.1-2,0.4-2,0.5s-0.3,0.4-0.7,0.5
		c-1.1,0.7-2,1.6-1.7,1.6s1.1-0.4,1.8-0.8C429.4,126.2,430.6,125.2,430.4,125.1z M454.9,70c0-4.2-0.3-7.3-1.1-9.5l-0.4-1.2v3.8
		c0,2.1,0,4.6-0.1,5.5c-0.8,9.6-1.2,13.2-2.2,16.8c-0.3,0.7-0.7,2-0.8,2.8l-1.6,4.8l-0.7,1.7c-0.5,1.8-1.5,3.7-4.4,9.8
		c-0.5,1.1-1.8,3.7-2.6,4.9l-0.9,1.7c-0.9,1.6-1.7,2.6-1.8,2.6s-0.1,0.1-0.1,0.3s-1.5,2.2-2.2,3.2c0,0.3-0.8,1.2-1.6,2.1
		c-0.7,1.1-1.5,1.8-1.6,1.8s-0.3,0.1-0.3,0.3c0,0.3-0.3,0.7-0.5,0.9c-0.4,0.3-0.9,0.8-1.2,1.2l-0.5,0.7l0.7-0.3
		c0.4,0,0.8-0.1,1.1-0.3c1.1-0.4,4.5-4.2,6.9-7.5c2.6-3.8,4.2-6.3,5.9-9.5l1.2-2.4c0.4-0.5,3-6.3,3.7-7.9c0.3-0.5,0.9-2.4,1.5-4
		c2-6.1,3.3-11.6,3.6-15.7c0.1-1.1,0.1-2.2,0.3-2.4V70H454.9z M433.1,64.5c0.8-0.9,2.4-2.2,3.2-3c2.1-1.8,5.2-4,6.7-4.8
		c0.9-0.5,1.1-0.7,1.1-1.2c0-0.3,0-0.7-0.1-0.7c-0.5-0.4-7.3,5.4-10.3,8.7C431.3,65.9,431.1,66.5,433.1,64.5z M444.8,55
		c0,0.4,0.1,0.7,0.3,0.7c0.1,0,0.1-0.3,0.1-0.7C444.9,54.2,444.8,54,444.8,55z M451.9,102.1c-0.1,0.5-0.8,0.9-0.8,0.4
		c0-0.1,0.8-1.1,0.9-1.1C452.2,101.5,452.1,101.7,451.9,102.1z M452.6,100.7c0.1,0,0,0.3-0.1,0.4c-0.3,0.1-0.3,0.1-0.1-0.1
		C452.5,100.7,452.6,100.5,452.6,100.7z"/>
	<path class="st0" d="M548,70.6c0,0.1-0.1,0.8,0,1.3c0,0.9-0.3,1.3-1.8,3.6c-8.7,11.8-14.8,18.9-23.2,26.9
		c-8.6,8.2-15.6,13.7-21.8,17.4c-0.5,0.3-1.5,0.8-2,1.2c-1.5,0.8-7.7,3.8-9,4.2c-0.3,0.1-0.4,0.3-0.4,0.4c0,0.3,0.1,0.3,0.3,0
		c0.3-0.1,0.5-0.1,0.7-0.1c0.8-0.1,2.5-0.7,2.5-0.8s0-0.1,0.1-0.1c0.4,0.1,1.6-0.3,1.6-0.5c0-0.1,0.1-0.1,0.4-0.1
		c0.1,0,0.3,0,0.3-0.1s0.3-0.1,0.4-0.1s0.3-0.1,0.3-0.3s0.1-0.1,0.4-0.1c0,0.1,0.3,0.1,0.4,0c0-0.1,0.8-0.5,1.6-1.1
		c0.9-0.4,2.2-1.1,3-1.6c0.8-0.4,1.5-0.8,1.5-0.8c0.1,0,0.4-0.3,0.8-0.4c0.9-0.7,1.7-1.2,1.8-1.1c0,0,0.4-0.3,0.7-0.5
		c0.3-0.3,0.7-0.4,0.7-0.4c0.1,0.1,0.3,0,0.4-0.3c0.1-0.1,0.7-0.5,1.2-0.8c0.4-0.4,0.9-0.7,0.9-0.9c0-0.1,0.1-0.1,0.3-0.1
		c0.3,0,0.5-0.1,0.7-0.4c0.3-0.1,0.8-0.7,1.5-1.1c1.5-1.2,1.6-1.3,2.2-2l2.6-2.2c5.7-4.6,15.1-14,18.9-18.6l1.3-1.6
		c1.2-1.3,2.8-3.3,5.4-6.9l2.8-3.6l0.9-1.3c0.5-0.7,0.9-1.1,0.9-0.9s-5.7,7.8-7.8,10.6c-3.4,4.4-6.6,7.8-11.9,13.1
		c-5,5-6.1,5.9-9.5,9.1c-1.8,1.6-4.9,4.1-6.6,5.3c-3.3,2.4-4.1,3-6.1,4.2l-2.9,1.8c-0.9,0.5-6.5,3.4-7.7,3.8
		c-1.7,0.8-4.5,1.6-5.8,1.7c-2.8,0.3-6.9,0.3-8.3,0c-2.5-0.5-4.9-1.6-7.4-3.2c-2.9-2-3.3-2.4-5.3-5l-2.6-3.3c-1.8-2-2.1-2.4-2.9-4
		c-0.7-1.2-1.5-3.7-1.6-5.3c-0.3-1.6-0.3-7.3-0.1-8.3l0.4-1.7c0-0.4,0.4-1.3,0.7-2.1l1.2-3.2l0.8-2.2c0.7-1.2,1.7-3.6,1.7-3.7
		c0,0,0.4-0.9,0.9-1.8c0.7-0.9,1.3-2.1,1.5-2.6l2.2-3.8c1.2-2.1,7.1-11,8.6-12.8c0.5-0.4,1.2-1.5,1.7-2c1.2-1.6,2.4-2.8,4.8-4.9
		c2.4-2.2,3.2-2.6,7.4-4.9c5.5-2.6,5.4-2.5,8.5-3.2c3.6-0.7,6.6,0.9,9.5,5.3c0.7,1.1,1.7,2.2,2.1,2.8c0.8,0.7,1.1,0.7,2.4,0.7
		c1.7,0,2.8,0.5,4.1,1.6c2.2,2.2,3.2,5.7,2.5,9.6c-0.7,3.7-4,12-6.7,16.6c-4.5,7.8-10.7,13.5-15.8,14.7c-0.5,0-1.7,0.5-2.8,1.1
		c-2.4,0.9-4,1.2-6.5,0.5c-2.2-0.4-3.4-0.9-5.2-2.1c-1.3-0.9-1.5-1.1-1.6-0.5c0,0.3-0.1,0.7-0.3,0.9l-1.3,3.6c0,0.1-0.1,0.4-0.1,0.5
		c-0.8,2-1.1,11.6-0.3,13.5c0.3,0.5,0.5,1.2,0.5,1.3c0.5,0.5,7.4-2.5,13.3-5.8c1.8-0.9,8.5-5.3,10.6-6.9c2.2-1.7,7.9-6.2,10-8.1
		c6.1-5.3,14.3-13.3,18.8-18.6c0.1-0.3,0.7-0.9,1.2-1.5s2.4-2.8,4.2-5.2c1.7-2.2,3.4-4.1,3.6-4.1c0.1,0,0.4,0,0.8-0.1
		c0.4,0,0.5,0,0.3,0.7c-0.1,1.1,0.9,1.5,2,0.8c0.5-0.4,0.5-0.4,1.2,0C547.8,70,548,70.3,548,70.6z M476.6,118.6c0,0,0-0.8-0.3-1.8
		c-0.4-3.3,0.3-11.9,1.1-12.3c0.1,0,0.1-0.3,0.1-0.5s0.3-1.1,0.4-1.5c0.3-0.4,0.4-0.8,0.4-0.9c0-0.3,1.1-3.2,1.3-3.6
		c0.3-0.3,0.5-1.1,0.7-1.5c0.3-0.9,0.3-0.9-0.9-2.5l-1.2-1.5l-0.5,1.1c-1.5,3.2-3.8,9.4-4.4,11.9c-0.3,1.3-0.3,5.4,0,7.1
		s1.3,3.8,2.4,5L476.6,118.6z M480.6,118.8c0.3-0.1,0.3-0.3-0.3-1.7c-0.5-1.5-0.5-2-0.5-5.2c0-3.4,0.1-7.3,0.4-7.5
		c0-0.1,0.1-0.7,0.3-1.1c0-1.1,1.3-4.9,1.6-5.5c0.3-0.3,0.1-0.5-0.1-0.8c-0.5-0.4-0.8-0.3-1.1,0.5c0,0.3-0.4,0.9-0.5,1.5l-0.5,1.1
		c0,0.1,0,0.4-0.1,0.7c-0.1,0.4-0.3,0.7-0.1,0.8c0,0-0.1,0.3-0.3,0.4s-0.4,0.7-0.4,1.1l-0.4,1.2c-0.3,0.4-1.1,4-1.2,5.3
		c-0.4,3.7-0.3,8.7,0.3,9.5C477.7,119.2,479.7,119,480.6,118.8z M480.6,119.7c-1.7,0.3-2.4,0.5-0.8,0.4c0.8-0.1,1.6-0.3,1.7-0.3
		C481.7,119.7,481.3,119.6,480.6,119.7z M484,119.2c-0.1-0.1-1.7,0.3-1.7,0.4s0.4,0.1,0.9-0.1C483.8,119.4,484.2,119.3,484,119.2z
		 M484.7,90.6c0.3,0.3,0.1,0.4,1.3-2.1c0.7-1.1,1.3-2.4,1.6-2.6c0.1-0.3,0.3-0.7,0.3-0.9c0-0.1,0.3-0.4,0.4-0.7l0.8-1.3l0.8-1.2
		c0,0,0.3-0.5,0.5-0.9c0.3-0.5,0.7-1.3,0.9-1.6c0.4-0.4,0.8-1.1,1.1-1.6c0.3-0.5,0.8-1.5,1.3-2c0.4-0.7,0.8-1.2,0.7-1.3
		c0-0.1,0-0.1-0.1,0.1c0,0.1,0,0.3-0.1,0.3s-0.8,0.8-1.3,1.8c-0.7,0.8-1.6,2.2-2.1,3l-1.5,2.4c-0.4,0.5-0.7,1.1-0.8,1.1l-0.8,1.2
		c-0.3,0.7-0.5,0.8-0.5,0.7c0-0.3,0.1-0.7,0.4-1.1c0.1-0.3,0.1-0.5,0-0.5s-0.3,0.3-0.4,0.4c0,0.3-0.3,0.4-0.3,0.5
		c-0.1,0.1-0.3,0.5-0.4,0.9c0,0.7,0,0.7,0.1,0.1c0.1-0.4,0.3-0.4,0.3-0.1c0,0.4-0.4,1.2-0.7,1.6C485.6,87.3,484.6,90.2,484.7,90.6z
		 M489.9,84.8c0.4-1.7,0.3-1.6-0.9,0.5c-0.5,1.1-0.9,1.8-1.1,1.8c0,0.1-0.7,1.2-1.2,2.5c-0.9,1.7-1.2,2.4-0.9,2.6
		c0.1,0.1,0.1,0.3-0.1,0.1c-0.5-0.1-0.5,0.1,0,1.1c0.5,0.7,0.5,0.7,1.7,0.5c0.7,0,1.5-0.1,1.7-0.3c0.7-0.3,0.7-0.3,0.4-1.2
		C489.2,91.3,489.5,86.7,489.9,84.8z M486.4,79.4c0.8,0,1.2,0,1.7,0.5c0.4,0.4,0.7,0.8,0.8,1.2c0,0.5,0,0.5,0.1,0
		c0-0.5,0.1-0.7,0.3-0.4c0.1,0.3,0.1,0.1,0.1-0.4c-0.1-0.4-0.1-0.5,0-0.3c0.3,0.3,0.3,0.1,0.5-0.3c0.1-0.3,0.3-0.4,0.3-0.4
		c0,0.3,0.8-0.7,0.8-0.9c0,0,0.3-0.5,0.7-0.9c0.3-0.5,0.5-1.1,0.5-1.3s0.1-0.4,0.1-0.3c0.1,0.4,0.8-0.4,0.8-0.9
		c0-0.3,0.1-0.3,0.4-0.3s0.4-0.3,0.4-0.5c0-0.3,0.1-0.5,0.3-0.5s0.4-0.4,0.7-0.8c0.1-0.4,0.4-0.7,0.5-0.7c0.1,0.1,0.1,0,0.1-0.4
		c0-0.3,0.1-0.4,0.1-0.4c0.1,0.3,1.3-0.8,1.3-1.1c0-0.1,0.3-0.4,0.7-0.8c0.4-0.4,0.7-0.8,0.7-1.2c0-0.1,0.1-0.3,0.1-0.3
		c0.1,0.1,0.8-0.5,1.5-1.3c1.5-1.7,4.2-4.4,5.3-5.3c0.5-0.3,1.1-0.7,1.3-0.9c0.4-0.4,0.4-0.4-0.4-0.3c-0.4,0.1-1.1,0.3-1.3,0.5
		c-0.4,0.1-0.7,0.3-0.8,0.3c-0.4,0-4.1,2.1-5.4,3.2c-1.5,1.1-4,3.4-5.4,5c-3,3.7-6.9,9.1-6.7,9.5c0.1,0.1,0,0.4-0.4,0.5
		C485.6,79.5,485.8,79.5,486.4,79.4z M487.5,93.1c0,0.3-0.4,0.1-0.5-0.1c-0.1-0.1-0.1-0.3-0.1-0.3C487.1,92.5,487.5,92.9,487.5,93.1
		z M488.1,82.4c-0.1,0-0.3,0.1-0.3,0.3c0,0.1,0.1,0.3,0.3,0.1c0.1-0.1,0.3-0.1,0.3-0.3C488.4,82.6,488.3,82.4,488.1,82.4z
		 M501.6,83.4c5.8-8.2,8.6-16.4,7.1-21.9l-0.1-0.9l-0.9,0.7c-0.5,0.4-0.9,0.9-0.9,1.1s-0.1,0.3-0.1,0.4c-0.3,0.1-0.3,0.1-0.1-0.1
		c0.1-0.3,0-0.3-0.5,0c-0.3,0.1-0.5,0.4-0.5,0.7c0,0.1,0,0.3-0.1,0.3c-0.1-0.3-3.2,2.5-4.6,4.2l-1.1,1.3l-1.1,1.6
		c-0.4,0.7-0.9,1.2-0.9,1.2c-0.3,0.1-3.7,5.2-4.5,6.6l-0.9,1.5c-0.5,0.3-1.5,2.6-1.7,4.8c-0.5,2.6-0.7,7.1-0.3,7.8
		c0.3,0.5,0.5,0.5,1.5,0.3C493.9,91.7,499.4,86.5,501.6,83.4z M498.6,50.1c0.9,0,2.4,0.3,3.2,0.4c0.9,0.3,2,0.5,2.4,0.5
		c1.2,0.3,3.7,1.6,4.5,2.4c0.9,0.8,1.8,1.5,2,1.5c0,0,0-0.1-0.1-0.3c-2.6-4.4-6.3-6.5-9.9-5.5l-1.6,0.4c-0.3,0-0.8,0.3-1.2,0.4
		C497,50.1,497.1,50.1,498.6,50.1z M516.8,66.5c-0.3,4-0.4,4.9-0.8,6.3c-1.3,5-4.5,12.2-7.3,16.2c-2,2.9-5.2,6.3-7.7,8.5
		c-0.8,0.7-1.5,1.2-1.3,1.2c0.1,0,0.9-0.4,1.7-0.8c1.8-0.8,4.4-2.8,6.3-4.8c1.3-1.3,1.6-1.7,3.7-4.4c2-2.4,4.8-7.5,6.6-12
		c3.2-8.1,3.7-11.9,2-15.2c-1.2-2.1-3-3.6-4.9-3.6c-0.5,0-1.1,0-1.1,0.1s0.4,0.5,0.7,0.9C516.1,60.9,516.9,63.6,516.8,66.5z
		 M548,75.4c0,0.1-0.3,0.4-0.4,0.7c-0.1,0.3-0.4,0.3-0.4,0.3c0-0.1,0.3-0.4,0.4-0.7C547.8,75.4,548,75.3,548,75.4z M549.6,73.2
		c-0.5,0.8-1.5,2-1.5,1.8c0-0.3,1.6-2.5,1.7-2.5S549.8,72.9,549.6,73.2z"/>
	<path class="st0" d="M596.8,32.4c-0.1,0-0.8-0.3-1.3-0.8c-0.5-0.4-1.2-0.7-1.2-0.7c-0.1,0-0.1,0.3-0.1,0.5c0,0.3-0.1,0.5-0.4,0.5
		c-0.1,0-0.1,0,0,0.3c0.4,0.4,0.4,0.9,0,0.9c-0.1,0-1.1-0.5-1.8-1.2c-1.1-0.7-2.4-1.3-3.4-1.7c-2.8-0.8-8.1-1.3-12.7-1.2h-1.3
		l-0.5,1.8c-0.4,1.6-1.2,4-1.8,5.4l-0.7,1.8c-0.3,0.8-0.7,2.1-1.1,2.9c-0.3,0.9-0.7,1.7-0.7,1.7c0,0.3-0.1,0.5-0.3,0.9
		c-0.1,0.4-0.3,0.7-0.3,0.8s-0.1,0.5-0.4,0.9l-0.8,2c-0.8,2.8-2.6,8.2-2.9,9c-0.3,0.4-0.8,1.8-1.2,3.3l-1.3,4.4l-0.9,3.2l-0.7,2.4
		c-0.3,0.5-0.4,1.3-0.5,1.8c-0.4,1.7-1.3,5.4-1.6,5.7c0,0.1-0.1,0.5-0.1,0.8c-0.1,0.3-0.1,0.8-0.3,1.2c-0.1,0.5-0.1,0.9-0.3,1.2
		c0,0.1,0,0.4-0.1,0.5c-0.1,0.3-0.3,0.9-0.5,2.4c-0.3,1.5-0.4,2-0.5,2c0,0-0.1,0.4-0.1,0.8c0,1.1-0.4,2.1-0.7,2.1s-0.3-0.9,0-1.2
		v-0.5c-0.1-0.1,0-0.3,0-0.3c0.1,0,0.3-0.3,0.3-0.7c0-0.3,0.3-1.8,0.5-3.6c0.4-1.6,0.7-3.4,0.8-4c0.1-0.5,0.3-1.2,0.3-1.3
		c0.1-0.1,0.4-1.1,0.7-2.1c0.1-0.9,0.4-1.8,0.5-2.1c0-0.1,0.1-0.5,0.1-0.8s0.1-0.8,0.3-1.3l0.7-2.2c0.1-0.8,0.4-1.6,0.5-1.7
		s0.3-0.5,0.3-0.8s0.1-0.9,0.3-1.3c0.1-0.5,0.5-1.5,0.7-2.2c0.7-2.2,2-5.9,2.2-6.7c0.3-0.4,0.4-1.1,0.5-1.6c0.3-0.4,0.4-1.1,0.5-1.3
		l0.7-1.8l2.6-7.4l1.6-4.2l1.7-4.2c0.3-1.1,0.7-2,0.8-2.2c0.3-0.5,1.2-3,1.2-3.2s-0.5-0.1-1.2-0.1c-0.9,0-1.2,0.1-1.2,0.4l-0.7,1.3
		c-0.7,1.6-1.1,2.4-1.5,3.6c-0.1,0.7-0.5,1.7-0.8,2.2c-0.4,0.7-0.7,1.3-0.7,1.5c0,0.1-0.1,0.4-0.1,0.7c-0.1,0.1-0.7,1.5-1.2,2.8
		l-1.2,3c-0.1,0.4-0.3,0.7-0.3,0.8s-0.1,0.5-0.3,0.9l-1.3,3.4c-0.3,0.7-0.5,1.3-0.5,1.5c0,0.3-0.1,0.4-0.1,0.4l-0.7,1.2
		c-0.4,1.6-0.8,2.8-1.1,2.9c0,0-0.1,0.3-0.1,0.5s-0.1,0.5-0.4,0.7c0,0-0.1,0.3,0,0.4c0,0.4-0.5,2-0.8,2c-0.1,0-0.1,0.1-0.1,0.1
		c0.1,0.3,0,0.3-0.3,0.3c-0.5,0-0.5,0-0.1-0.4c0.3-0.3,0.3-0.5,0.3-0.5s0-0.3,0.1-0.7c0.1-0.3,0.3-0.7,0.5-0.7l-0.1-0.3
		c-0.1,0-0.3-0.1-0.1-0.1c0.1,0,0.3-0.1,0.1-0.5c0-0.1,0.1-0.4,0.3-0.5c0.1,0,0.3-0.4,0.4-0.9c0-0.4,0.1-0.9,0.4-1.2
		c0.1-0.3,0.3-0.5,0.1-0.7c0-0.1,0.1-0.3,0.3-0.4c0.3-0.1,0.3-0.3,0.1-0.3c-0.3,0-0.3-0.1,0.4-1.3c0.1-0.3,0.4-0.8,0.4-1.1
		c0-0.4,0.3-0.8,0.4-1.2c0.3-0.3,0.4-0.5,0.3-0.5c-0.1,0,0-0.3,0.3-0.7s0.5-1.1,0.5-1.2c0-0.3,0.1-0.8,0.4-1.3l1.2-3
		c0.5-1.2,1.1-2.5,1.2-3c0.3-0.4,0.4-0.8,0.4-0.9c0.1,0,0.1-0.1,0.1-0.1s0.1-0.3,0.1-0.4c0-0.3,0.3-0.9,0.5-1.5
		c0.5-1.2,1.1-2.2,1.1-2.4c0.1-0.5,0.7-2,1.2-3c0.7-1.3,0.7-1.5,0.3-1.5c-0.9-0.1-1.5,0.1-1.8,1.2c-0.3,0.5-0.8,1.5-1.1,2.2
		l-0.8,1.8l-0.7,1.7c-1.1,2.4-2,4.5-2,4.8s0,0.3-0.1,0.3s-0.3,0.4-0.3,0.9c-0.1,0.5-0.4,1.1-0.5,1.2c-0.3,0.1-0.4,0.5-0.4,0.8
		s-0.1,0.5-0.3,0.7c0,0.1-0.3,0.5-0.4,1.2c-0.1,0.5-0.3,0.9-0.4,0.9s-0.3,0.1-0.3,0.3c0,0.1-0.3,1.2-0.7,2.2
		c-0.4,1.1-0.8,2.1-0.8,2.2c-0.1,0.3-0.3,0.4-0.4,0.4c0,0-0.1,0.1,0,0.4c0.1,0.3-0.8,2.2-1.1,2.5c-0.1,0.1-0.1,0.4-0.1,0.8
		c-0.1,0.4-0.4,1.5-0.8,2.4l-0.8,2.5l-0.3,0.8c-0.3,0.3-1.8,5.5-2,6.3c0,0.3-0.1,0.7-0.3,0.8c-0.1,0.1-0.3,0.7-0.4,1.2
		c-0.3,1.7-0.7,3.2-0.8,3.2s-0.1,0.1-0.1,0.4c0.1,0.1,0,0.7-0.1,1.2c-0.3,0.5-0.3,0.9-0.3,0.9c0.1,0,0,0.1-0.1,0.3l-0.4,1.1
		c0,1.2-0.3,2-0.4,2.5l-0.7,2.5c-0.3,1.2-0.5,2.2-0.7,2.4c-0.1,0.1-0.1,0.4-0.1,0.4c0.1,0.1,0.1,0.7,0,1.3l-0.4,2v0.9
		c-0.1,0-0.3,1.1-0.4,3c0,1.1-0.1,2.2-0.3,2.5c-0.3,1.2-0.4,9.6-0.1,11.4c0,0.8,0.3,1.2,0.4,1.2c0.7,0,4.2-1.3,5.5-2
		c6.5-3.7,13.2-10.8,19.4-21c1.1-1.7,1.8-3,1.8-3.2c0,0,0.4-0.7,0.9-1.5c1.3-2.4,3.2-6.2,4.2-8.8c0.9-2,1.2-2.5,1.6-2.5
		c0.4-0.1,0.5,0,0.4,0.4c-0.1,0.3-0.1,0.4,0.1,0.4c0.3,0,0.4-0.1,0.4-0.3s0.1-0.4,0.3-0.5c0.3-0.4,2,0.4,2.1,0.9
		c0.3,0.4-1.5,4.8-3.3,9c-5.2,11.8-12.5,23.1-18.8,28.7c-4.1,3.8-6.5,5.5-9.6,6.7c-0.8,0.4-1.5,0.8-1.5,0.8c0,0.4,1.8,0.1,3-0.3
		c1.8-0.5,5.5-2.5,7.1-3.8c1.6-1.1,5.3-4.5,6.6-6.2c1.6-1.8,2.4-2.8,2.4-3c0-0.1,0-0.3,0.1-0.3c0.1-0.1,2.5-3.3,3.3-4.8
		c3-4.8,6.1-10.7,8.2-15.5l1.2-2.6c0.1-0.4,0.9-2.4,1.5-4.1c0.8-1.8,1.3-3.3,1.3-3.4c0.1,0,0.4,0.3,0.7,0.5c0.7,0.9,0.7,1.5-0.7,5.3
		c-1.6,4.4-2.2,5.9-4.1,10.3c-0.7,1.5-4.5,9.1-5.4,10.6c-1.6,2.9-6.6,10.3-7.4,11.1l-1.1,1.2c-2.5,3.2-5.4,5.4-8.8,7
		c-2.6,1.3-3.3,1.5-5.8,1.6c-1.7,0.1-2.1,0-3.2-0.4l-2.1-1.2c-0.9-0.8-1.1-0.8-2.6-0.8c-2,0-2.8-0.3-5-1.8c-3-2.4-5.5-5.3-6.9-8.2
		c-1.1-2.4-2.1-6.9-2.4-9.5c-0.1-0.7-0.1-1.6-0.3-2c0-0.4-0.1-2.5-0.3-4.8c0-2.1-0.1-4.1-0.1-4.2c-0.1-0.1,0-0.3,0-0.3
		c0.1-0.1,0.1-1.1,0.3-2c0-3.7,1.3-9.4,3-14.3l0.8-2.6c0-0.4,0.1-0.9,0.3-1.1c0.1-0.1,0.5-1.1,0.9-2.1c0.4-0.9,0.8-2,0.9-2
		c0-0.1,0.1-0.5,0.1-0.8c0-0.4,1.2-3.2,2-4.9c0.3-0.7,0.5-1.2,0.5-1.3s0.3-0.7,0.4-1.2c0.3-0.4,0.7-1.2,0.8-1.7c0.4-0.8,1.6-3.4,2-4
		l1.8-3.8c0.9-2,2.1-4.1,2.6-5l2.2-4c0.3-0.4,0.5-0.9,0.8-1.1c0.1-0.4,0.1-0.4-0.3-0.3l-8.5,2.5c-2.1,0.8-4.8,1.6-5.8,1.8l-3.3,1.1
		c-1.2,0.3-1.6,0.3-2,0.1c-0.4-0.3-0.7-0.5-0.7-0.8c0.1-0.3,0-0.4-0.5-0.4c-0.4,0-0.8-0.1-1.2-0.7c-0.9-1.2-1.3-2.1-1.1-2.4
		c0.1-0.1,0.1-0.4-0.1-0.8c-0.5-0.8-0.3-1.5,0.7-2.2c0.5-0.4,0.8-0.8,0.8-1.1c0-0.7,1.5-2.4,2.2-2.6c0.3,0,1.1-0.4,1.7-0.8
		c0.5-0.3,2-1.1,3-1.5l2.5-1.2c1.1-0.5,6.3-2.1,8.7-2.5c1.3-0.4,3.2-0.8,3.8-0.9c0.8-0.3,2.9-0.5,4.6-0.8c2.9-0.4,3.3-0.5,3.8-1.1
		c0.7-0.7,0.7-1.1-0.1-0.9c-0.4,0.1-1.3,0.3-2.2,0.3c-2.1,0.1-7.3,0.9-9.6,1.5c-1.1,0.3-2.6,0.7-3.6,0.8c-3.7,0.8-9.5,2.9-12.4,4.5
		c-1.7,0.9-2.9,1.7-4.1,2.8c-1.1,1.1-1.2,1.2-0.8,0.3c0.3-0.5,1.1-1.2,2.2-2.2c2.9-2.2,9.8-5,15.3-6.2c4-0.8,5.8-1.2,6.9-1.3
		c0.5,0,1.5-0.3,2.2-0.4c0.7,0,2.5-0.3,4.2-0.4s3.2-0.4,3.3-0.5l1.3-1.7c0.5-0.9,1.3-1.8,1.6-2.2l1.2-1.5c1.1-1.7,5.4-6.9,6.7-8.2
		c1.6-1.5,3.3-2.6,4.2-2.8c1.1-0.1,1.8,0.1,1.7,0.5c0,0.1,0,0.3,0.1,0.1c0.1,0,0.5,0.3,0.7,0.5c0.8,0.9,0.4,2-0.5,2
		c-0.7,0.1-1.8,1.3-3.7,4.1c-1.6,2.2-5.7,9-5.7,9.2c0,0.1,0.5,0.1,1.3,0.3h1.2l0.7-1.2l3.3-5.8c3.6-6.3,4.8-7.8,5.2-6.6
		c0.1,0.5-0.3,2-0.5,2.2c-0.3,0.3-2.1,4-2.1,4.2c0,0.1-0.1,0.3-0.3,0.5c-0.3,0.1-0.4,0.5-0.4,0.8c0,0.4-0.1,0.7-0.3,0.8
		c-0.1,0-0.4,0.1-0.4,0.4c0,0-0.3,0.9-0.8,1.8c-0.4,1.1-0.8,1.8-0.8,2c0,0.2-0.1,0.3-0.3,0.3c-0.3,0-0.1,0.9,0.1,1.1
		c0.3,0,0.5,0,0.7-0.1c0.3-0.3,0.4-0.1,0.4,0c0,0.3,0.3,0.4,0.9,0.5c0.8,0.1,2.1,0.5,4,1.2c0.3,0.1,0.5,0.1,0.7,0.3
		c0.3,0,2.6,1.2,4.8,2.4c2.5,1.2,5.8,4,5.3,4.1c-0.3,0-1.1-0.4-1.8-1.1c-3-2.2-6.7-3.6-12.2-4.4c-1.3-0.3-2.5-0.3-2.6-0.3
		s-0.3,0.4-0.4,0.7c-0.1,0.7-0.1,0.5,2.6,0.9c4.4,0.5,10.2,2.6,13.6,4.9c1.7,1.2,2.1,1.6,2.5,2.6c0.1,0.5,0.5,1.1,1.1,1.5
		C596,31.3,597.2,32.4,596.8,32.4z M556,22c2.1-0.3,2.6-0.4,2.9-0.8c0.1-0.3,0.1-0.4,0.1-0.5c-0.3-0.3-9.9,1.6-13.1,2.6
		c-3.7,1.1-4.6,1.5-7,2.4c-2.1,0.8-4.8,2.1-4.4,2.1c0,0,0.9-0.3,1.8-0.7c2.9-1.3,7.5-2.6,11.2-3.4C552.8,22.5,553.4,22.3,556,22z
		 M565.7,29.9c0,0-0.8,0.1-1.7,0.3l-1.6,0.1l-1.5,3l-2.5,5.2c-0.7,1.2-1.5,3-1.8,4c-3.3,6.9-7.4,17.8-8.8,23c-0.4,1.2-1.2,4-1.5,4.5
		c-0.1,0.3-0.4,1.2-0.5,2.2l-0.9,3c-1.3,4.9-2.4,13.5-2.4,18.9c0.1,4.6,0.5,7.4,1.1,7.7c0.3,0.1,0.3,0,0-0.4
		c-0.3-0.5-0.3-0.7,0.1-0.7c0.1,0,0.1-0.1,0.1-0.3c0-0.1-0.1-0.3-0.1-0.1c-0.1,0-0.3-0.4-0.3-0.8c0-0.8,0.3-0.9,0.8-0.4
		c0.3,0.4,0.4,1.6,0.1,1.6c0,0,0,0.7-0.1,1.6c0,1.3-0.1,1.7-0.3,1.7c-0.3,0-0.1,0,0,0.4c0.3,0.3,0.4,0.7,0.4,0.9s0.9,1.2,1.1,0.9
		c0.1,0,0-1.6-0.1-3.4c-0.1-2-0.3-3.8-0.3-4.4c0.1-1.2,0.1-1.3-0.3-1.2c-0.1,0-0.4,0-0.8-0.3c-0.3-0.3-0.3-0.4-0.1-0.8
		c0.3-0.3,0.3-0.4,0.1-0.4c-0.3,0-0.3-0.3-0.1-0.9c0.1-0.5,0.1-1.3,0.1-2s0-0.9,0.4-0.9c0.3,0,0.5,0.1,0.5,0.3
		c0.3,0.3,0.7,0.3,0.7,0c0-0.1-0.4-0.3-0.8-0.5c-0.7-0.3-0.8-0.5-0.4-0.7c0.3-0.1,0.3-0.1,0-0.1s-0.3-0.1,0-0.4s0.3-0.4,0-0.5
		c-0.1-0.1-0.1-0.3,0-0.3c0.1-0.1,0.1-0.3,0.1-0.5c-0.1-0.1-0.1-0.4,0.1-0.4c0.1,0,0.1,0,0.1-0.1c-0.1-0.1,0-0.4,0-0.7
		c0.3-0.1,0.3-0.3,0.1-0.3s-0.3-0.1-0.3-0.3c0-0.1,0.1-0.3,0.4-0.3c0.1,0,0.3,0,0.1-0.3c-0.4-0.3-0.3-0.7,0-1.3
		c0-0.1,0.1-0.4,0.3-0.7c0-0.1,0.1-0.4,0.1-0.5c0.1-0.1,0.1-0.4,0-0.5c0-0.1,0-0.3,0.1-0.3c0.1-0.1,0.3-0.4,0.1-0.7
		c0-0.3,0-0.4,0.1-0.4s0.3-0.3,0.3-0.7c0-0.4,0.1-0.8,0.3-1.1c0.3-0.1,0.3-0.4,0.1-0.4c-0.3-0.3,0-0.8,0.4-0.8s0.3-0.1,0-0.4
		c-0.4-0.1-0.4-0.3-0.1-0.4c0.1-0.1,0.1-0.3,0.1-0.4c-0.1-0.1,0-0.3,0.1-0.4c0.3,0,0.3-0.1,0.3-0.3c-0.1-0.3,0.4-1.8,0.7-2.1
		c0.1-0.1,0.1-0.1,0-0.1c-0.3,0-0.3-0.1-0.1-0.4c0.1-0.3,0.3-0.5,0.1-0.5s0-0.1,0.1-0.3c0.1-0.3,0.3-0.7,0.3-1.1
		c0.1-0.8,0.8-3.2,1.1-3.2c0.1,0,0.1-0.1,0.1-0.4c0-0.5,0.4-1.7,0.7-2c0.1-0.1,0.1-0.4,0.1-0.4c-0.1-0.1-0.1-0.3,0-0.5
		c0.1-0.1,0.3-0.3,0.1-0.3c-0.1,0,0-0.4,0.3-0.8s0.4-0.9,0.4-1.2c-0.1-0.1-0.1-0.3,0-0.3s0.4-0.5,0.5-1.2c0.1-0.5,0.4-1.2,0.5-1.2
		s0.1-0.3,0-0.4c0,0,0-0.1,0.1-0.3c0.1,0,0.3-0.4,0.3-0.7s0.1-0.7,0.4-0.8c0.3-0.1,0.4-0.3,0.3-0.4c-0.1-0.4,0.3-1.6,0.5-1.6
		c0.1,0,0.1-0.1,0-0.3c-0.1-0.1,0-0.4,0.1-0.4c0.1-0.1,0.4-0.8,0.7-1.6l0.8-2.2l0.9-2c0.3-0.7,0.5-1.5,0.7-1.5
		c0.1-0.1,0.1-0.3,0.1-0.3c-0.3,0,0.3-0.9,1.8-4.8c0.5-0.9,0.8-1.8,0.8-2s0.5-1.1,1.1-2.2l1.5-3c0.3-0.5,1.1-2.5,2-4.4
		C564.9,31.5,565.7,29.9,565.7,29.9z M544.5,96.8C544.4,96.8,544.5,96.9,544.5,96.8c0.4,0,0.5-0.4,0.5-0.7c0-0.5,0-0.5-0.4-0.4
		c-0.3,0.3-0.4,0.4-0.1,0.5C544.7,96.4,544.7,96.7,544.5,96.8z M545.8,108.2c0-0.5-0.8-1.6-1.1-1.3c-0.1,0.1,0.8,1.7,0.9,1.7
		C545.8,108.6,545.8,108.5,545.8,108.2z M545.2,94.5c0-0.1-0.1-0.3-0.1-0.3c-0.1-0.1-0.3,0-0.3,0.1
		C544.8,94.6,544.9,94.6,545.2,94.5C545.1,94.6,545.2,94.6,545.2,94.5z M546.9,48.8c0.1,0.4,0.8-0.7,1.1-1.3
		c0.1-0.5,0.3-0.8,0.4-0.8c0.1,0,0.1-0.1,0.1-0.4c0-0.3,4.8-9.6,7-13.5c0.4-1.1,0.4-1.6-0.3-0.8l-0.9,1.5l-1.7,3.6l-3.3,6.6
		l-2.1,4.6L546.9,48.8z M561.2,20.9c0,0.1,0,0.1,0.1,0.1s0.3-0.1,0.3-0.3s-0.1-0.1-0.3-0.1C561.2,20.8,561.2,20.9,561.2,20.9z
		 M564.2,28.7c0.4,0,0.5-0.1,0.4-0.1c-0.3-0.1-0.4-0.1-0.7,0C563.8,28.6,563.9,28.7,564.2,28.7z M566.1,28.3h-0.5
		c-0.1,0,0,0.1,0.3,0.1C566.2,28.4,566.3,28.3,566.1,28.3z M570.5,19.7c0,0-0.5-0.1-1.2-0.1c-1.1,0-1.5,0.1-1.7,0.5
		c-0.8,0.7-0.5,0.9,1.1,0.9c1.2,0,1.3,0,1.6-0.7C570.4,20.1,570.5,19.8,570.5,19.7z M570.3,17.3c-0.7,0-1.3,0.1-1.3,0.1
		c0,0.1,0,0.3-0.1,0.5c-0.1,0.3,0,0.4,1.3,0.3c1.2,0,1.5-0.1,1.5-0.5C571.7,17.5,571.5,17.3,570.3,17.3z M574.4,19.8
		c-0.4,0-0.7,0.1-0.7,0.4c0,0.1-0.1,0.3-0.3,0.3s-0.3,0.1-0.3,0.3s0.4,0.4,1.1,0.4c0,0,0.3-0.1,0.4-0.4
		C575.2,20,575.2,19.8,574.4,19.8z M575.8,18.4c0.1-0.3-0.7-0.7-1.1-0.4c-0.1,0.1-0.1,0.3-0.1,0.4C574.6,18.6,575.7,18.6,575.8,18.4
		z M578.1,18.9l3.4,0.7c1.8,0.5,2.1,0.7,1.5,0.1l-1.6-0.5l-3.2-0.7c-0.8-0.3-1.6-0.4-1.7-0.4C575.8,18.5,576.2,18.8,578.1,18.9z"/>
	<path class="st0" d="M656.8,70.6c0,0.1-0.1,0.8,0,1.3c0,0.9-0.3,1.3-1.8,3.6c-8.7,11.8-14.8,18.9-23.2,26.9
		c-8.6,8.2-15.6,13.7-21.8,17.4c-0.5,0.3-1.5,0.8-2,1.2c-1.5,0.8-7.7,3.8-9,4.2c-0.3,0.1-0.4,0.3-0.4,0.4c0,0.3,0.1,0.3,0.3,0
		c0.3-0.1,0.5-0.1,0.7-0.1c0.8-0.1,2.5-0.7,2.5-0.8s0-0.1,0.1-0.1c0.4,0.1,1.6-0.3,1.6-0.5c0-0.1,0.1-0.1,0.4-0.1
		c0.1,0,0.3,0,0.3-0.1s0.3-0.1,0.4-0.1c0.1,0,0.3-0.1,0.3-0.3s0.1-0.1,0.4-0.1c0,0.1,0.3,0.1,0.4,0c0-0.1,0.8-0.5,1.6-1.1
		c0.9-0.4,2.2-1.1,3-1.6c0.8-0.4,1.5-0.8,1.5-0.8c0.1,0,0.4-0.3,0.8-0.4c0.9-0.7,1.7-1.2,1.8-1.1c0,0,0.4-0.3,0.7-0.5
		c0.3-0.3,0.7-0.4,0.7-0.4c0.1,0.1,0.3,0,0.4-0.3c0.1-0.1,0.7-0.5,1.2-0.8c0.4-0.4,0.9-0.7,0.9-0.9c0-0.1,0.1-0.1,0.3-0.1
		c0.3,0,0.5-0.1,0.7-0.4c0.3-0.1,0.8-0.7,1.5-1.1c1.5-1.2,1.6-1.3,2.2-2l2.6-2.2c5.7-4.6,15.1-14,18.9-18.6l1.3-1.6
		c1.2-1.3,2.8-3.3,5.4-6.9L654,79l0.9-1.3c0.5-0.7,0.9-1.1,0.9-0.9s-5.7,7.8-7.8,10.6c-3.4,4.4-6.6,7.8-11.9,13.1
		c-5,5-6.1,5.9-9.5,9.1c-1.8,1.6-4.9,4.1-6.6,5.3c-3.3,2.4-4.1,3-6.1,4.2l-2.9,1.8c-0.9,0.5-6.5,3.4-7.7,3.8
		c-1.7,0.8-4.5,1.6-5.8,1.7c-2.8,0.3-6.9,0.3-8.3,0c-2.5-0.5-4.9-1.6-7.4-3.2c-2.9-2-3.3-2.4-5.3-5l-2.6-3.3c-1.8-2-2.1-2.4-2.9-4
		c-0.7-1.2-1.5-3.7-1.6-5.3c-0.3-1.6-0.3-7.3-0.1-8.3l0.4-1.7c0-0.4,0.4-1.3,0.7-2.1l1.2-3.2l0.8-2.2c0.7-1.2,1.7-3.6,1.7-3.7
		c0,0,0.4-0.9,0.9-1.8c0.7-0.9,1.3-2.1,1.5-2.6l2.2-3.8c1.2-2.1,7.1-11,8.6-12.8c0.5-0.4,1.2-1.5,1.7-2c1.2-1.6,2.4-2.8,4.8-4.9
		c2.4-2.2,3.2-2.6,7.4-4.9c5.5-2.6,5.4-2.5,8.5-3.2c3.6-0.7,6.6,0.9,9.5,5.3c0.7,1.1,1.7,2.2,2.1,2.8c0.8,0.7,1.1,0.7,2.4,0.7
		c1.7,0,2.8,0.5,4.1,1.6c2.2,2.2,3.2,5.7,2.5,9.6c-0.7,3.7-4,12-6.7,16.6c-4.5,7.8-10.7,13.5-15.8,14.7c-0.5,0-1.7,0.5-2.8,1.1
		c-2.4,0.9-4,1.2-6.5,0.5c-2.2-0.4-3.4-0.9-5.2-2.1c-1.3-0.9-1.5-1.1-1.6-0.5c0,0.3-0.1,0.7-0.3,0.9l-1.3,3.6c0,0.1-0.1,0.4-0.1,0.5
		c-0.8,2-1.1,11.6-0.3,13.5c0.3,0.5,0.5,1.2,0.5,1.3c0.5,0.5,7.4-2.5,13.3-5.8c1.8-0.9,8.5-5.3,10.6-6.9c2.2-1.7,7.9-6.2,10-8.1
		c6.1-5.3,14.3-13.3,18.8-18.6c0.1-0.3,0.7-0.9,1.2-1.5s2.4-2.8,4.2-5.2c1.7-2.2,3.4-4.1,3.6-4.1c0.1,0,0.4,0,0.8-0.1
		c0.4,0,0.5,0,0.3,0.7c-0.1,1.1,0.9,1.5,2,0.8c0.5-0.4,0.5-0.4,1.2,0C656.7,70,656.8,70.3,656.8,70.6z M585.5,118.6
		c0,0,0-0.8-0.3-1.8c-0.4-3.3,0.3-11.9,1.1-12.3c0.1,0,0.1-0.3,0.1-0.5s0.3-1.1,0.4-1.5c0.3-0.4,0.4-0.8,0.4-0.9
		c0-0.3,1.1-3.2,1.3-3.6c0.3-0.3,0.5-1.1,0.7-1.5c0.3-0.9,0.3-0.9-0.9-2.5l-1.2-1.5l-0.5,1.1c-1.5,3.2-3.8,9.4-4.4,11.9
		c-0.3,1.3-0.3,5.4,0,7.1s1.3,3.8,2.4,5L585.5,118.6z M589.4,118.8c0.3-0.1,0.3-0.3-0.3-1.7c-0.5-1.5-0.5-2-0.5-5.2
		c0-3.4,0.1-7.3,0.4-7.5c0-0.1,0.1-0.7,0.3-1.1c0-1.1,1.3-4.9,1.6-5.5c0.3-0.3,0.1-0.5-0.1-0.8c-0.5-0.4-0.8-0.3-1.1,0.5
		c0,0.3-0.4,0.9-0.5,1.5l-0.5,1.1c0,0.1,0,0.4-0.1,0.7c-0.1,0.4-0.3,0.7-0.1,0.8c0,0-0.1,0.3-0.3,0.4s-0.4,0.7-0.4,1.1l-0.4,1.2
		c-0.3,0.4-1.1,4-1.2,5.3c-0.4,3.7-0.3,8.7,0.3,9.5C586.5,119.2,588.5,119,589.4,118.8z M589.4,119.7c-1.7,0.3-2.4,0.5-0.8,0.4
		c0.8-0.1,1.6-0.3,1.7-0.3C590.5,119.7,590.1,119.6,589.4,119.7z M592.9,119.2c-0.1-0.1-1.7,0.3-1.7,0.4s0.4,0.1,0.9-0.1
		C592.6,119.4,593,119.3,592.9,119.2z M593.5,90.6c0.3,0.3,0.1,0.4,1.3-2.1c0.7-1.1,1.3-2.4,1.6-2.6c0.1-0.3,0.3-0.7,0.3-0.9
		c0-0.1,0.3-0.4,0.4-0.7l0.8-1.3l0.8-1.2c0,0,0.3-0.5,0.5-0.9c0.3-0.5,0.7-1.3,0.9-1.6c0.4-0.4,0.8-1.1,1.1-1.6s0.8-1.5,1.3-2
		c0.4-0.7,0.8-1.2,0.7-1.3c0-0.1,0-0.1-0.1,0.1c0,0.1,0,0.3-0.1,0.3s-0.8,0.8-1.3,1.8c-0.7,0.8-1.6,2.2-2.1,3L598,82
		c-0.4,0.5-0.7,1.1-0.8,1.1l-0.8,1.2c-0.3,0.7-0.5,0.8-0.5,0.7c0-0.3,0.1-0.7,0.4-1.1c0.1-0.3,0.1-0.5,0-0.5s-0.3,0.3-0.4,0.4
		c0,0.3-0.3,0.4-0.3,0.5c-0.1,0.1-0.3,0.5-0.4,0.9c0,0.7,0,0.7,0.1,0.1c0.1-0.4,0.3-0.4,0.3-0.1c0,0.4-0.4,1.2-0.7,1.6
		C594.5,87.3,593.4,90.2,593.5,90.6z M598.7,84.8c0.4-1.7,0.3-1.6-0.9,0.5c-0.5,1.1-0.9,1.8-1.1,1.8c0,0.1-0.7,1.2-1.2,2.5
		c-0.9,1.7-1.2,2.4-0.9,2.6c0.1,0.1,0.1,0.3-0.1,0.1c-0.5-0.1-0.5,0.1,0,1.1c0.5,0.7,0.5,0.7,1.7,0.5c0.7,0,1.5-0.1,1.7-0.3
		c0.7-0.3,0.7-0.3,0.4-1.2C598,91.3,598.3,86.7,598.7,84.8z M595.2,79.4c0.8,0,1.2,0,1.7,0.5c0.4,0.4,0.7,0.8,0.8,1.2
		c0,0.5,0,0.5,0.1,0c0-0.5,0.1-0.7,0.3-0.4c0.1,0.3,0.1,0.1,0.1-0.4c-0.1-0.4-0.1-0.5,0-0.3c0.3,0.3,0.3,0.1,0.5-0.3
		c0.1-0.3,0.3-0.4,0.3-0.4c0,0.3,0.8-0.7,0.8-0.9c0,0,0.3-0.5,0.7-0.9c0.3-0.5,0.5-1.1,0.5-1.3s0.1-0.4,0.1-0.3
		c0.1,0.4,0.8-0.4,0.8-0.9c0-0.3,0.1-0.3,0.4-0.3c0.3,0,0.4-0.3,0.4-0.5c0-0.3,0.1-0.5,0.3-0.5s0.4-0.4,0.7-0.8
		c0.1-0.4,0.4-0.7,0.5-0.7c0.1,0.1,0.1,0,0.1-0.4c0-0.3,0.1-0.4,0.1-0.4c0.1,0.3,1.3-0.8,1.3-1.1c0-0.1,0.3-0.4,0.7-0.8
		s0.7-0.8,0.7-1.2c0-0.1,0.1-0.3,0.1-0.3c0.1,0.1,0.8-0.5,1.5-1.3c1.5-1.7,4.2-4.4,5.3-5.3c0.5-0.3,1.1-0.7,1.3-0.9
		c0.4-0.4,0.4-0.4-0.4-0.3c-0.4,0.1-1.1,0.3-1.3,0.5c-0.4,0.1-0.7,0.3-0.8,0.3c-0.4,0-4.1,2.1-5.4,3.2c-1.5,1.1-4,3.4-5.4,5
		c-3,3.7-6.9,9.1-6.7,9.5c0.1,0.1,0,0.4-0.4,0.5C594.5,79.5,594.6,79.5,595.2,79.4z M596.3,93.1c0,0.3-0.4,0.1-0.5-0.1
		c-0.1-0.1-0.1-0.3-0.1-0.3C595.9,92.5,596.3,92.9,596.3,93.1z M597,82.4c-0.1,0-0.3,0.1-0.3,0.3c0,0.1,0.1,0.3,0.3,0.1
		c0.1-0.1,0.3-0.1,0.3-0.3C597.2,82.6,597.1,82.4,597,82.4z M610.4,83.4c5.8-8.2,8.6-16.4,7.1-21.9l-0.1-0.9l-0.9,0.7
		c-0.5,0.4-0.9,0.9-0.9,1.1s-0.1,0.3-0.1,0.4c-0.3,0.1-0.3,0.1-0.1-0.1c0.1-0.3,0-0.3-0.5,0c-0.3,0.1-0.5,0.4-0.5,0.7
		c0,0.1,0,0.3-0.1,0.3c-0.1-0.3-3.2,2.5-4.6,4.2l-1.1,1.3l-1.1,1.6c-0.4,0.7-0.9,1.2-0.9,1.2c-0.3,0.1-3.7,5.2-4.5,6.6l-0.9,1.5
		c-0.5,0.3-1.5,2.6-1.7,4.8c-0.5,2.6-0.7,7.1-0.3,7.8c0.3,0.5,0.5,0.5,1.5,0.3C602.8,91.7,608.2,86.5,610.4,83.4z M607.4,50.1
		c0.9,0,2.4,0.3,3.2,0.4c0.9,0.3,2,0.5,2.4,0.5c1.2,0.3,3.7,1.6,4.5,2.4c0.9,0.8,1.8,1.5,2,1.5c0,0,0-0.1-0.1-0.3
		c-2.6-4.4-6.3-6.5-9.9-5.5l-1.6,0.4c-0.3,0-0.8,0.3-1.2,0.4C605.8,50.1,605.9,50.1,607.4,50.1z M625.6,66.5c-0.3,4-0.4,4.9-0.8,6.3
		c-1.3,5-4.5,12.2-7.3,16.2c-2,2.9-5.2,6.3-7.7,8.5c-0.8,0.7-1.5,1.2-1.3,1.2c0.1,0,0.9-0.4,1.7-0.8c1.8-0.8,4.4-2.8,6.3-4.8
		c1.3-1.3,1.6-1.7,3.7-4.4c2-2.4,4.8-7.5,6.6-12c3.2-8.1,3.7-11.9,2-15.2c-1.2-2.1-3-3.6-4.9-3.6c-0.5,0-1.1,0-1.1,0.1
		s0.4,0.5,0.7,0.9C625,60.9,625.8,63.6,625.6,66.5z M656.8,75.4c0,0.1-0.3,0.4-0.4,0.7c-0.1,0.3-0.4,0.3-0.4,0.3
		c0-0.1,0.3-0.4,0.4-0.7C656.7,75.4,656.8,75.3,656.8,75.4z M658.4,73.2c-0.5,0.8-1.5,2-1.5,1.8c0-0.3,1.6-2.5,1.7-2.5
		C658.8,72.5,658.6,72.9,658.4,73.2z"/>
</g>
</svg>
