<?xml version="1.0" encoding="utf-8"?>
<!-- Generator: Adobe Illustrator 26.5.0, SVG Export Plug-In . SVG Version: 6.00 Build 0)  -->
<svg version="1.1" id="Capa_1" xmlns="http://www.w3.org/2000/svg" xmlns:xlink="http://www.w3.org/1999/xlink" x="0px" y="0px"
	 viewBox="0 0 472 104.28" style="enable-background:new 0 0 472 104.28;" xml:space="preserve">
<style type="text/css">
	.st0{fill:#FFFFFF;}
</style>
<g>
	<g>
		<path class="st0" d="M467.51,81.42c0.01,2.01-1.56,3.59-3.6,3.6c-2.03,0.01-3.65-1.55-3.66-3.56c-0.01-1.96,1.6-3.55,3.63-3.56
			C465.92,77.89,467.5,79.46,467.51,81.42z M461.15,81.45c0.01,1.57,1.18,2.82,2.78,2.81c1.55-0.01,2.69-1.27,2.68-2.82
			c-0.01-1.57-1.16-2.84-2.73-2.83C462.3,78.62,461.14,79.9,461.15,81.45z M463.34,83.3l-0.82,0l-0.02-3.54
			c0.32-0.07,0.78-0.11,1.36-0.11c0.67,0,0.97,0.1,1.23,0.25c0.2,0.15,0.35,0.43,0.35,0.77c0,0.39-0.3,0.69-0.73,0.82l0,0.04
			c0.35,0.13,0.54,0.39,0.65,0.86c0.11,0.54,0.18,0.75,0.26,0.88l-0.88,0c-0.11-0.13-0.18-0.45-0.29-0.86
			c-0.07-0.39-0.28-0.56-0.74-0.56l-0.39,0L463.34,83.3z M463.35,81.29l0.39,0c0.45,0,0.82-0.16,0.82-0.52
			c0-0.32-0.24-0.54-0.76-0.54c-0.22,0-0.37,0.02-0.45,0.05L463.35,81.29z"/>
	</g>
	<path class="st0" d="M62.59,85.13l16.54-0.03l-0.11-58.56l-16.54,0.03L62.59,85.13z M70.82,0.59c-5.1,0.01-9.06,4.21-9.05,8.85
		c0.01,4.99,3.98,9.06,9.08,9.05c4.87-0.01,8.83-4.09,8.82-9.08C79.66,4.77,75.69,0.58,70.82,0.59z M125.03,25.09
		c-7.59,0.01-14.16,3.41-17.66,8.74l-0.01-7.35l-16.54,0.03l0.11,58.56l16.54-0.03l-0.07-34.71c-0.01-6.35,5.42-11.3,12.33-11.31
		c6.57-0.01,11.11,4.96,11.13,12.21L130.92,85l15.98-0.03l-0.07-37.27C146.8,34.44,137.72,25.07,125.03,25.09z M184.17,24.96
		C167.06,25,154.05,37.82,154.09,55.5c0.03,18.01,13.65,30.79,31.1,30.76c8.61-0.02,18.69-3.66,23.89-9.11L198.52,66.4
		c-3.17,3.06-8.83,5.23-13.47,5.24c-6.91,0.01-12.02-4.28-13.96-10.62l42.26-0.08C213.31,38.84,202.52,24.93,184.17,24.96z
		 M171.3,49.12c2.14-5.9,7.35-9.53,13.58-9.54c6.68-0.01,11,3.72,12.59,9.49L171.3,49.12z M198.24,5.76l-16.54,0.03l-6.14,12.58
		l16.54-0.03L198.24,5.76z M398.2,0c-5.1,0.01-9.05,4.21-9.05,8.85c0.01,4.98,3.98,9.05,9.08,9.04c4.87-0.01,8.83-4.09,8.82-9.08
		C407.05,4.17,403.08-0.01,398.2,0z M389.98,84.51l16.54-0.03l-0.11-58.56l-16.54,0.03L389.98,84.51z M441.9,48.06
		c-7.93-2.14-10.31-3.04-10.32-6.21c0-2.04,2.82-3.52,6.9-3.53c4.98-0.01,11.1,1.91,16.43,5.18l6.66-11.79
		c-6.47-4.29-14.74-7.22-23.12-7.21c-13.82,0.03-22.98,7.97-22.84,19.07c0.14,11.55,9.43,14.82,21.44,17.74
		c6.01,1.57,10.31,2.7,10.32,6.32c0,2.6-3.16,4.42-7.58,4.43c-7.82,0.01-14.39-2.8-19.61-6.53l-7.11,11.45
		c7.03,5.65,17.01,8.8,26.41,8.78c14.39-0.03,23.77-7.41,23.75-18.96C463.2,54.02,451.99,50.64,441.9,48.06z M362.57,84.56
		l16.54-0.03l-0.15-79.17l-16.54,0.03L362.57,84.56z M322.82,24.72c-17.44,0.03-32.03,13.99-32,30.64
		c0.03,16.65,14.67,30.67,32.11,30.63c17.33-0.03,31.8-14.1,31.77-30.75C354.67,38.59,340.15,24.69,322.82,24.72z M322.91,72.07
		c-8.83,0.02-16.21-7.67-16.23-16.73c-0.02-9.06,7.33-16.66,16.17-16.68c8.72-0.02,16.1,7.56,16.11,16.62
		C338.98,64.33,331.63,72.05,322.91,72.07z M257.21,24.84c-8.16,0.02-14.94,3.54-19.58,9.55l-0.02-8.15l-16.54,0.03l0.15,78.04
		l16.54-0.03l-0.05-27.75c4.66,6.11,11.46,9.61,19.61,9.59c15.63-0.03,26.93-12.74,26.9-30.74
		C284.19,37.48,272.84,24.81,257.21,24.84z M252.54,72.2c-8.04,0.02-13.94-5.86-14.86-14.47l-0.01-4.53
		c0.89-8.5,6.77-14.4,14.81-14.41c9.17-0.02,15.64,6.88,15.66,16.62C268.16,65.26,261.72,72.18,252.54,72.2z M34.12,41.37
		c3.31-0.01,6.35,1.11,8.8,2.96L55.87,34.3c-5.56-5.59-13.27-9.05-21.78-9.04C19.16,25.29,6.75,36,4.06,50.14l15.82,3.07
		C21.14,46.48,27.03,41.38,34.12,41.37z M34.17,70.43C27.1,70.44,21.2,65.39,19.89,58.7L4.08,61.77
		C6.83,75.91,19.27,86.56,34.2,86.54c8.51-0.02,16.21-3.5,21.75-9.12l-12.99-9.98C40.52,69.3,37.48,70.42,34.17,70.43z"/>
</g>
</svg>
