<?xml version="1.0" encoding="utf-8"?>
<!-- Generator: Adobe Illustrator 26.5.0, SVG Export Plug-In . SVG Version: 6.00 Build 0)  -->
<svg version="1.1" id="Layer_1" xmlns="http://www.w3.org/2000/svg" xmlns:xlink="http://www.w3.org/1999/xlink" x="0px" y="0px"
	 viewBox="0 0 289 85" style="enable-background:new 0 0 289 85;" xml:space="preserve">
<style type="text/css">
	.st0{fill:#F58220;}
	.st1{fill:#FFFFFF;}
</style>
<g>
	<g>
		<path class="st0" d="M244.53,4.11c-1.98,0-3.65,1.28-4.26,3.06h-10.3c-0.61-1.77-2.28-3.06-4.26-3.06c-2.5,0-4.53,2.03-4.53,4.53
			c0,2.5,2.02,4.53,4.53,4.53c2,0,3.68-1.31,4.28-3.11h10.26c0.6,1.8,2.28,3.11,4.28,3.11c2.5,0,4.53-2.03,4.53-4.53
			C249.06,6.14,247.03,4.11,244.53,4.11z"/>
		<path class="st1" d="M62.47,33.23c-2.13,0-4.29-1.04-4.29-3.34V16.82h-6.08v13.07c0,4.87,4.17,8.15,10.37,8.15
			c6.42,0,10.41-3.12,10.41-8.15V16.82h-6.05v13.07C66.83,31.95,65.16,33.23,62.47,33.23z"/>
		<path class="st1" d="M97.29,26l-0.09-0.05l0.09-0.05c1.75-1.09,2.71-2.52,2.71-4.03c0-1.01-0.45-2.06-1.23-2.88
			c-1.36-1.44-3.61-2.17-6.67-2.17H79.02v20.6h13.55c3.28,0,5.06-0.56,6.56-2.06c1.29-1.26,1.95-2.73,1.95-4.37
			C101.08,28.81,99.88,27.22,97.29,26z M91.29,21.3c1,0,1.66,0.21,2.09,0.68c0.26,0.28,0.38,0.61,0.38,0.98
			c0,0.47-0.17,0.89-0.49,1.21c-0.42,0.38-1.07,0.56-1.98,0.56h-6.18V21.3 M94.29,32.27c-0.47,0.47-1.13,0.67-2.19,0.67h-6.99v-4.09
			h6.99c1.33,0,1.89,0.4,2.19,0.71c0.34,0.34,0.56,0.87,0.56,1.35C94.85,31.65,94.42,32.13,94.29,32.27z"/>
		<path class="st1" d="M134.03,19.31c-1.57-1.68-3.88-2.5-7.07-2.5H114.7v20.6h6.05v-7.15h6.22c3.1,0,5.31-0.74,6.92-2.32
			c1.21-1.17,1.88-2.74,1.88-4.41C135.77,21.99,135.17,20.53,134.03,19.31z M129.12,24.97c-0.64,0.64-1.5,0.64-1.79,0.64h-6.59
			v-4.13h6.59c0.56,0,1.35,0.12,1.87,0.67c0.34,0.39,0.56,0.92,0.56,1.39C129.76,24.04,129.52,24.57,129.12,24.97z"/>
		<polygon class="st1" points="203.22,27.21 203.2,27.18 196.51,16.82 191.02,16.82 191.02,37.42 196.92,37.42 196.92,27.71 
			197.19,27.71 197.21,27.74 202,35.01 204.2,35.01 209.02,27.71 209.25,27.71 209.25,37.42 215.34,37.42 215.34,16.82 
			209.99,16.82 203.32,27.21 		"/>
		<rect x="221.74" y="16.82" class="st1" width="6.05" height="20.6"/>
		<path class="st1" d="M39.69,32.84V16.81h-5.78V34.1c0,0-0.22,3.32,2.64,3.32h12.86v-4.58H39.69z"/>
		<path class="st1" d="M239.83,32.9v-3.55h11.05v-4.36h-11.05v-3.27h12.87v-4.9h-18.65v17.36c0,0-0.04,3.3,2.72,3.3h16.67V32.9
			H239.83z"/>
		<path class="st1" d="M172.08,32.9v-3.56h11.05v-4.36h-11.05v-3.26h12.87v-4.9h-18.66v17.36c0,0-0.04,3.3,2.72,3.3h16.66V32.9
			H172.08z"/>
		<path class="st1" d="M28.41,32.35c-1.9-1.79-4.86-0.04-4.86-0.04c-1.4,0.67-2.79,1.04-4.06,1.04c-4.06,0-7.01-2.62-7.01-6.24
			c0-3.6,2.87-6.21,6.83-6.21c1.36,0,2.95,0.42,4.46,1.11c0,0,2.28,1.26,4.08-0.82l1.5-1.53c-3.06-2.12-7.09-3.38-10.84-3.38
			c-6.86,0-12.03,4.66-12.03,10.83c0,6.25,5.12,10.79,12.18,10.79c5.48,0,9.41-2.46,11.35-4.02L28.41,32.35z"/>
		<path class="st1" d="M156.98,29.27c2.48-1.24,3.97-3.25,3.97-5.72c0-1.72-0.69-3.25-1.86-4.42c-1.42-1.42-3.54-2.37-7-2.37h-12.33
			v20.72h6.17v-7.15h5l3.03,5.21c0.01,0.02,1.14,1.94,3.51,1.94h4.58L156.98,29.27z M154.21,24.97c-0.37,0.37-0.99,0.58-1.75,0.58
			h-6.53v-4.01h6.53c0.62,0,1.35,0.15,1.82,0.66c0.33,0.36,0.55,0.87,0.55,1.35C154.83,24.05,154.57,24.6,154.21,24.97z"/>
		<path class="st1" d="M275.92,29.27c2.48-1.24,3.98-3.25,3.98-5.72c0-1.72-0.69-3.25-1.86-4.42c-1.42-1.42-3.54-2.37-7-2.37h-12.33
			v20.72h6.17v-7.15h4.99l3.03,5.21c0.01,0.02,1.14,1.94,3.52,1.94h4.58L275.92,29.27z M273.15,24.97
			c-0.37,0.36-0.99,0.58-1.75,0.58h-6.53v-4.01h6.53c0.62,0,1.35,0.15,1.83,0.66c0.33,0.36,0.55,0.88,0.55,1.35
			C273.77,24.06,273.51,24.6,273.15,24.97z"/>
	</g>
	<path class="st1" d="M133.36,56.76c0.63,0.01,1.08,0.2,1.42,0.37c0.74,0.35,1.6,0.75,2.69,1.27c0,0,1.74-1.24,1.83-1.31
		c0.6-0.4,1.17-0.09,1.35,0.25c0.65,1.23,1.85,3.77,2.49,6.11c0.08,0.28-0.01,0.71-0.45,0.84c-0.25,0.08-0.69,0.14-1.14,0.2
		c-0.63,0.08-0.62,0.59-0.62,0.9c0,0.38,0,2.96,0,3.83c0.02,0.54-0.4,2.3-2.44,2.3c-0.14,0-4.67,0-4.65,0
		c-1.76,0.01-3.17-1.48-3.18-3.06c0-1.04,0-8.28,0-9.1C130.67,57.8,132.08,56.74,133.36,56.76"/>
	<path class="st1" d="M126,71.53h-15.12v1.68h17.75c0,0,0.64-1.49,0.64-3.13c0-0.09,0-11.4,0-11.4c0-0.9,0.36-2.42,2.21-2.82
		c0.05-0.01,0.1-0.02,0.15-0.03c5.24-1.24,10.64-0.11,13.68,1.2c0.55,0.27,0.68-0.17,0.66-0.36c0.06-2.56-1.89-5.48-5.47-5.66
		c-2.91-0.07-4.52,0.98-5.12,1.27c-0.04,0.02-0.12,0.02-0.18-0.06c-0.53-0.53-1.68-1.32-2.97-1.69c-0.19-0.04-0.21-0.32,0.01-0.35
		c2.76-0.29,5.17,0.01,6.18,0.18c0.23,0.04,0.4-0.1,0.31-0.31c-0.07-0.16-0.12-0.24-0.25-0.49c-0.24-0.53-0.89-1.09-1.72-1.31
		c-2.16-0.61-5.85-1.13-9.14-1.15c-3.7-0.02-7.6,0.72-8.58,0.94c-0.23,0.05-0.57,0.14-0.63,0.15c-0.27,0.05-0.33,0.31-0.21,0.44
		c0.07,0.08,0.27,0.25,0.37,0.37c0.12,0.15,0.18,0.37-0.05,0.59l-6.84,6.15h4.68l0.05,0c0.3-0.01,0.59,0.27,0.59,0.62
		c0,0.31-0.25,0.61-0.57,0.61l-0.04,0h-6.08l-1.86,1.69h7.96l0.05,0c0.31,0,0.55,0.33,0.55,0.62c0,0.28-0.23,0.61-0.55,0.61h-0.05
		h-9.32l-1.86,1.69h16.07l0.05,0c0.32,0,0.57,0.33,0.57,0.61c0.01,0.33-0.23,0.63-0.55,0.63l-0.04,0h-16.1v1.68h16.06l0.05,0
		c0.37,0.01,0.58,0.34,0.58,0.65c0,0.28-0.27,0.58-0.59,0.58h-0.04h-16.06l-0.01,1.69h20.97l0.05,0c0.34,0.01,0.57,0.31,0.56,0.64
		c-0.01,0.28-0.24,0.59-0.56,0.59l-0.04,0h-15.33v1.69H126h0.32c0.28,0,0.53,0.35,0.53,0.64c0,0.29-0.25,0.59-0.53,0.59H126z"/>
	<path class="st1" d="M116.52,77.34l0,1.72c0,0,2.28,0.01,3.57,0c3.2-0.02,5.29-1.72,5.29-1.72H116.52z"/>
	<path class="st1" d="M116.52,74.44l0,1.68h10.27c0.48-0.48,1.09-1.36,1.25-1.68H116.52z"/>
	<path class="st1" d="M282.11,64.04c-0.01-0.03-0.01-0.07-0.01-0.09c-0.06-1.31-0.5-2.48-1.1-3.39c-1.28-2-3.51-3.07-6.19-3.04
		c-2.69-0.03-4.92,1.04-6.19,3.04c-0.61,0.9-1.05,2.07-1.1,3.39c0,0.02-0.01,0.06-0.01,0.09c-0.37,4.38,2.19,7.41,6.54,7.76
		c0.25,0.02,0.51,0.03,0.76,0.03c0.25,0,0.5,0,0.76-0.03C279.92,71.45,282.47,68.42,282.11,64.04 M275.14,69.74
		c-0.13,0.01-0.23,0.02-0.34,0.02s-0.21-0.01-0.34-0.02c-0.63-0.06-1.14-0.28-1.6-0.64c-0.13-0.11-0.26-0.23-0.39-0.37
		c-0.67-0.76-1.03-2.04-1.12-3.06c-0.2-2.37,0.28-5.82,3.18-6.06c0.07-0.01,0.15-0.01,0.22-0.01h0.04h0.03
		c0.07,0,0.15,0.01,0.22,0.01c2.91,0.23,3.38,3.69,3.19,6.06c-0.09,1.02-0.41,2.28-1.12,3.06c-0.13,0.14-0.26,0.27-0.38,0.37
		C276.27,69.46,275.73,69.7,275.14,69.74"/>
	<path class="st1" d="M253.17,60.78c0-1.09,0.11-2.99,0.11-2.99h0h-3.56h-0.01c0,0,0.11,1.9,0.11,2.99l0,7.8
		c0,1.08-0.1,2.93-0.1,2.93h0.01h3.56h0c0,0-0.1-1.85-0.1-2.93L253.17,60.78z"/>
	<path class="st1" d="M232.33,69.4h-2.48c-0.03-1.38-0.05-2.71-0.05-3.92l0-0.19h0v-0.03h4.12v-1.94h-4.12
		c0.01-2.09,0.05-3.46,0.05-3.46l5.12,0v-2.06c-3.57,0.01-8.74,0-8.74,0s0.08,1.89,0.08,2.98v7.79c0,0.99-0.07,2.68-0.07,2.96h9.07
		l0.01-2.18C235.31,69.33,233.52,69.4,232.33,69.4"/>
	<path class="st1" d="M172.85,69.4h-2.48c-0.03-1.38-0.05-2.71-0.06-3.92v-0.19v-0.03h4.12v-1.94h-4.12
		c0.01-2.09,0.05-3.46,0.05-3.46l5.12,0v-2.06c-3.58,0.01-8.74,0-8.74,0s0.08,1.89,0.08,2.98v7.79c0,0.99-0.06,2.68-0.08,2.96h9.07
		l0.01-2.18C175.83,69.33,174.04,69.4,172.85,69.4"/>
	<path class="st1" d="M244.01,64.13l3.93-6.34h-2.73l-0.02,0.06c-0.82,1.43-1.85,3.15-2.26,3.78l-0.16,0.25l-2.28-4.1h-4.1l3.96,7.1
		l-4.13,6.62h2.72c1.76-3,2.66-4.38,2.66-4.38l2.45,4.38h4.08L244.01,64.13z"/>
	<path class="st1" d="M264.29,69.65c-3.17,0-4.88-2.34-4.8-5.21c0.08-2.5,1.22-4.63,3.95-4.82c1.05-0.07,1.89,0.11,3.36,0.5
		l-0.15-2.14c0,0-1.24-0.39-3.02-0.46c-2.26-0.09-4.31,0.35-5.94,1.85c-1.46,1.34-2.33,3.31-2.33,5.23c0,2.12,0.88,4.08,2.51,5.44
		c1.71,1.44,3.53,1.76,5.7,1.76c1.43,0,2.27-0.09,3.65-0.47l-0.2-2.11C266.74,69.33,265.73,69.65,264.29,69.65"/>
	<path class="st1" d="M218.47,55.74l3.97,0l0.11,0.91c0.89,9.17,1.43,14.87,1.43,14.87h-4.14l-0.41-5.68l-0.38-5.08l-3.51,10.75
		c-0.93,0-2.22,0-2.22,0s-1.1-3.82-1.31-4.35l-2.01-6.45c0,0-0.31,3.59-0.43,5.13c-0.24,3.07-0.46,5.68-0.46,5.68h-3.09
		c0,0,1.27-12.84,1.36-13.62c0.1-0.81,0.25-2.17,0.25-2.17h4.05l3.37,9.24L218.47,55.74z"/>
	<path class="st1" d="M204.38,64.06c0-0.03-0.01-0.06-0.01-0.09c-0.06-1.3-0.49-2.47-1.1-3.37c-1.26-1.99-3.49-3.06-6.16-3.02
		c-2.67-0.04-4.89,1.03-6.16,3.02c-0.6,0.9-1.04,2.07-1.1,3.37c-0.01,0.03-0.01,0.06-0.01,0.09c-0.36,4.36,2.18,7.38,6.51,7.73
		c0.26,0.02,0.51,0.03,0.76,0.03c0.25,0,0.5-0.01,0.76-0.03C202.2,71.44,204.74,68.42,204.38,64.06 M197.44,69.74
		c-0.11,0.01-0.23,0.01-0.34,0.01c-0.11,0-0.22-0.01-0.33-0.01c-0.64-0.06-1.13-0.29-1.59-0.64c-0.13-0.11-0.26-0.23-0.38-0.37
		c-0.67-0.75-1.03-2.03-1.1-3.05c-0.2-2.36,0.27-5.8,3.17-6.03c0.07-0.01,0.14-0.01,0.22-0.02h0.03h0.03c0.07,0,0.14,0.01,0.22,0.02
		c2.89,0.23,3.37,3.67,3.17,6.03c-0.08,1.01-0.4,2.27-1.11,3.05c-0.13,0.14-0.25,0.26-0.38,0.37
		C198.58,69.45,198.04,69.69,197.44,69.74"/>
	<path class="st1" d="M165.89,71.52c-0.12-0.28-0.86-2.02-1.4-3.43l-4.64-12.34h-3.62c0,0-1.03,2.89-1.18,3.37l-3.39,9.58
		c-0.44,1.22-1.06,2.83-1.06,2.83h2.95c0,0,0.83-2.66,1-3.14l0.45-1.33h5.11l0.7,2.03c0.14,0.38,0.75,2.41,0.76,2.45H165.89z
		 M155.77,64.79l1.72-5.11l0.1-0.3l1.8,5.4H155.77z"/>
	<path class="st1" d="M190.01,71.52c-0.85-1.23-1.16-1.73-1.81-2.63l-2.47-3.82c1.18-0.58,2.3-1.56,2.47-3.61
		c0.1-1.28-0.58-2.35-0.99-2.71c-0.6-0.53-1.17-0.74-1.99-0.84c-0.65-0.09-1.13-0.09-1.52-0.12h-5.79c0,0,0.07,1.9,0.07,2.98v7.76
		c0,1.09-0.07,2.98-0.07,2.98h3.56c0,0-0.11-1.89-0.11-2.98l0.03-2.49c0,0,0.77,0.01,1.32,0.01l2.26,4.14
		c0.31,0.53,0.74,1.18,0.84,1.34H190.01z M183.72,63.85c-0.53,0.28-1.73,0.2-2.33,0.16l0.05-3.92l0.33-0.03
		c1.1-0.08,1.89,0.06,2.22,0.21c0.49,0.22,0.78,0.68,0.8,1.45C184.83,62.89,184.4,63.51,183.72,63.85"/>
	<path class="st1" d="M281.73,70.18c0-0.74,0.61-1.35,1.35-1.35c0.74,0,1.35,0.61,1.35,1.35c0,0.74-0.61,1.35-1.35,1.35
		C282.33,71.53,281.73,70.92,281.73,70.18 M284.1,70.18c0-0.63-0.46-1.09-1.02-1.09c-0.56,0-1.02,0.46-1.02,1.09
		c0,0.63,0.46,1.09,1.02,1.09C283.64,71.26,284.1,70.81,284.1,70.18 M282.56,69.4h0.57c0.36,0,0.56,0.13,0.56,0.45
		c0,0.26-0.15,0.39-0.4,0.41l0.41,0.67h-0.3l-0.39-0.66h-0.17v0.66h-0.28V69.4z M282.84,70.06h0.25c0.17,0,0.32-0.02,0.32-0.23
		c0-0.18-0.16-0.21-0.31-0.21h-0.26V70.06z"/>
	<path class="st1" d="M281.73,36.05c0-0.74,0.61-1.35,1.35-1.35c0.74,0,1.35,0.61,1.35,1.35c0,0.74-0.61,1.35-1.35,1.35
		C282.33,37.4,281.73,36.79,281.73,36.05 M284.1,36.05c0-0.63-0.46-1.09-1.02-1.09c-0.56,0-1.02,0.46-1.02,1.09
		c0,0.63,0.46,1.09,1.02,1.09C283.64,37.14,284.1,36.68,284.1,36.05 M282.56,35.28h0.57c0.36,0,0.56,0.13,0.56,0.45
		c0,0.26-0.15,0.39-0.4,0.41l0.41,0.67h-0.3l-0.39-0.66h-0.17v0.66h-0.28V35.28z M282.84,35.94h0.25c0.17,0,0.32-0.02,0.32-0.23
		c0-0.18-0.16-0.21-0.31-0.21h-0.26V35.94z"/>
	<path class="st1" d="M244.1,75.69c-26.68-5.81-38.05,3.33-38.05,3.33s12.42-7.35,38.05-1.78c26.14,5.68,38.05-3.48,38.05-3.48
		S268.86,81.07,244.1,75.69"/>
</g>
</svg>
