<?xml version="1.0" encoding="utf-8"?>
<!-- Generator: Adobe Illustrator 26.5.0, SVG Export Plug-In . SVG Version: 6.00 Build 0)  -->
<svg version="1.1" id="Capa_1" xmlns="http://www.w3.org/2000/svg" xmlns:xlink="http://www.w3.org/1999/xlink" x="0px" y="0px"
	 viewBox="0 0 346 93" style="enable-background:new 0 0 346 93;" xml:space="preserve">
<style type="text/css">
	.st0{fill:#FFFFFF;}
</style>
<g>
	<path class="st0" d="M337.1,22.6c-2.1-3.7-5-6.7-8.5-8.9c-1.9-1.2-3.9-2.1-6.2-2.7c-2.2-0.6-4.5-1-6.9-1c-4.5,0-8.6,1.1-12.2,3.2
		c-3.7,2.1-6.7,5-8.9,8.5c-1.2,1.9-2.1,4-2.7,6.2c-0.6,2.2-1,4.5-1,6.9c0,4.4,1.1,8.5,3.2,12.2c2.1,3.7,5,6.7,8.5,8.9
		c1.9,1.2,4,2.1,6.2,2.7c2.2,0.6,4.5,1,6.9,1c4.4,0,8.5-1.1,12.2-3.2c3.7-2.1,6.7-5,8.9-8.5c1.2-1.9,2.1-3.9,2.7-6.2
		c0.6-2.2,1-4.5,1-6.9C340.3,30.4,339.2,26.2,337.1,22.6 M336,34.8c0,5.7-2,10.6-6,14.6c-3.9,3.9-8.8,5.9-14.5,5.9
		c-3.4,0-6.7-0.9-9.8-2.7c-3.1-1.8-5.7-4.1-7.6-7c-1-1.6-1.8-3.3-2.4-5.1c-0.6-1.8-0.9-3.8-0.9-5.7c0-5.7,2-10.6,6-14.6
		c4-4,8.9-6,14.6-6c5.7,0,10.5,2,14.5,6C334,24.2,336,29.1,336,34.8 M271.3,9.8v22.5c4.1,0.6,7.7,2,10.9,4.3h0.1
		c3.2,2.2,5.8,4.9,7.8,8.1c1,1.6,1.8,3.4,2.5,5.2c0.2,0.4,0.3,0.9,0.4,1.3c0,0.1,0,0.1,0.1,0.2c0,0.1,0,0.1,0,0.2
		c0.1,0.5,0.3,1,0.4,1.5c0,0.2,0.1,0.4,0.1,0.5c0.1,0.3,0.1,0.7,0.2,1c0,0.2,0.1,0.5,0.1,0.7c0.1,0.5,0.1,0.9,0.1,1.4
		c0,0.2,0,0.5,0,0.7c0,0.4,0,0.9,0,1.3c0,0.1,0,0.2,0,0.2c0,0,0,0,0,0.1s0,0,0,0.1c0,0.1,0,0.2,0,0.2c0,0.4,0,0.9,0,1.3
		c0,0.2,0,0.5,0,0.7c0,0.5-0.1,0.9-0.1,1.4c0,0.2-0.1,0.5-0.1,0.7c-0.1,0.3-0.1,0.7-0.2,1c0,0.2-0.1,0.4-0.1,0.5
		c-0.1,0.5-0.2,1-0.4,1.5c0,0.1,0,0.1,0,0.2c0,0.1,0,0.1-0.1,0.2c-0.1,0.4-0.3,0.9-0.4,1.3c-0.7,1.8-1.5,3.6-2.5,5.2
		c-2,3.2-4.6,5.9-7.8,8.1h-0.1c-3.2,2.2-6.9,3.6-10.9,4.3l-0.1,0v-4.2c4.6-0.8,8.6-2.9,12-6.4c4.5-4.5,6.7-9.9,6.7-16.2
		c0-6.3-2.3-11.7-6.7-16.2c-4.5-4.5-9.9-6.7-16.3-6.7v-7.9v-6v-3.5v-2.6v-5V5.5h27.2v4.3H271.3z"/>
	<path class="st0" d="M116.5,72.5v2.9c0,0.2-0.1,0.3-0.3,0.3h-0.7c-0.2,0-0.3-0.1-0.3-0.3v-8.2c0-0.2,0.1-0.3,0.3-0.3h2.4
		c2.4,0,3.5,1,3.5,2.7c0,1.3-0.7,2.1-1.7,2.4l2.2,3.3c0.1,0.1,0.1,0.2,0.1,0.2c0,0.1-0.1,0.1-0.3,0.1H121c-0.3,0-0.4-0.1-0.6-0.3
		l-1.8-2.8c-0.1-0.1-0.2-0.2-0.3-0.2h-1.6C116.5,72.4,116.5,72.4,116.5,72.5 M116.5,68.3v2.8c0,0.1,0,0.1,0.1,0.1h1.3
		c1.4,0,2.2-0.5,2.2-1.6c0-1.1-0.8-1.5-2.3-1.5h-1.3C116.5,68.1,116.5,68.2,116.5,68.3 M128.5,74.8v0.6c0,0.2-0.1,0.3-0.3,0.3h-4.7
		c-0.2,0-0.3-0.1-0.3-0.3v-8.2c0-0.2,0.1-0.3,0.3-0.3h4.7c0.2,0,0.3,0.1,0.3,0.3v0.6c0,0.2-0.1,0.3-0.3,0.3h-3.6
		c-0.1,0-0.2,0-0.2,0.1v2.3c0,0.1,0,0.1,0.2,0.1h3.2c0.2,0,0.3,0.1,0.3,0.3v0.6c0,0.2-0.1,0.3-0.3,0.3h-3.2c-0.1,0-0.2,0-0.2,0.1
		v2.3c0,0.1,0,0.1,0.2,0.1h3.6C128.4,74.5,128.5,74.6,128.5,74.8 M135.6,67.8c0.1,0.1,0.1,0.1,0.1,0.2c0,0.1,0,0.1-0.1,0.2l-0.4,0.5
		c-0.1,0.1-0.1,0.1-0.2,0.1c0,0-0.1,0-0.2-0.1c-0.6-0.4-1.3-0.8-2.1-0.8c-1,0-1.6,0.5-1.6,1.3c0,0.8,0.6,1.1,1.9,1.4
		c1.8,0.5,2.7,1.1,2.7,2.5c0,1.6-1.3,2.6-3.2,2.6c-1.2,0-2.2-0.4-3-1.1c-0.1-0.1-0.1-0.1-0.1-0.2c0-0.1,0-0.1,0.1-0.2l0.4-0.5
		c0.1-0.1,0.1-0.1,0.2-0.1c0,0,0.1,0,0.2,0.1c0.6,0.5,1.4,0.9,2.3,0.9c1.2,0,1.9-0.5,1.9-1.3c0-0.8-0.5-1.1-2-1.4
		c-1.7-0.4-2.7-1-2.7-2.5c0-1.6,1.3-2.5,2.9-2.5C133.9,66.8,134.9,67.2,135.6,67.8 M141.4,66.8c2.6,0,4.5,1.9,4.5,4.5
		c0,2.6-1.9,4.5-4.5,4.5c-2.5,0-4.5-1.9-4.5-4.5C136.9,68.8,138.8,66.8,141.4,66.8 M141.3,74.7c1.8,0,3.2-1.4,3.2-3.3
		c0-2-1.4-3.3-3.2-3.3c-1.8,0-3.2,1.4-3.2,3.3C138.1,73.3,139.5,74.7,141.3,74.7 M148.8,72.5v2.9c0,0.2-0.1,0.3-0.3,0.3h-0.7
		c-0.2,0-0.3-0.1-0.3-0.3v-8.2c0-0.2,0.1-0.3,0.3-0.3h2.4c2.4,0,3.5,1,3.5,2.7c0,1.3-0.7,2.1-1.7,2.4l2.2,3.3
		c0.1,0.1,0.1,0.2,0.1,0.2c0,0.1-0.1,0.1-0.3,0.1h-0.7c-0.3,0-0.4-0.1-0.6-0.3l-1.8-2.8c-0.1-0.1-0.2-0.2-0.3-0.2h-1.6
		C148.8,72.4,148.8,72.4,148.8,72.5 M148.8,68.3v2.8c0,0.1,0,0.1,0.1,0.1h1.3c1.4,0,2.2-0.5,2.2-1.6c0-1.1-0.8-1.5-2.3-1.5h-1.3
		C148.8,68.1,148.8,68.2,148.8,68.3 M161,68.1h-2.3c-0.1,0-0.1,0-0.1,0.1v7.1c0,0.2-0.1,0.3-0.3,0.3h-0.7c-0.2,0-0.3-0.1-0.3-0.3
		v-7.1c0-0.1,0-0.1-0.2-0.1h-2.3c-0.2,0-0.3-0.1-0.3-0.3v-0.6c0-0.2,0.1-0.3,0.3-0.3h6.2c0.2,0,0.3,0.1,0.3,0.3v0.6
		C161.3,68.1,161.2,68.1,161,68.1 M197.5,75.7h-0.7c-0.2,0-0.3-0.1-0.3-0.3v-8.2c0-0.2,0.1-0.3,0.3-0.3h4.8c0.2,0,0.3,0.1,0.3,0.3
		v0.6c0,0.2-0.1,0.3-0.3,0.3h-3.6c-0.1,0-0.1,0-0.1,0.1v2.5c0,0.1,0,0.1,0.1,0.1h3.2c0.2,0,0.3,0.1,0.3,0.3v0.6
		c0,0.2-0.1,0.3-0.3,0.3h-3.2c-0.1,0-0.1,0-0.1,0.1v3.2C197.7,75.6,197.7,75.7,197.5,75.7 M204.5,74.5h3.7c0.2,0,0.3,0.1,0.3,0.3
		v0.6c0,0.2-0.1,0.3-0.3,0.3h-4.8c-0.2,0-0.3-0.1-0.3-0.3v-8.2c0-0.2,0.1-0.3,0.3-0.3h0.7c0.2,0,0.3,0.1,0.3,0.3v7.2
		C204.4,74.5,204.4,74.5,204.5,74.5 M213.5,66.8c2.6,0,4.5,1.9,4.5,4.5c0,2.6-2,4.5-4.6,4.5c-2.5,0-4.5-1.9-4.5-4.5
		C209,68.8,210.9,66.8,213.5,66.8 M213.5,74.6c1.8,0,3.2-1.4,3.2-3.3c0-2-1.4-3.3-3.2-3.3c-1.8,0-3.2,1.4-3.2,3.4
		C210.3,73.3,211.7,74.6,213.5,74.6 M220.9,72.5v2.9c0,0.2-0.1,0.3-0.3,0.3h-0.7c-0.2,0-0.3-0.1-0.3-0.3v-8.2c0-0.2,0.1-0.3,0.3-0.3
		h2.5c2.4,0,3.5,1,3.5,2.7c0,1.3-0.7,2.1-1.7,2.4l2.2,3.3c0.1,0.1,0.1,0.2,0.1,0.2c0,0.1-0.1,0.1-0.3,0.1h-0.8
		c-0.3,0-0.4-0.1-0.6-0.3l-1.8-2.8c-0.1-0.1-0.2-0.2-0.3-0.2h-1.6C221,72.4,220.9,72.4,220.9,72.5 M220.9,68.3v2.8
		c0,0.1,0,0.1,0.1,0.1h1.3c1.4,0,2.2-0.5,2.2-1.6c0-1.1-0.8-1.6-2.3-1.6h-1.3C221,68.1,220.9,68.2,220.9,68.3 M228.6,75.7H228
		c-0.2,0-0.3-0.1-0.3-0.3v-8.2c0-0.2,0.1-0.3,0.3-0.3h0.7c0.2,0,0.3,0.1,0.3,0.3v8.2C228.9,75.6,228.8,75.7,228.6,75.7 M231.4,66.9
		h2.6c2.9,0,4.7,1.7,4.7,4.3c0,2.7-1.9,4.5-4.9,4.5h-2.4c-0.2,0-0.3-0.1-0.3-0.3v-8.2C231.1,67,231.2,66.9,231.4,66.9 M232.3,68.3
		v6.1c0,0.1,0,0.1,0.1,0.1h1.3c2.3,0,3.6-1.2,3.6-3.2c0-1.9-1.3-3.1-3.5-3.1h-1.4C232.4,68.1,232.3,68.2,232.3,68.3 M244.9,73.1
		h-3.4c-0.1,0-0.2,0-0.2,0.1l-0.9,2.1c-0.1,0.3-0.2,0.3-0.5,0.3h-0.6c-0.2,0-0.3,0-0.3-0.2c0-0.1,0-0.1,0.1-0.2l3.7-7.9
		c0.2-0.5,0.3-0.6,0.5-0.6c0.2,0,0.3,0.1,0.5,0.6l3.8,7.9c0,0.1,0.1,0.2,0.1,0.2c0,0.1-0.1,0.2-0.3,0.2h-0.7c-0.3,0-0.4-0.1-0.5-0.3
		l-1-2.1C245,73.1,245,73.1,244.9,73.1 M244.5,71.9c0,0,0-0.1,0-0.1l-1.3-2.8l-1.3,2.8c0,0,0,0.1,0,0.1c0,0,0,0.1,0.1,0.1h2.4
		C244.4,72,244.5,72,244.5,71.9 M181.8,74.8v0.6c0,0.2-0.1,0.3-0.3,0.3h-4.7c-0.2,0-0.3-0.1-0.3-0.3v-8.2c0-0.2,0.1-0.3,0.3-0.3h4.7
		c0.2,0,0.3,0.1,0.3,0.3v0.6c0,0.2-0.1,0.3-0.3,0.3h-3.6c-0.1,0-0.2,0-0.2,0.1v2.3c0,0.1,0,0.2,0.2,0.2h3.2c0.2,0,0.3,0.1,0.3,0.3
		v0.6c0,0.2-0.1,0.3-0.3,0.3h-3.2c-0.1,0-0.2,0-0.2,0.1v2.4c0,0.1,0,0.1,0.2,0.1h3.6C181.7,74.5,181.8,74.6,181.8,74.8 M189.7,66.9
		h0.7c0.2,0,0.3,0.1,0.3,0.3v8.2c0,0.3-0.1,0.4-0.2,0.4c-0.1,0-0.3-0.1-0.5-0.4l-5.1-6v6c0,0.2-0.1,0.3-0.3,0.3h-0.7
		c-0.2,0-0.3-0.1-0.3-0.3v-8.2c0-0.3,0.1-0.4,0.3-0.4c0.1,0,0.3,0.1,0.5,0.4l5.1,6v-6C189.4,67,189.5,66.9,189.7,66.9"/>
	<path class="st0" d="M172.9,60.5c0,0-0.3,0.9-0.5,1.6c-0.4,1.2-1.3,4.6-1.5,5.6c-0.3,1.5-1.2,5.6-1.2,5.6c-0.1,0.1-0.1,0.2-0.2,0.2
		c-0.4,0.2-0.5,0.1-0.9-0.1c-0.6-0.3-1-0.6-1.5-1.1c-0.8-1.1-0.6-3.1-0.5-4.4c0.6-4.2,1.2-6.1,2.8-10.3c0-0.1,0-0.1,0-0.1
		c-0.5-1.1-0.8-2.4-0.8-3.4c0-3.3,1.9-6.5,4-9.2c0.2-0.2,1.2-1.4,1.7-1.4c0.5,0,0.5,0.6,0.5,1c-0.2,1.5-1.3,3.1-2,4.3
		c-0.8,1.4-1,2-1.4,3.3c-0.1,0.2-0.2,1.2-0.2,1.3c0,0.3,0.1,0.8,0.1,0.8s1.3-1.9,2.2-3c0.5-0.6,0.8-1.1,1.2-1.5
		c0.4-0.5,2-2.1,2.4-2.5c0.9-0.9,1.4-1.3,2.4-1.8c0.8-0.4,1.5-0.5,2.3,0c1.3,0.8,1.8,2.6,1.9,4c0.2,1.7-0.2,3.6-0.9,5
		c-0.9,1.7-2.1,3-3.7,4.1c-1.7,1.1-3.6,1.9-5.6,1.8C173.2,60.6,172.9,60.5,172.9,60.5 M180.7,48.5c-1,0.8-2.3,2.5-2.9,3.4
		c-0.8,1.2-1.6,2.5-2.3,3.5c-0.2,0.2-0.6,1.1-0.6,1.1c0,0.1,0.5,0,1,0c1-0.2,2.4-0.9,3.2-1.5c1.1-0.9,1.9-2.2,2.3-3.7
		c0.2-0.7,0.3-2.1-0.2-2.7C181.1,48.4,180.8,48.3,180.7,48.5 M156.5,59.1c-0.1-0.1-0.3-0.3-0.4-0.4c0,0-0.4-0.6-0.5-0.8
		c-0.1-0.2-0.1-0.3-0.2-0.4c-0.4-0.9-0.3-1.8-0.1-2.8c0.2-0.9,0.4-1,0.8-2.2c0-0.1,0-0.1,0.1-0.2c0-0.2-0.3-1.3-0.3-1.7
		c0-0.6,0.4-1,1.2-1c0.1,0,0.1,0,0.2,0c0.3-0.1,0.5-0.6,0.6-1.1c0.2-0.6,0.6-1.6,0.6-1.6s-0.9-0.2-1.4-0.4c-0.6-0.2-1-0.5-1.2-1
		c-0.3-0.6-0.1-0.9,0.5-1.1c0.2-0.1,2-0.4,2.6-0.5c0.7-0.1,1.4-0.2,2.1-0.3c0.6-0.1,3.3-0.4,4.2-0.4c1.3,0,2.2,0.6,2.9,1.7
		c0.4,0.6,0.7,1.3,0.1,1.7c-1,0.6-4.1,0.6-4.6,0.6c-0.9,0-2.2,0-2.2,0l-0.6,2.1c0,0,2.2,0,3.5,0c0.3,0,0.6,0,0.8,0.1
		c0.6,0.1,0.9,0.6,0.9,1.3c0,0.8-0.1,1.2-0.8,1.3c-0.3,0.1-4.2,0.1-4.7,0.1c-0.3,0-0.7,0.1-0.7,0.1s-0.3,0.7-0.5,1.4
		c-0.2,0.8-0.5,1.5-0.5,1.5s0.2,0,0.4,0c0.3,0,0.5,0,0.8-0.1c1.2-0.2,2.9-0.5,4.3-0.7c0.8-0.1,1.1-0.2,1.5,0.3
		c0.3,0.4,0.5,0.8,0.6,1.4c0,0.5-0.4,0.8-0.8,1.2c-1.5,1.1-4.1,2.4-6,2.6c-0.9,0.1-1.1,0-1.9-0.2c-0.1,0-0.7-0.3-0.7-0.3
		C156.9,59.4,156.6,59.2,156.5,59.1 M141.7,59.3c-1.1-0.4-1.3-2.1-1.4-3c-0.2-2.9,0.6-6.9,1.5-9.6c0.3-0.8,0.7-2,1.5-1.9
		c0.6,0.1,1,0.5,1.3,1c0.8,1.2,2,2.8,2.7,3.9c0.8,1.3,1.6,2.5,2.4,3.7c0.1,0.1,0.2,0.3,0.3,0.4c0.1,0.1,0.3,0.1,0.3,0
		c0,0,0-1.5-0.1-1.8c-0.1-0.5-0.1-0.8-0.1-1.2c-0.1-1.2-0.5-2.8-0.8-3.9c-0.3-1.2-0.7-2.5-1-3.7c-0.1-0.4-0.2-0.8-0.2-1.2
		c0-0.5,0.3-0.8,0.9-0.6c1.1,0.4,2.6,2.8,3,3.6c0.1,0.3,0.7,1.7,0.8,2.1c0.4,1.4,0.7,2.7,0.9,4.1c0.1,1.4,0,3.6-0.6,5
		c-0.2,0.5-0.7,1.2-1.1,1.6c-0.6,0.6-1.8,1-2.6,0.5c-0.9-0.5-2.4-3.1-2.6-3.5c-0.9-1.5-2.3-4.4-2.6-4.8c-0.1-0.1-0.1-0.1-0.2-0.2
		c-0.1,0-0.1,0.2-0.1,0.3c-0.1,0.9-0.2,4.9-0.3,5c0,0.7-0.1,2.3-0.3,3.1c-0.1,0.5-0.3,1-0.7,1.2C142.3,59.6,142.1,59.5,141.7,59.3
		 M133.3,49.3c0.1,0,0.1,0,0.2,0c1.2,0.2,2.4,0.4,3.3,0.8c0.9,0.4,1.3,0.8,1.8,1.7c0.7,1.3,0.7,3.1,0.1,4.4c-0.5,1-1.5,1.9-2.4,2.3
		c-1,0.5-1.9,0.7-3,0.8c-1.9,0.2-4-0.2-5.7-1c-1-0.5-2.3-1.4-2.9-2.5c-0.5-0.8-0.5-1.9,0.1-2.6c0.9-1.2,2.8-1.5,4.3-1.4
		c1.1,0,3.1,0.4,4.1,0.8c0.3,0.1,1.4,0.5,1.6,0.7c0.1,0.1,0.2,0.3,0.2,0.5c-0.2,0.7-2,1.1-2.5,1.2c-1.4,0.2-2.1-0.3-3.7-0.9
		c-0.4-0.2-0.9-0.3-1.3-0.4c-0.7-0.1-1.6,0.1-1.7,0.9c-0.1,0.4,0.4,0.8,0.8,0.9c0.8,0.4,1.5,0.5,2.3,0.5c2.4,0,5.2-0.4,7.2-1.8
		c0.3-0.2,0.5-0.5,0.5-0.8c0-0.1-0.1-0.4-0.2-0.5c0,0,0,0-0.1,0c0,0-0.1-0.1-0.2-0.2c-0.1-0.2-0.7-0.4-0.8-0.5
		c-1.3-0.6-3.8-0.8-5.1-0.9c-1.3-0.1-3.5-0.3-4-0.4c-0.5-0.1-1.1-0.2-1.5-0.4c-0.5-0.2-0.9-0.7-1-1.2c-0.2-0.9,0.1-2,0.6-2.8
		c1.3-1.9,4.4-2.6,6.8-2.9c2.3-0.3,5.9-0.3,8.1,0.9c0.3,0.2,0.5,0.4,0.4,0.7c-0.1,0.7-0.7,1.1-1.3,1.3c-0.7,0.2-2,0.3-2.6,0.3
		c-2.7,0.2-5.9,0.1-8.5,0.8c-0.2,0.1-0.5,0.2-0.7,0.3c-0.4,0.4,0.7,0.6,1,0.6c0.1,0,0.1,0,0.2,0L133.3,49.3z M116.1,48.6
		c0.1,0.8-0.1,2.3-0.2,2.5c-0.1,0.5-0.4,1.5-0.5,1.6c-0.3,0.6-0.6,1.2-0.8,1.7c-0.5,0.9-1.7,2.3-2.4,2.9c-2.6,2.3-6.7,3.6-10.2,4
		c-2.4,0.3-5.1,0.2-7.6-0.2c-0.9-0.2-2.1-0.5-2.1-0.5s0,0.5,0,0.9c0,0.2-0.1,0.6-0.2,0.7c-0.2,0.4-0.5,0.6-0.9,0.7
		c-0.5,0.1-1.1,0.1-1.6-0.1c-0.8-0.3-1.1-1.1-1.2-1.9c-0.1-0.7-0.2-1.9-0.2-1.9s-0.6-0.3-1.1-0.5c-1.5-0.8-3-1.7-4.2-2.6
		c-0.3-0.3-1.9-1.5-2.2-1.8c-0.9-0.9-1.8-1.8-2.4-2.9c-0.5-0.9-0.6-1.7-0.3-2.6c0.5-1.3,2.4-2.3,3.7-2.8c0.9-0.4,3.9-1.4,5.1-1.5
		c0.6-0.1,1.5-0.2,1.5-0.3c0,0,0,0,0.1,0c0,0,0.1-1.3,0.1-1.8c0-0.5,0.3-3.5,0.5-4.2c0.1-0.3,0.3-1.7,0.6-2c0.2-0.2,0.5-0.2,0.7-0.1
		c1.4,0.9,1.8,3.9,1.9,5.4c0.1,0.9,0.1,2.3,0.1,2.3s1.6,0,2.6,0c1,0,2,0.2,3,0.3c1.3,0.2,3.7,0.7,5.2,1.5c1.2,0.6,2.3,1.6,2.6,2.6
		c0.3,1,0.3,1.6-0.2,2.5c-0.6,1-1.6,1.7-2.7,1.8c-0.3,0-1.5-0.1-1.9-0.4c-0.1-0.1-0.1-0.3,0-0.5c0-0.1,0.6-0.3,0.9-0.5
		c0.2-0.1,0.3-0.2,0.4-0.3c0.3-0.2,0.5-0.5,0.5-0.8c0-0.4-0.5-0.7-0.9-0.8c-1.9-0.8-5.8-1.4-7.7-1.5c-0.7,0-1.8-0.1-1.8-0.1
		l0.2,10.3c0,0,0.9,0.2,1.5,0.3c0.4,0.1,2,0.2,2.5,0.2c3.3,0.1,7.1-0.2,10.1-1.7c1.3-0.6,2.6-1.4,3.5-2.5c1.2-1.4,1.9-3.3,1.7-5.4
		c-0.2-2.2-1.7-4.8-3-6.4c-3.3-4.2-8.9-7.7-13.8-9.7c-5-2.1-10-3.3-15.3-3.5c-1.4-0.1-4.4,0-5.9,0.4c-0.2,0.1-0.4,0.1-0.6,0.2
		c-0.2,0-0.4,0.1-0.5,0.2c0,0-0.1,0.1-0.1,0.1s0.1,0.1,0.2,0.1c0.2,0.1,0.8,0.1,1.2,0.2c0.3,0.1,0.6,0.2,0.8,0.5
		c0.1,0.2,0.1,0.4,0,0.6c-0.3,0.4-1.6,0.3-2.2,0.3c-0.6-0.1-1.3-0.3-1.5-0.8c-0.2-0.6,0.1-1.2,0.4-1.8c0.6-1.1,1.5-1.7,2.8-2
		c1.9-0.5,4.2-0.9,6-0.9c4-0.2,7.8,0.5,11.6,1.7c2.2,0.7,5.1,1.8,7.2,2.8c1.5,0.7,3.9,2.1,5.3,3c0.4,0.3,2.9,2.1,3.3,2.4
		c0.8,0.7,1.9,1.6,2.6,2.4c1.5,1.5,3.3,3.7,4.2,5.5c0.2,0.4,0.4,0.8,0.7,1.3c0.1,0.2,0.5,1.2,0.6,1.5c0.1,0.3,0.2,0.7,0.2,0.7
		C116,47.4,116.2,48.3,116.1,48.6 M88.2,47.4c0,0-1.5,0.1-2.6,0.2c-1.3,0.1-3.8,0.6-5.3,1.1c-0.4,0.2-1.3,0.5-1.4,1
		c-0.1,0.5,0.2,0.8,0.5,1.2c0.2,0.2,1.2,1.2,1.5,1.5c1.2,1,3.7,2.6,5.5,3.4c0.6,0.3,1.7,0.6,1.7,0.6s-0.1-3-0.1-5.9
		C88.2,48.9,88.2,47.4,88.2,47.4 M119.9,43.8c0.1,0,0.2,0,0.2,0.1c0.7,0.3,1,0.9,1.2,1.6c0.4,1.7,0.6,5.3,0.6,6.8
		c0,1.1,0.1,2.1,0.1,3.2c0,0.9,0.1,2.1-0.1,2.9c-0.1,0.3-0.3,0.7-0.6,0.8c-0.3,0.2-1.1,0.2-1.5,0.1c-1-0.2-1.4-0.9-1.5-1.9
		c-0.4-2.4-0.2-7.2,0-9.2c0.1-0.7,0.3-2.8,0.7-3.7C119.2,44.3,119.5,43.7,119.9,43.8 M23.3,54.9c0,0,0.2,0.3,0.3,0.5
		c0.7,1.2,1.9,1.9,3.4,2c1.5,0.1,3.3-0.8,4.4-1.5c3.1-2.1,4.7-6,5.6-9.7c1-4.3,1.1-8.9-0.2-13c-0.7-2.4-2.1-5.5-3.8-7.3
		c-0.5-0.5-1.3-1.3-1.5-1.6c-0.2-0.3-0.3-0.6,0.1-0.8c0.4-0.2,1.2,0.2,1.6,0.5c2,1.2,3.3,2.4,4.5,4.2c0.3,0.4,1.5,2.4,1.7,2.9
		c1.4,2.6,2,4.8,2.4,7.6c0.5,3.6,0.2,7.7-1.1,11.3c-0.5,1.6-1.4,3.2-2.3,4.6c-0.2,0.3-1.5,2-1.6,2.2c-0.4,0.5-1.5,1.4-2,1.8
		c-2.5,2-5.3,3.4-8.2,3c-1.6-0.2-3-0.8-4.3-1.8c-0.5-0.4-1.4-1.3-1.7-1.9C20.3,57.5,20,57,20,57c0,0-0.2,0.1-0.3,0.2
		c-0.1,0.1-0.7,0.4-1,0.5c-2.1,0.8-4.4,0.6-6.2-0.6c-1.4-0.9-2.5-2.6-3-4.1c-0.8-2.3-0.8-4.6-0.5-7c0.5-4.1,2-8,4.2-11.4
		c1.4-2.2,3.2-4.3,5.3-5.8c0.2-0.2,1.6-0.9,1.8-1.1c0.5-0.2,1.1-0.4,1.5,0c0.2,0.2,0.2,0.4,0,0.6c-0.2,0.4-0.8,1-1.1,1.3
		c-0.3,0.3-1.9,2.2-2.2,2.7c-0.4,0.5-2,2.9-2.2,3.3c-2,3.5-3.6,9.1-3.5,13.4c0,0.9,0.2,2.2,0.4,3c0.3,1.1,0.9,2.7,1.9,3.4
		c1.1,0.8,2,0.7,3.3,0.2c0.3-0.1,0.8-0.4,0.8-0.4s-0.4-0.9-0.6-1.7c-0.7-2-0.9-5.1-0.7-7.3c0.2-1.8,0.6-3.1,1.4-4.6
		c0.6-1.1,1.5-2.2,2.6-3.2c1-0.9,2.7-1.7,4.2-1.7c1.2,0,2.5,0.5,3.1,1.6c1.1,1.9,1.2,5,0.9,6.9c-0.5,3-2,5.9-4.3,7.8
		C24.9,53.8,23.3,54.9,23.3,54.9 M26.3,41.8c0,0,0-0.9-0.1-1.4c-0.1-0.4-0.1-0.7-0.3-1.1c-0.2-0.4-0.4-0.6-0.7-0.6
		c-0.4-0.1-0.7,0.2-0.9,0.7c-0.4,0.6-0.7,1.6-0.9,2.3c-0.3,0.9-0.4,1.5-0.6,2.6c-0.3,1.8-0.5,4.8-0.2,6.8c0.1,0.4,0.1,0.9,0.1,0.9
		s0.4-0.5,0.7-0.8c0.1-0.1,0.8-1.1,0.8-1.2c0.1-0.2,0.4-0.7,0.4-0.8c0.1-0.1,0.5-1.1,0.6-1.3c0.2-0.4,0.4-1.1,0.6-1.7
		c0.4-1.2,0.3-1.7,0.6-3.1C26.4,42.9,26.4,41.8,26.3,41.8L26.3,41.8 M42.2,50.9c0,0,0.4-0.9,0.7-1.5c0.3-0.7,1.9-3.9,2.5-4.8
		c0.7-1,2.1-2.9,2.1-2.9c0-0.2,0.1-0.6,0.3-0.9c0.2-0.2,0.5-0.3,0.9-0.4c0.4,0,0.8,0.3,1,0.6c0.3,0.6,0.9,2.4,1.1,2.8
		c0.7,2.4,1.4,6.8,1.7,9.1c0.1,0.6,0.3,3.7,0.3,4.4c0,0.5,0,1.3-0.3,1.7c-0.1,0.2-0.3,0.3-0.5,0.3c-0.3,0-0.8-0.4-1-0.6
		c-0.6-0.6-1.1-1.2-1.2-2c-0.1-0.7-0.3-2.5-0.3-2.5l-2.8,0.1l-1.5,0c0,0-0.1,0.4-0.3,0.7c-0.3,0.6-0.5,1.3-0.6,1.7
		c-0.2,0.7-0.6,2.2-0.7,2.4c-0.2,0.5-0.4,0.7-0.8,0.8c-0.5,0.1-0.9,0.1-1.2-0.1c-0.7-0.4-1-1.2-1.1-2c-0.2-1.4,0.4-2.6,1-4.2
		c0.2-0.7-0.1-0.9-0.7-1.9c-0.1-0.1-0.2-0.2-0.2-0.3c0-0.1,0.1-0.3,0.2-0.4c0,0,0.1,0,0.1,0L42.2,50.9z M46.5,50.8c0,0,0.2,0,0.5,0
		c0.8,0,2.1-0.2,2.1-0.2s-0.1-1.2-0.3-1.9c-0.1-0.5-0.1-0.8-0.3-1.2c-0.1-0.2-0.2-0.7-0.3-0.9c0,0-0.1-0.1-0.1-0.1s-0.6,1.2-1,2.1
		c-0.3,0.7-0.4,1.2-0.6,1.6c0,0.1-0.1,0.2-0.1,0.3C46.5,50.7,46.5,50.8,46.5,50.8 M62.3,52.2c0,0,0.1,0,0.1,0
		c0.6,0.2,0.6,1.3,0.4,1.7c-0.4,1.3-1.6,2.6-2.5,3.2c-0.6,0.4-1.7,0.9-2.6,1.1c-1.3,0.2-2.4-0.1-3.1-1.1c-0.6-1-0.9-2.1-1-3.2
		c-0.1-3.2,0.9-7.8,2.1-10.5c0.2-0.4,1-2,1.7-2.3c0.8-0.3,1.1,0.6,1.2,1.3c0.1,0.8-0.2,2-0.4,2.9c-0.4,1.6-0.9,4.1-1.1,4.8
		c-0.1,0.8-0.4,2.4-0.3,3.2c0.1,0.4,0.1,0.7,0.5,0.6c0.2,0,2.3-1,3.4-1.4C61.2,52.4,61.8,52.2,62.3,52.2 M74,42.6
		c0.5,0.6,0.7,1.3,0.8,2.1c0.1,0.8-0.2,1.5-0.6,2.1c-0.8,1-2,1.5-3.3,1.6c-0.2,0-1.2,0-1.5,0c0,0-0.1,0-0.1,0c0,0-0.2,0.7-0.2,1
		c-0.1,0.9-0.3,1.5-0.4,2.2c-0.1,0.5-0.1,1.1-0.2,1.7c-0.3,3.4-0.2,5.1,0.1,8.4c0,0.2,0,0.4,0,0.6c-0.1,0.4-0.3,0.7-0.7,0.8
		c-1.2,0.3-2.3-0.8-2.9-1.8c-1.3-2.2-0.9-6.6-0.5-8.8c0.2-0.9,0.6-2.9,0.9-3.6c0.2-0.4,0.4-1.2,0.4-1.2c0,0-0.6-0.3-1.2-0.5
		c-0.2-0.1-0.9-0.4-1.2-0.6c-0.6-0.4-1.1-0.7-1.5-1.2c-0.1-0.2-0.6-0.8-0.6-0.9c-0.4-0.8-0.4-1.5-0.1-2.3c0.1-0.2,0.5-1.1,0.8-1.1
		c0.4,0,0.3,0.7,0.4,1.1c0,0.1,0.1,0.3,0.2,0.4c0.6,0.7,2.5,1.4,3.3,1.7c0.1,0,1.4,0.4,1.5,0.3c0,0,0.3-0.4,0.4-0.7
		c0.1-0.1,0.2-0.2,0.3-0.4c0.8-0.8,1.9-1.6,3-1.8c0.5-0.1,1.4,0,1.9,0.3C73.1,42,73.5,42.1,74,42.6 M70.3,44.8c0.8,0,1.3-0.1,2-0.4
		c0.4-0.2,0.8-0.5,0.6-0.9c-0.1-0.3-0.6-0.3-0.8-0.3C71.2,43.2,70.6,43.9,70.3,44.8C70.3,44.8,70.3,44.8,70.3,44.8 M118.1,40.7
		c-0.1,0.1-0.3,0.5-0.4,0.7c-0.1,0.1-0.2,0.3-0.3,0.4c-0.3,0.2-0.6,0.3-1,0c-0.5-0.4-0.7-1-0.8-1.7c0-0.3,0-0.6,0-0.8
		c-0.1-0.4-0.5-0.8-0.7-1.1c-0.2-0.4-0.4-1.2-0.5-1.7c-0.1-1.5,0.7-2.9,1.7-4c1-1.1,2.4-2,3.9-2.7c1.4-0.6,3.5-1,5-0.5
		c0.5,0.2,1.2,0.6,1.5,1c0.1,0.1,0.1,0.2,0.2,0.2c0.1,0,0.2,0.1,0.4,0.1c0.5,0.1,1.2,0.5,1.5,0.7c0.6,0.5,0.9,1,1,1.7
		c0.3,1.4-0.5,2.9-1.4,3.9c-1.6,1.6-3.1,2.7-5.1,3.5c-0.9,0.3-2.2,0.7-3.2,0.6c-0.3,0-0.6-0.1-0.9-0.1c-0.2,0-0.7-0.2-0.8-0.2
		C118.2,40.7,118.2,40.7,118.1,40.7 M121.5,38.2c1.3-0.1,2.5-0.5,3.7-1.1c1.1-0.6,2.8-1.8,2.6-3.3c-0.1-0.5-0.4-0.8-0.7-1
		c-0.5-0.2-0.8-0.2-1.4,0c-0.5,0.1-0.7,0.2-1.1,0.5c-1.3,0.7-3.1,2.3-4.1,3.6c-0.2,0.3-0.5,0.6-0.6,0.9c-0.1,0.1-0.2,0.3-0.2,0.3
		C119.6,38.3,121,38.3,121.5,38.2 M116.9,37c0,0,0.4-0.7,0.8-1.1c0.7-0.9,1.9-2.2,2.8-2.9c0.3-0.2,0.6-0.5,0.6-0.5s-0.5,0.1-0.8,0.1
		c-0.7,0.1-1.7,0.8-2.2,1.2c-0.8,0.7-1.7,1.9-1.3,2.9C116.8,36.8,116.9,37,116.9,37 M213,36.9h-6.4v0.6c1.1,0.1,2.2,0.2,2.2,1.6
		c0,0.7-0.3,1.7-0.5,2.5l-4.1,11.5l-4.3-11.6c-0.5-1.3-0.9-2.1-0.9-2.7c0-1.2,1.5-1.3,2.5-1.3v-0.6h-8.7v0.6c1.7,0,2.2,0.2,3.3,3.1
		l1.1,2.8l-3.5,9.6l-4.7-12.8c-0.2-0.4-0.4-1-0.4-1.5c0-0.9,0.7-1.1,2.1-1.2v-0.6h-8v0.6c1.9,0.2,2.3,1.2,3.4,4
		c1.2,3.4,4.6,13.1,6.3,18.3h0.5l5-14.4c1.4,3.7,4.1,10.9,5.2,14.4h0.5c1.9-6.6,4.5-13.9,6.8-20.2c0.5-1.3,1-1.8,2.6-2.1V36.9z
		 M216.3,43.7c-4.4,0-7,3.7-7,7.9c0,4.6,2.9,8.1,7.1,8.1c4.9,0,7.2-4.7,7.2-8.1C223.6,46.7,220.5,43.7,216.3,43.7 M216.8,58.8
		c-3.9,0-4.7-6.3-4.7-8.8c0-3.5,1.8-5.3,3.8-5.3c3,0,4.7,3.7,4.7,7.9C220.7,57.5,218.5,58.8,216.8,58.8 M226.5,56.6
		c0,1.9-0.5,2-2.3,2.4v0.5h7.8v-0.5c-1.7-0.1-2.8-0.2-2.8-2.6v-7.7c0-1.1,1.4-2.8,2.2-2.8c0.8,0,1.1,1.2,2.2,1.2
		c0.8,0,1.2-0.6,1.2-1.5c0-1.1-0.7-1.8-1.8-1.8c-1.2,0-2.3,0.7-3.9,3.1h-0.1v-3l-0.2-0.1c-1.6,0.7-3.2,1.3-4.8,1.8v0.5
		c0.3-0.1,0.7-0.1,1.1-0.1c0.5,0,1.1,0,1.1,2V56.6z M234.4,59.4h7.7v-0.5c-1.9-0.1-2.4-0.4-2.4-2.4V36.2l-0.1-0.1
		c-1.7,0.6-3.5,1.1-5.2,1.5v0.5c0.4,0,0.7-0.1,1.1-0.1c1.3,0,1.5,0.5,1.5,2.1v16.2c0,1.9-0.6,2.3-2.5,2.5V59.4z M257.3,57.4
		c-2.2,0.2-2.2-0.5-2.2-1.9V36.2l-0.2-0.1c-1.6,0.6-3.2,1.1-4.8,1.5v0.5c0.3,0,0.6,0,0.8,0c1.4,0,1.4,0.7,1.4,1.7v5.3
		c-1.1-1-2.1-1.5-3.5-1.5c-3.6,0-6.7,3.9-6.7,8.4c0,6.9,4.7,7.6,5.9,7.6c2.4,0,3.6-1.3,4.2-2.2h0.1v2.1l0.1,0.1
		c1.7-0.6,3.2-1.2,4.8-1.8V57.4z M252.4,55.9c-0.3,1.2-1.5,2-2.9,2c-2.1,0-4.5-1.9-4.5-7c0-4.6,2.2-6.3,4-6.3c1.5,0,3.1,1.1,3.4,3.4
		V55.9z"/>
</g>
</svg>
