<?xml version="1.0" encoding="utf-8"?>
<!-- Generator: Adobe Illustrator 26.5.0, SVG Export Plug-In . SVG Version: 6.00 Build 0)  -->
<svg version="1.1" id="Layer_2" xmlns="http://www.w3.org/2000/svg" xmlns:xlink="http://www.w3.org/1999/xlink" x="0px" y="0px"
	 viewBox="0 0 548.2 63" style="enable-background:new 0 0 548.2 63;" xml:space="preserve">
<style type="text/css">
	.st0{fill:#F58220;}
	.st1{fill:#FFFFFF;}
	.st2{fill:none;stroke:#FFFFFF;stroke-miterlimit:10;}
</style>
<g>
	<g>
		<path class="st0" d="M513.6,2.3c-1.6,0-2.9,1-3.4,2.4h-8.2c-0.5-1.4-1.8-2.4-3.4-2.4c-2,0-3.6,1.6-3.6,3.6c0,2,1.6,3.6,3.6,3.6
			c1.6,0,2.9-1,3.4-2.5h8.2c0.5,1.4,1.8,2.5,3.4,2.5c2,0,3.6-1.6,3.6-3.6C517.2,3.9,515.6,2.3,513.6,2.3z"/>
		<path class="st1" d="M368.9,25.4c-1.7,0-3.4-0.8-3.4-2.7V12.4h-4.8v10.4c0,3.9,3.3,6.5,8.2,6.5c5.1,0,8.3-2.5,8.3-6.5V12.4h-4.8
			v10.4C372.3,24.4,371,25.4,368.9,25.4z"/>
		<path class="st1" d="M396.6,19.7L396.6,19.7L396.6,19.7c1.4-0.9,2.2-2.1,2.2-3.3c0-0.8-0.4-1.6-1-2.3c-1.1-1.1-2.9-1.7-5.3-1.7
			H382v16.4h10.8c2.6,0,4-0.4,5.2-1.6c1-1,1.5-2.2,1.5-3.5C399.6,21.9,398.6,20.7,396.6,19.7z M391.8,16c0.8,0,1.3,0.2,1.7,0.5
			c0.2,0.2,0.3,0.5,0.3,0.8c0,0.4-0.1,0.7-0.4,1c-0.3,0.3-0.8,0.4-1.6,0.4h-4.9V16 M394.2,24.7c-0.4,0.4-0.9,0.5-1.7,0.5h-5.6V22
			h5.6c1.1,0,1.5,0.3,1.7,0.6c0.3,0.3,0.4,0.7,0.4,1.1C394.6,24.2,394.3,24.6,394.2,24.7z"/>
		<path class="st1" d="M425.8,14.4c-1.2-1.3-3.1-2-5.6-2h-9.8v16.4h4.8v-5.7h4.9c2.5,0,4.2-0.6,5.5-1.8c1-0.9,1.5-2.2,1.5-3.5
			C427.2,16.5,426.7,15.3,425.8,14.4z M421.9,18.9c-0.5,0.5-1.2,0.5-1.4,0.5h-5.2v-3.3h5.2c0.4,0,1.1,0.1,1.5,0.5
			c0.3,0.3,0.4,0.7,0.4,1.1C422.4,18.1,422.2,18.6,421.9,18.9z"/>
		<polygon class="st1" points="480.8,20.7 480.8,20.6 475.5,12.4 471.1,12.4 471.1,28.8 475.8,28.8 475.8,21.1 476,21.1 476,21.1 
			479.8,26.9 481.6,26.9 485.4,21.1 485.6,21.1 485.6,28.8 490.4,28.8 490.4,12.4 486.2,12.4 480.9,20.7 		"/>
		<rect x="495.5" y="12.4" class="st1" width="4.8" height="16.4"/>
		<path class="st1" d="M350.8,25.1V12.4h-4.6v13.7c0,0-0.2,2.6,2.1,2.6h10.2v-3.6H350.8z"/>
		<path class="st1" d="M509.9,25.2v-2.8h8.8v-3.5h-8.8v-2.6h10.2v-3.9h-14.8v13.8c0,0,0,2.6,2.2,2.6h13.3v-3.6H509.9z"/>
		<path class="st1" d="M456,25.2v-2.8h8.8v-3.5H456v-2.6h10.2v-3.9h-14.8v13.8c0,0,0,2.6,2.2,2.6h13.2v-3.6H456z"/>
		<path class="st1" d="M341.8,24.7c-1.5-1.4-3.9,0-3.9,0c-1.1,0.5-2.2,0.8-3.2,0.8c-3.2,0-5.6-2.1-5.6-5c0-2.9,2.3-4.9,5.4-4.9
			c1.1,0,2.3,0.3,3.5,0.9c0,0,1.8,1,3.2-0.7l1.2-1.2c-2.4-1.7-5.6-2.7-8.6-2.7c-5.5,0-9.6,3.7-9.6,8.6c0,5,4.1,8.6,9.7,8.6
			c4.4,0,7.5-2,9-3.2L341.8,24.7z"/>
		<path class="st1" d="M444,22.3c2-1,3.2-2.6,3.2-4.6c0-1.4-0.6-2.6-1.5-3.5c-1.1-1.1-2.8-1.9-5.6-1.9h-9.8v16.5h4.9v-5.7h4l2.4,4.1
			c0,0,0.9,1.5,2.8,1.5h3.6L444,22.3z M441.8,18.9c-0.3,0.3-0.8,0.5-1.4,0.5h-5.2v-3.2h5.2c0.5,0,1.1,0.1,1.5,0.5
			c0.3,0.3,0.4,0.7,0.4,1.1C442.3,18.1,442.1,18.6,441.8,18.9z"/>
		<path class="st1" d="M538.6,22.3c2-1,3.2-2.6,3.2-4.6c0-1.4-0.6-2.6-1.5-3.5c-1.1-1.1-2.8-1.9-5.6-1.9h-9.8v16.5h4.9v-5.7h4
			l2.4,4.1c0,0,0.9,1.5,2.8,1.5h3.6L538.6,22.3z M536.4,18.9c-0.3,0.3-0.8,0.5-1.4,0.5h-5.2v-3.2h5.2c0.5,0,1.1,0.1,1.5,0.5
			c0.3,0.3,0.4,0.7,0.4,1.1C536.9,18.1,536.7,18.6,536.4,18.9z"/>
	</g>
	<path class="st1" d="M425.2,44.1c0.5,0,0.9,0.2,1.1,0.3c0.6,0.3,1.3,0.6,2.1,1c0,0,1.4-1,1.5-1c0.5-0.3,0.9-0.1,1.1,0.2
		c0.5,1,1.5,3,2,4.9c0.1,0.2,0,0.6-0.4,0.7c-0.2,0.1-0.5,0.1-0.9,0.2c-0.5,0.1-0.5,0.5-0.5,0.7c0,0.3,0,2.4,0,3
		c0,0.4-0.3,1.8-1.9,1.8c-0.1,0-3.7,0-3.7,0c-1.4,0-2.5-1.2-2.5-2.4c0-0.8,0-6.6,0-7.2C423.1,45,424.2,44.1,425.2,44.1"/>
	<path class="st1" d="M419.4,55.9h-12v1.3h14.1c0,0,0.5-1.2,0.5-2.5c0-0.1,0-9.1,0-9.1c0-0.7,0.3-1.9,1.8-2.2c0,0,0.1,0,0.1,0
		c4.2-1,8.5-0.1,10.9,1c0.4,0.2,0.5-0.1,0.5-0.3c0.1-2-1.5-4.4-4.3-4.5c-2.3-0.1-3.6,0.8-4.1,1c0,0-0.1,0-0.1-0.1
		c-0.4-0.4-1.3-1-2.4-1.3c-0.2,0-0.2-0.3,0-0.3c2.2-0.2,4.1,0,4.9,0.1c0.2,0,0.3-0.1,0.2-0.2c-0.1-0.1-0.1-0.2-0.2-0.4
		c-0.2-0.4-0.7-0.9-1.4-1c-1.7-0.5-4.7-0.9-7.3-0.9c-2.9,0-6,0.6-6.8,0.7c-0.2,0-0.5,0.1-0.5,0.1c-0.2,0-0.3,0.2-0.2,0.3
		c0.1,0.1,0.2,0.2,0.3,0.3c0.1,0.1,0.1,0.3,0,0.5l-5.4,4.9h3.7l0,0c0.2,0,0.5,0.2,0.5,0.5c0,0.2-0.2,0.5-0.5,0.5l0,0h-4.8l-1.5,1.3
		h6.3l0,0c0.2,0,0.4,0.3,0.4,0.5c0,0.2-0.2,0.5-0.4,0.5h0h-7.4l-1.5,1.3h12.8l0,0c0.3,0,0.4,0.3,0.5,0.5c0,0.3-0.2,0.5-0.4,0.5l0,0
		h-12.8v1.3h12.8l0,0c0.3,0,0.5,0.3,0.5,0.5c0,0.2-0.2,0.5-0.5,0.5h0h-12.8l0,1.3h16.7l0,0c0.3,0,0.5,0.2,0.4,0.5
		c0,0.2-0.2,0.5-0.4,0.5l0,0h-12.2v1.3h12h0.3c0.2,0,0.4,0.3,0.4,0.5c0,0.2-0.2,0.5-0.4,0.5H419.4z"/>
	<path class="st1" d="M411.9,60.5l0,1.4c0,0,1.8,0,2.8,0c2.5,0,4.2-1.4,4.2-1.4H411.9z"/>
	<path class="st1" d="M411.9,58.2l0,1.3h8.2c0.4-0.4,0.9-1.1,1-1.3H411.9z"/>
	<path class="st1" d="M543.5,49.9C543.5,49.9,543.5,49.9,543.5,49.9c-0.1-1.1-0.4-2-0.9-2.8c-1-1.6-2.8-2.4-4.9-2.4
		c-2.1,0-3.9,0.8-4.9,2.4c-0.5,0.7-0.8,1.6-0.9,2.7c0,0,0,0,0,0.1c-0.3,3.5,1.7,5.9,5.2,6.2c0.2,0,0.4,0,0.6,0c0.2,0,0.4,0,0.6,0
		C541.8,55.8,543.8,53.4,543.5,49.9 M538,54.5c-0.1,0-0.2,0-0.3,0s-0.2,0-0.3,0c-0.5,0-0.9-0.2-1.3-0.5c-0.1-0.1-0.2-0.2-0.3-0.3
		c-0.5-0.6-0.8-1.6-0.9-2.4c-0.2-1.9,0.2-4.6,2.5-4.8c0.1,0,0.1,0,0.2,0h0h0c0.1,0,0.1,0,0.2,0c2.3,0.2,2.7,2.9,2.5,4.8
		c-0.1,0.8-0.3,1.8-0.9,2.4c-0.1,0.1-0.2,0.2-0.3,0.3C538.9,54.2,538.4,54.4,538,54.5"/>
	<path class="st1" d="M520.5,47.3c0-0.9,0.1-2.4,0.1-2.4h0h-2.8h0c0,0,0.1,1.5,0.1,2.4l0,6.2c0,0.9-0.1,2.3-0.1,2.3h0h2.8h0
		c0,0-0.1-1.5-0.1-2.3L520.5,47.3z"/>
	<path class="st1" d="M503.9,54.2h-2c0-1.1,0-2.2,0-3.1l0-0.1h0v0h3.3v-1.5h-3.3c0-1.7,0-2.8,0-2.8l4.1,0V45c-2.8,0-6.9,0-6.9,0
		s0.1,1.5,0.1,2.4v6.2c0,0.8-0.1,2.1-0.1,2.4h7.2l0-1.7C506.3,54.1,504.9,54.2,503.9,54.2"/>
	<path class="st1" d="M456.6,54.2h-2c0-1.1,0-2.2,0-3.1v-0.2v0h3.3v-1.5h-3.3c0-1.7,0-2.8,0-2.8l4.1,0V45c-2.8,0-7,0-7,0
		s0.1,1.5,0.1,2.4v6.2c0,0.8-0.1,2.1-0.1,2.4h7.2l0-1.7C459,54.1,457.6,54.2,456.6,54.2"/>
	<path class="st1" d="M513.2,50l3.1-5h-2.2l0,0c-0.7,1.1-1.5,2.5-1.8,3l-0.1,0.2l-1.8-3.3h-3.3l3.1,5.6l-3.3,5.3h2.2
		c1.4-2.4,2.1-3.5,2.1-3.5l1.9,3.5h3.2L513.2,50z"/>
	<path class="st1" d="M529.4,54.4c-2.5,0-3.9-1.9-3.8-4.1c0.1-2,1-3.7,3.1-3.8c0.8-0.1,1.5,0.1,2.7,0.4l-0.1-1.7c0,0-1-0.3-2.4-0.4
		c-1.8-0.1-3.4,0.3-4.7,1.5c-1.2,1.1-1.8,2.6-1.8,4.2c0,1.7,0.7,3.2,2,4.3c1.4,1.1,2.8,1.4,4.5,1.4c1.1,0,1.8-0.1,2.9-0.4l-0.2-1.7
		C531.3,54.1,530.5,54.4,529.4,54.4"/>
	<path class="st1" d="M492.9,43.3l3.2,0l0.1,0.7c0.7,7.3,1.1,11.8,1.1,11.8H494l-0.3-4.5l-0.3-4l-2.8,8.5c-0.7,0-1.8,0-1.8,0
		s-0.9-3-1-3.5l-1.6-5.1c0,0-0.2,2.9-0.3,4.1c-0.2,2.4-0.4,4.5-0.4,4.5H483c0,0,1-10.2,1.1-10.8c0.1-0.6,0.2-1.7,0.2-1.7h3.2
		l2.7,7.3L492.9,43.3z"/>
	<path class="st1" d="M481.7,49.9C481.7,49.9,481.7,49.9,481.7,49.9c-0.1-1.1-0.4-2-0.9-2.7c-1-1.6-2.8-2.4-4.9-2.4
		c-2.1,0-3.9,0.8-4.9,2.4c-0.5,0.7-0.8,1.6-0.9,2.7c0,0,0,0,0,0.1c-0.3,3.5,1.7,5.9,5.2,6.1c0.2,0,0.4,0,0.6,0c0.2,0,0.4,0,0.6,0
		C480,55.8,482,53.4,481.7,49.9 M476.2,54.5c-0.1,0-0.2,0-0.3,0c-0.1,0-0.2,0-0.3,0c-0.5,0-0.9-0.2-1.3-0.5
		c-0.1-0.1-0.2-0.2-0.3-0.3c-0.5-0.6-0.8-1.6-0.9-2.4c-0.2-1.9,0.2-4.6,2.5-4.8c0.1,0,0.1,0,0.2,0h0h0c0.1,0,0.1,0,0.2,0
		c2.3,0.2,2.7,2.9,2.5,4.8c-0.1,0.8-0.3,1.8-0.9,2.4c-0.1,0.1-0.2,0.2-0.3,0.3C477.1,54.2,476.7,54.4,476.2,54.5"/>
	<path class="st1" d="M451.1,55.9c-0.1-0.2-0.7-1.6-1.1-2.7l-3.7-9.8h-2.9c0,0-0.8,2.3-0.9,2.7l-2.7,7.6c-0.4,1-0.8,2.2-0.8,2.2h2.3
		c0,0,0.7-2.1,0.8-2.5l0.4-1.1h4.1l0.6,1.6c0.1,0.3,0.6,1.9,0.6,1.9H451.1z M443.1,50.5l1.4-4.1l0.1-0.2l1.4,4.3H443.1z"/>
	<path class="st1" d="M470.3,55.9c-0.7-1-0.9-1.4-1.4-2.1l-2-3c0.9-0.5,1.8-1.2,2-2.9c0.1-1-0.5-1.9-0.8-2.2
		c-0.5-0.4-0.9-0.6-1.6-0.7c-0.5-0.1-0.9-0.1-1.2-0.1h-4.6c0,0,0.1,1.5,0.1,2.4v6.2c0,0.9-0.1,2.4-0.1,2.4h2.8c0,0-0.1-1.5-0.1-2.4
		l0-2c0,0,0.6,0,1.1,0l1.8,3.3c0.2,0.4,0.6,0.9,0.7,1.1H470.3z M465.3,49.8c-0.4,0.2-1.4,0.2-1.9,0.1l0-3.1l0.3,0
		c0.9-0.1,1.5,0.1,1.8,0.2c0.4,0.2,0.6,0.5,0.6,1.2C466.2,49,465.8,49.5,465.3,49.8"/>
	<path class="st1" d="M543.2,54.8c0-0.6,0.5-1.1,1.1-1.1c0.6,0,1.1,0.5,1.1,1.1c0,0.6-0.5,1.1-1.1,1.1
		C543.7,55.9,543.2,55.4,543.2,54.8 M545.1,54.8c0-0.5-0.4-0.9-0.8-0.9c-0.4,0-0.8,0.4-0.8,0.9c0,0.5,0.4,0.9,0.8,0.9
		C544.7,55.7,545.1,55.3,545.1,54.8 M543.9,54.2h0.5c0.3,0,0.4,0.1,0.4,0.4c0,0.2-0.1,0.3-0.3,0.3l0.3,0.5h-0.2l-0.3-0.5h-0.1v0.5
		h-0.2V54.2z M544.1,54.7h0.2c0.1,0,0.3,0,0.3-0.2c0-0.1-0.1-0.2-0.2-0.2h-0.2V54.7z"/>
	<path class="st1" d="M543.2,27.7c0-0.6,0.5-1.1,1.1-1.1c0.6,0,1.1,0.5,1.1,1.1c0,0.6-0.5,1.1-1.1,1.1
		C543.7,28.8,543.2,28.3,543.2,27.7 M545.1,27.7c0-0.5-0.4-0.9-0.8-0.9c-0.4,0-0.8,0.4-0.8,0.9c0,0.5,0.4,0.9,0.8,0.9
		C544.7,28.5,545.1,28.2,545.1,27.7 M543.9,27.1h0.5c0.3,0,0.4,0.1,0.4,0.4c0,0.2-0.1,0.3-0.3,0.3l0.3,0.5h-0.2l-0.3-0.5h-0.1v0.5
		h-0.2V27.1z M544.1,27.6h0.2c0.1,0,0.3,0,0.3-0.2c0-0.1-0.1-0.2-0.2-0.2h-0.2V27.6z"/>
	<path class="st1" d="M513.3,59.2c-21.2-4.6-30.3,2.6-30.3,2.6s9.9-5.8,30.3-1.4c20.8,4.5,30.2-2.8,30.2-2.8S533,63.5,513.3,59.2"/>
</g>
<g>
	<g>
		<path class="st1" d="M241.1,50.3c0,1-0.8,1.8-1.8,1.8c-1,0-1.9-0.8-1.9-1.8c0-1,0.8-1.8,1.9-1.8C240.3,48.5,241.1,49.3,241.1,50.3
			z M237.9,50.3c0,0.8,0.6,1.4,1.4,1.4c0.8,0,1.4-0.6,1.4-1.4c0-0.8-0.6-1.5-1.4-1.4C238.4,48.9,237.9,49.6,237.9,50.3z M239,51.3
			h-0.4l0-1.8c0.2,0,0.4-0.1,0.7-0.1c0.3,0,0.5,0.1,0.6,0.1c0.1,0.1,0.2,0.2,0.2,0.4c0,0.2-0.2,0.4-0.4,0.4v0
			c0.2,0.1,0.3,0.2,0.3,0.4c0.1,0.3,0.1,0.4,0.1,0.5h-0.5c-0.1-0.1-0.1-0.2-0.1-0.4c0-0.2-0.1-0.3-0.4-0.3H239L239,51.3z M239,50.3
			h0.2c0.2,0,0.4-0.1,0.4-0.3c0-0.2-0.1-0.3-0.4-0.3c-0.1,0-0.2,0-0.2,0V50.3z"/>
	</g>
	<path class="st1" d="M33.9,52.2l8.5,0l-0.1-30l-8.5,0L33.9,52.2z M38.2,9c-2.6,0-4.6,2.2-4.6,4.5c0,2.6,2,4.6,4.6,4.6
		c2.5,0,4.5-2.1,4.5-4.6C42.7,11.1,40.6,9,38.2,9z M65.9,21.5c-3.9,0-7.2,1.7-9,4.5l0-3.8l-8.5,0l0.1,30l8.5,0l0-17.8
		c0-3.2,2.8-5.8,6.3-5.8c3.4,0,5.7,2.5,5.7,6.2l0,17.3l8.2,0l0-19.1C77,26.3,72.4,21.5,65.9,21.5z M96.1,21.4
		c-8.8,0-15.4,6.6-15.4,15.6c0,9.2,7,15.8,15.9,15.7c4.4,0,9.6-1.9,12.2-4.7l-5.4-5.5c-1.6,1.6-4.5,2.7-6.9,2.7
		c-3.5,0-6.1-2.2-7.1-5.4l21.6,0C111.1,28.5,105.5,21.4,96.1,21.4z M89.6,33.8c1.1-3,3.8-4.9,6.9-4.9c3.4,0,5.6,1.9,6.4,4.9
		L89.6,33.8z M103.3,11.6l-8.5,0l-3.1,6.4l8.5,0L103.3,11.6z M205.7,8.7c-2.6,0-4.6,2.2-4.6,4.5c0,2.5,2,4.6,4.6,4.6
		c2.5,0,4.5-2.1,4.5-4.6C210.2,10.8,208.1,8.7,205.7,8.7z M201.4,51.9l8.5,0l-0.1-30l-8.5,0L201.4,51.9z M228,33.3
		c-4.1-1.1-5.3-1.6-5.3-3.2c0-1,1.4-1.8,3.5-1.8c2.5,0,5.7,1,8.4,2.7l3.4-6c-3.3-2.2-7.5-3.7-11.8-3.7c-7.1,0-11.8,4.1-11.7,9.8
		c0.1,5.9,4.8,7.6,11,9.1c3.1,0.8,5.3,1.4,5.3,3.2c0,1.3-1.6,2.3-3.9,2.3c-4,0-7.4-1.4-10-3.3l-3.6,5.9c3.6,2.9,8.7,4.5,13.5,4.5
		c7.4,0,12.2-3.8,12.2-9.7C238.9,36.3,233.2,34.6,228,33.3z M187.4,51.9l8.5,0l-0.1-40.5l-8.5,0L187.4,51.9z M167.1,21.3
		c-8.9,0-16.4,7.2-16.4,15.7c0,8.5,7.5,15.7,16.4,15.7c8.9,0,16.3-7.2,16.3-15.7C183.4,28.4,176,21.3,167.1,21.3z M167.1,45.5
		c-4.5,0-8.3-3.9-8.3-8.6c0-4.6,3.8-8.5,8.3-8.5c4.5,0,8.2,3.9,8.2,8.5C175.4,41.6,171.6,45.5,167.1,45.5z M133.5,21.4
		c-4.2,0-7.6,1.8-10,4.9l0-4.2l-8.5,0l0.1,39.9l8.5,0l0-14.2c2.4,3.1,5.9,4.9,10,4.9c8,0,13.8-6.5,13.8-15.7
		C147.3,27.8,141.5,21.4,133.5,21.4z M131.1,45.6c-4.1,0-7.1-3-7.6-7.4l0-2.3c0.5-4.3,3.5-7.4,7.6-7.4c4.7,0,8,3.5,8,8.5
		C139.1,42.1,135.8,45.6,131.1,45.6z M19.4,29.8c1.7,0,3.2,0.6,4.5,1.5l6.6-5.1c-2.8-2.9-6.8-4.6-11.1-4.6c-7.6,0-14,5.5-15.4,12.7
		l8.1,1.6C12.7,32.5,15.8,29.8,19.4,29.8z M19.4,44.7c-3.6,0-6.6-2.6-7.3-6L4,40.3c1.4,7.2,7.8,12.7,15.4,12.7
		c4.4,0,8.3-1.8,11.1-4.7l-6.6-5.1C22.7,44.1,21.1,44.7,19.4,44.7z"/>
</g>
<line class="st2" x1="287.7" y1="10.5" x2="287.7" y2="63"/>
</svg>
