<?xml version="1.0" encoding="utf-8"?>
<!-- Generator: Adobe Illustrator 26.5.0, SVG Export Plug-In . SVG Version: 6.00 Build 0)  -->
<svg version="1.1" id="Layer_3" xmlns="http://www.w3.org/2000/svg" xmlns:xlink="http://www.w3.org/1999/xlink" x="0px" y="0px"
	 viewBox="0 0 1643.1 107.3" style="enable-background:new 0 0 1643.1 107.3;" xml:space="preserve">
<style type="text/css">
	.st0{fill:#FFFFFF;}
	.st1{fill:#27AAE1;}
	.st2{enable-background:new    ;}
</style>
<g>
	<g>
		<path class="st0" d="M1486.7,27.7h-49.3v12.8h48.3c3.8,0,6.9,3.1,6.9,6.9c0,3.7-2.9,6.7-6.5,6.9h-28.4V67h28.1
			c3.8,0,6.9,3.1,6.9,6.9c0,3.7-2.9,6.7-6.5,6.9h-48.9v12.7h37.3l15.6-0.6c8.8-2.1,15.1-9.9,15.1-19.1c0-5.1-2-9.7-5.2-13.2
			c3.2-3.5,5.2-8.2,5.2-13.3C1505.3,36.8,1497,28.2,1486.7,27.7"/>
		<path class="st0" d="M1552.9,27.6h-35.6v13.1h34.8c13.1,0,20.2,7.1,20.2,19.9c0,12.9-7,19.7-20.2,19.7h-20.8V54.1h-14v39.3h35.5
			c20.7,0,34.6-13.2,34.6-32.8C1587.5,40.8,1573.6,27.6,1552.9,27.6"/>
	</g>
	<g>
		<g>
			<g>
				<g>
					<g>
						<polygon class="st0" points="1243.2,80.6 1243.2,27.6 1228.4,27.6 1228.4,93.8 1288.5,93.8 1288.5,80.6 						"/>
						<polygon class="st0" points="1142.6,93.8 1188.4,93.8 1181.3,81 1164.8,81 1181,51.8 1204.3,93.8 1219.4,93.8 1181,24.6 
													"/>
						<rect x="1066" y="27.6" class="st0" width="67.2" height="13.2"/>
						<polygon class="st0" points="1066,54.3 1066,93.8 1133.2,93.8 1133.2,80.6 1080.1,80.6 1080.1,67.1 1133.2,67.1 1133.2,54.3 
													"/>
						<path class="st0" d="M1052.4,47.4c0-10.5-8.3-19.2-18.7-19.7h-49.6v12.8h48.5c3.8,0,6.9,3.1,6.9,6.9c0,3.7-2.9,6.7-6.6,6.9
							H984v12.8v26.7h14V67.1h23.5l18.6,26.7h16l-19-27.2C1046.1,64.5,1052.4,56.6,1052.4,47.4"/>
					</g>
				</g>
			</g>
		</g>
	</g>
	<path class="st1" d="M1353.7,27.6H1318v13.2h35c13.1,0,20.3,7.1,20.3,20c0,13-7,19.8-20.3,19.8h-20.9V54.3h-14v39.5h35.7
		c20.8,0,34.8-13.3,34.8-33C1388.5,40.9,1374.5,27.6,1353.7,27.6"/>
</g>
<g class="st2">
	<path class="st0" d="M25,30.5h15.3l15,39.9h0.2l15.3-39.9h14.4L60.1,91.4H49.4L25,30.5z"/>
	<path class="st0" d="M91.4,30.5h13.4v60.9H91.4V30.5z"/>
	<path class="st0" d="M111,30.5h15.3l15,39.9h0.2l15.3-39.9h14.4l-25.1,60.9h-10.8L111,30.5z"/>
	<path class="st0" d="M178.1,30.5h41.4v12.4h-28v11.4h26.4v12.4h-26.4V79H221v12.4h-42.9V30.5z"/>
	<path class="st0" d="M257.7,30.5h13.4V79H296v12.4h-38.3V30.5z"/>
	<path class="st0" d="M323.4,30.5h11.1L361,91.4h-15.1l-5.2-12.9H317l-5.1,12.9h-14.8L323.4,30.5z M328.6,48.2l-7.4,18.9h14.9
		L328.6,48.2z"/>
	<path class="st0" d="M392.6,30.5h22.6c3.2,0,6.1,0.3,8.9,0.9c2.8,0.6,5.3,1.6,7.4,3c2.1,1.4,3.8,3.3,5,5.7c1.2,2.4,1.8,5.4,1.8,9
		c0,3.6-0.6,6.5-1.7,8.9c-1.1,2.4-2.7,4.3-4.7,5.8c-2,1.4-4.4,2.5-7.1,3.1s-5.7,0.9-8.9,0.9H406v23.7h-13.4V30.5z M406,56.3h8.9
		c1.2,0,2.4-0.1,3.5-0.3c1.1-0.2,2.1-0.6,3-1.2c0.9-0.5,1.6-1.3,2.1-2.2c0.5-0.9,0.8-2.1,0.8-3.6c0-1.5-0.4-2.8-1.1-3.7
		c-0.7-0.9-1.6-1.7-2.8-2.2s-2.4-0.8-3.7-1c-1.4-0.1-2.7-0.2-4-0.2H406V56.3z"/>
	<path class="st0" d="M447.3,30.5h41.4v12.4h-28v11.4h26.4v12.4h-26.4V79h29.5v12.4h-42.9V30.5z"/>
	<path class="st0" d="M501.5,30.5h13.4V79h24.9v12.4h-38.3V30.5z"/>
	<path class="st0" d="M553.7,13.7h17.5L556.4,26h-11.4L553.7,13.7z M547,30.5h13.4v60.9H547V30.5z"/>
	<path class="st0" d="M612.4,46.3c-1.3-1.6-2.9-2.8-4.9-3.7c-1.9-0.9-4.1-1.3-6.7-1.3c-2.5,0-4.9,0.5-7,1.5c-2.1,1-4,2.3-5.6,4.1
		c-1.6,1.7-2.8,3.8-3.7,6.2c-0.9,2.4-1.3,5-1.3,7.8c0,2.9,0.4,5.5,1.3,7.9c0.9,2.4,2.1,4.4,3.7,6.2c1.5,1.8,3.4,3.1,5.5,4.1
		c2.1,1,4.3,1.5,6.8,1.5c2.8,0,5.2-0.6,7.3-1.7c2.1-1.1,3.9-2.8,5.2-4.8l11.2,8.3c-2.6,3.6-5.8,6.3-9.8,8c-4,1.7-8,2.6-12.2,2.6
		c-4.8,0-9.1-0.7-13.2-2.2c-4-1.5-7.5-3.6-10.4-6.4c-2.9-2.8-5.2-6.2-6.8-10.1c-1.6-4-2.5-8.4-2.5-13.2s0.8-9.3,2.5-13.2
		c1.6-4,3.9-7.3,6.8-10.1c2.9-2.8,6.4-4.9,10.4-6.4c4-1.5,8.4-2.2,13.2-2.2c1.7,0,3.5,0.2,5.4,0.5c1.9,0.3,3.7,0.8,5.5,1.5
		c1.8,0.7,3.5,1.6,5.2,2.8c1.7,1.1,3.2,2.6,4.5,4.2L612.4,46.3z"/>
	<path class="st0" d="M682.8,67.9c0,3.6-0.5,6.9-1.6,10c-1.1,3-2.7,5.7-4.9,7.9s-4.8,4-8,5.2c-3.2,1.3-6.9,1.9-11.1,1.9
		c-4.2,0-8-0.6-11.2-1.9s-5.9-3-8-5.2c-2.1-2.2-3.8-4.9-4.9-7.9c-1.1-3-1.6-6.4-1.6-10V30.5h13.4v36.9c0,1.9,0.3,3.6,0.9,5.2
		c0.6,1.6,1.4,3,2.5,4.2c1.1,1.2,2.4,2.1,3.9,2.8c1.5,0.7,3.2,1,4.9,1c1.8,0,3.4-0.3,4.9-1c1.5-0.7,2.8-1.6,3.9-2.8
		c1.1-1.2,1.9-2.6,2.5-4.2c0.6-1.6,0.9-3.4,0.9-5.2V30.5h13.4V67.9z"/>
	<path class="st0" d="M695.7,30.5h13.4V79H734v12.4h-38.3V30.5z"/>
	<path class="st0" d="M761.4,30.5h11.1L799,91.4h-15.1l-5.2-12.9H755l-5.1,12.9h-14.8L761.4,30.5z M766.6,48.2l-7.4,18.9h14.9
		L766.6,48.2z"/>
	<path class="st0" d="M831.1,30.5h41.4v12.4h-28v11.4h26.4v12.4h-26.4V79H874v12.4h-42.9V30.5z"/>
	<path class="st0" d="M884.8,30.5H903l25.9,42.3h0.2V30.5h13.4v60.9h-17.5l-26.6-43.3h-0.2v43.3h-13.4V30.5z"/>
</g>
</svg>
