<?xml version="1.0" encoding="utf-8"?>
<!-- Generator: Adobe Illustrator 26.5.0, SVG Export Plug-In . SVG Version: 6.00 Build 0)  -->
<svg version="1.1" id="Layer_1" xmlns="http://www.w3.org/2000/svg" xmlns:xlink="http://www.w3.org/1999/xlink" x="0px" y="0px"
	 viewBox="0 0 416 269" style="enable-background:new 0 0 416 269;" xml:space="preserve">
<style type="text/css">
	.st0{fill:#FFFFFF;}
	.st1{fill:#FF8300;}
	.st2{fill:#435563;}
	.st3{fill:url(#SVGID_1_);}
	.st4{fill:none;stroke:#435563;stroke-width:4;stroke-linecap:round;stroke-miterlimit:10;}
	.st5{fill:url(#SVGID_00000134967268415384097120000015955286129347177098_);}
	.st6{fill:url(#SVGID_00000021078746290274033790000003411386884370109824_);}
</style>
<path class="st0" d="M0,269C0,269,216,78,416,0H1L0,269z"/>
<g>
	<path class="st1" d="M21.91,33.06h-2.18v-2.22h2.78l0.94-3.55h2.3l-0.96,3.55h2.82l0.96-3.55h2.28l-0.96,3.55h1.32v2.22h-1.9
		l-0.66,2.48h2.16v2.22h-2.75L27,41.59h-2.28l1.04-3.83h-2.83l-1.02,3.83h-2.3l1.04-3.83h-1.32v-2.22h1.92L21.91,33.06z
		 M27.06,32.94H24.2l-0.72,2.72h2.82L27.06,32.94z"/>
	<path class="st2" d="M41.15,40.11h-8.41V27.63h3.17v9.82h5.23V40.11z"/>
	<path class="st2" d="M50.82,31.84c0.92,0.88,1.38,2.08,1.38,3.59s-0.48,2.73-1.44,3.62c-0.96,0.9-2.16,1.35-3.59,1.35
		s-2.62-0.44-3.54-1.31c-0.92-0.87-1.39-2.07-1.39-3.6c0-1.53,0.48-2.74,1.44-3.63c0.96-0.89,2.16-1.34,3.61-1.34
		C48.72,30.53,49.9,30.96,50.82,31.84z M49.14,35.46c0-0.8-0.17-1.43-0.51-1.9c-0.34-0.47-0.82-0.7-1.43-0.7s-1.08,0.23-1.42,0.7
		c-0.33,0.47-0.5,1.1-0.5,1.92c0,0.8,0.17,1.43,0.5,1.89c0.33,0.46,0.81,0.69,1.44,0.69c0.63,0,1.1-0.23,1.43-0.69
		S49.14,36.27,49.14,35.46z"/>
	<path class="st2" d="M65.75,40.11l-0.06-9.62l-2.74,9.42h-3.39l-2.74-9.4l-0.08,9.6h-2.96l0.44-12.48h4.49l2.6,9.36l2.6-9.36h4.43
		l0.42,12.48H65.75z"/>
	<path class="st2" d="M73.4,36.16v0.04c0.05,0.63,0.29,1.11,0.71,1.45c0.42,0.34,1,0.51,1.75,0.51c0.99,0,2-0.3,3.04-0.9l0.3,2.38
		c-0.99,0.51-2.19,0.76-3.61,0.76c-1.6,0-2.86-0.43-3.79-1.28s-1.4-2.04-1.4-3.57c0-1.5,0.47-2.72,1.4-3.63
		c0.93-0.92,2.14-1.38,3.63-1.38c1.29,0,2.29,0.35,3,1.06c0.71,0.71,1.07,1.65,1.07,2.83c0,0.65-0.07,1.2-0.2,1.64L73.4,36.16z
		 M73.42,34.62l3.21-0.02v-0.18c0-1.18-0.47-1.78-1.42-1.78c-0.51,0-0.92,0.19-1.24,0.57C73.66,33.59,73.47,34.06,73.42,34.62z"/>
	<path class="st2" d="M81.35,44.94l-1.76-2.08c0.6-0.28,1.02-0.64,1.27-1.09c0.25-0.45,0.37-1.14,0.37-2.09v-0.02v-0.02v-0.02v-0.02
		v-0.02v-0.02v-0.02v-0.02v-0.02v-0.02v-0.02v-0.02v-0.02v-0.02v-0.02v-0.02v-0.02v-0.02v-0.02v-0.02v-0.02v-0.02v-0.02v-0.02v-0.02
		v-0.02v-0.02v-0.02v-0.02v-0.02v-0.02v-0.02v-0.02v-0.02v-0.02v-0.02v-0.02v-0.02v-0.02v-0.02v-0.02v-0.02v-0.02v-0.02v-0.02v-0.02
		v-0.02v-0.02v-0.02v-0.02v-0.02v-0.02v-0.02v-0.02v-0.02v-0.02v-0.02v-0.02v-0.02v-0.02v-0.02v-0.02v-0.02v-0.02v-0.02v-0.02v-0.02
		v-0.02v-0.02v-0.02v-0.02v-0.02v-0.02v-0.02v-0.02v-0.02v-0.02v-0.02v-0.02v-0.02v-0.02v-0.02v-0.02v-0.02v-0.02v-0.02v-0.02v-0.04
		v-0.02v-0.02v-0.02v-0.02v-0.02v-0.02v-0.02v-0.02v-0.04v-0.02v-0.02v-0.02v-0.02v-0.02v-0.04v-0.02v-0.02v-0.02v-0.02v-0.04v-0.02
		v-0.02v-0.02v-0.02v-0.04v-0.02v-0.02v-0.02v-0.02v-0.04v-0.02v-0.02v-0.02v-0.04v-0.02v-0.02v-0.02v-0.04V37v-0.02v-0.04v-0.02
		v-0.02v-0.02v-0.04v-0.02v-0.02v-0.04v-0.02v-0.02v-0.04v-0.02v-0.02V36.6v-0.02v-0.02v-0.04V36.5v-0.02v-0.04v-0.02V36.4v-0.04
		v-0.02V36.3v-0.02v-0.02v-0.04V36.2v-0.02v-0.04v-0.02v-0.04v-0.02v-0.02V36v-0.02v-0.04v-0.02v-0.04v-0.02v-0.02V35.8v-0.02v-0.04
		v-0.02v-0.04v-0.02v-0.04V35.6v-0.04v-0.02V35.5v-0.02v-0.04v-0.02V35.4v-0.04v-0.02V35.3v-0.02v-0.04V35.2v-0.02v-0.04v-0.02
		v-0.04v-0.02v-0.04V35v-0.04v-0.02V34.9v-0.02v-0.04v-0.02v-0.04v-0.04v-0.02v-0.04v-0.02v-0.04V34.6v-0.04v-0.04V34.5v-0.04v-0.02
		V34.4v-0.04v-0.02V34.3v-0.02v-0.04V34.2v-0.02v-0.04V34.1v-0.02v-0.04v-0.02v-0.04v-0.04v-0.02v-0.04v-0.04v-0.02v-0.04v-0.04
		v-0.02v-0.04v-0.04v-0.02v-0.04v-0.04v-0.02v-0.04v-0.04v-0.02v-0.04v-0.04v-0.02v-0.04v-0.04V33.2v-0.02v-0.04V33.1v-0.02v-0.04
		V33v-0.04v-0.02V32.9v-0.04v-0.04V32.8v-0.04v-0.04v-0.04v-0.02v-0.04v-0.04v-0.04v-0.02v-0.04v-0.04V32.4v-0.04v-0.02V32.3v-0.04
		v-0.04v-0.04v-0.02v-0.04v-0.04v-0.04V32v-0.02v-0.04V31.9v-0.04v-0.04v-0.04v-0.02v-0.04v-0.04v-0.04V31.6v-0.04v-0.04V31.5v-0.04
		v-0.04v-0.04v-0.04V31.3v-0.04v-0.02V31.2v-0.04v-0.18l3.07-0.38v0.02v0.02v0.02v0.02v0.02v0.02v0.02v0.02v0.02v0.02v0.02v0.02
		v0.02v0.02v0.02v0.02v0.02v0.02v0.02V31v0.02v0.02v0.02v0.02v0.02v0.02v0.02v0.02v0.02v0.02v0.02v0.02v0.02v0.02v0.02v0.02v0.02
		v0.02v0.02v0.02v0.02v0.02v0.02v0.02v0.02v0.02v0.02v0.02v0.02v0.02v0.02v0.02v0.02v0.02v0.02v0.02v0.02v0.02v0.02v0.02v0.02v0.02
		v0.02v0.02v0.02v0.02v0.02v0.02v0.02V32v0.02v0.02v0.02v0.02v0.02v0.02v0.02v0.02v0.02v0.02v0.02v0.02v0.02v0.02v0.02v0.02v0.02
		v0.02v0.02v0.02v0.02v0.04v0.02v0.02v0.02v0.02v0.02v0.02v0.02v0.04v0.02v0.02v0.02v0.02v0.02v0.02v0.04v0.02v0.02v0.02v0.02v0.04
		v0.02v0.02v0.02V33v0.04v0.02v0.02v0.02v0.02v0.04v0.02v0.02v0.02v0.04v0.02v0.02v0.02v0.04v0.02v0.02v0.02v0.04v0.02v0.02v0.04
		v0.02v0.02v0.04v0.02v0.02v0.02v0.04v0.02v0.02v0.04v0.02v0.02v0.04v0.02v0.02v0.04v0.02v0.04v0.02v0.02v0.04v0.02v0.02v0.04v0.02
		v0.04v0.02v0.02v0.04v0.02v0.04v0.02v0.02v0.04v0.02v0.04v0.02v0.04v0.02v0.02v0.04v0.02v0.04v0.02v0.04v0.02v0.04v0.02v0.04v0.02
		v0.02v0.04V35v0.04v0.02v0.04v0.02v0.04v0.02v0.04v0.02v0.04v0.04v0.02v0.04v0.02v0.04v0.02v0.04v0.02v0.04v0.02v0.04v0.02v0.04
		v0.04v0.02v0.04v0.02v0.04v0.02v0.04v0.04v0.02V36v0.02v0.04v0.04v0.02v0.04v0.02v0.04v0.04v0.02v0.04v0.02v0.04v0.04v0.02v0.04
		v0.04v0.02v0.04v0.04v0.02v0.04v0.04v0.02v0.04v0.04v0.02v0.04v0.04v0.02v0.04v0.04v0.02v0.04v0.04v0.02v0.04v0.04v0.04v0.02v0.04
		v0.04v0.02v0.04v0.04v0.04v0.02v0.04v0.04v0.04v0.02v0.04v0.04v0.04v0.02v0.04v0.04v0.04v0.04v0.02v0.04v0.04v0.04v0.04v0.02v0.04
		v0.04v0.04v0.04v0.02v0.04v0.04v0.04v0.04v0.02v0.04v0.04v0.04v0.04v0.04v0.04v0.02v0.04v0.04v0.04v0.04v0.04v0.04v0.04v0.02v0.04
		v0.04v0.04v0.04v0.04v0.04v0.04v0.04v0.04v0.04v0.04v0.04v0.04v0.02v0.04v0.04v0.2c0,1.4-0.23,2.5-0.68,3.29
		C83.17,43.98,82.41,44.57,81.35,44.94z M84.58,27.87c0,0.52-0.16,0.92-0.48,1.21s-0.77,0.43-1.34,0.43s-1.02-0.14-1.34-0.43
		s-0.48-0.69-0.48-1.21c0-0.53,0.16-0.94,0.48-1.23s0.77-0.43,1.34-0.43s1.02,0.14,1.34,0.43S84.58,27.34,84.58,27.87z"/>
	<path class="st2" d="M94.56,31.84c0.92,0.88,1.38,2.08,1.38,3.59s-0.48,2.73-1.44,3.62c-0.96,0.9-2.16,1.35-3.59,1.35
		s-2.62-0.44-3.54-1.31c-0.93-0.87-1.39-2.07-1.39-3.6c0-1.53,0.48-2.74,1.44-3.63c0.96-0.89,2.16-1.34,3.61-1.34
		C92.47,30.53,93.65,30.96,94.56,31.84z M92.89,35.46c0-0.8-0.17-1.43-0.51-1.9c-0.34-0.47-0.82-0.7-1.43-0.7
		c-0.61,0-1.09,0.23-1.42,0.7c-0.33,0.47-0.5,1.1-0.5,1.92c0,0.8,0.17,1.43,0.5,1.89c0.33,0.46,0.81,0.69,1.44,0.69
		c0.62,0,1.1-0.23,1.43-0.69S92.89,36.27,92.89,35.46z"/>
	<path class="st2" d="M100.71,34.7v5.41h-3.08v-9.12l3.08-0.38v1.36c0.55-0.96,1.29-1.44,2.24-1.44c0.53,0,1.04,0.13,1.54,0.38
		l-0.62,2.71c-0.37-0.19-0.76-0.28-1.16-0.28C101.9,33.34,101.23,33.79,100.71,34.7z"/>
	<path class="st2" d="M114.97,40.11h-9.12V27.63h9.12v2.56h-6.01v2.4h4.83v2.54h-4.83v2.44h6.01V40.11z"/>
	<path class="st2" d="M126.07,40.11H123v-5.49c0-0.53-0.11-0.91-0.33-1.14s-0.55-0.34-0.99-0.34c-0.6,0-1.16,0.23-1.68,0.7v6.27
		h-3.08v-9.12l3.08-0.38v1.52c0.93-1.07,1.97-1.6,3.11-1.6c0.92,0,1.64,0.28,2.17,0.85c0.53,0.57,0.79,1.35,0.79,2.35V40.11z"/>
	<path class="st2" d="M138.75,28.27l-0.96,2.66c-1.01-0.6-2.06-0.9-3.16-0.9c-1.08,0-1.94,0.34-2.58,1.03
		c-0.65,0.69-0.97,1.61-0.97,2.79c0,1.2,0.32,2.14,0.95,2.83c0.63,0.69,1.51,1.04,2.63,1.04c1.17,0,2.27-0.34,3.29-1.02l0.66,2.82
		c-1.09,0.6-2.46,0.9-4.09,0.9c-2.04,0-3.65-0.57-4.84-1.7s-1.79-2.73-1.79-4.79c0-2.01,0.61-3.61,1.82-4.8s2.85-1.79,4.91-1.79
		C136.09,27.33,137.47,27.64,138.75,28.27z"/>
	<path class="st2" d="M145.52,38.99h-0.06c-0.8,0.95-1.69,1.42-2.68,1.42c-0.8,0-1.47-0.25-2.02-0.75s-0.82-1.11-0.82-1.83
		c0-2.09,1.83-3.19,5.49-3.29v-0.18c0-0.49-0.13-0.85-0.39-1.08s-0.68-0.34-1.25-0.34c-0.85,0-1.9,0.31-3.15,0.94L140,31.62
		c1.38-0.73,2.81-1.1,4.27-1.1c1.54,0,2.64,0.34,3.29,1.01s0.96,1.69,0.94,3.04l-0.02,2.75c0,0.31,0.04,0.5,0.13,0.59
		c0.09,0.09,0.3,0.14,0.63,0.17l-0.3,2.2C147.11,40.53,145.97,40.1,145.52,38.99z M145.44,37.75v-1.78
		c-0.96,0.11-1.63,0.26-2.02,0.47c-0.39,0.21-0.58,0.52-0.58,0.93c0,0.29,0.11,0.53,0.32,0.72s0.49,0.28,0.84,0.28
		C144.58,38.37,145.06,38.17,145.44,37.75z"/>
	<path class="st2" d="M156.74,30.87v-3.95l3.07-0.38v13.58h-3.07v-0.96c-0.8,0.83-1.66,1.24-2.6,1.24c-1.16,0-2.11-0.44-2.86-1.32
		c-0.75-0.88-1.12-2.04-1.12-3.49c0-1.49,0.45-2.7,1.36-3.63s2-1.4,3.29-1.4C155.49,30.55,156.12,30.65,156.74,30.87z M156.74,33.22
		c-0.37-0.27-0.85-0.4-1.42-0.4c-0.64,0-1.14,0.24-1.52,0.71c-0.37,0.47-0.56,1.1-0.56,1.89c0,0.77,0.18,1.38,0.54,1.84
		c0.36,0.45,0.83,0.68,1.4,0.68c0.61,0,1.13-0.21,1.56-0.64v-0.02v-0.02v-0.02v-0.02v-0.02v-0.02v-0.02v-0.02v-0.02v-0.02v-0.02
		v-0.02v-0.02v-0.02V37v-0.02v-0.02v-0.02v-0.02v-0.02v-0.02v-0.02v-0.02v-0.02v-0.02v-0.02v-0.02v-0.02v-0.02V36.7v-0.02v-0.02
		v-0.02v-0.02V36.6v-0.02v-0.02v-0.02v-0.02V36.5v-0.02v-0.02v-0.02v-0.02v-0.04v-0.02v-0.02v-0.02V36.3v-0.02v-0.04v-0.02V36.2
		v-0.02v-0.02v-0.04V36.1v-0.02v-0.02v-0.04V36v-0.02v-0.04v-0.02V35.9v-0.04v-0.02v-0.02v-0.04v-0.02v-0.02V35.7v-0.02v-0.02v-0.04
		V35.6v-0.04v-0.02V35.5v-0.02v-0.02v-0.04V35.4v-0.04v-0.02V35.3v-0.02v-0.04v-0.02v-0.04v-0.02v-0.04V35.1v-0.04v-0.02V35v-0.04
		v-0.02V34.9v-0.02v-0.04v-0.02v-0.04v-0.04v-0.02v-0.04v-0.04v-0.02v-0.04v-0.02v-0.04v-0.04v-0.02v-0.04v-0.04v-0.02v-0.04v-0.04
		v-0.04v-0.02v-0.04v-0.04v-0.02v-0.04v-0.04V34v-0.02v-0.04V33.9v-0.04v-0.02V33.8v-0.04v-0.04v-0.04v-0.02v-0.04v-0.04v-0.04V33.5
		v-0.04v-0.02V33.4V33.22z"/>
	<path class="st2" d="M167.1,38.99h-0.06c-0.8,0.95-1.69,1.42-2.68,1.42c-0.8,0-1.47-0.25-2.02-0.75s-0.82-1.11-0.82-1.83
		c0-2.09,1.83-3.19,5.49-3.29v-0.18c0-0.49-0.13-0.85-0.39-1.08c-0.26-0.23-0.68-0.34-1.25-0.34c-0.85,0-1.9,0.31-3.16,0.94
		l-0.64-2.26c1.38-0.73,2.81-1.1,4.27-1.1c1.54,0,2.64,0.34,3.29,1.01c0.65,0.67,0.96,1.69,0.94,3.04l-0.02,2.75
		c0,0.31,0.04,0.5,0.13,0.59c0.09,0.09,0.3,0.14,0.63,0.17l-0.3,2.2C168.7,40.53,167.55,40.1,167.1,38.99z M167.02,37.75v-1.78
		c-0.96,0.11-1.63,0.26-2.02,0.47c-0.39,0.21-0.58,0.52-0.58,0.93c0,0.29,0.11,0.53,0.32,0.72s0.49,0.28,0.84,0.28
		C166.17,38.37,166.65,38.17,167.02,37.75z"/>
	<path class="st2" d="M181.55,40.11h-9.12V27.63h9.12v2.56h-6.01v2.4h4.83v2.54h-4.83v2.44h6.01V40.11z"/>
	<path class="st2" d="M192.42,40.11h-3.25l-1.78-2.97l-1.76,2.97h-3.31l3.19-4.73l-3.12-4.55h3.25l1.72,2.68l1.66-2.68h3.27
		l-3.07,4.51L192.42,40.11z"/>
	<path class="st2" d="M196.51,31.78c0.81-0.84,1.68-1.26,2.6-1.26c1.16,0,2.11,0.44,2.86,1.32c0.75,0.88,1.12,2.05,1.12,3.51
		c0,1.49-0.45,2.7-1.36,3.63c-0.91,0.93-2,1.4-3.29,1.4c-0.64,0-1.28-0.1-1.92-0.3v4.15h-3.07V30.98l3.07-0.38V31.78z M196.51,33.62
		v0.02v0.02v0.02v0.02v0.02v0.02v0.02v0.02v0.02v0.02v0.02v0.02v0.02v0.02v0.02v0.02v0.02v0.02V34v0.02v0.02v0.02v0.02v0.02v0.02
		v0.02v0.02v0.02v0.02v0.02v0.02v0.02v0.02v0.02v0.02v0.02v0.02v0.02v0.02v0.02v0.04v0.02v0.02v0.02v0.02v0.02v0.02v0.02v0.04v0.02
		v0.02v0.02v0.02v0.04v0.02v0.02v0.02v0.04v0.02v0.02v0.02v0.04v0.02V35v0.04v0.02v0.02v0.04v0.02v0.02v0.04v0.02v0.04v0.02v0.02
		v0.04v0.02v0.04v0.02v0.02v0.04v0.02v0.04v0.02v0.04v0.02v0.04v0.02v0.04v0.02v0.04v0.02v0.04v0.02v0.04v0.02v0.04V36v0.02v0.04
		v0.02v0.04v0.02v0.04v0.04v0.02v0.04v0.04v0.02v0.04v0.04v0.02v0.04v0.04v0.02v0.04v0.04v0.02v0.04v0.04v0.02v0.04v0.04v0.04v0.02
		v0.04v0.04V37v0.02v0.04v0.04v0.04v0.02v0.04v0.04v0.04v0.04v0.02v0.04v0.04v0.04v0.04v0.04v0.18c0.37,0.25,0.85,0.38,1.42,0.38
		c0.65,0,1.16-0.23,1.53-0.7c0.37-0.47,0.55-1.09,0.55-1.88c0-0.8-0.17-1.42-0.5-1.87s-0.81-0.67-1.44-0.67
		C197.49,32.98,196.97,33.19,196.51,33.62z"/>
	<path class="st2" d="M207.33,36.16v0.04c0.05,0.63,0.29,1.11,0.71,1.45c0.42,0.34,1,0.51,1.75,0.51c0.99,0,2-0.3,3.04-0.9l0.3,2.38
		c-0.99,0.51-2.19,0.76-3.61,0.76c-1.6,0-2.86-0.43-3.79-1.28s-1.4-2.04-1.4-3.57c0-1.5,0.47-2.72,1.4-3.63
		c0.93-0.92,2.14-1.38,3.63-1.38c1.29,0,2.29,0.35,3,1.06c0.71,0.71,1.07,1.65,1.07,2.83c0,0.65-0.07,1.2-0.2,1.64L207.33,36.16z
		 M207.35,34.62l3.21-0.02v-0.18c0-1.18-0.47-1.78-1.42-1.78c-0.51,0-0.92,0.19-1.24,0.57C207.59,33.59,207.4,34.06,207.35,34.62z"
		/>
	<path class="st2" d="M218.23,34.7v5.41h-3.07v-9.12l3.07-0.38v1.36c0.55-0.96,1.29-1.44,2.24-1.44c0.53,0,1.04,0.13,1.54,0.38
		l-0.62,2.71c-0.37-0.19-0.76-0.28-1.16-0.28C219.42,33.34,218.75,33.79,218.23,34.7z"/>
	<path class="st2" d="M226.52,27.87c0,0.52-0.16,0.92-0.48,1.21c-0.32,0.29-0.77,0.43-1.34,0.43c-0.57,0-1.02-0.14-1.34-0.43
		s-0.48-0.69-0.48-1.21c0-0.53,0.16-0.94,0.48-1.23s0.76-0.43,1.34-0.43c0.57,0,1.02,0.14,1.34,0.43
		C226.36,26.93,226.52,27.34,226.52,27.87z M226.24,40.11h-3.08v-9.12l3.08-0.38V40.11z"/>
	<path class="st2" d="M230.95,36.16v0.04c0.05,0.63,0.29,1.11,0.71,1.45c0.42,0.34,1,0.51,1.75,0.51c0.98,0,2-0.3,3.03-0.9l0.3,2.38
		c-0.99,0.51-2.19,0.76-3.61,0.76c-1.6,0-2.86-0.43-3.79-1.28s-1.4-2.04-1.4-3.57c0-1.5,0.47-2.72,1.4-3.63
		c0.93-0.92,2.14-1.38,3.63-1.38c1.29,0,2.29,0.35,3,1.06c0.71,0.71,1.07,1.65,1.07,2.83c0,0.65-0.07,1.2-0.2,1.64L230.95,36.16z
		 M230.97,34.62l3.21-0.02v-0.18c0-1.18-0.47-1.78-1.42-1.78c-0.51,0-0.92,0.19-1.24,0.57C231.21,33.59,231.02,34.06,230.97,34.62z"
		/>
	<path class="st2" d="M247.92,40.11h-3.07v-5.49c0-0.53-0.11-0.91-0.33-1.14s-0.55-0.34-0.99-0.34c-0.6,0-1.16,0.23-1.68,0.7v6.27
		h-3.08v-9.12l3.08-0.38v1.52c0.93-1.07,1.97-1.6,3.11-1.6c0.92,0,1.64,0.28,2.17,0.85c0.53,0.57,0.79,1.35,0.79,2.35V40.11z"/>
	<path class="st2" d="M258,39.65c-0.83,0.51-1.96,0.76-3.39,0.76c-1.56,0-2.79-0.42-3.68-1.27c-0.9-0.84-1.35-2.05-1.35-3.6
		c0-1.53,0.46-2.75,1.39-3.65c0.92-0.9,2.17-1.36,3.72-1.36c1.34,0,2.47,0.26,3.37,0.78l-0.6,2.32c-0.84-0.48-1.66-0.72-2.46-0.72
		c-0.72,0-1.28,0.23-1.69,0.7c-0.41,0.47-0.61,1.08-0.61,1.84c0,0.81,0.21,1.44,0.64,1.9c0.43,0.45,1,0.68,1.74,0.68
		c0.88,0,1.7-0.23,2.46-0.7L258,39.65z"/>
	<path class="st2" d="M263.08,27.87c0,0.52-0.16,0.92-0.48,1.21c-0.32,0.29-0.77,0.43-1.34,0.43c-0.57,0-1.02-0.14-1.34-0.43
		s-0.48-0.69-0.48-1.21c0-0.53,0.16-0.94,0.48-1.23s0.76-0.43,1.34-0.43c0.57,0,1.02,0.14,1.34,0.43
		C262.92,26.93,263.08,27.34,263.08,27.87z M262.8,40.11h-3.08v-9.12l3.08-0.38V40.11z"/>
	<path class="st2" d="M270.06,38.99H270c-0.8,0.95-1.69,1.42-2.68,1.42c-0.8,0-1.47-0.25-2.02-0.75s-0.82-1.11-0.82-1.83
		c0-2.09,1.83-3.19,5.49-3.29v-0.18c0-0.49-0.13-0.85-0.39-1.08s-0.68-0.34-1.25-0.34c-0.85,0-1.9,0.31-3.15,0.94l-0.64-2.26
		c1.38-0.73,2.81-1.1,4.27-1.1c1.54,0,2.64,0.34,3.29,1.01s0.96,1.69,0.94,3.04l-0.02,2.75c0,0.31,0.04,0.5,0.13,0.59
		c0.09,0.09,0.3,0.14,0.63,0.17l-0.3,2.2C271.66,40.53,270.52,40.1,270.06,38.99z M269.98,37.75v-1.78
		c-0.96,0.11-1.63,0.26-2.02,0.47c-0.39,0.21-0.58,0.52-0.58,0.93c0,0.29,0.11,0.53,0.32,0.72s0.49,0.28,0.84,0.28
		C269.13,38.37,269.61,38.17,269.98,37.75z"/>
</g>
<g>
	<circle class="st2" cx="79.32" cy="117.81" r="37.89"/>
	
		<linearGradient id="SVGID_1_" gradientUnits="userSpaceOnUse" x1="-1267.7748" y1="79.5102" x2="-1267.7748" y2="155.5553" gradientTransform="matrix(-1 0 0 1 -1188.4546 0)">
		<stop  offset="0" style="stop-color:#415364;stop-opacity:0"/>
		<stop  offset="1" style="stop-color:#415364"/>
	</linearGradient>
	<circle class="st3" cx="79.32" cy="117.81" r="37.89"/>
	<g>
		<g>
			<circle class="st1" cx="66.14" cy="107.26" r="6.36"/>
			<circle class="st1" cx="92.44" cy="107.26" r="6.36"/>
			<rect x="64.86" y="105.14" class="st1" width="26.74" height="4.24"/>
		</g>
		<g id="XMLID_00000059272303566003934100000012509605381464482228_">
			<path class="st0" d="M94.17,124.38c-0.55,0.55-1.29,0.55-1.54,0.55h-5.66v-3.55h5.66c0.48,0,1.16,0.1,1.6,0.58
				c0.3,0.33,0.48,0.79,0.48,1.19C94.72,123.58,94.52,124.04,94.17,124.38 M98.39,119.53c-1.35-1.44-3.33-2.15-6.07-2.15H81.78
				v17.69h5.2v-6.14h5.34c2.67,0,4.56-0.64,5.95-1.99c1.04-1.01,1.62-2.35,1.62-3.79C99.88,121.82,99.37,120.57,98.39,119.53"/>
		</g>
		<g id="XMLID_00000030450035576190152910000013846656305951029675_">
			<path class="st0" d="M78.47,131.18c-1.63-1.54-4.18-0.03-4.18-0.03c-1.2,0.58-2.4,0.9-3.49,0.9c-3.49,0-6.02-2.26-6.02-5.36
				c0-3.09,2.46-5.33,5.86-5.33c1.17,0,2.54,0.36,3.83,0.95c0,0,1.96,1.08,3.5-0.7l1.29-1.31c-2.63-1.82-6.09-2.9-9.31-2.9
				c-5.89,0-10.33,4-10.33,9.3c0,5.37,4.4,9.26,10.46,9.26c4.71,0,8.09-2.11,9.75-3.45L78.47,131.18z"/>
		</g>
	</g>
	<path class="st2" d="M79.32,167c-27.12,0-49.19-22.07-49.19-49.19c0-27.12,22.07-49.19,49.19-49.19c8.82,0,17.47,2.36,25.02,6.83
		c0.87,0.51,1.15,1.63,0.64,2.5c-0.51,0.87-1.63,1.15-2.5,0.64c-6.99-4.13-15-6.32-23.16-6.32c-25.11,0-45.55,20.43-45.55,45.55
		s20.43,45.55,45.55,45.55c5.49,0,10.85-0.96,15.94-2.87c3.61-1.35,7.05-3.16,10.22-5.39c0.82-0.58,1.96-0.38,2.54,0.44
		c0.58,0.82,0.38,1.96-0.44,2.54c-3.42,2.4-7.14,4.36-11.04,5.82C91.04,165.96,85.24,167,79.32,167z"/>
	<path class="st2" d="M79.32,167c-27.12,0-49.19-22.07-49.19-49.19c0-27.12,22.07-49.19,49.19-49.19c8.82,0,17.47,2.36,25.02,6.83
		c0.87,0.51,1.15,1.63,0.64,2.5c-0.51,0.87-1.63,1.15-2.5,0.64c-6.99-4.13-15-6.32-23.16-6.32c-25.11,0-45.55,20.43-45.55,45.55
		s20.43,45.55,45.55,45.55c5.49,0,10.85-0.96,15.94-2.87c3.61-1.35,7.05-3.16,10.22-5.39c0.82-0.58,1.96-0.38,2.54,0.44
		c0.58,0.82,0.38,1.96-0.44,2.54c-3.42,2.4-7.14,4.36-11.04,5.82C91.04,165.96,85.24,167,79.32,167z"/>
	<circle class="st1" cx="114.3" cy="151.25" r="4.37"/>
	<path class="st2" d="M19.06,115.54c0.95-33.14,28.68-59.33,61.82-58.38c20,0.57,38.34,11.01,49.07,27.92
		c0.54,0.85,0.29,1.98-0.56,2.51c-0.85,0.54-1.98,0.29-2.51-0.56c-10.08-15.89-27.32-25.7-46.1-26.23
		c-31.13-0.89-57.18,23.71-58.07,54.84c-0.22,7.62,1.06,15.06,3.81,22.1c0.36,0.93-0.1,1.99-1.04,2.36
		c-0.94,0.37-1.99-0.1-2.36-1.04C20.19,131.57,18.82,123.66,19.06,115.54z"/>
	<path class="st4" d="M36.9,76.61"/>
	<circle class="st1" cx="133.59" cy="96.61" r="6.35"/>
	
		<linearGradient id="SVGID_00000173155340713386649970000003024059541207721106_" gradientUnits="userSpaceOnUse" x1="114.8753" y1="147.2693" x2="113.5854" y2="156.1371">
		<stop  offset="0" style="stop-color:#FF8300;stop-opacity:0"/>
		<stop  offset="1" style="stop-color:#FF8300"/>
	</linearGradient>
	<circle style="fill:url(#SVGID_00000173155340713386649970000003024059541207721106_);" cx="114.3" cy="151.25" r="4.37"/>
	
		<linearGradient id="SVGID_00000045612774761445719190000003343811358118086554_" gradientUnits="userSpaceOnUse" x1="-360.5428" y1="510.6932" x2="-347.8477" y2="510.6932" gradientTransform="matrix(-0.0286 0.9996 -0.9996 -0.0286 633.9248 465.2923)">
		<stop  offset="0" style="stop-color:#FF8300;stop-opacity:0"/>
		<stop  offset="1" style="stop-color:#FF8300"/>
	</linearGradient>
	<circle style="fill:url(#SVGID_00000045612774761445719190000003343811358118086554_);" cx="133.59" cy="96.61" r="6.35"/>
</g>
</svg>
