<?xml version="1.0" encoding="UTF-8"?><svg id="a" xmlns="http://www.w3.org/2000/svg" viewBox="0 0 160 160"><path d="M142.8569,0H17.1427C7.6786,0,0,7.6785,0,17.1428v125.7141C0,152.3214,7.6786,160,17.1427,160h125.7141c9.4646,0,17.1431-7.6786,17.1431-17.1431V17.1428c0-9.4643-7.6785-17.1428-17.1431-17.1428ZM62.3846,99.7894c2.1996,2.0159,2.3481,5.4338,.3319,7.6334s-5.4338,2.3478-7.6333,.3315l-24.1951-22.1786c-3.2703-2.9979-3.2703-8.1533,0-11.1512l24.1951-22.1788c2.1995-2.0162,5.6171-1.8677,7.6333,.3318s1.8677,5.6171-.3319,7.6334l-21.588,19.7892,21.588,19.7894Zm31.587-53.0563l-17.2886,69.1545c-.7239,2.8946-3.657,4.6545-6.5518,3.931-2.8948-.724-4.6548-3.657-3.931-6.5519l17.2885-69.1543c.724-2.8948,3.657-4.6547,6.552-3.9311,2.8945,.7237,4.6545,3.657,3.9309,6.5518Zm35.1404,38.8425l-24.1953,22.1786c-2.1995,2.0163-5.6171,1.868-7.6333-.3315-2.0159-2.1995-1.8677-5.6175,.3319-7.6334l21.5884-19.7894-21.5884-19.7892c-2.1996-2.0163-2.3478-5.4338-.3315-7.6334,2.0159-2.1995,5.4335-2.3481,7.6329-.3318l24.1953,22.1788c3.2703,2.9979,3.2703,8.1533,0,11.1512Z" style="fill:#fff;"/></svg>